<svg width="48" height="48" viewBox="0 0 48 48" fill="none" xmlns="http://www.w3.org/2000/svg">
<path d="M13.907 44.0909L13.8721 45.5905H13.8721L13.907 44.0909ZM17 14.5C16.1716 14.5 15.5 15.1716 15.5 16C15.5 16.8284 16.1716 17.5 17 17.5V14.5ZM31 17.5C31.8284 17.5 32.5 16.8284 32.5 16C32.5 15.1716 31.8284 14.5 31 14.5V17.5ZM17 32.5C16.1716 32.5 15.5 33.1716 15.5 34C15.5 34.8284 16.1716 35.5 17 35.5V32.5ZM17 23.5C16.1716 23.5 15.5 24.1716 15.5 25C15.5 25.8284 16.1716 26.5 17 26.5V23.5ZM28 26.5C28.8284 26.5 29.5 25.8284 29.5 25C29.5 24.1716 28.8284 23.5 28 23.5V26.5ZM19 0.5C18.1716 0.5 17.5 1.17157 17.5 2C17.5 2.82843 18.1716 3.5 19 3.5V0.5ZM29 3.5C29.8284 3.5 30.5 2.82843 30.5 2C30.5 1.17157 29.8284 0.5 29 0.5V3.5ZM14 8.5H34V5.5H14V8.5ZM11.5 40.0919V11H8.5V40.0919H11.5ZM31.5349 43.0004L13.9419 42.5913L13.8721 45.5905L31.4651 45.9996L31.5349 43.0004ZM36.5 11V23H39.5V11H36.5ZM8.5 40.0919C8.5 43.0797 10.8852 45.521 13.8721 45.5905L13.9419 42.5913C12.5842 42.5597 11.5 41.45 11.5 40.0919H8.5ZM34 8.5C35.3807 8.5 36.5 9.61929 36.5 11H39.5C39.5 7.96243 37.0376 5.5 34 5.5V8.5ZM14 5.5C10.9624 5.5 8.5 7.96243 8.5 11H11.5C11.5 9.61929 12.6193 8.5 14 8.5V5.5ZM17 17.5H31V14.5H17V17.5ZM17 35.5H24V32.5H17V35.5ZM17 26.5H28V23.5H17V26.5ZM19 3.5H29V0.5H19V3.5ZM44.5 34C44.5 39.2467 40.2467 43.5 35 43.5V46.5C41.9036 46.5 47.5 40.9036 47.5 34H44.5ZM35 43.5C29.7533 43.5 25.5 39.2467 25.5 34H22.5C22.5 40.9036 28.0964 46.5 35 46.5V43.5ZM25.5 34C25.5 28.7533 29.7533 24.5 35 24.5V21.5C28.0964 21.5 22.5 27.0964 22.5 34H25.5ZM35 24.5C40.2467 24.5 44.5 28.7533 44.5 34H47.5C47.5 27.0964 41.9036 21.5 35 21.5V24.5Z" fill="#AE261E"/>
<path d="M34.6285 39.8431C34.5512 39.9422 34.434 40 34.31 40C34.085 40 33.9025 39.8134 33.9025 39.5833V34.9678H30.9074C30.8151 34.9678 30.7256 34.9357 30.6534 34.8769C30.4775 34.7334 30.4486 34.4713 30.5889 34.2913L35.3714 28.1569C35.4488 28.0578 35.566 28 35.69 28C35.915 28 36.0974 28.1866 36.0974 28.4167V33.0318H39.0926C39.1848 33.0318 39.2744 33.0639 39.3466 33.1227C39.5225 33.2662 39.5514 33.5283 39.4111 33.7083L34.6285 39.8431Z" fill="#AE261E"/>
</svg>
