<svg width="20" height="20" viewBox="0 0 20 20" fill="none" xmlns="http://www.w3.org/2000/svg">
<path d="M12.9682 9.25781L10.0036 12.2224L7.03906 9.25781" stroke="#0F1926" stroke-width="1.5" stroke-linecap="round" stroke-linejoin="round"/>
<path d="M10.0028 3.33203V12.2249" stroke="#0F1926" stroke-width="1.5" stroke-linecap="round" stroke-linejoin="round"/>
<path d="M17.4248 13.7031C17.4248 13.2889 17.089 12.9531 16.6748 12.9531C16.2606 12.9531 15.9248 13.2889 15.9248 13.7031H17.4248ZM4.08594 13.7031C4.08594 13.2889 3.75015 12.9531 3.33594 12.9531C2.92172 12.9531 2.58594 13.2889 2.58594 13.7031H4.08594ZM15.9248 13.7031C15.9248 14.9262 14.9333 15.9177 13.7103 15.9177V17.4177C15.7618 17.4177 17.4248 15.7546 17.4248 13.7031H15.9248ZM13.7103 15.9177H6.30051V17.4177H13.7103V15.9177ZM6.30051 15.9177C5.07743 15.9177 4.08594 14.9262 4.08594 13.7031H2.58594C2.58594 15.7546 4.24901 17.4177 6.30051 17.4177V15.9177Z" fill="#0F1926"/>
</svg>
