<svg width="24" height="24" viewBox="0 0 24 24" fill="none" xmlns="http://www.w3.org/2000/svg">
<path fill-rule="evenodd" clip-rule="evenodd" d="M7.496 3H16.505C18.987 3 21 5.012 21 7.496V16.505C21 18.987 18.988 21 16.504 21H7.496C5.013 21 3 18.988 3 16.504V7.496C3 5.013 5.012 3 7.496 3V3Z" stroke="#383838" stroke-width="1.25" stroke-linecap="round" stroke-linejoin="round"/>
<path d="M16.9492 6.71301C16.7632 6.71401 16.6122 6.86501 16.6122 7.05101C16.6122 7.23701 16.7642 7.38801 16.9502 7.38801C17.1362 7.38801 17.2872 7.23701 17.2872 7.05101C17.2882 6.86401 17.1362 6.71301 16.9492 6.71301" stroke="#383838" stroke-width="1.25" stroke-linecap="round" stroke-linejoin="round"/>
<path d="M14.5455 9.45443C15.9514 10.8603 15.9514 13.1397 14.5455 14.5456C13.1396 15.9515 10.8602 15.9515 9.45432 14.5456C8.04843 13.1397 8.04843 10.8603 9.45432 9.45443C10.8602 8.04854 13.1396 8.04854 14.5455 9.45443" stroke="#383838" stroke-width="1.25" stroke-linecap="round" stroke-linejoin="round"/>
</svg>
