<svg width="45" height="45" viewBox="0 0 45 45" fill="none" xmlns="http://www.w3.org/2000/svg">
<path d="M28.6562 20.7589H18.6562C17.6207 20.7589 16.7812 19.9195 16.7812 18.8839V13.125" stroke="#0F1926" stroke-width="2.5" stroke-linecap="round" stroke-linejoin="round"/>
<path d="M5.625 13.125C5.625 8.98286 8.98286 5.625 13.125 5.625H31.875C36.0171 5.625 39.375 8.98286 39.375 13.125V31.875C39.375 36.0171 36.0171 39.375 31.875 39.375H13.125C8.98286 39.375 5.625 36.0171 5.625 31.875" stroke="#0F1926" stroke-width="2.5" stroke-linecap="round" stroke-linejoin="round"/>
<path d="M5.26562 26.25H9.37816" stroke="#0F1926" stroke-width="2.5" stroke-linecap="round" stroke-linejoin="round"/>
<path d="M3.36719 20.6426H9.37739" stroke="#0F1926" stroke-width="2.5" stroke-linecap="round" stroke-linejoin="round"/>
<circle cx="27.1875" cy="30.9375" r="2.8125" stroke="#0F1926" stroke-width="2.5" stroke-linecap="round" stroke-linejoin="round"/>
<path d="M13.125 13.125H17.6563C20.312 13.125 22.8128 14.3754 24.4063 16.5L26.4331 19.2025C26.7824 19.6682 27.2354 20.0463 27.7561 20.3066L31.6771 22.2671C32.9475 22.9023 33.75 24.2008 33.75 25.6212V28.5938C33.75 29.8882 32.7007 30.9375 31.4062 30.9375H30" stroke="#0F1926" stroke-width="2.5" stroke-linecap="round" stroke-linejoin="round"/>
<path d="M24.375 30.9375H13.125" stroke="#0F1926" stroke-width="2.5" stroke-linecap="round" stroke-linejoin="round"/>
</svg>
