<svg width="88" height="22" viewBox="0 0 88 22" xmlns="http://www.w3.org/2000/svg">
<path fill-rule="evenodd" clip-rule="evenodd" d="M47.3122 5.327C47.5239 5.54844 49.4288 10.8237 49.628 11.475C49.8264 12.1728 50.1066 12.8422 50.4622 13.4679C51.1221 13.6242 51.1843 12.9339 51.3836 12.3868C52.4667 9.43003 54.1102 5.1186 54.9319 2.21392C55.5047 0.807169 55.5545 0.429431 54.5211 0.429431C53.4877 0.429431 53.5997 1.13281 53.1889 2.04459C52.8278 3.77697 51.4334 7.43713 50.9229 9.11741C50.9229 9.33885 50.9229 9.33885 50.6614 9.33885C49.8023 6.83796 48.8063 3.77697 47.8352 1.30214C47.5737 0.820195 47.113 0.715991 46.8018 1.7971C46.2789 3.51647 45.5567 5.56146 44.9965 7.22872C44.9965 7.22872 44.3241 9.33885 44.2743 9.44305C43.9183 8.84412 43.6576 8.18865 43.5024 7.50226C42.7305 5.50936 42.0581 3.36016 41.3983 1.36726C41.2364 0.989526 41.2364 0.768093 40.8754 0.54666C40.5134 0.406353 40.1221 0.370364 39.7424 0.442456C38.7214 0.611787 39.3813 1.47147 39.5929 2.10972C40.838 5.61356 42.22 9.82079 43.602 13.1553C43.6344 13.2379 43.6869 13.3102 43.7545 13.3648C43.822 13.4193 43.9021 13.4544 43.9867 13.4662C44.0713 13.4781 44.1574 13.4665 44.2363 13.4325C44.3152 13.3985 44.3841 13.3433 44.4362 13.2725C44.6354 12.8687 47.1628 5.327 47.3122 5.327Z"/>
<path fill-rule="evenodd" clip-rule="evenodd" d="M0.199056 0.649007C0.14759 0.865993 0.165072 1.09461 0.248858 1.30028C0.460516 2.21206 -0.162008 12.6064 -0.000151765 13.0232C0.503812 13.2603 1.06884 13.3153 1.60596 13.1795C1.85497 12.906 1.75537 12.6455 1.75537 12.2156C1.75537 10.379 1.90477 8.60756 1.90477 6.71887C1.96702 6.0155 2.01683 5.53355 2.01683 5.10371C2.01683 4.67387 2.01683 4.72598 2.11643 4.62177C2.21603 4.51757 3.84705 7.48737 4.0089 7.81301C4.32017 8.45126 4.93024 9.42817 5.3411 10.1836C5.96363 11.369 6.27489 10.5614 6.4243 10.2878C6.78536 9.8059 9.57427 4.6869 9.77348 4.5827C9.96023 4.7911 9.96023 9.91011 9.96023 10.2878C9.96023 13.0883 9.64897 13.3619 11.3422 13.2446C11.8652 13.2446 11.915 12.8148 11.8652 12.3328C11.8652 11.4211 11.8652 10.3921 11.8652 9.48027C11.7282 7.16174 11.6286 4.51757 11.6286 2.21206C11.6286 1.93853 11.7282 0.909516 11.7282 0.75321C11.5758 0.573517 11.3693 0.453626 11.1429 0.413362C10.9165 0.373098 10.6838 0.414872 10.4832 0.531778C10.1221 0.75321 10.0225 1.23515 9.76103 1.56079C8.71519 3.50158 7.30828 5.70289 6.32469 7.53947C5.96363 8.19075 5.96363 7.96931 5.65237 7.53947C4.98004 6.51046 4.10851 4.739 3.49843 3.70999L2.25339 1.56079C2.08032 1.1873 1.85822 0.840945 1.59351 0.531778C1.2449 0.271268 0.56012 0.479676 0.199056 0.649007Z"/>
<path fill-rule="evenodd" clip-rule="evenodd" d="M65.8983 6.68042C66.339 6.30425 66.8617 6.04794 67.42 5.93431C67.9783 5.82068 68.5548 5.85326 69.0981 6.02914C70.7416 6.78462 70.9532 9.32458 70.2311 10.562C69.9235 11.0443 69.4805 11.4148 68.9631 11.6224C68.4457 11.83 67.8795 11.8646 67.3426 11.7213C66.8224 11.6139 66.3301 11.3919 65.8983 11.07V6.68042ZM65.8983 4.84383C65.8207 3.42521 65.8207 2.00312 65.8983 0.584503C65.8983 -0.00164307 65.6991 -0.105847 65.1762 0.102561C63.9311 0.64963 63.9311 0.428197 64.1054 1.61351C64.205 2.21268 64.1054 9.15525 64.1054 10.1322C64.1054 12.0599 63.844 12.5028 66.5208 13.3104C67.283 13.4776 68.0697 13.4819 68.8336 13.323C69.5974 13.1641 70.3226 12.8452 70.9657 12.3856C73.5927 10.1322 72.8706 3.77574 68.0771 4.25768C67.6593 4.28134 67.2434 4.33355 66.8321 4.41399C66.6702 4.46609 66.0602 4.84383 65.9855 4.84383H65.8983Z"/>
<path fill-rule="evenodd" clip-rule="evenodd" d="M29.5918 13.1415C29.7865 12.4623 29.8416 11.7476 29.7536 11.0444C29.7026 10.3073 29.7026 9.56726 29.7536 8.83011C29.903 8.83011 30.0649 9.10365 30.3761 9.42928C30.6874 9.75492 33.2522 12.5554 33.6631 12.868C33.8064 13.0076 33.9792 13.1098 34.1674 13.1664C34.3556 13.223 34.554 13.2323 34.7463 13.1936C35.1073 13.1936 35.68 13.1936 35.8793 12.9331C35.8793 12.5554 35.1571 11.9562 34.8459 11.6306C34.5346 11.305 34.1362 10.8881 33.7751 10.4453C32.9832 9.71614 32.2426 8.92822 31.5589 8.08766C31.5589 7.97043 34.3852 5.48257 34.9081 5.01365C35.1073 4.79222 35.319 4.74012 35.2692 4.41448C34.6284 4.20767 33.9428 4.20767 33.302 4.41448C33.053 4.53171 31.3473 6.14687 30.8866 6.57671C30.7372 6.73301 29.8532 7.70992 29.7536 7.65782C29.6042 7.16285 29.7536 0.428692 29.654 0.0509533C29.5544 -0.326785 27.7989 0.272386 27.8487 0.923659C27.9463 1.38125 27.9964 1.84854 27.9981 2.31738V11.6306C27.9981 11.9562 27.8985 12.9331 28.1102 13.0894C28.5946 13.219 29.1001 13.2367 29.5918 13.1415V13.1415Z"/>
<path fill-rule="evenodd" clip-rule="evenodd" d="M16.1781 8.72486C16.7509 8.56856 18.6682 9.0505 18.7554 9.58454C18.8052 10.1608 18.8052 10.7406 18.7554 11.3169C18.3943 11.7989 15.9167 12.7628 15.095 11.0434C14.9842 10.7991 14.9268 10.5322 14.9268 10.2619C14.9268 9.99154 14.9842 9.72459 15.095 9.48034C15.2145 9.28175 15.3728 9.1118 15.5595 8.98161C15.7461 8.85143 15.9569 8.76393 16.1781 8.72486ZM18.8052 8.07359C18.3214 7.73828 17.7803 7.50387 17.2115 7.38324C16.5028 7.30113 15.7857 7.35409 15.095 7.53955C14.5134 7.71381 14.0006 8.07869 13.632 8.58055C13.2634 9.08241 13.0585 9.69476 13.0474 10.3275C13.0362 10.9603 13.2194 11.5802 13.5701 12.0959C13.9207 12.6116 14.4203 12.996 14.9954 13.1926C15.9801 13.5439 17.0485 13.5439 18.0333 13.1926C18.2449 13.0884 18.6558 12.8149 18.8052 12.7628C18.9546 12.7107 19.0169 13.1405 19.2161 13.2447C19.4153 13.3489 20.3491 13.2447 20.6105 12.9842C20.872 12.7237 20.9218 12.7628 20.7599 12.385C20.519 11.8866 20.432 11.3222 20.5109 10.7699V6.88827C20.5761 6.33867 20.4477 5.78305 20.1499 5.32522C19.1663 3.28022 13.2398 4.0878 13.713 5.82018C14.1861 7.55257 14.958 5.22101 17.5726 5.54665C18.9795 5.70296 18.8301 7.10971 18.8301 8.07359H18.8052Z"/>
<path fill-rule="evenodd" clip-rule="evenodd" d="M79.7562 7.81539H75.4857C75.543 7.28056 75.7762 6.78322 76.1456 6.40864C76.5488 6.03875 77.0553 5.8149 77.5898 5.77039C77.8683 5.74633 78.1485 5.78122 78.4137 5.87298C78.679 5.96473 78.9239 6.11147 79.1337 6.30444C79.3449 6.48626 79.5116 6.71822 79.6199 6.98102C79.7282 7.24383 79.7749 7.52988 79.7562 7.81539V7.81539ZM75.3737 9.20911C75.6849 9.05281 80.3539 9.20911 81.2005 9.20911C82.0471 9.20911 81.6611 6.30444 80.1173 5.11912C79.4866 4.62718 78.7357 4.33189 77.9514 4.26735C77.1671 4.2028 76.3814 4.37163 75.6849 4.75435C74.9884 5.13706 74.4096 5.71806 74.0152 6.43025C73.6209 7.14244 73.4271 7.95679 73.4563 8.77927C73.4267 9.57811 73.6044 10.3704 73.9705 11.0722C74.3365 11.7739 74.8773 12.3589 75.5355 12.7651C76.9175 13.742 80.6278 13.6899 81.0884 12.1789C81.6611 10.2381 80.3165 11.3192 79.8434 11.5276C79.4455 11.6983 79.0262 11.808 78.5983 11.8533C75.8468 12.1789 75.1745 9.63895 75.3737 9.20911Z"/>
<path fill-rule="evenodd" clip-rule="evenodd" d="M56.6848 7.8142C56.7285 7.25787 56.9702 6.73898 57.3622 6.36026C57.7542 5.98153 58.2678 5.7706 58.8014 5.76921C59.8721 5.65198 61.1172 6.62889 60.9055 7.8142H56.6848ZM56.4731 9.11675C56.7346 9.11675 61.5778 9.11675 62.2502 9.11675C62.9225 9.11675 62.8104 8.68691 62.7606 8.15287C62.7243 7.42963 62.5089 6.72868 62.1358 6.11868C61.7626 5.50868 61.2444 5.01055 60.6319 4.67308C60.0193 4.3356 59.3335 4.17037 58.6416 4.19355C57.9497 4.21673 57.2754 4.42754 56.6848 4.80532C56.0207 5.21579 55.4776 5.80984 55.1152 6.5222C54.7527 7.23455 54.585 8.03764 54.6305 8.84321C54.5776 9.63843 54.7488 10.4324 55.1228 11.1269C55.4967 11.8214 56.0571 12.386 56.7346 12.7509C58.4901 13.8841 61.9389 13.4021 62.2502 12.1126C62.2502 11.7349 62.4992 10.8101 61.9389 11.0315C61.2621 11.4318 60.5254 11.7092 59.7601 11.8521C59.3521 11.9091 58.9373 11.8809 58.5398 11.7691C58.1423 11.6573 57.77 11.4642 57.4443 11.2008C56.9961 10.8231 56.2739 9.68987 56.4731 9.11675Z"/>
<path fill-rule="evenodd" clip-rule="evenodd" d="M84.4368 13.1933C84.7481 12.8676 84.6983 12.7113 84.6983 12.2294V10.9268C84.6983 9.20749 84.387 6.35491 86.292 5.92507C86.7028 5.82087 86.8024 6.18558 87.3253 6.08138C87.6337 5.79194 87.8653 5.424 87.9977 5.01329C87.9977 4.19269 86.7526 4.03638 85.6196 4.57042C85.2586 4.73975 84.9597 5.3259 84.6983 5.378C84.6983 4.89606 84.7979 4.68765 84.4866 4.25781C84.0876 4.29785 83.7013 4.42664 83.3536 4.63555C82.8432 4.89606 82.7436 4.89606 82.8432 5.54733C82.9428 6.19861 82.8432 10.6663 82.8432 11.7344C82.893 13.3626 82.893 13.3105 84.4368 13.1933Z"/>
<path fill-rule="evenodd" clip-rule="evenodd" d="M23.7309 13.1411V13.0369C23.8754 11.714 23.9129 10.3807 23.8429 9.05115C23.8429 8.02214 24.0919 6.35489 25.1751 6.02925C26.0467 5.70361 26.0965 6.56329 26.6692 6.02925C28.0014 4.5704 26.2085 3.98425 25.1253 4.46619C24.0421 4.94814 24.1915 5.32587 23.8803 5.43008C23.8553 5.21813 23.8553 5.00378 23.8803 4.79183C23.8803 4.5183 23.7682 4.5183 23.6686 4.36199C23.2694 4.35859 22.8771 4.47133 22.5356 4.68763C22.0252 4.89603 21.8633 4.94814 22.0252 5.59941C22.1347 6.59801 22.168 7.60415 22.1248 8.60829V11.5781C22.2368 13.1933 22.0252 13.3105 23.7309 13.1411Z"/>
<path fill-rule="evenodd" clip-rule="evenodd" d="M46.9512 14.8756C44.8959 15.1409 42.8749 15.6432 40.9252 16.3735C40.3151 16.6471 39.6801 16.8034 39.0701 17.0769C37.825 17.5589 36.6547 17.9887 35.4221 18.4837C35.0112 18.64 32.0729 19.5518 31.5624 19.669C29.0723 20.3072 25.3372 21.0627 22.9592 19.9295C21.8262 19.3433 21.7141 21.1669 24.2914 21.8182C25.7985 22.0943 27.3451 22.0232 28.8233 21.6098C30.0684 21.3362 31.5624 20.8543 32.7452 20.4766C33.928 20.0988 35.3225 19.669 36.6049 19.2912C36.9161 19.174 37.1652 19.0698 37.5262 18.9656L39.4311 18.3664C39.7922 18.2622 40.0537 18.1059 40.3649 17.9887L42.3321 17.5068C42.6932 17.4025 42.9546 17.2983 43.2659 17.1811C45.8726 16.5993 48.5314 16.3111 51.1968 16.3214C51.8567 16.3214 52.8403 16.4908 53.5126 16.595C54.7577 16.7513 54.4838 16.0609 53.662 15.6181C51.5255 14.7616 49.2118 14.5056 46.9512 14.8756V14.8756Z"/>
</svg>
