<svg width="55" height="55" viewBox="0 0 55 55" xmlns="http://www.w3.org/2000/svg">
<rect width="55" height="55" rx="27.5" fill="currenColor"/>
<g clip-path="url(#clip0_0_668)">
<path d="M27.2093 11C17.745 11 10.0404 18.6972 10.0369 28.1606C10.0352 31.1856 10.8276 34.1388 12.3299 36.741L10 45.375L18.9941 43.2501C21.502 44.6182 24.3252 45.3364 27.1992 45.3381H27.206C36.6686 45.3381 44.3698 37.6391 44.375 28.1774C44.3784 23.5901 42.5944 19.277 39.3525 16.032C36.1107 12.7888 31.8023 11.0017 27.2093 11ZM27.206 14.4375C30.8776 14.4392 34.328 15.8706 36.9219 18.4625C39.5157 21.0578 40.9406 24.5063 40.9372 28.1741C40.9337 35.7434 34.7762 41.9006 27.2026 41.9006C24.9113 41.8989 22.6416 41.3236 20.6425 40.2322L19.4843 39.6011L18.2051 39.9032L14.821 40.7021L15.6469 37.6339L16.0196 36.2576L15.3078 35.0222C14.108 32.946 13.473 30.5721 13.4748 28.1606C13.4782 20.5947 19.6376 14.4375 27.206 14.4375ZM21.1327 20.2383C20.8456 20.2383 20.3815 20.3457 19.9879 20.7754C19.5942 21.2034 18.4838 22.2399 18.4838 24.3505C18.4838 26.4611 20.0214 28.5014 20.2363 28.7884C20.4494 29.0737 23.2043 33.5418 27.5652 35.2606C31.1887 36.6888 31.9246 36.407 32.7119 36.3348C33.4991 36.2643 35.2516 35.2992 35.6092 34.2971C35.9667 33.2951 35.9676 32.4331 35.861 32.2561C35.7544 32.0774 35.4682 31.9708 35.0385 31.7559C34.6104 31.5411 32.5012 30.5054 32.1076 30.3628C31.7139 30.2201 31.426 30.1479 31.1407 30.5776C30.8553 31.0073 30.0353 31.9708 29.7843 32.2561C29.5334 32.5431 29.2841 32.5817 28.8544 32.3669C28.4246 32.1503 27.043 31.6962 25.4031 30.2352C24.1277 29.0991 23.2671 27.6974 23.0161 27.2677C22.7669 26.8397 22.9926 26.6047 23.2075 26.3915C23.4 26.199 23.6338 25.8905 23.8487 25.6396C24.0618 25.3886 24.1358 25.2099 24.2784 24.9246C24.4211 24.6392 24.3481 24.3875 24.2415 24.1726C24.1349 23.9578 23.3003 21.8393 22.9187 20.9902C22.5973 20.277 22.2578 20.2604 21.9518 20.2484C21.7026 20.238 21.418 20.2383 21.1327 20.2383Z" fill="white"/>
</g>
<defs>
<clipPath id="clip0_0_668">
<rect width="34.375" height="34.375" fill="white" transform="translate(10 11)"/>
</clipPath>
</defs>
</svg>
