<svg width="30" height="30" viewBox="0 0 30 30" fill="none" xmlns="http://www.w3.org/2000/svg">
<path fill-rule="evenodd" clip-rule="evenodd" d="M23.7057 20.7625L22.2394 19.2962C21.5069 18.5637 20.3194 18.5637 19.5882 19.2962L18.4357 20.4487C18.1782 20.7062 17.7882 20.7925 17.4557 20.6462C15.7857 19.915 14.1357 18.8062 12.6644 17.335C11.1994 15.87 10.0944 14.2275 9.36192 12.5637C9.20942 12.22 9.29817 11.8162 9.56442 11.55L10.5969 10.5175C11.4357 9.67871 11.4357 8.49246 10.7032 7.75996L9.23692 6.29371C8.26067 5.31746 6.67817 5.31746 5.70192 6.29371L4.88692 7.10746C3.96067 8.03371 3.57442 9.36996 3.82442 10.695C4.44192 13.9612 6.33942 17.5375 9.40067 20.5987C12.4619 23.66 16.0382 25.5575 19.3044 26.175C20.6294 26.425 21.9657 26.0387 22.8919 25.1125L23.7057 24.2987C24.6819 23.3225 24.6819 21.74 23.7057 20.7625V20.7625Z" stroke="white" stroke-width="1.5" stroke-linecap="round" stroke-linejoin="round"/>
<path d="M16.25 8.73875C17.5387 8.72125 18.8337 9.19875 19.8175 10.1825" stroke="white" stroke-width="1.5" stroke-linecap="round" stroke-linejoin="round"/>
<path d="M23.3525 6.64758C21.3912 4.68633 18.82 3.70508 16.25 3.70508" stroke="white" stroke-width="1.5" stroke-linecap="round" stroke-linejoin="round"/>
<path d="M21.2602 13.7501C21.2777 12.4614 20.8002 11.1664 19.8164 10.1826" stroke="white" stroke-width="1.5" stroke-linecap="round" stroke-linejoin="round"/>
<path d="M23.3516 6.64746C25.3128 8.60871 26.2941 11.18 26.2941 13.75" stroke="white" stroke-width="1.5" stroke-linecap="round" stroke-linejoin="round"/>
</svg>
