<svg width="16" height="16" viewBox="0 0 16 16" fill="none" xmlns="http://www.w3.org/2000/svg">
<path fill-rule="evenodd" clip-rule="evenodd" d="M0.25 2.25C0.25 1.2835 1.0335 0.5 2 0.5H3.5V2H2C1.86193 2 1.75 2.11193 1.75 2.25V3.5C1.75 4.19036 2.30964 4.75 3 4.75H3.5V6.25H3C1.48122 6.25 0.25 5.01878 0.25 3.5V2.25ZM8.75 13.75H10.5C10.9142 13.75 11.25 14.0858 11.25 14.5C11.25 14.9142 10.9142 15.25 10.5 15.25H5.5C5.08579 15.25 4.75 14.9142 4.75 14.5C4.75 14.0858 5.08579 13.75 5.5 13.75H7.25V10H8.75V13.75ZM12.5 2H14C14.1381 2 14.25 2.11193 14.25 2.25V3.5C14.25 4.19036 13.6904 4.75 13 4.75H12.5V6.25H13C14.5188 6.25 15.75 5.01878 15.75 3.5V2.25C15.75 1.2835 14.9665 0.5 14 0.5H12.5V2Z" fill="black"/>
<path d="M3.5 0.5H12.5V6C12.5 8.48528 10.4853 10.5 8 10.5L-nan -nanL-nan -nanL8 10.5C5.51472 10.5 3.5 8.48528 3.5 6V0.5Z" fill="black"/>
</svg>
