<svg width="16" height="17" viewBox="0 0 16 17" fill="none" xmlns="http://www.w3.org/2000/svg">
<path d="M3.5 1H12.5V6.5C12.5 8.98528 10.4853 11 8 11L-nan -nanL8 11C5.51472 11 3.5 8.98528 3.5 6.5V1Z" fill="black"/>
<path fill-rule="evenodd" clip-rule="evenodd" d="M0.25 2.75C0.25 1.7835 1.0335 1 2 1H3.5V2.5H2C1.86193 2.5 1.75 2.61193 1.75 2.75V4C1.75 4.69036 2.30964 5.25 3 5.25H3.5V6.75H3C1.48122 6.75 0.25 5.51878 0.25 4V2.75ZM8.75 14.25H10.5C10.9142 14.25 11.25 14.5858 11.25 15C11.25 15.4142 10.9142 15.75 10.5 15.75H5.5C5.08579 15.75 4.75 15.4142 4.75 15C4.75 14.5858 5.08579 14.25 5.5 14.25H7.25V10.5H8.75V14.25ZM12.5 2.5H14C14.1381 2.5 14.25 2.61193 14.25 2.75V4C14.25 4.69036 13.6904 5.25 13 5.25H12.5V6.75H13C14.5188 6.75 15.75 5.51878 15.75 4V2.75C15.75 1.7835 14.9665 1 14 1H12.5V2.5Z" fill="black"/>
</svg>
