<svg width="145" height="70" viewBox="0 0 145 70" fill="none" xmlns="http://www.w3.org/2000/svg">
<path d="M78.7398 41.7096H74.291C74.291 41.7096 77.4402 33.0662 77.9414 31.7014C78.4426 30.3367 80.5366 28.5455 83.6451 28.5455H86.8677L85.784 31.5024H84.3581C83.2458 31.5024 82.4245 31.7014 81.7343 33.5779C81.0442 35.4545 81.4777 34.2603 81.4777 34.2603L79.9091 38.5537L78.7398 41.7096Z" fill="white"/>
<path d="M124.228 41.7949H116.585C113.762 41.7949 112.706 40.117 113.277 38.5537C113.847 36.9902 115.187 33.2652 115.758 31.7582C116.328 30.2514 118.523 28.5454 121.49 28.5455C124.456 28.5455 129.075 28.5455 129.075 28.5455L127.992 31.5024H122.46C120.72 31.5024 119.939 32.5259 119.522 33.6348C119.104 34.7436 118.495 36.478 118.495 36.478C117.868 38.1272 117.754 38.6105 120.007 38.6105H125.397L124.228 41.7949Z" fill="white"/>
<path fill-rule="evenodd" clip-rule="evenodd" d="M130.537 41.7941H141.053L142.223 38.6097H133.959C131.756 38.6097 131.671 38.6097 132.212 37.1043L139.142 35.0571L141.795 34.261C144.02 33.5787 144.561 32.2748 144.846 31.503C145.53 29.6556 143.848 28.5447 141.538 28.5446C140.327 28.5446 139.526 28.5446 138.61 28.5446C137.779 28.5446 136.853 28.5447 135.442 28.5446C132.476 28.5446 130.28 30.2505 129.709 31.7574C129.301 32.8377 128.497 35.0576 127.863 36.8041C127.614 37.4941 127.39 38.1101 127.228 38.5527C126.658 40.1161 127.713 41.7941 130.537 41.7941ZM133.095 34.7166C133.095 34.7166 133.522 33.6057 133.866 32.641C134.208 31.6763 134.521 31.5324 135.52 31.5323C136.86 31.5322 138.528 31.5323 139.477 31.5323H140.111C140.653 31.5323 141.025 32.2703 139.314 32.8105L133.095 34.7166Z" fill="white"/>
<path fill-rule="evenodd" clip-rule="evenodd" d="M60.4311 41.7099H66.5341C69.6141 41.7099 71.639 39.9751 72.1808 38.5255C72.7227 37.0759 74.106 33.3508 74.662 31.8155C75.2179 30.2801 74.2912 28.5741 71.3253 28.5741C70.1961 28.5741 69.4886 28.5742 68.8816 28.5742C67.8943 28.5742 67.1731 28.5742 65.3363 28.5741C62.3704 28.5741 60.2029 30.1952 59.6326 31.7022C59.0622 33.2091 57.6933 36.9337 57.1229 38.497C56.5526 40.0603 57.608 41.7099 60.4311 41.7099ZM68.017 31.6169H65.6499C64.4425 31.6169 63.609 32.2424 63.3686 32.9247C63.1282 33.6071 62.1321 36.4142 61.9142 37.019C61.6962 37.6238 62.206 38.6397 63.3686 38.6397H66.1589C67.1873 38.6397 68.04 38.0418 68.3306 37.2465C68.428 36.98 68.5658 36.5921 68.7231 36.1491C69.0354 35.2699 69.4248 34.1737 69.7282 33.3796C70.1844 32.1855 69.5286 31.6169 68.017 31.6169Z" fill="white"/>
<path fill-rule="evenodd" clip-rule="evenodd" d="M35.8761 47.0265H40.3535L42.2928 41.6812C42.2928 41.6812 45.3159 41.7097 48.3959 41.7097C51.4759 41.7097 53.5292 39.9752 54.0426 38.5253C54.3306 37.7118 54.9014 36.1822 55.4453 34.7249C55.8707 33.5849 56.2797 32.4892 56.5237 31.8152C57.0797 30.2798 56.1529 28.5171 53.187 28.5171H47.1981C44.0895 28.5171 41.9956 30.2798 41.4944 31.6446C40.9931 33.0094 35.8761 47.0265 35.8761 47.0265ZM49.9566 31.6163H47.5896C46.3823 31.6163 45.5722 32.2712 45.371 32.8424C45.2455 33.1985 44.7713 34.4993 44.3793 35.5747C44.1426 36.2238 43.936 36.7908 43.8539 37.0185C43.6359 37.6233 44.1457 38.6391 45.3084 38.6391H48.0987C49.1271 38.6391 49.9797 38.0412 50.2703 37.2459C50.3678 36.9794 50.5055 36.5916 50.6629 36.1487C50.9751 35.2694 51.3645 34.1733 51.6679 33.3791C52.1242 32.185 51.4684 31.6163 49.9566 31.6163Z" fill="white"/>
<path d="M94.8374 24.6791H90.3757L84.1587 41.7385H88.6076L92.3721 31.5028H95.1954L96.2791 28.5459H93.4273L94.8374 24.6791Z" fill="white"/>
<path d="M28.0338 23.6273C36.4136 7.90712 43.9188 0.824537 61.144 0C46.0862 4.52074 42.4644 17.7987 41.7229 23.6273H28.0338Z" fill="white"/>
<path d="M33.1103 46.3727C24.7305 62.0929 17.2253 69.1755 0 70C15.0579 65.4793 18.6798 52.2013 19.4212 46.3727H33.1103Z" fill="white"/>
<path d="M115.358 24.7074H109.654L103.437 41.7667H109.112L115.358 24.7074Z" fill="white"/>
<path d="M40.1541 30.4229L41.58 26.4993C41.58 26.4993 36.1044 26.4709 31.5414 26.4708C26.9785 26.4707 25.4955 27.4371 24.4118 30.4229C23.328 33.4087 23.8985 31.8449 23.328 33.3798C22.7576 34.9147 23.4707 36.28 26.7788 36.28H30.1155C31.4273 36.28 32.0833 36.8766 31.8266 37.5878C31.57 38.2991 31.7125 37.9579 31.3418 38.9242C30.971 39.8904 29.9444 40.3174 28.4043 40.3174H20.7899L19.6206 43.5301H29.6592C33.7659 43.5301 35.7052 42.563 36.5322 40.3457C36.5322 40.3457 37.138 38.6393 37.7014 37.1324C38.2649 35.6256 36.7889 33.3798 33.3666 33.3798C31.4397 33.3798 31.6555 33.3794 30.5718 33.3794C29.4881 33.3794 29.2029 32.896 29.4025 32.3558C29.6021 31.8156 29.6877 31.5882 29.6877 31.5882C29.9444 30.8773 30.5432 30.4229 31.4559 30.4229H40.1541Z" fill="white"/>
</svg>
