<svg width="330" height="209" viewBox="0 0 330 209" fill="none" xmlns="http://www.w3.org/2000/svg">
<path d="M258.5 199.862C258.5 199.89 258.471 200.053 258.06 200.324C257.674 200.577 257.068 200.845 256.225 201.12C254.545 201.667 252.041 202.203 248.785 202.716C242.279 203.741 232.851 204.667 221.184 205.444C197.854 207 165.615 207.962 130 207.962C94.3852 207.962 62.1468 207 38.8165 205.444C27.1493 204.667 17.7209 203.741 11.2153 202.716C7.95889 202.203 5.45578 201.667 3.77571 201.12C2.93218 200.845 2.32597 200.577 1.9404 200.324C1.52885 200.053 1.5 199.89 1.5 199.862C1.5 199.834 1.52885 199.671 1.9404 199.401C2.32597 199.148 2.93218 198.879 3.77571 198.604C5.45578 198.057 7.95889 197.522 11.2153 197.009C17.7209 195.983 27.1493 195.058 38.8165 194.28C62.1468 192.725 94.3852 191.762 130 191.762C165.615 191.762 197.854 192.725 221.184 194.28C232.851 195.058 242.279 195.983 248.785 197.009C252.041 197.522 254.545 198.057 256.225 198.604C257.068 198.879 257.674 199.148 258.06 199.401C258.471 199.671 258.5 199.834 258.5 199.862Z" stroke="#AE261E"/>
<mask id="mask0_55_2650" style="mask-type:alpha" maskUnits="userSpaceOnUse" x="1" y="191" width="258" height="18">
<ellipse cx="130" cy="199.862" rx="129" ry="8.60001" fill="url(#paint0_linear_55_2650)"/>
</mask>
<g mask="url(#mask0_55_2650)">
<line y1="-0.5" x2="228.804" y2="-0.5" transform="matrix(-0.636285 0.771454 -0.927145 -0.374701 39.0703 67.2593)" stroke="#FF1D10"/>
<line y1="-0.5" x2="228.804" y2="-0.5" transform="matrix(-0.636285 0.771454 -0.927145 -0.374701 42.0137 68.4487)" stroke="#FF1D10"/>
<line y1="-0.5" x2="228.804" y2="-0.5" transform="matrix(-0.636285 0.771454 -0.927145 -0.374701 44.957 69.6382)" stroke="#FF1D10"/>
<line y1="-0.5" x2="228.804" y2="-0.5" transform="matrix(-0.636285 0.771454 -0.927145 -0.374701 47.9004 70.8274)" stroke="#FF1D10"/>
<line y1="-0.5" x2="228.804" y2="-0.5" transform="matrix(-0.636285 0.771454 -0.927145 -0.374701 50.8438 72.0168)" stroke="#FF1D10"/>
<line y1="-0.5" x2="228.804" y2="-0.5" transform="matrix(-0.636285 0.771454 -0.927146 -0.374701 53.7852 73.2063)" stroke="#FF1D10"/>
<line y1="-0.5" x2="228.804" y2="-0.5" transform="matrix(-0.636285 0.771454 -0.927145 -0.374701 56.7285 74.3955)" stroke="#FF1D10"/>
<line y1="-0.5" x2="228.804" y2="-0.5" transform="matrix(-0.636285 0.771454 -0.927145 -0.374701 59.668 75.5842)" stroke="#FF1D10"/>
<line y1="-0.5" x2="228.804" y2="-0.5" transform="matrix(-0.636285 0.771454 -0.927145 -0.374701 62.6152 76.7737)" stroke="#FF1D10"/>
<line y1="-0.5" x2="228.804" y2="-0.5" transform="matrix(-0.636285 0.771454 -0.927145 -0.374701 65.5547 77.9639)" stroke="#FF1D10"/>
<line y1="-0.5" x2="228.804" y2="-0.5" transform="matrix(-0.636285 0.771454 -0.927146 -0.374701 68.5 79.1531)" stroke="#FF1D10"/>
<line y1="-0.5" x2="228.804" y2="-0.5" transform="matrix(-0.636285 0.771454 -0.927145 -0.374701 71.4395 80.3425)" stroke="#FF1D10"/>
<line y1="-0.5" x2="228.804" y2="-0.5" transform="matrix(-0.636285 0.771454 -0.927145 -0.374701 74.3867 81.532)" stroke="#FF1D10"/>
<line y1="-0.5" x2="228.804" y2="-0.5" transform="matrix(-0.636285 0.771454 -0.927145 -0.374701 77.3262 82.7214)" stroke="#FF1D10"/>
<line y1="-0.5" x2="228.804" y2="-0.5" transform="matrix(-0.636285 0.771454 -0.927145 -0.374701 80.2734 83.9109)" stroke="#FF1D10"/>
<line y1="-0.5" x2="228.804" y2="-0.5" transform="matrix(-0.636285 0.771454 -0.927145 -0.374701 83.2148 85.1001)" stroke="#FF1D10"/>
<line y1="-0.5" x2="228.804" y2="-0.5" transform="matrix(-0.636285 0.771454 -0.927145 -0.374701 86.1582 86.2896)" stroke="#FF1D10"/>
<line y1="-0.5" x2="228.804" y2="-0.5" transform="matrix(-0.636285 0.771454 -0.927145 -0.374701 89.0996 87.479)" stroke="#FF1D10"/>
<line y1="-0.5" x2="228.804" y2="-0.5" transform="matrix(-0.636285 0.771454 -0.927145 -0.374701 92.043 88.6677)" stroke="#FF1D10"/>
<line y1="-0.5" x2="228.804" y2="-0.5" transform="matrix(-0.636285 0.771454 -0.927145 -0.374701 94.9863 89.8577)" stroke="#FF1D10"/>
<line y1="-0.5" x2="228.804" y2="-0.5" transform="matrix(-0.636285 0.771454 -0.927145 -0.374701 97.9297 91.0464)" stroke="#FF1D10"/>
<line y1="-0.5" x2="228.804" y2="-0.5" transform="matrix(-0.636285 0.771454 -0.927145 -0.374701 100.877 92.2358)" stroke="#FF1D10"/>
<line y1="-0.5" x2="228.804" y2="-0.5" transform="matrix(-0.636285 0.771454 -0.927145 -0.374701 103.816 93.4253)" stroke="#FF1D10"/>
<line y1="-0.5" x2="228.804" y2="-0.5" transform="matrix(-0.636285 0.771454 -0.927145 -0.374701 106.762 94.6145)" stroke="#FF1D10"/>
<line y1="-0.5" x2="228.804" y2="-0.5" transform="matrix(-0.636285 0.771454 -0.927145 -0.374701 109.701 95.804)" stroke="#FF1D10"/>
<line y1="-0.5" x2="228.804" y2="-0.5" transform="matrix(-0.636285 0.771454 -0.927145 -0.374701 112.646 96.9934)" stroke="#FF1D10"/>
<line y1="-0.5" x2="228.804" y2="-0.5" transform="matrix(-0.636285 0.771454 -0.927145 -0.374701 115.588 98.1826)" stroke="#FF1D10"/>
<line y1="-0.5" x2="228.804" y2="-0.5" transform="matrix(-0.636285 0.771454 -0.927145 -0.374701 118.533 99.3721)" stroke="#FF1D10"/>
<line y1="-0.5" x2="228.804" y2="-0.5" transform="matrix(-0.636285 0.771454 -0.927145 -0.374701 121.475 100.562)" stroke="#FF1D10"/>
<line y1="-0.5" x2="228.804" y2="-0.5" transform="matrix(-0.636285 0.771454 -0.927145 -0.374701 124.42 101.752)" stroke="#FF1D10"/>
<line y1="-0.5" x2="228.804" y2="-0.5" transform="matrix(-0.636285 0.771454 -0.927145 -0.374701 127.361 102.94)" stroke="#FF1D10"/>
<line y1="-0.5" x2="228.804" y2="-0.5" transform="matrix(-0.636285 0.771454 -0.927145 -0.374701 130.305 104.13)" stroke="#FF1D10"/>
<line y1="-0.5" x2="228.804" y2="-0.5" transform="matrix(-0.636285 0.771454 -0.927145 -0.374701 133.248 105.319)" stroke="#FF1D10"/>
<line y1="-0.5" x2="228.804" y2="-0.5" transform="matrix(-0.636285 0.771454 -0.927145 -0.374701 136.191 106.509)" stroke="#FF1D10"/>
<line y1="-0.5" x2="228.804" y2="-0.5" transform="matrix(-0.636285 0.771454 -0.927145 -0.374701 139.133 107.698)" stroke="#FF1D10"/>
<line y1="-0.5" x2="228.804" y2="-0.5" transform="matrix(-0.636285 0.771454 -0.927145 -0.374701 142.078 108.887)" stroke="#FF1D10"/>
<line y1="-0.5" x2="228.804" y2="-0.5" transform="matrix(-0.636285 0.771454 -0.927145 -0.374701 145.016 110.077)" stroke="#FF1D10"/>
<line y1="-0.5" x2="228.804" y2="-0.5" transform="matrix(-0.636285 0.771454 -0.927145 -0.374701 147.959 111.266)" stroke="#FF1D10"/>
<line y1="-0.5" x2="228.804" y2="-0.5" transform="matrix(-0.636285 0.771454 -0.927145 -0.374701 150.904 112.456)" stroke="#FF1D10"/>
<line y1="-0.5" x2="228.804" y2="-0.5" transform="matrix(-0.636285 0.771454 -0.927145 -0.374701 153.846 113.646)" stroke="#FF1D10"/>
<line y1="-0.5" x2="228.804" y2="-0.5" transform="matrix(-0.636285 0.771454 -0.927145 -0.374701 156.789 114.835)" stroke="#FF1D10"/>
<line y1="-0.5" x2="228.804" y2="-0.5" transform="matrix(-0.636285 0.771454 -0.927145 -0.374701 159.732 116.024)" stroke="#FF1D10"/>
<line y1="-0.5" x2="228.804" y2="-0.5" transform="matrix(-0.636285 0.771454 -0.927145 -0.374701 162.674 117.214)" stroke="#FF1D10"/>
<line y1="-0.5" x2="228.804" y2="-0.5" transform="matrix(-0.636285 0.771454 -0.927145 -0.374701 165.615 118.403)" stroke="#FF1D10"/>
<line y1="-0.5" x2="228.804" y2="-0.5" transform="matrix(-0.636285 0.771454 -0.927145 -0.374701 168.561 119.593)" stroke="#FF1D10"/>
<line y1="-0.5" x2="228.804" y2="-0.5" transform="matrix(-0.636285 0.771454 -0.927145 -0.374701 171.506 120.782)" stroke="#FF1D10"/>
<line y1="-0.5" x2="228.804" y2="-0.5" transform="matrix(-0.636285 0.771454 -0.927145 -0.374701 174.449 121.971)" stroke="#FF1D10"/>
<line y1="-0.5" x2="228.804" y2="-0.5" transform="matrix(-0.636285 0.771454 -0.927145 -0.374701 177.395 123.161)" stroke="#FF1D10"/>
<line y1="-0.5" x2="228.804" y2="-0.5" transform="matrix(-0.636285 0.771454 -0.927145 -0.374701 180.334 124.35)" stroke="#FF1D10"/>
<line y1="-0.5" x2="228.804" y2="-0.5" transform="matrix(-0.636285 0.771454 -0.927145 -0.374701 183.277 125.54)" stroke="#FF1D10"/>
<line y1="-0.5" x2="228.804" y2="-0.5" transform="matrix(-0.636285 0.771454 -0.927145 -0.374701 186.219 126.73)" stroke="#FF1D10"/>
<line y1="-0.5" x2="228.804" y2="-0.5" transform="matrix(-0.636285 0.771454 -0.927145 -0.374701 189.164 127.919)" stroke="#FF1D10"/>
<line y1="-0.5" x2="228.804" y2="-0.5" transform="matrix(-0.636285 0.771454 -0.927145 -0.374701 192.104 129.108)" stroke="#FF1D10"/>
<line y1="-0.5" x2="228.804" y2="-0.5" transform="matrix(-0.636285 0.771454 -0.927145 -0.374701 195.051 130.297)" stroke="#FF1D10"/>
<line y1="-0.5" x2="228.804" y2="-0.5" transform="matrix(-0.636285 0.771454 -0.927145 -0.374701 197.992 131.486)" stroke="#FF1D10"/>
<line y1="-0.5" x2="228.804" y2="-0.5" transform="matrix(-0.636285 0.771454 -0.927145 -0.374701 200.936 132.676)" stroke="#FF1D10"/>
<line y1="-0.5" x2="228.804" y2="-0.5" transform="matrix(-0.636285 0.771454 -0.927145 -0.374701 203.879 133.865)" stroke="#FF1D10"/>
<line y1="-0.5" x2="228.804" y2="-0.5" transform="matrix(-0.636285 0.771454 -0.927145 -0.374701 206.822 135.055)" stroke="#FF1D10"/>
<line y1="-0.5" x2="228.804" y2="-0.5" transform="matrix(-0.636285 0.771454 -0.927145 -0.374701 209.764 136.245)" stroke="#FF1D10"/>
<line y1="-0.5" x2="228.804" y2="-0.5" transform="matrix(-0.636285 0.771454 -0.927145 -0.374701 212.709 137.434)" stroke="#FF1D10"/>
<line y1="-0.5" x2="228.804" y2="-0.5" transform="matrix(-0.636285 0.771454 -0.927145 -0.374701 215.65 138.624)" stroke="#FF1D10"/>
<line y1="-0.5" x2="228.804" y2="-0.5" transform="matrix(-0.636285 0.771454 -0.927145 -0.374701 218.592 139.812)" stroke="#FF1D10"/>
<line y1="-0.5" x2="228.804" y2="-0.5" transform="matrix(-0.636285 0.771454 -0.927145 -0.374701 221.539 141.002)" stroke="#FF1D10"/>
<line y1="-0.5" x2="228.804" y2="-0.5" transform="matrix(-0.636285 0.771454 -0.927145 -0.374701 224.48 142.19)" stroke="#FF1D10"/>
<line y1="-0.5" x2="228.804" y2="-0.5" transform="matrix(-0.636285 0.771454 -0.927145 -0.374701 227.48 143.404)" stroke="#FF1D10"/>
<line y1="-0.5" x2="228.804" y2="-0.5" transform="matrix(-0.636285 0.771454 -0.927145 -0.374701 230.486 144.618)" stroke="#FF1D10"/>
<line y1="-0.5" x2="228.804" y2="-0.5" transform="matrix(-0.636285 0.771454 -0.927145 -0.374701 233.49 145.831)" stroke="#FF1D10"/>
<line y1="-0.5" x2="228.804" y2="-0.5" transform="matrix(-0.636285 0.771454 -0.927145 -0.374701 236.492 147.045)" stroke="#FF1D10"/>
<line y1="-0.5" x2="228.804" y2="-0.5" transform="matrix(-0.636285 0.771454 -0.927145 -0.374701 239.49 148.259)" stroke="#FF1D10"/>
<line y1="-0.5" x2="228.804" y2="-0.5" transform="matrix(-0.636285 0.771454 -0.927145 -0.374701 242.496 149.472)" stroke="#FF1D10"/>
<line y1="-0.5" x2="228.804" y2="-0.5" transform="matrix(-0.636285 0.771454 -0.927145 -0.374701 245.5 150.685)" stroke="#FF1D10"/>
<line y1="-0.5" x2="228.804" y2="-0.5" transform="matrix(-0.636285 0.771454 -0.927145 -0.374701 248.502 151.898)" stroke="#FF1D10"/>
<line y1="-0.5" x2="228.804" y2="-0.5" transform="matrix(-0.636285 0.771454 -0.927145 -0.374701 251.506 153.112)" stroke="#FF1D10"/>
<line y1="-0.5" x2="228.804" y2="-0.5" transform="matrix(-0.636285 0.771454 -0.927145 -0.374701 254.508 154.326)" stroke="#FF1D10"/>
<line y1="-0.5" x2="228.804" y2="-0.5" transform="matrix(-0.636285 0.771454 -0.927145 -0.374701 257.508 155.54)" stroke="#FF1D10"/>
<line y1="-0.5" x2="228.804" y2="-0.5" transform="matrix(-0.636285 0.771454 -0.927145 -0.374701 260.516 156.753)" stroke="#FF1D10"/>
<line y1="-0.5" x2="228.804" y2="-0.5" transform="matrix(-0.636285 0.771454 -0.927145 -0.374701 263.518 157.967)" stroke="#FF1D10"/>
<line y1="-0.5" x2="228.804" y2="-0.5" transform="matrix(-0.636285 0.771454 -0.927146 -0.374701 266.516 159.181)" stroke="#FF1D10"/>
<line y1="-0.5" x2="228.804" y2="-0.5" transform="matrix(-0.636285 0.771454 -0.927145 -0.374701 269.52 160.395)" stroke="#FF1D10"/>
<line y1="-0.5" x2="228.804" y2="-0.5" transform="matrix(-0.636285 0.771454 -0.927146 -0.374701 272.523 161.608)" stroke="#FF1D10"/>
<line y1="-0.5" x2="228.804" y2="-0.5" transform="matrix(-0.636285 0.771454 -0.927145 -0.374701 275.525 162.822)" stroke="#FF1D10"/>
<line y1="-0.5" x2="228.804" y2="-0.5" transform="matrix(-0.636285 0.771454 -0.927145 -0.374701 278.531 164.035)" stroke="#FF1D10"/>
<line y1="-0.5" x2="228.804" y2="-0.5" transform="matrix(-0.636285 0.771454 -0.927145 -0.374701 281.533 165.249)" stroke="#FF1D10"/>
<line y1="-0.5" x2="228.804" y2="-0.5" transform="matrix(-0.636285 0.771454 -0.927146 -0.374701 284.533 166.462)" stroke="#FF1D10"/>
<line y1="-0.5" x2="228.804" y2="-0.5" transform="matrix(-0.636285 0.771454 -0.927145 -0.374701 287.539 167.675)" stroke="#FF1D10"/>
<line y1="-0.5" x2="228.804" y2="-0.5" transform="matrix(-0.636285 0.771454 -0.927146 -0.374701 290.541 168.889)" stroke="#FF1D10"/>
<line y1="-0.5" x2="228.804" y2="-0.5" transform="matrix(-0.636285 0.771454 -0.927145 -0.374701 293.543 170.103)" stroke="#FF1D10"/>
<line y1="-0.5" x2="228.804" y2="-0.5" transform="matrix(-0.636285 0.771454 -0.927145 -0.374701 296.549 171.316)" stroke="#FF1D10"/>
<line y1="-0.5" x2="228.804" y2="-0.5" transform="matrix(-0.636285 0.771454 -0.927145 -0.374701 299.549 172.53)" stroke="#FF1D10"/>
<line y1="-0.5" x2="228.804" y2="-0.5" transform="matrix(-0.636285 0.771454 -0.927145 -0.374701 302.553 173.744)" stroke="#FF1D10"/>
<line y1="-0.5" x2="228.804" y2="-0.5" transform="matrix(-0.636285 0.771454 -0.927145 -0.374701 305.553 174.957)" stroke="#FF1D10"/>
<line y1="-0.5" x2="228.804" y2="-0.5" transform="matrix(-0.636285 0.771454 -0.927145 -0.374701 308.559 176.17)" stroke="#FF1D10"/>
<line y1="-0.5" x2="228.804" y2="-0.5" transform="matrix(-0.636285 0.771454 -0.927145 -0.374701 311.559 177.384)" stroke="#FF1D10"/>
<line y1="-0.5" x2="228.804" y2="-0.5" transform="matrix(-0.636285 0.771454 -0.927145 -0.374701 314.562 178.598)" stroke="#FF1D10"/>
<line y1="-0.5" x2="228.804" y2="-0.5" transform="matrix(-0.636285 0.771454 -0.927145 -0.374701 317.566 179.812)" stroke="#FF1D10"/>
<line y1="-0.5" x2="228.804" y2="-0.5" transform="matrix(-0.636285 0.771454 -0.927145 -0.374701 320.57 181.024)" stroke="#FF1D10"/>
<line y1="-0.5" x2="228.804" y2="-0.5" transform="matrix(-0.636285 0.771454 -0.927145 -0.374701 323.57 182.238)" stroke="#FF1D10"/>
<line y1="-0.5" x2="228.804" y2="-0.5" transform="matrix(-0.636285 0.771454 -0.927145 -0.374702 326.574 183.452)" stroke="#FF1D10"/>
<line y1="-0.5" x2="228.804" y2="-0.5" transform="matrix(-0.636285 0.771454 -0.927146 -0.374701 329.58 184.665)" stroke="#FF1D10"/>
<line y1="-0.5" x2="228.804" y2="-0.5" transform="matrix(-0.636285 0.771454 -0.927145 -0.374701 332.578 185.879)" stroke="#FF1D10"/>
<line y1="-0.5" x2="228.804" y2="-0.5" transform="matrix(-0.636285 0.771454 -0.927145 -0.374701 335.582 187.093)" stroke="#FF1D10"/>
<line y1="-0.5" x2="228.804" y2="-0.5" transform="matrix(-0.636285 0.771454 -0.927145 -0.374701 338.586 188.305)" stroke="#FF1D10"/>
<line y1="-0.5" x2="228.804" y2="-0.5" transform="matrix(-0.636285 0.771454 -0.927145 -0.374701 341.586 189.52)" stroke="#FF1D10"/>
</g>
<path d="M255.921 110.852V176.124H242.829V179.205H115.754V163.031H36.8137L38.5465 144.74L25.6465 110.661V110.425C25.6465 108.216 27.4373 106.425 29.6465 106.425H58.7629V81.9299C58.7629 79.7207 60.5538 77.9299 62.7629 77.9299H65.6943V64.8373L84.563 50.9746H95.3451L99.0033 54.0552H103.817V52.5149H163.888C163.888 51.6642 164.578 50.9746 165.429 50.9746H186.8C200.268 51.4138 225.758 64.2079 242.872 78.4399C252.315 86.2926 255.921 98.5706 255.921 110.852Z" fill="white" stroke="#AEB0B2"/>
<path d="M223.189 142.623C206.175 142.623 192.383 156.415 192.383 173.429H253.995C253.995 156.415 240.203 142.623 223.189 142.623Z" fill="#AEB0B2"/>
<path d="M4 189.217H57.6866C59.3435 189.217 60.6866 187.874 60.6866 186.217V183.219C60.6866 182.163 60.1306 181.184 59.2228 180.643L51.3337 175.939C50.925 175.696 50.6747 175.255 50.6747 174.779C50.6747 174.033 51.2794 173.429 52.0253 173.429H54.5254L60.6866 170.155L79.9404 162.839L91.3001 144.74L38.3523 127.412H31.9985V148.399V158.411H4C2.34315 158.411 1 159.754 1 161.411V186.217C1 187.874 2.34315 189.217 4 189.217Z" fill="#AEB0B2"/>
<rect x="26.6855" y="99.3792" width="25.6448" height="2.5403" rx="1.27015" fill="white" stroke="#AEB0B2"/>
<rect x="26.6855" y="101.69" width="25.6448" height="2.5403" rx="1.27015" fill="white" stroke="#AEB0B2"/>
<rect x="26.6855" y="104" width="25.6448" height="2.5403" rx="1.27015" fill="white" stroke="#AEB0B2"/>
<path fill-rule="evenodd" clip-rule="evenodd" d="M14.7627 61.9991C14.6103 60.4245 15.848 59.0613 17.4299 59.0613C18.6419 59.0613 19.7031 59.8748 20.0177 61.0453L25.1777 80.2404H40.9589C41.8585 80.2404 42.5877 80.9697 42.5877 81.8693C42.5877 82.6966 41.9675 83.3926 41.1456 83.4874L26.5047 85.1767L27.977 90.6537L52.6799 91.6418C54.7864 91.726 56.4507 93.4582 56.4507 95.5664C56.4507 97.7356 54.6922 99.4941 52.5229 99.4941H22.4717C19.9706 99.4941 17.9432 97.4666 17.9432 94.9656C17.9432 94.9347 17.9435 94.9039 17.9441 94.8732L14.7627 61.9991Z" fill="#AEB0B2"/>
<path d="M89.1821 138.772C70.0417 138.772 54.5254 154.288 54.5254 173.428H123.839C123.839 154.288 108.323 138.772 89.1821 138.772Z" fill="#AEB0B2"/>
<path d="M255.919 179.59H92.2622C90.5609 179.59 89.1816 178.21 89.1816 176.509C89.1816 174.808 90.5609 173.428 92.2622 173.428H255.919C257.621 173.428 259 174.808 259 176.509C259 178.21 257.621 179.59 255.919 179.59Z" fill="#AEB0B2"/>
<circle cx="89.1839" cy="173.428" r="25.1448" stroke="#AEB0B2"/>
<circle cx="89.1839" cy="173.428" r="24.6448" fill="#AEB0B2"/>
<path d="M89.1839 148.784C75.5729 148.784 64.5391 159.818 64.5391 173.428H113.829C113.829 159.818 102.795 148.784 89.1839 148.784Z" fill="white"/>
<circle cx="89.1845" cy="173.428" r="19.0985" stroke="#AEB0B2" stroke-width="2"/>
<circle cx="89.1845" cy="173.428" r="18.0985" fill="#AEB0B2"/>
<path d="M89.1845 191.527C99.18 191.527 107.283 183.424 107.283 173.428H71.0859C71.0859 183.424 79.1889 191.527 89.1845 191.527Z" fill="white"/>
<circle cx="89.1833" cy="173.429" r="14.2478" fill="#AEB0B2"/>
<circle cx="89.1837" cy="173.428" r="11.3224" stroke="white" stroke-width="2"/>
<path fill-rule="evenodd" clip-rule="evenodd" d="M87.3923 165.321C87.5384 164.444 88.2969 163.802 89.1858 163.802C90.0746 163.802 90.8332 164.444 90.9793 165.321L91.1112 166.112H87.2604L87.3923 165.321ZM91.1112 180.745L90.9793 181.536C90.8332 182.413 90.0746 183.056 89.1858 183.056C88.2969 183.056 87.5384 182.413 87.3923 181.536L87.2604 180.745H91.1112ZM95.3107 167.822C96.143 167.51 97.0788 167.845 97.5233 168.615C97.9677 169.385 97.7904 170.363 97.1042 170.928L96.485 171.438L94.5597 168.103L95.3107 167.822ZM81.8875 175.419L83.8128 178.754L83.0618 179.036C82.2295 179.347 81.2937 179.012 80.8492 178.242C80.4048 177.472 80.5821 176.494 81.2683 175.929L81.8875 175.419ZM97.523 178.242C97.9674 177.472 97.7901 176.494 97.1039 175.929L96.4847 175.419L94.5594 178.754L95.3104 179.036C96.1427 179.347 97.0785 179.012 97.523 178.242ZM81.8874 171.438L83.8128 168.103L83.0617 167.822C82.2294 167.51 81.2936 167.845 80.8492 168.615C80.4048 169.385 80.582 170.363 81.2682 170.928L81.8874 171.438ZM89.1845 176.124C90.6732 176.124 91.88 174.917 91.88 173.428C91.88 171.94 90.6732 170.733 89.1845 170.733C87.6958 170.733 86.489 171.94 86.489 173.428C86.489 174.917 87.6958 176.124 89.1845 176.124Z" fill="white"/>
<circle cx="223.19" cy="173.428" r="25.6448" stroke="#AEB0B2" stroke-width="2"/>
<circle cx="223.19" cy="173.428" r="24.6448" fill="#AEB0B2"/>
<path d="M223.19 148.784C209.579 148.784 198.545 159.818 198.545 173.428H247.835C247.835 159.818 236.801 148.784 223.19 148.784Z" fill="white"/>
<circle cx="223.19" cy="173.428" r="19.0985" stroke="#AEB0B2" stroke-width="2"/>
<circle cx="223.19" cy="173.428" r="18.0985" fill="#AEB0B2"/>
<path d="M223.19 191.527C233.186 191.527 241.289 183.424 241.289 173.428H205.092C205.092 183.424 213.195 191.527 223.19 191.527Z" fill="white"/>
<circle cx="223.189" cy="173.428" r="14.2478" fill="#AEB0B2"/>
<circle cx="223.19" cy="173.428" r="11.3224" stroke="white" stroke-width="2"/>
<path fill-rule="evenodd" clip-rule="evenodd" d="M221.398 165.321C221.544 164.444 222.303 163.802 223.192 163.802C224.08 163.802 224.839 164.444 224.985 165.321L225.117 166.112H221.266L221.398 165.321ZM221.266 180.745H225.117L224.985 181.536C224.839 182.413 224.08 183.055 223.192 183.055C222.303 183.055 221.544 182.413 221.398 181.536L221.266 180.745ZM229.316 167.822C230.149 167.51 231.084 167.845 231.529 168.615C231.973 169.385 231.796 170.363 231.11 170.928L230.491 171.438L228.565 168.103L229.316 167.822ZM215.893 175.419L217.819 178.754L217.068 179.036C216.235 179.347 215.3 179.012 214.855 178.242C214.411 177.472 214.588 176.494 215.274 175.929L215.893 175.419ZM231.529 178.242C231.973 177.472 231.796 176.494 231.11 175.929L230.491 175.419L228.565 178.754L229.316 179.036C230.149 179.347 231.084 179.012 231.529 178.242ZM215.893 171.438L217.819 168.103L217.068 167.822C216.235 167.51 215.299 167.845 214.855 168.615C214.411 169.385 214.588 170.363 215.274 170.928L215.893 171.438ZM223.191 176.124C224.679 176.124 225.886 174.917 225.886 173.428C225.886 171.94 224.679 170.733 223.191 170.733C221.702 170.733 220.495 171.94 220.495 173.428C220.495 174.917 221.702 176.124 223.191 176.124Z" fill="white"/>
<path d="M95.5371 122.213H131.007C133.216 122.213 135.007 120.423 135.007 118.213V106.328C135.007 105.395 134.682 104.492 134.087 103.775L110.985 75.911C110.225 74.9945 109.096 74.4641 107.905 74.4641H107.816C105.607 74.4641 103.816 72.6732 103.816 70.4641V52.8999" stroke="#AEB0B2"/>
<path d="M95.5376 144.741V132.803L58.7629 125.102V106.426H25.6465V110.661L38.5465 144.741H95.5376Z" fill="white"/>
<path d="M135.006 120.288H165.042V123.369H170.818V120.288H237.821" stroke="#AEB0B2"/>
<path d="M129.615 125.679L147.521 147.436L196.233 166.112" stroke="#AEB0B2"/>
<path d="M163.887 52.5149V52.5149C163.887 53.9358 164.965 55.1215 166.355 55.4138C172.243 56.6516 180.546 60.1668 185.066 63.6821C211.013 70.0074 226.826 80.7414 233.912 87.5652C236.099 89.6722 237.051 92.665 237.051 95.7024V109.506C237.051 119.927 245.499 128.375 255.92 128.375V128.375" stroke="#AEB0B2"/>
<path d="M65.8848 77.9299H86.337C88.5462 77.9299 90.337 79.7208 90.337 81.9299V114.705" stroke="#AEB0B2"/>
<path d="M58.7617 106.426V114.512H90.3379V122.406" stroke="#AEB0B2"/>
<path d="M58.7629 106.426H29.2225C27.2475 106.426 25.6465 108.027 25.6465 110.002V110.002C25.6465 110.438 25.7263 110.87 25.8819 111.278L38.739 144.933H95.3451V140.697V122.214H58.7629V114.512" stroke="#AEB0B2"/>
<path d="M95.3418 125.679H241.67" stroke="#AEB0B2"/>
<rect x="98.0391" y="70.6135" width="3.0806" height="9.2418" stroke="#AEB0B2"/>
<rect x="93.8027" y="64.0671" width="1.5403" height="40.818" stroke="#AEB0B2"/>
<path d="M255.918 154.175C252.941 154.175 250.527 151.761 250.527 148.784C250.527 145.806 252.941 143.393 255.918 143.393" stroke="#AEB0B2"/>
<rect x="144.244" y="151.566" width="33.8866" height="1.5403" rx="0.77015" transform="rotate(21.1252 144.244 151.566)" stroke="#AEB0B2"/>
<rect x="136.545" y="154.647" width="33.8866" height="1.5403" rx="0.77015" transform="rotate(21.1252 136.545 154.647)" stroke="#AEB0B2"/>
<rect x="128.844" y="157.728" width="33.8866" height="1.5403" rx="0.77015" transform="rotate(21.1252 128.844 157.728)" stroke="#AEB0B2"/>
<circle cx="94.5741" cy="61.7567" r="2.31045" stroke="#AEB0B2"/>
<circle cx="94.5748" cy="61.7567" r="0.77015" fill="#AEB0B2"/>
<circle cx="94.5741" cy="107.195" r="2.31045" stroke="#AEB0B2"/>
<circle cx="94.5748" cy="107.195" r="0.77015" fill="#AEB0B2"/>
<rect x="49.791" y="144.818" width="2.5403" height="6.39105" fill="white" stroke="#AEB0B2"/>
<rect x="79.0547" y="144.818" width="2.5403" height="6.39105" fill="white" stroke="#AEB0B2"/>
<rect x="47.4785" y="150.979" width="36.4269" height="6.39105" fill="white" stroke="#AEB0B2"/>
<path d="M303.354 48.6464C303.158 48.4512 302.842 48.4512 302.646 48.6464L299.464 51.8284C299.269 52.0237 299.269 52.3403 299.464 52.5355C299.66 52.7308 299.976 52.7308 300.172 52.5355L303 49.7071L305.828 52.5355C306.024 52.7308 306.34 52.7308 306.536 52.5355C306.731 52.3403 306.731 52.0237 306.536 51.8284L303.354 48.6464ZM302.646 200.354C302.842 200.549 303.158 200.549 303.354 200.354L306.536 197.172C306.731 196.976 306.731 196.66 306.536 196.464C306.34 196.269 306.024 196.269 305.828 196.464L303 199.293L300.172 196.464C299.976 196.269 299.66 196.269 299.464 196.464C299.269 196.66 299.269 196.976 299.464 197.172L302.646 200.354ZM302.5 49L302.5 200L303.5 200L303.5 49L302.5 49Z" fill="black"/>
<path d="M210 49L277 49" stroke="black" stroke-opacity="0.6" stroke-dasharray="1 4"/>
<path d="M265 200L283 200" stroke="black" stroke-opacity="0.6" stroke-dasharray="1 4"/>
<rect x="276" y="113" width="54" height="22" rx="4" fill="#0F1926"/>
<path d="M284.48 127H289.52V125.62H286.58L288.2 123.94C288.452 123.712 288.68 123.46 288.884 123.196C289.232 122.752 289.58 122.176 289.58 121.6C289.58 120.34 288.62 119.38 287 119.38C285.44 119.38 284.42 120.4 284.42 121.78H285.86C285.86 121.108 286.28 120.7 287 120.7C287.72 120.7 288.08 121.048 288.08 121.66C288.08 121.996 287.864 122.356 287.66 122.632C287.528 122.788 287.396 122.944 287.24 123.1L284.48 125.98V127ZM290.539 127H295.579V125.62H292.639L294.259 123.94C294.511 123.712 294.739 123.46 294.943 123.196C295.291 122.752 295.639 122.176 295.639 121.6C295.639 120.34 294.679 119.38 293.059 119.38C291.499 119.38 290.479 120.4 290.479 121.78H291.919C291.919 121.108 292.339 120.7 293.059 120.7C293.779 120.7 294.139 121.048 294.139 121.66C294.139 121.996 293.923 122.356 293.719 122.632C293.587 122.788 293.455 122.944 293.299 123.1L290.539 125.98V127ZM299.717 120.76C300.557 120.76 301.397 121.6 301.397 123.22C301.397 124.84 300.557 125.68 299.717 125.68C298.877 125.68 298.037 124.84 298.037 123.22C298.037 121.6 298.877 120.76 299.717 120.76ZM299.717 119.38C298.037 119.38 296.597 120.82 296.597 123.22C296.597 125.62 298.037 127.06 299.717 127.06C301.397 127.06 302.837 125.62 302.837 123.22C302.837 120.82 301.397 119.38 299.717 119.38ZM310.328 124.96C310.268 125.116 310.172 125.248 310.064 125.356C309.872 125.548 309.572 125.74 309.128 125.74C308.348 125.74 307.748 125.152 307.748 124.24C307.748 123.328 308.348 122.74 309.128 122.74C309.572 122.74 309.872 122.944 310.064 123.136C310.172 123.244 310.268 123.376 310.328 123.52H311.708C311.456 122.428 310.448 121.42 309.128 121.42C307.64 121.42 306.368 122.68 306.368 124.24C306.368 125.8 307.64 127.06 309.128 127.06C310.448 127.06 311.456 126.052 311.708 124.96H310.328ZM312.668 127H314.048V124.18L315.368 127H316.088L317.408 124.18V127H318.788V121.48H317.468L315.728 125.2L313.988 121.48H312.668V127ZM319.869 126.28C319.869 126.7 320.229 127.06 320.649 127.06C321.069 127.06 321.429 126.7 321.429 126.28C321.429 125.86 321.069 125.5 320.649 125.5C320.229 125.5 319.869 125.86 319.869 126.28Z" fill="white"/>
<path d="M0.646447 10.6464C0.451184 10.8417 0.451184 11.1583 0.646447 11.3536L3.82843 14.5355C4.02369 14.7308 4.34027 14.7308 4.53553 14.5355C4.7308 14.3403 4.7308 14.0237 4.53553 13.8284L1.70711 11L4.53553 8.17157C4.7308 7.97631 4.7308 7.65973 4.53553 7.46447C4.34027 7.2692 4.02369 7.2692 3.82843 7.46447L0.646447 10.6464ZM259.354 11.3535C259.549 11.1583 259.549 10.8417 259.354 10.6464L256.172 7.46444C255.976 7.26918 255.66 7.26918 255.464 7.46444C255.269 7.65971 255.269 7.97629 255.464 8.17155L258.293 11L255.464 13.8284C255.269 14.0237 255.269 14.3402 255.464 14.5355C255.66 14.7308 255.976 14.7308 256.172 14.5355L259.354 11.3535ZM1 11.5L259 11.5L259 10.5L1 10.5L1 11.5Z" fill="black"/>
<rect x="103" width="54" height="22" rx="4" fill="#0F1926"/>
<path d="M111.36 11.84C111.42 13.1 112.368 14.06 114.06 14.06C115.632 14.06 116.7 12.98 116.7 11.9C116.7 11.216 116.412 10.736 116.124 10.448C115.956 10.28 115.764 10.148 115.56 10.04C115.74 9.932 115.896 9.812 116.04 9.668C116.28 9.416 116.52 9.02 116.52 8.48C116.52 7.388 115.5 6.38 114 6.38C112.5 6.38 111.48 7.4 111.42 8.54H112.86C112.92 8.12 113.328 7.7 114 7.7C114.672 7.7 115.08 8.12 115.08 8.66C115.08 9.2 114.72 9.56 113.94 9.56H113.34V10.76H114C114.78 10.76 115.2 11.18 115.2 11.72C115.2 12.26 114.72 12.74 114 12.74C113.328 12.74 112.86 12.26 112.8 11.84H111.36ZM117.477 11.78C117.477 12.98 118.545 14.06 120.177 14.06C121.809 14.06 122.877 12.98 122.877 11.78C122.877 11.096 122.577 10.616 122.277 10.328C122.097 10.16 121.905 10.028 121.677 9.92C121.833 9.812 121.989 9.692 122.121 9.548C122.349 9.296 122.577 8.936 122.577 8.42C122.577 7.34 121.617 6.38 120.177 6.38C118.737 6.38 117.777 7.34 117.777 8.42C117.777 8.936 117.993 9.296 118.221 9.548C118.353 9.692 118.509 9.812 118.677 9.92C118.449 10.028 118.257 10.16 118.077 10.328C117.777 10.616 117.477 11.096 117.477 11.78ZM118.917 11.72C118.917 11.108 119.397 10.64 120.177 10.64C120.957 10.64 121.437 11.108 121.437 11.72C121.437 12.332 120.957 12.8 120.177 12.8C119.397 12.8 118.917 12.332 118.917 11.72ZM119.157 8.54C119.157 8.06 119.565 7.64 120.177 7.64C120.789 7.64 121.197 8.06 121.197 8.54C121.197 9.02 120.789 9.44 120.177 9.44C119.565 9.44 119.157 9.02 119.157 8.54ZM124.794 14H126.294C126.558 13.604 126.822 13.22 127.086 12.848C127.53 12.212 128.046 11.456 128.394 10.94C128.526 10.76 128.646 10.568 128.754 10.364C128.934 10.016 129.114 9.536 129.114 9.02C129.114 7.532 127.974 6.38 126.354 6.38C124.734 6.38 123.594 7.532 123.594 9.02C123.594 10.508 124.854 11.792 126.414 11.6L124.794 14ZM126.354 10.4C125.622 10.4 125.034 9.788 125.034 9.02C125.034 8.252 125.622 7.64 126.354 7.64C127.062 7.64 127.674 8.252 127.674 9.02C127.674 9.788 127.062 10.4 126.354 10.4ZM136.484 11.96C136.424 12.116 136.328 12.248 136.22 12.356C136.028 12.548 135.728 12.74 135.284 12.74C134.504 12.74 133.904 12.152 133.904 11.24C133.904 10.328 134.504 9.74 135.284 9.74C135.728 9.74 136.028 9.944 136.22 10.136C136.328 10.244 136.424 10.376 136.484 10.52H137.864C137.612 9.428 136.604 8.42 135.284 8.42C133.796 8.42 132.524 9.68 132.524 11.24C132.524 12.8 133.796 14.06 135.284 14.06C136.604 14.06 137.612 13.052 137.864 11.96H136.484ZM138.824 14H140.204V11.18L141.524 14H142.244L143.564 11.18V14H144.944V8.48H143.624L141.884 12.2L140.144 8.48H138.824V14ZM146.025 13.28C146.025 13.7 146.385 14.06 146.805 14.06C147.225 14.06 147.585 13.7 147.585 13.28C147.585 12.86 147.225 12.5 146.805 12.5C146.385 12.5 146.025 12.86 146.025 13.28Z" fill="white"/>
<path d="M1 31L0.999995 138" stroke="black" stroke-opacity="0.6" stroke-dasharray="1 4"/>
<path d="M259 31L259 83" stroke="black" stroke-opacity="0.6" stroke-dasharray="1 4"/>
<defs>
<linearGradient id="paint0_linear_55_2650" x1="130" y1="191.262" x2="130" y2="208.462" gradientUnits="userSpaceOnUse">
<stop stop-opacity="0"/>
<stop offset="1" stop-opacity="0.3"/>
</linearGradient>
</defs>
</svg>
