<svg width="308" height="366" viewBox="0 0 308 366" fill="none" xmlns="http://www.w3.org/2000/svg">
<path d="M28.4668 111C28.4668 99.9543 37.4211 91 48.4668 91H258.981C270.027 91 278.981 99.9543 278.981 111V305.93H153.724H28.4668V111Z" fill="white" stroke="#AEB0B2"/>
<path d="M14.2324 305.93H293.214V335.821H14.2324V305.93Z" fill="white" stroke="#AEB0B2"/>
<path d="M277.5 325.5H29.5C28.3954 325.5 27.5 326.395 27.5 327.5C27.5 328.605 28.3954 329.5 29.5 329.5H277.5C278.605 329.5 279.5 328.605 279.5 327.5C279.5 326.395 278.605 325.5 277.5 325.5Z" fill="white" stroke="#AEB0B2"/>
<path d="M28.4668 291.696H131.662V305.93H28.4668V291.696Z" fill="white" stroke="#AEB0B2"/>
<path d="M131.662 159.322H175.787V305.93H131.662V159.322Z" fill="white" stroke="#AEB0B2"/>
<path fill-rule="evenodd" clip-rule="evenodd" d="M139.24 174.372C138.707 174.118 138.07 174.344 137.817 174.876C137.563 175.409 137.789 176.046 138.322 176.299L168.213 190.533C168.745 190.786 169.382 190.56 169.635 190.028C169.889 189.496 169.663 188.859 169.131 188.605L139.24 174.372ZM137.817 189.11C138.07 188.578 138.707 188.352 139.24 188.605L169.131 202.839C169.663 203.093 169.889 203.73 169.635 204.262C169.382 204.794 168.745 205.02 168.213 204.767L138.322 190.533C137.789 190.28 137.563 189.643 137.817 189.11ZM139.24 202.839C138.707 202.585 138.07 202.812 137.817 203.344C137.563 203.876 137.789 204.513 138.322 204.767L168.213 219C168.745 219.254 169.382 219.028 169.635 218.496C169.889 217.963 169.663 217.326 169.131 217.073L139.24 202.839ZM137.817 217.578C138.07 217.045 138.707 216.819 139.24 217.073L169.131 231.307C169.663 231.56 169.889 232.197 169.635 232.729C169.382 233.262 168.745 233.488 168.213 233.234L138.322 219C137.789 218.747 137.563 218.11 137.817 217.578ZM139.24 231.307C138.707 231.053 138.07 231.279 137.817 231.812C137.563 232.344 137.789 232.981 138.322 233.234L168.213 247.468C168.745 247.722 169.382 247.496 169.635 246.963C169.889 246.431 169.663 245.794 169.131 245.54L139.24 231.307ZM137.817 246.045C138.07 245.513 138.707 245.287 139.24 245.54L169.131 259.774C169.663 260.028 169.889 260.665 169.635 261.197C169.382 261.729 168.745 261.955 168.213 261.702L138.322 247.468C137.789 247.215 137.563 246.578 137.817 246.045ZM139.24 259.774C138.707 259.521 138.07 259.747 137.817 260.279C137.563 260.811 137.789 261.448 138.322 261.702L168.213 275.936C168.745 276.189 169.382 275.963 169.635 275.431C169.889 274.898 169.663 274.261 169.131 274.008L139.24 259.774ZM139.24 274.008C138.707 273.754 138.07 273.98 137.817 274.513C137.563 275.045 137.789 275.682 138.322 275.936L168.213 290.169C168.745 290.423 169.382 290.197 169.635 289.664C169.889 289.132 169.663 288.495 169.131 288.242L139.24 274.008Z" fill="white"/>
<path d="M137.817 174.876L138.268 175.091L138.268 175.091L137.817 174.876ZM139.24 174.372L139.025 174.823L139.025 174.823L139.24 174.372ZM138.322 176.299L138.537 175.848L138.537 175.848L138.322 176.299ZM168.213 190.533L168.428 190.082L168.428 190.082L168.213 190.533ZM169.635 190.028L169.184 189.813L169.184 189.813L169.635 190.028ZM169.131 188.605L169.346 188.154L169.346 188.154L169.131 188.605ZM139.24 188.605L139.455 188.154L139.455 188.154L139.24 188.605ZM137.817 189.11L138.268 189.325L138.268 189.325L137.817 189.11ZM169.131 202.839L169.346 202.388L169.346 202.388L169.131 202.839ZM169.635 204.262L169.184 204.047L169.184 204.047L169.635 204.262ZM168.213 204.767L167.998 205.218L167.998 205.218L168.213 204.767ZM138.322 190.533L138.537 190.082L138.537 190.082L138.322 190.533ZM137.817 203.344L137.365 203.129L137.365 203.129L137.817 203.344ZM139.24 202.839L139.455 202.388L139.455 202.388L139.24 202.839ZM138.322 204.767L138.537 204.315L138.537 204.315L138.322 204.767ZM168.213 219L167.998 219.452L167.998 219.452L168.213 219ZM169.635 218.496L169.184 218.281L169.184 218.281L169.635 218.496ZM169.131 217.073L169.346 216.621L169.346 216.621L169.131 217.073ZM139.24 217.073L139.455 216.621L139.455 216.621L139.24 217.073ZM137.817 217.578L138.268 217.793L138.268 217.793L137.817 217.578ZM169.131 231.307L169.346 230.855L169.346 230.855L169.131 231.307ZM169.635 232.729L169.184 232.514L169.184 232.514L169.635 232.729ZM168.213 233.234L167.998 233.686L167.998 233.686L168.213 233.234ZM138.322 219L138.537 218.549L138.537 218.549L138.322 219ZM137.817 231.812L138.268 232.026L138.268 232.026L137.817 231.812ZM139.24 231.307L139.455 230.855L139.455 230.855L139.24 231.307ZM138.322 233.234L138.537 232.783L138.537 232.783L138.322 233.234ZM168.213 247.468L167.998 247.92L167.998 247.92L168.213 247.468ZM169.635 246.963L169.184 246.748L169.184 246.748L169.635 246.963ZM169.131 245.54L168.916 245.992L168.916 245.992L169.131 245.54ZM139.24 245.54L139.025 245.992L139.025 245.992L139.24 245.54ZM137.817 246.045L138.268 246.26L138.268 246.26L137.817 246.045ZM169.131 259.774L168.916 260.226L168.916 260.226L169.131 259.774ZM169.635 261.197L169.184 260.982L169.184 260.982L169.635 261.197ZM168.213 261.702L168.428 261.25L168.428 261.25L168.213 261.702ZM138.322 247.468L138.107 247.919L138.107 247.919L138.322 247.468ZM137.817 260.279L138.268 260.494L138.268 260.494L137.817 260.279ZM139.24 259.774L139.025 260.226L139.025 260.226L139.24 259.774ZM138.322 261.702L138.107 262.153L138.107 262.153L138.322 261.702ZM168.213 275.936L168.428 275.484L168.428 275.484L168.213 275.936ZM169.635 275.431L169.184 275.216L169.184 275.216L169.635 275.431ZM169.131 274.008L168.916 274.459L168.916 274.459L169.131 274.008ZM137.817 274.513L138.268 274.728L138.268 274.728L137.817 274.513ZM139.24 274.008L139.025 274.459L139.025 274.459L139.24 274.008ZM138.322 275.936L138.107 276.387L138.107 276.387L138.322 275.936ZM168.213 290.169L168.428 289.718L168.428 289.718L168.213 290.169ZM169.635 289.664L169.184 289.449L169.184 289.449L169.635 289.664ZM169.131 288.242L168.916 288.693L168.916 288.693L169.131 288.242ZM138.268 175.091C138.403 174.808 138.742 174.688 139.025 174.823L139.455 173.92C138.673 173.548 137.738 173.88 137.365 174.661L138.268 175.091ZM138.537 175.848C138.254 175.713 138.134 175.374 138.268 175.091L137.365 174.661C136.993 175.443 137.325 176.378 138.107 176.751L138.537 175.848ZM168.428 190.082L138.537 175.848L138.107 176.751L167.998 190.984L168.428 190.082ZM169.184 189.813C169.049 190.096 168.711 190.216 168.428 190.082L167.998 190.984C168.779 191.357 169.715 191.025 170.087 190.243L169.184 189.813ZM168.916 189.057C169.199 189.191 169.319 189.53 169.184 189.813L170.087 190.243C170.459 189.461 170.127 188.526 169.346 188.154L168.916 189.057ZM139.025 174.823L168.916 189.057L169.346 188.154L139.455 173.92L139.025 174.823ZM139.455 188.154C138.673 187.782 137.738 188.114 137.365 188.895L138.268 189.325C138.403 189.042 138.742 188.922 139.025 189.057L139.455 188.154ZM169.346 202.388L139.455 188.154L139.025 189.057L168.916 203.291L169.346 202.388ZM170.087 204.477C170.459 203.695 170.127 202.76 169.346 202.388L168.916 203.291C169.199 203.425 169.319 203.764 169.184 204.047L170.087 204.477ZM167.998 205.218C168.779 205.59 169.715 205.259 170.087 204.477L169.184 204.047C169.049 204.33 168.711 204.45 168.428 204.315L167.998 205.218ZM138.107 190.984L167.998 205.218L168.428 204.315L138.537 190.082L138.107 190.984ZM137.365 188.895C136.993 189.677 137.325 190.612 138.107 190.984L138.537 190.082C138.254 189.947 138.134 189.608 138.268 189.325L137.365 188.895ZM138.268 203.559C138.403 203.276 138.742 203.156 139.025 203.29L139.455 202.388C138.673 202.015 137.738 202.347 137.365 203.129L138.268 203.559ZM138.537 204.315C138.254 204.18 138.134 203.842 138.268 203.559L137.365 203.129C136.993 203.91 137.325 204.846 138.107 205.218L138.537 204.315ZM168.428 218.549L138.537 204.315L138.107 205.218L167.998 219.452L168.428 218.549ZM169.184 218.281C169.049 218.564 168.711 218.684 168.428 218.549L167.998 219.452C168.779 219.824 169.715 219.492 170.087 218.711L169.184 218.281ZM168.916 217.524C169.199 217.659 169.319 217.998 169.184 218.281L170.087 218.711C170.459 217.929 170.127 216.994 169.346 216.621L168.916 217.524ZM139.025 203.29L168.916 217.524L169.346 216.621L139.455 202.388L139.025 203.29ZM139.455 216.621C138.673 216.249 137.738 216.581 137.365 217.363L138.268 217.793C138.403 217.51 138.742 217.389 139.025 217.524L139.455 216.621ZM169.346 230.855L139.455 216.621L139.025 217.524L168.916 231.758L169.346 230.855ZM170.087 232.944C170.459 232.163 170.127 231.227 169.346 230.855L168.916 231.758C169.199 231.893 169.319 232.231 169.184 232.514L170.087 232.944ZM167.998 233.686C168.779 234.058 169.715 233.726 170.087 232.944L169.184 232.514C169.049 232.797 168.711 232.918 168.428 232.783L167.998 233.686ZM138.107 219.452L167.998 233.686L168.428 232.783L138.537 218.549L138.107 219.452ZM137.365 217.363C136.993 218.144 137.325 219.08 138.107 219.452L138.537 218.549C138.254 218.414 138.134 218.076 138.268 217.793L137.365 217.363ZM138.268 232.026C138.403 231.744 138.742 231.623 139.025 231.758L139.455 230.855C138.673 230.483 137.738 230.815 137.365 231.597L138.268 232.026ZM138.537 232.783C138.254 232.648 138.134 232.309 138.268 232.026L137.365 231.597C136.993 232.378 137.325 233.314 138.107 233.686L138.537 232.783ZM168.428 247.017L138.537 232.783L138.107 233.686L167.998 247.92L168.428 247.017ZM169.184 246.748C169.049 247.031 168.711 247.151 168.428 247.017L167.998 247.92C168.779 248.292 169.715 247.96 170.087 247.178L169.184 246.748ZM168.916 245.992C169.199 246.127 169.319 246.465 169.184 246.748L170.087 247.178C170.459 246.397 170.127 245.461 169.346 245.089L168.916 245.992ZM139.025 231.758L168.916 245.992L169.346 245.089L139.455 230.855L139.025 231.758ZM139.455 245.089C138.673 244.717 137.738 245.049 137.365 245.83L138.268 246.26C138.403 245.977 138.742 245.857 139.025 245.992L139.455 245.089ZM169.346 259.323L139.455 245.089L139.025 245.992L168.916 260.226L169.346 259.323ZM170.087 261.412C170.459 260.63 170.127 259.695 169.346 259.323L168.916 260.226C169.199 260.36 169.319 260.699 169.184 260.982L170.087 261.412ZM167.998 262.153C168.779 262.525 169.715 262.194 170.087 261.412L169.184 260.982C169.049 261.265 168.711 261.385 168.428 261.25L167.998 262.153ZM138.107 247.919L167.998 262.153L168.428 261.25L138.537 247.017L138.107 247.919ZM137.365 245.83C136.993 246.612 137.325 247.547 138.107 247.919L138.537 247.017C138.254 246.882 138.134 246.543 138.268 246.26L137.365 245.83ZM138.268 260.494C138.403 260.211 138.742 260.091 139.025 260.226L139.455 259.323C138.673 258.95 137.738 259.282 137.365 260.064L138.268 260.494ZM138.537 261.25C138.254 261.116 138.134 260.777 138.268 260.494L137.365 260.064C136.993 260.846 137.325 261.781 138.107 262.153L138.537 261.25ZM168.428 275.484L138.537 261.25L138.107 262.153L167.998 276.387L168.428 275.484ZM169.184 275.216C169.049 275.499 168.711 275.619 168.428 275.484L167.998 276.387C168.779 276.759 169.715 276.427 170.087 275.646L169.184 275.216ZM168.916 274.459C169.199 274.594 169.319 274.933 169.184 275.216L170.087 275.646C170.459 274.864 170.127 273.929 169.346 273.556L168.916 274.459ZM139.025 260.226L168.916 274.459L169.346 273.556L139.455 259.323L139.025 260.226ZM138.268 274.728C138.403 274.445 138.742 274.325 139.025 274.459L139.455 273.556C138.673 273.184 137.738 273.516 137.365 274.298L138.268 274.728ZM138.537 275.484C138.254 275.349 138.134 275.011 138.268 274.728L137.365 274.298C136.993 275.079 137.325 276.015 138.107 276.387L138.537 275.484ZM168.428 289.718L138.537 275.484L138.107 276.387L167.998 290.621L168.428 289.718ZM169.184 289.449C169.049 289.732 168.711 289.853 168.428 289.718L167.998 290.621C168.779 290.993 169.715 290.661 170.087 289.879L169.184 289.449ZM168.916 288.693C169.199 288.828 169.319 289.166 169.184 289.449L170.087 289.879C170.459 289.098 170.127 288.162 169.346 287.79L168.916 288.693ZM139.025 274.459L168.916 288.693L169.346 287.79L139.455 273.556L139.025 274.459Z" fill="#AEB0B2"/>
<path d="M175.787 291.696H278.982V305.93H175.787V291.696Z" fill="white" stroke="#AEB0B2"/>
<path d="M47.6816 202.023H113.157V291.696H47.6816V202.023Z" fill="white" stroke="#AEB0B2"/>
<rect x="69.7441" y="253.977" width="21.3506" height="12.8104" rx="6.40519" fill="white" stroke="#AEB0B2"/>
<rect x="57.1445" y="189.425" width="46.548" height="3.84675" rx="1.92338" fill="white" stroke="#AEB0B2"/>
<rect x="57.1445" y="193.695" width="46.548" height="3.84675" rx="1.92338" fill="white" stroke="#AEB0B2"/>
<rect x="57.1445" y="197.965" width="46.548" height="3.84675" rx="1.92338" fill="white" stroke="#AEB0B2"/>
<rect x="47.6797" y="184.231" width="65.4753" height="5.69351" rx="2.84675" fill="#AEB0B2"/>
<rect x="76.1465" y="169.286" width="8.54026" height="14.9455" fill="#AEB0B2"/>
<path d="M52.2994 129.31C53.7147 114.842 65.8781 103.811 80.4146 103.811V103.811C94.9511 103.811 107.115 114.842 108.53 129.31L111.625 160.95C112.062 165.416 108.553 169.286 104.065 169.286H56.7644C52.2768 169.286 48.7672 165.416 49.2041 160.95L52.2994 129.31Z" fill="#AEB0B2"/>
<path d="M195.004 202.023H260.479V291.696H195.004V202.023Z" fill="white" stroke="#AEB0B2"/>
<rect x="217.066" y="253.977" width="21.3506" height="12.8104" rx="6.40519" fill="white" stroke="#AEB0B2"/>
<rect x="204.465" y="189.425" width="46.548" height="3.84675" rx="1.92338" fill="white" stroke="#AEB0B2"/>
<rect x="204.465" y="193.695" width="46.548" height="3.84675" rx="1.92338" fill="white" stroke="#AEB0B2"/>
<rect x="204.465" y="197.965" width="46.548" height="3.84675" rx="1.92338" fill="white" stroke="#AEB0B2"/>
<rect x="195" y="184.231" width="65.4753" height="5.69351" rx="2.84675" fill="#AEB0B2"/>
<rect x="223.467" y="169.286" width="8.54026" height="14.9455" fill="#AEB0B2"/>
<path d="M199.624 129.31C201.039 114.842 213.202 103.811 227.739 103.811V103.811C242.275 103.811 254.439 114.842 255.854 129.31L258.949 160.95C259.386 165.416 255.877 169.286 251.389 169.286H204.089C199.601 169.286 196.091 165.416 196.528 160.95L199.624 129.31Z" fill="#AEB0B2"/>
<path fill-rule="evenodd" clip-rule="evenodd" d="M24.9115 112.351C23.7323 112.351 22.7764 113.307 22.7764 114.486V191.348C22.7764 192.527 23.7323 193.483 24.9115 193.483H28.4699V196.33H24.9115C22.1601 196.33 19.9297 194.099 19.9297 191.348V114.486C19.9297 111.734 22.1601 109.504 24.9115 109.504H28.4699V112.351H24.9115Z" fill="white" stroke="#AEB0B2"/>
<path fill-rule="evenodd" clip-rule="evenodd" d="M282.542 112.351C283.721 112.351 284.677 113.307 284.677 114.486V191.348C284.677 192.527 283.721 193.483 282.542 193.483H278.983V196.33H282.542C285.293 196.33 287.523 194.099 287.523 191.348V114.486C287.523 111.734 285.293 109.504 282.542 109.504H278.983V112.351H282.542Z" fill="white" stroke="#AEB0B2"/>
<mask id="mask0_230_59" style="mask-type:alpha" maskUnits="userSpaceOnUse" x="0" y="335" width="308" height="30">
<path d="M7.11688 335.82H300.332L307.449 365H0L7.11688 335.82Z" fill="url(#paint0_linear_230_59)"/>
</mask>
<g mask="url(#mask0_230_59)">
<line y1="-0.5" x2="425.681" y2="-0.5" transform="matrix(-0.636285 0.771454 -0.927145 -0.374701 70.8301 105.296)" stroke="#FF1D10"/>
<line y1="-0.5" x2="425.681" y2="-0.5" transform="matrix(-0.636285 0.771454 -0.927145 -0.374701 76.3066 107.509)" stroke="#FF1D10"/>
<line y1="-0.5" x2="425.681" y2="-0.5" transform="matrix(-0.636285 0.771454 -0.927145 -0.374701 81.7808 109.722)" stroke="#FF1D10"/>
<line y1="-0.5" x2="425.681" y2="-0.5" transform="matrix(-0.636285 0.771454 -0.927145 -0.374701 87.2559 111.935)" stroke="#FF1D10"/>
<line y1="-0.5" x2="425.681" y2="-0.5" transform="matrix(-0.636285 0.771454 -0.927145 -0.374701 92.7363 114.147)" stroke="#FF1D10"/>
<line y1="-0.5" x2="425.681" y2="-0.5" transform="matrix(-0.636285 0.771454 -0.927146 -0.374701 98.2065 116.36)" stroke="#FF1D10"/>
<line y1="-0.5" x2="425.681" y2="-0.5" transform="matrix(-0.636285 0.771454 -0.927145 -0.374701 103.682 118.573)" stroke="#FF1D10"/>
<line y1="-0.5" x2="425.681" y2="-0.5" transform="matrix(-0.636285 0.771454 -0.927145 -0.374701 109.152 120.784)" stroke="#FF1D10"/>
<line y1="-0.5" x2="425.681" y2="-0.5" transform="matrix(-0.636285 0.771454 -0.927145 -0.374701 114.632 122.997)" stroke="#FF1D10"/>
<line y1="-0.5" x2="425.681" y2="-0.5" transform="matrix(-0.636285 0.771454 -0.927145 -0.374701 120.102 125.212)" stroke="#FF1D10"/>
<line y1="-0.5" x2="425.681" y2="-0.5" transform="matrix(-0.636285 0.771454 -0.927146 -0.374701 125.584 127.425)" stroke="#FF1D10"/>
<line y1="-0.5" x2="425.681" y2="-0.5" transform="matrix(-0.636285 0.771454 -0.927145 -0.374701 131.052 129.638)" stroke="#FF1D10"/>
<line y1="-0.5" x2="425.681" y2="-0.5" transform="matrix(-0.636285 0.771454 -0.927145 -0.374701 136.533 131.851)" stroke="#FF1D10"/>
<line y1="-0.5" x2="425.681" y2="-0.5" transform="matrix(-0.636285 0.771454 -0.927145 -0.374701 142.004 134.062)" stroke="#FF1D10"/>
<line y1="-0.5" x2="425.681" y2="-0.5" transform="matrix(-0.636285 0.771454 -0.927145 -0.374701 147.484 136.275)" stroke="#FF1D10"/>
<line y1="-0.5" x2="425.681" y2="-0.5" transform="matrix(-0.636285 0.771454 -0.927145 -0.374701 152.959 138.488)" stroke="#FF1D10"/>
<line y1="-0.5" x2="425.681" y2="-0.5" transform="matrix(-0.636285 0.771454 -0.927145 -0.374701 158.434 140.701)" stroke="#FF1D10"/>
<line y1="-0.5" x2="425.681" y2="-0.5" transform="matrix(-0.636285 0.771454 -0.927145 -0.374701 163.91 142.914)" stroke="#FF1D10"/>
<line y1="-0.5" x2="425.681" y2="-0.5" transform="matrix(-0.636285 0.771454 -0.927145 -0.374701 169.385 145.126)" stroke="#FF1D10"/>
<line y1="-0.5" x2="425.681" y2="-0.5" transform="matrix(-0.636285 0.771454 -0.927145 -0.374701 174.859 147.34)" stroke="#FF1D10"/>
<line y1="-0.5" x2="425.681" y2="-0.5" transform="matrix(-0.636285 0.771454 -0.927145 -0.374701 180.336 149.551)" stroke="#FF1D10"/>
<line y1="-0.5" x2="425.681" y2="-0.5" transform="matrix(-0.636285 0.771454 -0.927145 -0.374701 185.816 151.764)" stroke="#FF1D10"/>
<line y1="-0.5" x2="425.681" y2="-0.5" transform="matrix(-0.636285 0.771454 -0.927145 -0.374701 191.285 153.977)" stroke="#FF1D10"/>
<line y1="-0.5" x2="425.681" y2="-0.5" transform="matrix(-0.636285 0.771454 -0.927145 -0.374701 196.768 156.189)" stroke="#FF1D10"/>
<line y1="-0.5" x2="425.681" y2="-0.5" transform="matrix(-0.636285 0.771454 -0.927145 -0.374701 202.236 158.402)" stroke="#FF1D10"/>
<line y1="-0.5" x2="425.681" y2="-0.5" transform="matrix(-0.636285 0.771454 -0.927145 -0.374701 207.717 160.615)" stroke="#FF1D10"/>
<line y1="-0.5" x2="425.681" y2="-0.5" transform="matrix(-0.636285 0.771454 -0.927145 -0.374701 213.188 162.828)" stroke="#FF1D10"/>
<line y1="-0.5" x2="425.681" y2="-0.5" transform="matrix(-0.636285 0.771454 -0.927145 -0.374701 218.668 165.041)" stroke="#FF1D10"/>
<line y1="-0.5" x2="425.681" y2="-0.5" transform="matrix(-0.636285 0.771454 -0.927145 -0.374701 224.137 167.254)" stroke="#FF1D10"/>
<line y1="-0.5" x2="425.681" y2="-0.5" transform="matrix(-0.636285 0.771454 -0.927145 -0.374701 229.619 169.468)" stroke="#FF1D10"/>
<line y1="-0.5" x2="425.681" y2="-0.5" transform="matrix(-0.636285 0.771454 -0.927145 -0.374701 235.094 171.68)" stroke="#FF1D10"/>
<line y1="-0.5" x2="425.681" y2="-0.5" transform="matrix(-0.636285 0.771454 -0.927145 -0.374701 240.568 173.893)" stroke="#FF1D10"/>
<line y1="-0.5" x2="425.681" y2="-0.5" transform="matrix(-0.636285 0.771454 -0.927145 -0.374701 246.045 176.105)" stroke="#FF1D10"/>
<line y1="-0.5" x2="425.681" y2="-0.5" transform="matrix(-0.636285 0.771454 -0.927145 -0.374701 251.52 178.318)" stroke="#FF1D10"/>
<line y1="-0.5" x2="425.681" y2="-0.5" transform="matrix(-0.636285 0.771454 -0.927145 -0.374701 256.994 180.53)" stroke="#FF1D10"/>
<line y1="-0.5" x2="425.681" y2="-0.5" transform="matrix(-0.636285 0.771454 -0.927145 -0.374701 262.471 182.743)" stroke="#FF1D10"/>
<line y1="-0.5" x2="425.681" y2="-0.5" transform="matrix(-0.636285 0.771454 -0.927145 -0.374701 267.939 184.956)" stroke="#FF1D10"/>
<line y1="-0.5" x2="425.681" y2="-0.5" transform="matrix(-0.636285 0.771454 -0.927145 -0.374701 273.414 187.169)" stroke="#FF1D10"/>
<line y1="-0.5" x2="425.681" y2="-0.5" transform="matrix(-0.636285 0.771454 -0.927145 -0.374701 278.891 189.384)" stroke="#FF1D10"/>
<line y1="-0.5" x2="425.681" y2="-0.5" transform="matrix(-0.636285 0.771454 -0.927145 -0.374701 284.365 191.597)" stroke="#FF1D10"/>
<line y1="-0.5" x2="425.681" y2="-0.5" transform="matrix(-0.636285 0.771454 -0.927145 -0.374701 289.84 193.81)" stroke="#FF1D10"/>
<line y1="-0.5" x2="425.681" y2="-0.5" transform="matrix(-0.636285 0.771454 -0.927145 -0.374701 295.316 196.021)" stroke="#FF1D10"/>
<line y1="-0.5" x2="425.681" y2="-0.5" transform="matrix(-0.636285 0.771454 -0.927145 -0.374701 300.791 198.234)" stroke="#FF1D10"/>
<line y1="-0.5" x2="425.681" y2="-0.5" transform="matrix(-0.636285 0.771454 -0.927145 -0.374701 306.266 200.447)" stroke="#FF1D10"/>
<line y1="-0.5" x2="425.681" y2="-0.5" transform="matrix(-0.636285 0.771454 -0.927145 -0.374701 311.742 202.66)" stroke="#FF1D10"/>
<line y1="-0.5" x2="425.681" y2="-0.5" transform="matrix(-0.636285 0.771454 -0.927145 -0.374701 317.223 204.873)" stroke="#FF1D10"/>
<line y1="-0.5" x2="425.681" y2="-0.5" transform="matrix(-0.636285 0.771454 -0.927145 -0.374701 322.697 207.086)" stroke="#FF1D10"/>
<line y1="-0.5" x2="425.681" y2="-0.5" transform="matrix(-0.636285 0.771454 -0.927145 -0.374701 328.174 209.299)" stroke="#FF1D10"/>
<line y1="-0.5" x2="425.681" y2="-0.5" transform="matrix(-0.636285 0.771454 -0.927145 -0.374701 333.648 211.512)" stroke="#FF1D10"/>
<line y1="-0.5" x2="425.681" y2="-0.5" transform="matrix(-0.636285 0.771454 -0.927145 -0.374701 339.123 213.726)" stroke="#FF1D10"/>
<line y1="-0.5" x2="425.681" y2="-0.5" transform="matrix(-0.636285 0.771454 -0.927145 -0.374701 344.594 215.938)" stroke="#FF1D10"/>
<line y1="-0.5" x2="425.681" y2="-0.5" transform="matrix(-0.636285 0.771454 -0.927145 -0.374701 350.074 218.151)" stroke="#FF1D10"/>
<line y1="-0.5" x2="425.681" y2="-0.5" transform="matrix(-0.636285 0.771454 -0.927145 -0.374701 355.543 220.363)" stroke="#FF1D10"/>
<line y1="-0.5" x2="425.681" y2="-0.5" transform="matrix(-0.636285 0.771454 -0.927145 -0.374701 361.025 222.576)" stroke="#FF1D10"/>
<line y1="-0.5" x2="425.681" y2="-0.5" transform="matrix(-0.636285 0.771454 -0.927145 -0.374701 366.5 224.788)" stroke="#FF1D10"/>
<line y1="-0.5" x2="425.681" y2="-0.5" transform="matrix(-0.636285 0.771454 -0.927145 -0.374701 371.975 227.001)" stroke="#FF1D10"/>
<line y1="-0.5" x2="425.681" y2="-0.5" transform="matrix(-0.636285 0.771454 -0.927145 -0.374701 377.451 229.214)" stroke="#FF1D10"/>
<line y1="-0.5" x2="425.681" y2="-0.5" transform="matrix(-0.636285 0.771454 -0.927145 -0.374701 382.925 231.427)" stroke="#FF1D10"/>
<line y1="-0.5" x2="425.681" y2="-0.5" transform="matrix(-0.636285 0.771454 -0.927145 -0.374701 388.4 233.642)" stroke="#FF1D10"/>
<line y1="-0.5" x2="425.681" y2="-0.5" transform="matrix(-0.636285 0.771454 -0.927145 -0.374701 393.877 235.854)" stroke="#FF1D10"/>
<line y1="-0.5" x2="425.681" y2="-0.5" transform="matrix(-0.636285 0.771454 -0.927145 -0.374701 399.351 238.067)" stroke="#FF1D10"/>
<line y1="-0.5" x2="425.681" y2="-0.5" transform="matrix(-0.636285 0.771454 -0.927145 -0.374701 404.826 240.278)" stroke="#FF1D10"/>
<line y1="-0.5" x2="425.681" y2="-0.5" transform="matrix(-0.636285 0.771454 -0.927145 -0.374701 410.309 242.491)" stroke="#FF1D10"/>
<line y1="-0.5" x2="425.681" y2="-0.5" transform="matrix(-0.636285 0.771454 -0.927145 -0.374701 415.777 244.702)" stroke="#FF1D10"/>
<line y1="-0.5" x2="425.681" y2="-0.5" transform="matrix(-0.636285 0.771454 -0.927145 -0.374701 421.361 246.96)" stroke="#FF1D10"/>
<line y1="-0.5" x2="425.681" y2="-0.5" transform="matrix(-0.636285 0.771454 -0.927145 -0.374701 426.951 249.219)" stroke="#FF1D10"/>
<line y1="-0.5" x2="425.681" y2="-0.5" transform="matrix(-0.636285 0.771454 -0.927145 -0.374701 432.543 251.477)" stroke="#FF1D10"/>
<line y1="-0.5" x2="425.681" y2="-0.5" transform="matrix(-0.636285 0.771454 -0.927145 -0.374701 438.126 253.735)" stroke="#FF1D10"/>
<line y1="-0.5" x2="425.681" y2="-0.5" transform="matrix(-0.636285 0.771454 -0.927145 -0.374701 443.705 255.992)" stroke="#FF1D10"/>
<line y1="-0.5" x2="425.68" y2="-0.5" transform="matrix(-0.636285 0.771454 -0.927145 -0.374701 449.295 258.25)" stroke="#FF1D10"/>
<line y1="-0.5" x2="425.681" y2="-0.5" transform="matrix(-0.636285 0.771454 -0.927145 -0.374701 454.887 260.507)" stroke="#FF1D10"/>
<line y1="-0.5" x2="425.681" y2="-0.5" transform="matrix(-0.636285 0.771454 -0.927145 -0.374701 460.471 262.765)" stroke="#FF1D10"/>
<line y1="-0.5" x2="425.681" y2="-0.5" transform="matrix(-0.636285 0.771454 -0.927145 -0.374701 466.055 265.021)" stroke="#FF1D10"/>
<line y1="-0.5" x2="425.681" y2="-0.5" transform="matrix(-0.636285 0.771454 -0.927145 -0.374701 471.641 267.28)" stroke="#FF1D10"/>
<line y1="-0.5" x2="425.681" y2="-0.5" transform="matrix(-0.636285 0.771454 -0.927145 -0.374701 477.225 269.538)" stroke="#FF1D10"/>
<line y1="-0.5" x2="425.681" y2="-0.5" transform="matrix(-0.636285 0.771454 -0.927145 -0.374701 482.82 271.797)" stroke="#FF1D10"/>
<line y1="-0.5" x2="425.681" y2="-0.5" transform="matrix(-0.636285 0.771454 -0.927145 -0.374701 488.404 274.055)" stroke="#FF1D10"/>
<line y1="-0.5" x2="425.681" y2="-0.5" transform="matrix(-0.636285 0.771454 -0.927146 -0.374701 493.984 276.313)" stroke="#FF1D10"/>
<line y1="-0.5" x2="425.681" y2="-0.5" transform="matrix(-0.636285 0.771454 -0.927145 -0.374701 499.574 278.57)" stroke="#FF1D10"/>
<line y1="-0.5" x2="425.681" y2="-0.5" transform="matrix(-0.636285 0.771454 -0.927146 -0.374701 505.164 280.828)" stroke="#FF1D10"/>
<line y1="-0.5" x2="425.681" y2="-0.5" transform="matrix(-0.636285 0.771454 -0.927145 -0.374701 510.748 283.087)" stroke="#FF1D10"/>
<line y1="-0.5" x2="425.681" y2="-0.5" transform="matrix(-0.636285 0.771454 -0.927145 -0.374701 516.34 285.344)" stroke="#FF1D10"/>
<line y1="-0.5" x2="425.681" y2="-0.5" transform="matrix(-0.636285 0.771454 -0.927145 -0.374701 521.924 287.602)" stroke="#FF1D10"/>
<line y1="-0.5" x2="425.681" y2="-0.5" transform="matrix(-0.636285 0.771454 -0.927146 -0.374701 527.508 289.859)" stroke="#FF1D10"/>
<line y1="-0.5" x2="425.681" y2="-0.5" transform="matrix(-0.636285 0.771454 -0.927145 -0.374701 533.098 292.116)" stroke="#FF1D10"/>
<line y1="-0.5" x2="425.681" y2="-0.5" transform="matrix(-0.636285 0.771454 -0.927146 -0.374701 538.684 294.375)" stroke="#FF1D10"/>
<line y1="-0.5" x2="425.681" y2="-0.5" transform="matrix(-0.636285 0.771454 -0.927145 -0.374701 544.267 296.633)" stroke="#FF1D10"/>
<line y1="-0.5" x2="425.681" y2="-0.5" transform="matrix(-0.636285 0.771454 -0.927145 -0.374701 549.857 298.89)" stroke="#FF1D10"/>
<line y1="-0.5" x2="425.681" y2="-0.5" transform="matrix(-0.636285 0.771454 -0.927145 -0.374701 555.441 301.148)" stroke="#FF1D10"/>
<line y1="-0.5" x2="425.681" y2="-0.5" transform="matrix(-0.636285 0.771454 -0.927145 -0.374701 561.027 303.406)" stroke="#FF1D10"/>
<line y1="-0.5" x2="425.681" y2="-0.5" transform="matrix(-0.636285 0.771454 -0.927145 -0.374701 566.611 305.664)" stroke="#FF1D10"/>
<line y1="-0.5" x2="425.681" y2="-0.5" transform="matrix(-0.636285 0.771454 -0.927145 -0.374701 572.201 307.921)" stroke="#FF1D10"/>
<line y1="-0.5" x2="425.681" y2="-0.5" transform="matrix(-0.636285 0.771454 -0.927145 -0.374701 577.785 310.179)" stroke="#FF1D10"/>
</g>
<path d="M6.55856 338.109C6.88628 336.766 8.09008 335.82 9.47312 335.82H297.976C299.359 335.82 300.563 336.766 300.891 338.109L306.544 361.289C307.005 363.178 305.574 365 303.63 365H3.81964C1.87503 365 0.444304 363.178 0.90509 361.289L6.55856 338.109Z" stroke="#AE261E" stroke-linecap="round" stroke-linejoin="round"/>
<path d="M0.646447 14.6464C0.451184 14.8417 0.451184 15.1583 0.646447 15.3536L3.82843 18.5355C4.02369 18.7308 4.34027 18.7308 4.53553 18.5355C4.7308 18.3403 4.7308 18.0237 4.53553 17.8284L1.70711 15L4.53553 12.1716C4.7308 11.9763 4.7308 11.6597 4.53553 11.4645C4.34027 11.2692 4.02369 11.2692 3.82843 11.4645L0.646447 14.6464ZM307.354 15.3536C307.549 15.1583 307.549 14.8417 307.354 14.6465L304.172 11.4645C303.976 11.2692 303.66 11.2692 303.464 11.4645C303.269 11.6598 303.269 11.9763 303.464 12.1716L306.293 15L303.464 17.8285C303.269 18.0237 303.269 18.3403 303.464 18.5356C303.66 18.7308 303.976 18.7308 304.172 18.5356L307.354 15.3536ZM1 15.5L307 15.5L307 14.5L1 14.5L1 15.5Z" fill="black"/>
<rect x="117" width="75" height="31" rx="6" fill="#0F1926"/>
<path d="M129.64 20H136.36V18.16H132.44L134.6 15.92C134.936 15.616 135.24 15.28 135.512 14.928C135.976 14.336 136.44 13.568 136.44 12.8C136.44 11.12 135.16 9.84 133 9.84C130.92 9.84 129.56 11.2 129.56 13.04H131.48C131.48 12.144 132.04 11.6 133 11.6C133.96 11.6 134.44 12.064 134.44 12.88C134.44 13.328 134.152 13.808 133.88 14.176C133.704 14.384 133.528 14.592 133.32 14.8L129.64 18.64V20ZM137.558 17.12C137.638 18.8 138.902 20.08 141.158 20.08C143.254 20.08 144.678 18.64 144.678 17.2C144.678 16.288 144.294 15.648 143.91 15.264C143.686 15.04 143.43 14.864 143.158 14.72C143.398 14.576 143.606 14.416 143.798 14.224C144.118 13.888 144.438 13.36 144.438 12.64C144.438 11.184 143.078 9.84 141.078 9.84C139.078 9.84 137.718 11.2 137.638 12.72H139.558C139.638 12.16 140.182 11.6 141.078 11.6C141.974 11.6 142.518 12.16 142.518 12.88C142.518 13.6 142.038 14.08 140.998 14.08H140.198V15.68H141.078C142.118 15.68 142.678 16.24 142.678 16.96C142.678 17.68 142.038 18.32 141.078 18.32C140.182 18.32 139.558 17.68 139.478 17.12H137.558ZM150.034 11.68C151.154 11.68 152.274 12.8 152.274 14.96C152.274 17.12 151.154 18.24 150.034 18.24C148.914 18.24 147.794 17.12 147.794 14.96C147.794 12.8 148.914 11.68 150.034 11.68ZM150.034 9.84C147.794 9.84 145.874 11.76 145.874 14.96C145.874 18.16 147.794 20.08 150.034 20.08C152.274 20.08 154.194 18.16 154.194 14.96C154.194 11.76 152.274 9.84 150.034 9.84ZM164.182 17.28C164.102 17.488 163.974 17.664 163.83 17.808C163.574 18.064 163.174 18.32 162.582 18.32C161.542 18.32 160.742 17.536 160.742 16.32C160.742 15.104 161.542 14.32 162.582 14.32C163.174 14.32 163.574 14.592 163.83 14.848C163.974 14.992 164.102 15.168 164.182 15.36H166.022C165.686 13.904 164.342 12.56 162.582 12.56C160.598 12.56 158.902 14.24 158.902 16.32C158.902 18.4 160.598 20.08 162.582 20.08C164.342 20.08 165.686 18.736 166.022 17.28H164.182ZM167.302 20H169.142V16.24L170.902 20H171.862L173.622 16.24V20H175.462V12.64H173.702L171.382 17.6L169.062 12.64H167.302V20ZM176.904 19.04C176.904 19.6 177.384 20.08 177.944 20.08C178.504 20.08 178.984 19.6 178.984 19.04C178.984 18.48 178.504 18 177.944 18C177.384 18 176.904 18.48 176.904 19.04Z" fill="white"/>
<path d="M0.5 39V297" stroke="black" stroke-opacity="0.6" stroke-dasharray="1 4"/>
<path d="M307 39V297" stroke="black" stroke-opacity="0.6" stroke-dasharray="1 4"/>
<defs>
<linearGradient id="paint0_linear_230_59" x1="153.725" y1="335.82" x2="153.725" y2="365" gradientUnits="userSpaceOnUse">
<stop stop-opacity="0"/>
<stop offset="1" stop-opacity="0.3"/>
</linearGradient>
</defs>
</svg>
