<svg width="583" height="384" viewBox="0 0 583 384" fill="none" xmlns="http://www.w3.org/2000/svg">
<path d="M484.5 368C484.5 368.284 484.277 368.699 483.487 369.218C482.722 369.72 481.552 370.233 479.969 370.749C476.81 371.778 472.127 372.778 466.062 373.734C453.939 375.645 436.383 377.367 414.672 378.815C371.255 381.709 311.267 383.5 245 383.5C178.733 383.5 118.745 381.709 75.3276 378.815C53.6168 377.367 36.0607 375.645 23.9382 373.734C17.8734 372.778 13.1895 371.778 10.0308 370.749C8.448 370.233 7.27801 369.72 6.51348 369.218C5.72297 368.699 5.5 368.284 5.5 368C5.5 367.716 5.72297 367.301 6.51348 366.782C7.27801 366.28 8.448 365.767 10.0308 365.251C13.1895 364.222 17.8734 363.222 23.9382 362.266C36.0607 360.355 53.6168 358.633 75.3276 357.185C118.745 354.291 178.733 352.5 245 352.5C311.267 352.5 371.255 354.291 414.672 357.185C436.383 358.633 453.939 360.355 466.062 362.266C472.127 363.222 476.81 364.222 479.969 365.251C481.552 365.767 482.722 366.28 483.487 366.782C484.277 367.301 484.5 367.716 484.5 368Z" stroke="#AE261E"/>
<mask id="mask0_230_58" style="mask-type:alpha" maskUnits="userSpaceOnUse" x="5" y="352" width="480" height="32">
<ellipse cx="245" cy="368" rx="240" ry="16" fill="url(#paint0_linear_230_58)"/>
</mask>
<g mask="url(#mask0_230_58)">
<line y1="-0.5" x2="425.681" y2="-0.5" transform="matrix(-0.636285 0.771454 -0.927145 -0.374701 75.8301 121.297)" stroke="#FF1D10"/>
<line y1="-0.5" x2="425.681" y2="-0.5" transform="matrix(-0.636285 0.771454 -0.927145 -0.374701 81.3066 123.51)" stroke="#FF1D10"/>
<line y1="-0.5" x2="425.681" y2="-0.5" transform="matrix(-0.636285 0.771454 -0.927145 -0.374701 86.781 125.723)" stroke="#FF1D10"/>
<line y1="-0.5" x2="425.681" y2="-0.5" transform="matrix(-0.636285 0.771454 -0.927145 -0.374701 92.2559 127.936)" stroke="#FF1D10"/>
<line y1="-0.5" x2="425.681" y2="-0.5" transform="matrix(-0.636285 0.771454 -0.927145 -0.374701 97.7363 130.148)" stroke="#FF1D10"/>
<line y1="-0.5" x2="425.681" y2="-0.5" transform="matrix(-0.636285 0.771454 -0.927146 -0.374701 103.207 132.361)" stroke="#FF1D10"/>
<line y1="-0.5" x2="425.681" y2="-0.5" transform="matrix(-0.636285 0.771454 -0.927145 -0.374701 108.682 134.574)" stroke="#FF1D10"/>
<line y1="-0.5" x2="425.681" y2="-0.5" transform="matrix(-0.636285 0.771454 -0.927145 -0.374701 114.152 136.785)" stroke="#FF1D10"/>
<line y1="-0.5" x2="425.681" y2="-0.5" transform="matrix(-0.636285 0.771454 -0.927145 -0.374701 119.633 138.998)" stroke="#FF1D10"/>
<line y1="-0.5" x2="425.681" y2="-0.5" transform="matrix(-0.636285 0.771454 -0.927145 -0.374701 125.102 141.213)" stroke="#FF1D10"/>
<line y1="-0.5" x2="425.681" y2="-0.5" transform="matrix(-0.636285 0.771454 -0.927146 -0.374701 130.584 143.426)" stroke="#FF1D10"/>
<line y1="-0.5" x2="425.681" y2="-0.5" transform="matrix(-0.636285 0.771454 -0.927145 -0.374701 136.052 145.639)" stroke="#FF1D10"/>
<line y1="-0.5" x2="425.681" y2="-0.5" transform="matrix(-0.636285 0.771454 -0.927145 -0.374701 141.533 147.852)" stroke="#FF1D10"/>
<line y1="-0.5" x2="425.681" y2="-0.5" transform="matrix(-0.636285 0.771454 -0.927145 -0.374701 147.004 150.063)" stroke="#FF1D10"/>
<line y1="-0.5" x2="425.681" y2="-0.5" transform="matrix(-0.636285 0.771454 -0.927145 -0.374701 152.484 152.276)" stroke="#FF1D10"/>
<line y1="-0.5" x2="425.681" y2="-0.5" transform="matrix(-0.636285 0.771454 -0.927145 -0.374701 157.959 154.489)" stroke="#FF1D10"/>
<line y1="-0.5" x2="425.681" y2="-0.5" transform="matrix(-0.636285 0.771454 -0.927145 -0.374701 163.434 156.702)" stroke="#FF1D10"/>
<line y1="-0.5" x2="425.681" y2="-0.5" transform="matrix(-0.636285 0.771454 -0.927145 -0.374701 168.91 158.915)" stroke="#FF1D10"/>
<line y1="-0.5" x2="425.681" y2="-0.5" transform="matrix(-0.636285 0.771454 -0.927145 -0.374701 174.385 161.127)" stroke="#FF1D10"/>
<line y1="-0.5" x2="425.681" y2="-0.5" transform="matrix(-0.636285 0.771454 -0.927145 -0.374701 179.859 163.341)" stroke="#FF1D10"/>
<line y1="-0.5" x2="425.681" y2="-0.5" transform="matrix(-0.636285 0.771454 -0.927145 -0.374701 185.336 165.552)" stroke="#FF1D10"/>
<line y1="-0.5" x2="425.681" y2="-0.5" transform="matrix(-0.636285 0.771454 -0.927145 -0.374701 190.817 167.765)" stroke="#FF1D10"/>
<line y1="-0.5" x2="425.681" y2="-0.5" transform="matrix(-0.636285 0.771454 -0.927145 -0.374701 196.285 169.978)" stroke="#FF1D10"/>
<line y1="-0.5" x2="425.681" y2="-0.5" transform="matrix(-0.636285 0.771454 -0.927145 -0.374701 201.768 172.19)" stroke="#FF1D10"/>
<line y1="-0.5" x2="425.681" y2="-0.5" transform="matrix(-0.636285 0.771454 -0.927145 -0.374701 207.237 174.403)" stroke="#FF1D10"/>
<line y1="-0.5" x2="425.681" y2="-0.5" transform="matrix(-0.636285 0.771454 -0.927145 -0.374701 212.717 176.616)" stroke="#FF1D10"/>
<line y1="-0.5" x2="425.681" y2="-0.5" transform="matrix(-0.636285 0.771454 -0.927145 -0.374701 218.188 178.829)" stroke="#FF1D10"/>
<line y1="-0.5" x2="425.681" y2="-0.5" transform="matrix(-0.636285 0.771454 -0.927145 -0.374701 223.668 181.042)" stroke="#FF1D10"/>
<line y1="-0.5" x2="425.681" y2="-0.5" transform="matrix(-0.636285 0.771454 -0.927145 -0.374701 229.137 183.255)" stroke="#FF1D10"/>
<line y1="-0.5" x2="425.681" y2="-0.5" transform="matrix(-0.636285 0.771454 -0.927145 -0.374701 234.619 185.469)" stroke="#FF1D10"/>
<line y1="-0.5" x2="425.681" y2="-0.5" transform="matrix(-0.636285 0.771454 -0.927145 -0.374701 240.094 187.681)" stroke="#FF1D10"/>
<line y1="-0.5" x2="425.681" y2="-0.5" transform="matrix(-0.636285 0.771454 -0.927145 -0.374701 245.568 189.894)" stroke="#FF1D10"/>
<line y1="-0.5" x2="425.681" y2="-0.5" transform="matrix(-0.636285 0.771454 -0.927145 -0.374701 251.045 192.106)" stroke="#FF1D10"/>
<line y1="-0.5" x2="425.681" y2="-0.5" transform="matrix(-0.636285 0.771454 -0.927145 -0.374701 256.52 194.319)" stroke="#FF1D10"/>
<line y1="-0.5" x2="425.681" y2="-0.5" transform="matrix(-0.636285 0.771454 -0.927145 -0.374701 261.994 196.531)" stroke="#FF1D10"/>
<line y1="-0.5" x2="425.681" y2="-0.5" transform="matrix(-0.636285 0.771454 -0.927145 -0.374701 267.471 198.744)" stroke="#FF1D10"/>
<line y1="-0.5" x2="425.681" y2="-0.5" transform="matrix(-0.636285 0.771454 -0.927145 -0.374701 272.939 200.957)" stroke="#FF1D10"/>
<line y1="-0.5" x2="425.681" y2="-0.5" transform="matrix(-0.636285 0.771454 -0.927145 -0.374701 278.414 203.17)" stroke="#FF1D10"/>
<line y1="-0.5" x2="425.681" y2="-0.5" transform="matrix(-0.636285 0.771454 -0.927145 -0.374701 283.891 205.385)" stroke="#FF1D10"/>
<line y1="-0.5" x2="425.681" y2="-0.5" transform="matrix(-0.636285 0.771454 -0.927145 -0.374701 289.365 207.598)" stroke="#FF1D10"/>
<line y1="-0.5" x2="425.681" y2="-0.5" transform="matrix(-0.636285 0.771454 -0.927145 -0.374701 294.84 209.811)" stroke="#FF1D10"/>
<line y1="-0.5" x2="425.681" y2="-0.5" transform="matrix(-0.636285 0.771454 -0.927145 -0.374701 300.316 212.022)" stroke="#FF1D10"/>
<line y1="-0.5" x2="425.681" y2="-0.5" transform="matrix(-0.636285 0.771454 -0.927145 -0.374701 305.791 214.235)" stroke="#FF1D10"/>
<line y1="-0.5" x2="425.681" y2="-0.5" transform="matrix(-0.636285 0.771454 -0.927145 -0.374701 311.266 216.448)" stroke="#FF1D10"/>
<line y1="-0.5" x2="425.681" y2="-0.5" transform="matrix(-0.636285 0.771454 -0.927145 -0.374701 316.742 218.661)" stroke="#FF1D10"/>
<line y1="-0.5" x2="425.681" y2="-0.5" transform="matrix(-0.636285 0.771454 -0.927145 -0.374701 322.223 220.874)" stroke="#FF1D10"/>
<line y1="-0.5" x2="425.681" y2="-0.5" transform="matrix(-0.636285 0.771454 -0.927145 -0.374701 327.697 223.087)" stroke="#FF1D10"/>
<line y1="-0.5" x2="425.681" y2="-0.5" transform="matrix(-0.636285 0.771454 -0.927145 -0.374701 333.174 225.3)" stroke="#FF1D10"/>
<line y1="-0.5" x2="425.681" y2="-0.5" transform="matrix(-0.636285 0.771454 -0.927145 -0.374701 338.648 227.513)" stroke="#FF1D10"/>
<line y1="-0.5" x2="425.681" y2="-0.5" transform="matrix(-0.636285 0.771454 -0.927145 -0.374701 344.123 229.727)" stroke="#FF1D10"/>
<line y1="-0.5" x2="425.681" y2="-0.5" transform="matrix(-0.636285 0.771454 -0.927145 -0.374701 349.594 231.939)" stroke="#FF1D10"/>
<line y1="-0.5" x2="425.681" y2="-0.5" transform="matrix(-0.636285 0.771454 -0.927145 -0.374701 355.074 234.152)" stroke="#FF1D10"/>
<line y1="-0.5" x2="425.681" y2="-0.5" transform="matrix(-0.636285 0.771454 -0.927145 -0.374701 360.543 236.364)" stroke="#FF1D10"/>
<line y1="-0.5" x2="425.681" y2="-0.5" transform="matrix(-0.636285 0.771454 -0.927145 -0.374701 366.025 238.577)" stroke="#FF1D10"/>
<line y1="-0.5" x2="425.681" y2="-0.5" transform="matrix(-0.636285 0.771454 -0.927145 -0.374701 371.5 240.789)" stroke="#FF1D10"/>
<line y1="-0.5" x2="425.681" y2="-0.5" transform="matrix(-0.636285 0.771454 -0.927145 -0.374701 376.975 243.002)" stroke="#FF1D10"/>
<line y1="-0.5" x2="425.681" y2="-0.5" transform="matrix(-0.636285 0.771454 -0.927145 -0.374701 382.451 245.215)" stroke="#FF1D10"/>
<line y1="-0.5" x2="425.681" y2="-0.5" transform="matrix(-0.636285 0.771454 -0.927145 -0.374701 387.926 247.428)" stroke="#FF1D10"/>
<line y1="-0.5" x2="425.681" y2="-0.5" transform="matrix(-0.636285 0.771454 -0.927145 -0.374701 393.4 249.643)" stroke="#FF1D10"/>
<line y1="-0.5" x2="425.681" y2="-0.5" transform="matrix(-0.636285 0.771454 -0.927145 -0.374701 398.877 251.855)" stroke="#FF1D10"/>
<line y1="-0.5" x2="425.681" y2="-0.5" transform="matrix(-0.636285 0.771454 -0.927145 -0.374701 404.352 254.068)" stroke="#FF1D10"/>
<line y1="-0.5" x2="425.681" y2="-0.5" transform="matrix(-0.636285 0.771454 -0.927145 -0.374701 409.826 256.279)" stroke="#FF1D10"/>
<line y1="-0.5" x2="425.681" y2="-0.5" transform="matrix(-0.636285 0.771454 -0.927145 -0.374701 415.309 258.492)" stroke="#FF1D10"/>
<line y1="-0.5" x2="425.681" y2="-0.5" transform="matrix(-0.636285 0.771454 -0.927145 -0.374701 420.777 260.703)" stroke="#FF1D10"/>
<line y1="-0.5" x2="425.681" y2="-0.5" transform="matrix(-0.636285 0.771454 -0.927145 -0.374701 426.361 262.961)" stroke="#FF1D10"/>
<line y1="-0.5" x2="425.681" y2="-0.5" transform="matrix(-0.636285 0.771454 -0.927145 -0.374701 431.951 265.22)" stroke="#FF1D10"/>
<line y1="-0.5" x2="425.681" y2="-0.5" transform="matrix(-0.636285 0.771454 -0.927145 -0.374701 437.543 267.478)" stroke="#FF1D10"/>
<line y1="-0.5" x2="425.681" y2="-0.5" transform="matrix(-0.636285 0.771454 -0.927145 -0.374701 443.127 269.736)" stroke="#FF1D10"/>
<line y1="-0.5" x2="425.681" y2="-0.5" transform="matrix(-0.636285 0.771454 -0.927145 -0.374701 448.705 271.993)" stroke="#FF1D10"/>
<line y1="-0.5" x2="425.68" y2="-0.5" transform="matrix(-0.636285 0.771454 -0.927145 -0.374701 454.295 274.251)" stroke="#FF1D10"/>
<line y1="-0.5" x2="425.681" y2="-0.5" transform="matrix(-0.636285 0.771454 -0.927145 -0.374701 459.887 276.508)" stroke="#FF1D10"/>
<line y1="-0.5" x2="425.681" y2="-0.5" transform="matrix(-0.636285 0.771454 -0.927145 -0.374701 465.471 278.766)" stroke="#FF1D10"/>
<line y1="-0.5" x2="425.681" y2="-0.5" transform="matrix(-0.636285 0.771454 -0.927145 -0.374701 471.055 281.022)" stroke="#FF1D10"/>
<line y1="-0.5" x2="425.681" y2="-0.5" transform="matrix(-0.636285 0.771454 -0.927145 -0.374701 476.641 283.281)" stroke="#FF1D10"/>
<line y1="-0.5" x2="425.681" y2="-0.5" transform="matrix(-0.636285 0.771454 -0.927145 -0.374701 482.225 285.539)" stroke="#FF1D10"/>
<line y1="-0.5" x2="425.681" y2="-0.5" transform="matrix(-0.636285 0.771454 -0.927145 -0.374701 487.82 287.798)" stroke="#FF1D10"/>
<line y1="-0.5" x2="425.681" y2="-0.5" transform="matrix(-0.636285 0.771454 -0.927145 -0.374701 493.404 290.056)" stroke="#FF1D10"/>
<line y1="-0.5" x2="425.681" y2="-0.5" transform="matrix(-0.636285 0.771454 -0.927146 -0.374701 498.984 292.314)" stroke="#FF1D10"/>
<line y1="-0.5" x2="425.681" y2="-0.5" transform="matrix(-0.636285 0.771454 -0.927145 -0.374701 504.574 294.571)" stroke="#FF1D10"/>
<line y1="-0.5" x2="425.681" y2="-0.5" transform="matrix(-0.636285 0.771454 -0.927146 -0.374701 510.164 296.829)" stroke="#FF1D10"/>
<line y1="-0.5" x2="425.681" y2="-0.5" transform="matrix(-0.636285 0.771454 -0.927145 -0.374701 515.748 299.088)" stroke="#FF1D10"/>
<line y1="-0.5" x2="425.681" y2="-0.5" transform="matrix(-0.636285 0.771454 -0.927145 -0.374701 521.34 301.345)" stroke="#FF1D10"/>
<line y1="-0.5" x2="425.681" y2="-0.5" transform="matrix(-0.636285 0.771454 -0.927145 -0.374701 526.924 303.603)" stroke="#FF1D10"/>
<line y1="-0.5" x2="425.681" y2="-0.5" transform="matrix(-0.636285 0.771454 -0.927146 -0.374701 532.508 305.86)" stroke="#FF1D10"/>
<line y1="-0.5" x2="425.681" y2="-0.5" transform="matrix(-0.636285 0.771454 -0.927145 -0.374701 538.098 308.117)" stroke="#FF1D10"/>
<line y1="-0.5" x2="425.681" y2="-0.5" transform="matrix(-0.636285 0.771454 -0.927146 -0.374701 543.684 310.376)" stroke="#FF1D10"/>
<line y1="-0.5" x2="425.681" y2="-0.5" transform="matrix(-0.636285 0.771454 -0.927145 -0.374701 549.268 312.634)" stroke="#FF1D10"/>
<line y1="-0.5" x2="425.681" y2="-0.5" transform="matrix(-0.636285 0.771454 -0.927145 -0.374701 554.858 314.891)" stroke="#FF1D10"/>
<line y1="-0.5" x2="425.681" y2="-0.5" transform="matrix(-0.636285 0.771454 -0.927145 -0.374701 560.441 317.149)" stroke="#FF1D10"/>
<line y1="-0.5" x2="425.681" y2="-0.5" transform="matrix(-0.636285 0.771454 -0.927145 -0.374701 566.027 319.407)" stroke="#FF1D10"/>
<line y1="-0.5" x2="425.681" y2="-0.5" transform="matrix(-0.636285 0.771454 -0.927145 -0.374701 571.611 321.665)" stroke="#FF1D10"/>
<line y1="-0.5" x2="425.681" y2="-0.5" transform="matrix(-0.636285 0.771454 -0.927145 -0.374701 577.201 323.922)" stroke="#FF1D10"/>
<line y1="-0.5" x2="425.681" y2="-0.5" transform="matrix(-0.636285 0.771454 -0.927145 -0.374701 582.785 326.18)" stroke="#FF1D10"/>
<line y1="-0.5" x2="425.681" y2="-0.5" transform="matrix(-0.636285 0.771454 -0.927145 -0.374701 588.371 328.438)" stroke="#FF1D10"/>
<line y1="-0.5" x2="425.681" y2="-0.5" transform="matrix(-0.636285 0.771454 -0.927145 -0.374701 593.961 330.697)" stroke="#FF1D10"/>
<line y1="-0.5" x2="425.681" y2="-0.5" transform="matrix(-0.636285 0.771454 -0.927145 -0.374701 599.551 332.953)" stroke="#FF1D10"/>
<line y1="-0.5" x2="425.681" y2="-0.5" transform="matrix(-0.636285 0.771454 -0.927145 -0.374701 605.131 335.21)" stroke="#FF1D10"/>
<line y1="-0.5" x2="425.681" y2="-0.5" transform="matrix(-0.636285 0.771454 -0.927145 -0.374702 610.721 337.47)" stroke="#FF1D10"/>
<line y1="-0.5" x2="425.681" y2="-0.5" transform="matrix(-0.636285 0.771454 -0.927146 -0.374701 616.311 339.727)" stroke="#FF1D10"/>
<line y1="-0.5" x2="425.681" y2="-0.5" transform="matrix(-0.636285 0.771454 -0.927145 -0.374701 621.889 341.984)" stroke="#FF1D10"/>
<line y1="-0.5" x2="425.681" y2="-0.5" transform="matrix(-0.636285 0.771454 -0.927145 -0.374701 627.48 344.243)" stroke="#FF1D10"/>
<line y1="-0.5" x2="425.681" y2="-0.5" transform="matrix(-0.636285 0.771454 -0.927145 -0.374701 633.07 346.499)" stroke="#FF1D10"/>
<line y1="-0.5" x2="425.681" y2="-0.5" transform="matrix(-0.636285 0.771454 -0.927145 -0.374701 638.648 348.758)" stroke="#FF1D10"/>
</g>
<path d="M479.269 186.166V323.836H454.911V329.567H218.493V299.478H71.6277L74.8516 265.448L50.8516 202.045V198.164C50.8516 195.955 52.6424 194.164 54.8516 194.164H112.464V145.149C112.464 142.94 114.254 141.149 116.464 141.149H125.359V116.791L160.464 91H180.523L187.329 96.7313H196.284V93.8657H308.046C308.046 92.283 309.329 91 310.911 91H350.672C379.137 91.9282 436.463 122.52 467.023 152.999C475.719 161.672 479.269 173.884 479.269 186.166Z" fill="white" stroke="#AEB0B2"/>
<path d="M418.374 261.508C386.721 261.508 361.061 287.168 361.061 318.821H475.687C475.687 287.168 450.027 261.508 418.374 261.508Z" fill="#AEB0B2"/>
<path d="M8 348.194H113.045C114.702 348.194 116.045 346.851 116.045 345.194V335.57C116.045 334.513 115.489 333.534 114.581 332.993L98.3938 323.343C97.7886 322.982 97.4179 322.33 97.4179 321.625V320.821C97.4179 319.716 98.3133 318.821 99.4179 318.821H104.582L116.045 312.731L151.866 299.119L173 265.448L74.4925 233.209H62.6716V272.254V290.881H8C6.34315 290.881 5 292.224 5 293.881V345.194C5 346.851 6.34315 348.194 8 348.194Z" fill="#AEB0B2"/>
<rect x="53.2168" y="181.485" width="46.8507" height="3.86567" rx="1.93284" fill="white" stroke="#AEB0B2"/>
<rect x="53.2168" y="185.783" width="46.8507" height="3.86567" rx="1.93284" fill="white" stroke="#AEB0B2"/>
<rect x="53.2168" y="190.082" width="46.8507" height="3.86567" rx="1.93284" fill="white" stroke="#AEB0B2"/>
<path fill-rule="evenodd" clip-rule="evenodd" d="M30.6032 111.511C30.3197 108.581 32.6223 106.045 35.5655 106.045C37.8204 106.045 39.7946 107.559 40.38 109.736L49.9799 145.448H79.3425C81.0162 145.448 82.3729 146.805 82.3729 148.478C82.3729 150.018 81.219 151.312 79.6899 151.489L52.4488 154.632L55.1878 164.821L101.148 166.66C105.067 166.817 108.163 170.039 108.163 173.961C108.163 177.997 104.892 181.269 100.856 181.269H44.9467C40.2936 181.269 36.5216 177.497 36.5216 172.844C36.5216 172.786 36.5221 172.729 36.5233 172.672H36.5221L30.6032 111.511Z" fill="#AEB0B2"/>
<path d="M169.06 254.344C133.45 254.344 104.582 283.211 104.582 318.821H233.537C233.537 283.211 204.67 254.344 169.06 254.344Z" fill="#AEB0B2"/>
<path d="M481.001 330.284H173.061C170.851 330.284 169.061 328.493 169.061 326.284V322.821C169.061 320.612 170.851 318.821 173.061 318.821H481.001C483.21 318.821 485.001 320.612 485.001 322.821V326.284C485.001 328.493 483.21 330.284 481.001 330.284Z" fill="#AEB0B2"/>
<circle cx="169.06" cy="318.82" r="46.3507" stroke="#AEB0B2"/>
<circle cx="169.06" cy="318.82" r="45.8507" fill="#AEB0B2"/>
<path d="M169.06 272.97C143.737 272.97 123.209 293.498 123.209 318.82H214.91C214.91 293.498 194.382 272.97 169.06 272.97Z" fill="white"/>
<circle cx="169.06" cy="318.82" r="34.6716" stroke="#AEB0B2" stroke-width="2"/>
<circle cx="169.06" cy="318.82" r="33.6716" fill="#AEB0B2"/>
<path d="M169.06 352.492C187.657 352.492 202.732 337.417 202.732 318.82H135.389C135.389 337.417 150.464 352.492 169.06 352.492Z" fill="white"/>
<circle cx="169.06" cy="318.821" r="26.5075" fill="#AEB0B2"/>
<circle cx="169.06" cy="318.821" r="21.9254" stroke="white" stroke-width="2"/>
<path fill-rule="evenodd" clip-rule="evenodd" d="M165.779 303.417C166.02 301.97 167.271 300.91 168.738 300.91H169.386C170.853 300.91 172.105 301.97 172.346 303.417L172.644 305.209H165.48L165.779 303.417ZM165.48 332.433H172.644L172.346 334.224C172.105 335.671 170.853 336.731 169.386 336.731H168.738C167.271 336.731 166.02 335.671 165.779 334.224L165.48 332.433ZM180.759 308.275C182.133 307.761 183.677 308.314 184.41 309.584L184.734 310.146C185.467 311.416 185.175 313.03 184.043 313.962L182.64 315.117L179.058 308.912L180.759 308.275ZM155.482 322.524L159.064 328.729L157.363 329.366C155.99 329.88 154.446 329.327 153.713 328.057L153.388 327.495C152.655 326.225 152.947 324.611 154.08 323.679L155.482 322.524ZM184.734 327.495C185.467 326.225 185.175 324.611 184.043 323.679L182.64 322.525L179.058 328.729L180.759 329.366C182.132 329.881 183.676 329.327 184.41 328.057L184.734 327.495ZM155.482 315.117L159.064 308.913L157.363 308.275C155.99 307.761 154.446 308.315 153.712 309.585L153.388 310.146C152.655 311.416 152.947 313.03 154.08 313.963L155.482 315.117ZM169.06 323.835C171.829 323.835 174.075 321.59 174.075 318.82C174.075 316.051 171.829 313.806 169.06 313.806C166.29 313.806 164.045 316.051 164.045 318.82C164.045 321.59 166.29 323.835 169.06 323.835Z" fill="white"/>
<circle cx="418.374" cy="318.82" r="46.8507" stroke="#AEB0B2" stroke-width="2"/>
<circle cx="418.374" cy="318.82" r="45.8507" fill="#AEB0B2"/>
<path d="M418.374 272.97C393.052 272.97 372.523 293.498 372.523 318.82H464.225C464.225 293.498 443.697 272.97 418.374 272.97Z" fill="white"/>
<circle cx="418.375" cy="318.82" r="34.6716" stroke="#AEB0B2" stroke-width="2"/>
<circle cx="418.375" cy="318.82" r="33.6716" fill="#AEB0B2"/>
<path d="M418.375 352.492C436.971 352.492 452.046 337.417 452.046 318.82H384.703C384.703 337.417 399.778 352.492 418.375 352.492Z" fill="white"/>
<circle cx="418.375" cy="318.82" r="26.5075" fill="#AEB0B2"/>
<circle cx="418.375" cy="318.821" r="21.9254" stroke="white" stroke-width="2"/>
<path fill-rule="evenodd" clip-rule="evenodd" d="M415.09 303.417C415.331 301.97 416.582 300.91 418.049 300.91H418.697C420.164 300.91 421.415 301.97 421.656 303.417L421.955 305.209H414.791L415.09 303.417ZM414.791 332.433H421.955L421.656 334.224C421.415 335.671 420.164 336.731 418.697 336.731H418.049C416.582 336.731 415.331 335.671 415.09 334.224L414.791 332.433ZM430.072 308.275C431.445 307.761 432.989 308.314 433.723 309.584L434.047 310.146C434.78 311.416 434.488 313.03 433.355 313.962L431.953 315.117L428.371 308.912L430.072 308.275ZM404.795 322.524L408.377 328.729L406.676 329.366C405.303 329.88 403.759 329.327 403.025 328.057L402.701 327.495C401.968 326.225 402.26 324.611 403.392 323.679L404.795 322.524ZM434.047 327.495C434.78 326.225 434.488 324.611 433.355 323.679L431.953 322.525L428.371 328.729L430.072 329.366C431.445 329.881 432.989 329.327 433.722 328.057L434.047 327.495ZM404.795 315.117L408.377 308.913L406.676 308.275C405.302 307.761 403.758 308.315 403.025 309.585L402.701 310.146C401.968 311.416 402.26 313.03 403.392 313.963L404.795 315.117ZM418.372 323.835C421.142 323.835 423.387 321.59 423.387 318.82C423.387 316.051 421.142 313.806 418.372 313.806C415.603 313.806 413.357 316.051 413.357 318.82C413.357 321.59 415.603 323.835 418.372 323.835Z" fill="white"/>
<path d="M180.881 223.537H250.314C252.523 223.537 254.314 221.746 254.314 219.537V192.741C254.314 191.809 253.988 190.906 253.393 190.188L208.588 136.148C207.828 135.232 206.699 134.701 205.509 134.701H200.284C198.075 134.701 196.284 132.911 196.284 130.701V94.582" stroke="#AEB0B2"/>
<path d="M180.881 265.448V243.239L112.464 228.91V194.164H50.8516V202.045L74.8516 265.448H180.881Z" fill="white"/>
<path d="M254.312 219.955H310.193V225.686H320.939V219.955H445.596" stroke="#AEB0B2"/>
<path d="M244.283 229.985L277.597 270.463L368.224 305.209" stroke="#AEB0B2"/>
<path d="M308.045 93.8652C308.045 94.5595 308.045 95.136 308.045 95.8067C308.045 97.3479 309.209 98.6317 310.728 98.8926C321.723 100.781 338.538 107.711 347.448 114.641C399.534 127.339 429.672 149.586 441.145 161.94C443.211 164.165 444.164 167.15 444.164 170.187V203C444.164 220.673 458.491 235 476.164 235H479.269" stroke="#AEB0B2"/>
<path d="M125.717 141.149H167.209C169.418 141.149 171.209 142.94 171.209 145.149V209.567" stroke="#AEB0B2"/>
<path d="M112.463 194.164V209.209H171.209V223.895" stroke="#AEB0B2"/>
<path d="M112.464 194.164H54.8516C52.6424 194.164 50.8516 195.955 50.8516 198.164V201.307C50.8516 201.795 50.9408 202.278 51.1149 202.734L75.2098 265.806H180.523V257.925V223.537H112.464V209.209" stroke="#AEB0B2"/>
<path d="M180.521 229.985H452.76" stroke="#AEB0B2"/>
<rect x="185.537" y="127.537" width="5.73134" height="17.194" stroke="#AEB0B2"/>
<rect x="177.656" y="115.358" width="2.86567" height="75.9403" stroke="#AEB0B2"/>
<path d="M479.268 283C473.729 283 469.238 278.51 469.238 272.97C469.238 267.431 473.729 262.94 479.268 262.94" stroke="#AEB0B2"/>
<rect x="271.502" y="278.147" width="63.0448" height="2.86567" rx="1.43284" transform="rotate(21.1252 271.502 278.147)" stroke="#AEB0B2"/>
<rect x="257.174" y="283.879" width="63.0448" height="2.86567" rx="1.43284" transform="rotate(21.1252 257.174 283.879)" stroke="#AEB0B2"/>
<rect x="242.846" y="289.61" width="63.0448" height="2.86567" rx="1.43284" transform="rotate(21.1252 242.846 289.61)" stroke="#AEB0B2"/>
<circle cx="179.09" cy="111.059" r="4.29851" stroke="#AEB0B2"/>
<circle cx="179.089" cy="111.059" r="1.43284" fill="#AEB0B2"/>
<circle cx="179.09" cy="195.597" r="4.29851" stroke="#AEB0B2"/>
<circle cx="179.089" cy="195.597" r="1.43284" fill="#AEB0B2"/>
<rect x="96.2012" y="266.022" width="3.86567" height="11.0299" fill="white" stroke="#AEB0B2"/>
<rect x="150.648" y="266.022" width="3.86567" height="11.0299" fill="white" stroke="#AEB0B2"/>
<rect x="91.9023" y="277.485" width="66.9104" height="11.0299" fill="white" stroke="#AEB0B2"/>
<path d="M0.646447 15.6464C0.451184 15.8417 0.451184 16.1583 0.646447 16.3536L3.82843 19.5355C4.02369 19.7308 4.34027 19.7308 4.53553 19.5355C4.7308 19.3403 4.7308 19.0237 4.53553 18.8284L1.70711 16L4.53553 13.1716C4.7308 12.9763 4.7308 12.6597 4.53553 12.4645C4.34027 12.2692 4.02369 12.2692 3.82843 12.4645L0.646447 15.6464ZM481.354 16.3536C481.549 16.1583 481.549 15.8418 481.354 15.6465L478.172 12.4645C477.976 12.2692 477.66 12.2692 477.464 12.4645C477.269 12.6598 477.269 12.9764 477.464 13.1716L480.293 16L477.464 18.8285C477.269 19.0237 477.269 19.3403 477.464 19.5356C477.66 19.7308 477.976 19.7308 478.172 19.5356L481.354 16.3536ZM1 16.5L481 16.5L481 15.5L1 15.5L1 16.5Z" fill="black"/>
<rect x="205" width="74" height="31" rx="6" fill="#0F1926"/>
<path d="M217.48 17.12C217.56 18.8 218.824 20.08 221.08 20.08C223.176 20.08 224.6 18.64 224.6 17.2C224.6 16.288 224.216 15.648 223.832 15.264C223.608 15.04 223.352 14.864 223.08 14.72C223.32 14.576 223.528 14.416 223.72 14.224C224.04 13.888 224.36 13.36 224.36 12.64C224.36 11.184 223 9.84 221 9.84C219 9.84 217.64 11.2 217.56 12.72H219.48C219.56 12.16 220.104 11.6 221 11.6C221.896 11.6 222.44 12.16 222.44 12.88C222.44 13.6 221.96 14.08 220.92 14.08H220.12V15.68H221C222.04 15.68 222.6 16.24 222.6 16.96C222.6 17.68 221.96 18.32 221 18.32C220.104 18.32 219.48 17.68 219.4 17.12H217.48ZM225.636 17.04C225.636 18.64 227.06 20.08 229.236 20.08C231.412 20.08 232.836 18.64 232.836 17.04C232.836 16.128 232.436 15.488 232.036 15.104C231.796 14.88 231.54 14.704 231.236 14.56C231.444 14.416 231.652 14.256 231.828 14.064C232.132 13.728 232.436 13.248 232.436 12.56C232.436 11.12 231.156 9.84 229.236 9.84C227.316 9.84 226.036 11.12 226.036 12.56C226.036 13.248 226.324 13.728 226.628 14.064C226.804 14.256 227.012 14.416 227.236 14.56C226.932 14.704 226.676 14.88 226.436 15.104C226.036 15.488 225.636 16.128 225.636 17.04ZM227.556 16.96C227.556 16.144 228.196 15.52 229.236 15.52C230.276 15.52 230.916 16.144 230.916 16.96C230.916 17.776 230.276 18.4 229.236 18.4C228.196 18.4 227.556 17.776 227.556 16.96ZM227.876 12.72C227.876 12.08 228.42 11.52 229.236 11.52C230.052 11.52 230.596 12.08 230.596 12.72C230.596 13.36 230.052 13.92 229.236 13.92C228.42 13.92 227.876 13.36 227.876 12.72ZM235.393 20H237.393C237.745 19.472 238.097 18.96 238.449 18.464C239.041 17.616 239.729 16.608 240.193 15.92C240.369 15.68 240.529 15.424 240.673 15.152C240.913 14.688 241.153 14.048 241.153 13.36C241.153 11.376 239.633 9.84 237.473 9.84C235.312 9.84 233.793 11.376 233.793 13.36C233.793 15.344 235.473 17.056 237.553 16.8L235.393 20ZM237.473 15.2C236.497 15.2 235.713 14.384 235.713 13.36C235.713 12.336 236.497 11.52 237.473 11.52C238.417 11.52 239.233 12.336 239.233 13.36C239.233 14.384 238.417 15.2 237.473 15.2ZM250.979 17.28C250.899 17.488 250.771 17.664 250.627 17.808C250.371 18.064 249.971 18.32 249.379 18.32C248.339 18.32 247.539 17.536 247.539 16.32C247.539 15.104 248.339 14.32 249.379 14.32C249.971 14.32 250.371 14.592 250.627 14.848C250.771 14.992 250.899 15.168 250.979 15.36H252.819C252.483 13.904 251.139 12.56 249.379 12.56C247.395 12.56 245.699 14.24 245.699 16.32C245.699 18.4 247.395 20.08 249.379 20.08C251.139 20.08 252.483 18.736 252.819 17.28H250.979ZM254.099 20H255.939V16.24L257.699 20H258.659L260.419 16.24V20H262.259V12.64H260.499L258.179 17.6L255.859 12.64H254.099V20ZM263.701 19.04C263.701 19.6 264.181 20.08 264.741 20.08C265.301 20.08 265.781 19.6 265.781 19.04C265.781 18.48 265.301 18 264.741 18C264.181 18 263.701 18.48 263.701 19.04Z" fill="white"/>
<path d="M5 35L4.99999 270" stroke="black" stroke-opacity="0.6" stroke-dasharray="1 4"/>
<path d="M479 39L479 148" stroke="black" stroke-opacity="0.6" stroke-dasharray="1 4"/>
<path d="M546.354 90.6464C546.158 90.4512 545.842 90.4512 545.646 90.6464L542.464 93.8284C542.269 94.0237 542.269 94.3403 542.464 94.5355C542.66 94.7308 542.976 94.7308 543.172 94.5355L546 91.7071L548.828 94.5355C549.024 94.7308 549.34 94.7308 549.536 94.5355C549.731 94.3403 549.731 94.0237 549.536 93.8284L546.354 90.6464ZM545.646 365.354C545.842 365.549 546.158 365.549 546.354 365.354L549.536 362.172C549.731 361.976 549.731 361.66 549.536 361.464C549.34 361.269 549.024 361.269 548.828 361.464L546 364.293L543.172 361.464C542.976 361.269 542.66 361.269 542.464 361.464C542.269 361.66 542.269 361.976 542.464 362.172L545.646 365.354ZM545.5 91L545.5 365L546.5 365L546.5 91L545.5 91Z" fill="black"/>
<path d="M377 91L526 91" stroke="black" stroke-opacity="0.6" stroke-dasharray="1 4"/>
<path d="M496 365L526 365" stroke="black" stroke-opacity="0.6" stroke-dasharray="1 4"/>
<rect x="508" y="212" width="75" height="31" rx="6" fill="#0F1926"/>
<path d="M520.64 232H527.36V230.16H523.44L525.6 227.92C525.936 227.616 526.24 227.28 526.512 226.928C526.976 226.336 527.44 225.568 527.44 224.8C527.44 223.12 526.16 221.84 524 221.84C521.92 221.84 520.56 223.2 520.56 225.04H522.48C522.48 224.144 523.04 223.6 524 223.6C524.96 223.6 525.44 224.064 525.44 224.88C525.44 225.328 525.152 225.808 524.88 226.176C524.704 226.384 524.528 226.592 524.32 226.8L520.64 230.64V232ZM528.718 232H535.438V230.16H531.518L533.678 227.92C534.014 227.616 534.318 227.28 534.59 226.928C535.054 226.336 535.518 225.568 535.518 224.8C535.518 223.12 534.238 221.84 532.078 221.84C529.998 221.84 528.638 223.2 528.638 225.04H530.558C530.558 224.144 531.118 223.6 532.078 223.6C533.038 223.6 533.518 224.064 533.518 224.88C533.518 225.328 533.23 225.808 532.958 226.176C532.782 226.384 532.606 226.592 532.398 226.8L528.718 230.64V232ZM540.956 223.68C542.076 223.68 543.196 224.8 543.196 226.96C543.196 229.12 542.076 230.24 540.956 230.24C539.836 230.24 538.716 229.12 538.716 226.96C538.716 224.8 539.836 223.68 540.956 223.68ZM540.956 221.84C538.716 221.84 536.796 223.76 536.796 226.96C536.796 230.16 538.716 232.08 540.956 232.08C543.196 232.08 545.116 230.16 545.116 226.96C545.116 223.76 543.196 221.84 540.956 221.84ZM555.104 229.28C555.024 229.488 554.896 229.664 554.752 229.808C554.496 230.064 554.096 230.32 553.504 230.32C552.464 230.32 551.664 229.536 551.664 228.32C551.664 227.104 552.464 226.32 553.504 226.32C554.096 226.32 554.496 226.592 554.752 226.848C554.896 226.992 555.024 227.168 555.104 227.36H556.944C556.608 225.904 555.264 224.56 553.504 224.56C551.52 224.56 549.824 226.24 549.824 228.32C549.824 230.4 551.52 232.08 553.504 232.08C555.264 232.08 556.608 230.736 556.944 229.28H555.104ZM558.224 232H560.064V228.24L561.824 232H562.784L564.544 228.24V232H566.384V224.64H564.624L562.304 229.6L559.984 224.64H558.224V232ZM567.826 231.04C567.826 231.6 568.306 232.08 568.866 232.08C569.426 232.08 569.906 231.6 569.906 231.04C569.906 230.48 569.426 230 568.866 230C568.306 230 567.826 230.48 567.826 231.04Z" fill="white"/>
<defs>
<linearGradient id="paint0_linear_230_58" x1="245" y1="352" x2="245" y2="384" gradientUnits="userSpaceOnUse">
<stop stop-opacity="0"/>
<stop offset="1" stop-opacity="0.3"/>
</linearGradient>
</defs>
</svg>
