<svg width="60" height="60" viewBox="0 0 60 60" fill="none" xmlns="http://www.w3.org/2000/svg">
<g opacity="0.8">
<path d="M20.908 8.91628L21.6615 6.5907C21.9696 5.6407 22.8347 5 23.808 5H36.3789C37.3521 5 38.2161 5.6407 38.5242 6.5907L39.2777 8.91628C39.7649 10.4221 38.6754 11.9767 37.1324 11.9767H23.0533C21.5103 11.9767 20.4208 10.4221 20.908 8.91628Z" fill="#0F1926"/>
<path d="M26.6049 11.9766H24.2793V16.6277H26.6049V11.9766Z" fill="#465161"/>
<path d="M35.9071 11.9766H33.5815V16.6277H35.9071V11.9766Z" fill="#465161"/>
<path fill-rule="evenodd" clip-rule="evenodd" d="M43.6304 20.7082L46.1595 29.1186C47.3734 33.1523 47.7897 35.0756 47.385 39.2814L46.8792 44.5349L44.0467 46.8605H16.1397L13.3071 44.5349L12.8013 39.2814C12.3967 35.0756 12.8129 33.1535 14.0269 29.1186L16.556 20.7082C17.2862 18.2803 19.449 16.6279 21.8967 16.6279H38.2897C40.7374 16.6279 42.9001 18.2803 43.6304 20.7082ZM37.0701 41.0464H39.3957C39.3957 36.958 38.3085 25.9522 36.8236 24.0511C35.4399 22.2825 32.7236 21.2034 29.7852 21.2813C26.9689 21.3371 24.5585 22.3871 23.3352 24.0883C21.9689 25.9883 20.791 36.6278 20.791 41.0464H23.1166C23.1166 35.7883 24.4608 26.5801 25.2224 25.4476C26.0096 24.3534 27.7747 23.6476 29.8317 23.6069C32.0271 23.5639 34.0654 24.2987 34.9875 25.4778C35.741 26.558 37.0701 35.7371 37.0701 41.0464Z" fill="#465161"/>
<path d="M42.8852 55H17.3015C16.8294 55 16.3632 54.8918 15.9446 54.686L10.0376 51.7814C9.1992 51.3686 8.62478 50.6011 8.49688 49.7197L8.02711 46.4883C7.78874 44.8407 9.15269 43.3721 10.9259 43.3721C12.3922 43.3721 13.805 43.8883 14.8852 44.8186L15.4376 45.293C16.1434 45.9011 17.1143 46.1477 18.048 45.9488C20.6411 45.3953 25.1108 44.5349 30.0934 44.5349C35.0759 44.5349 39.5457 45.3953 42.1387 45.9488C43.0725 46.1477 44.0434 45.9 44.7492 45.293L45.3015 44.8186C46.3818 43.8883 47.7945 43.3732 49.2608 43.3732C51.0329 43.3732 52.398 44.8418 52.1585 46.4895L51.6887 49.7209C51.5608 50.6011 50.9864 51.3697 50.148 51.7825L44.2411 54.6872C43.8236 54.8918 43.3573 55 42.8852 55Z" fill="#0F1926"/>
</g>
</svg>
