<svg width="1009" height="515" viewBox="0 0 1009 515" fill="none" xmlns="http://www.w3.org/2000/svg">
<path d="M713.5 368C713.5 368.284 713.277 368.699 712.487 369.218C711.722 369.72 710.552 370.233 708.969 370.749C705.81 371.778 701.127 372.778 695.062 373.734C682.939 375.645 665.383 377.367 643.672 378.815C600.255 381.709 540.267 383.5 474 383.5C407.733 383.5 347.745 381.709 304.328 378.815C282.617 377.367 265.061 375.645 252.938 373.734C246.873 372.778 242.19 371.778 239.031 370.749C237.448 370.233 236.278 369.72 235.513 369.218C234.723 368.699 234.5 368.284 234.5 368C234.5 367.716 234.723 367.301 235.513 366.782C236.278 366.28 237.448 365.767 239.031 365.251C242.19 364.222 246.873 363.222 252.938 362.266C265.061 360.355 282.617 358.633 304.328 357.185C347.745 354.291 407.733 352.5 474 352.5C540.267 352.5 600.255 354.291 643.672 357.185C665.383 358.633 682.939 360.355 695.062 362.266C701.127 363.222 705.81 364.222 708.969 365.251C710.552 365.767 711.722 366.28 712.487 366.782C713.277 367.301 713.5 367.716 713.5 368Z" stroke="#AE261E"/>
<mask id="mask0_273_45" style="mask-type:alpha" maskUnits="userSpaceOnUse" x="234" y="352" width="480" height="32">
<ellipse cx="474" cy="368" rx="240" ry="16" fill="url(#paint0_linear_273_45)"/>
</mask>
<g mask="url(#mask0_273_45)">
<line y1="-0.5" x2="425.681" y2="-0.5" transform="matrix(-0.636285 0.771454 -0.927145 -0.374701 304.83 121.297)" stroke="#FF1D10"/>
<line y1="-0.5" x2="425.681" y2="-0.5" transform="matrix(-0.636285 0.771454 -0.927145 -0.374701 310.307 123.51)" stroke="#FF1D10"/>
<line y1="-0.5" x2="425.681" y2="-0.5" transform="matrix(-0.636285 0.771454 -0.927145 -0.374701 315.781 125.723)" stroke="#FF1D10"/>
<line y1="-0.5" x2="425.681" y2="-0.5" transform="matrix(-0.636285 0.771454 -0.927145 -0.374701 321.256 127.936)" stroke="#FF1D10"/>
<line y1="-0.5" x2="425.681" y2="-0.5" transform="matrix(-0.636285 0.771454 -0.927145 -0.374701 326.736 130.148)" stroke="#FF1D10"/>
<line y1="-0.5" x2="425.681" y2="-0.5" transform="matrix(-0.636285 0.771454 -0.927146 -0.374701 332.207 132.361)" stroke="#FF1D10"/>
<line y1="-0.5" x2="425.681" y2="-0.5" transform="matrix(-0.636285 0.771454 -0.927145 -0.374701 337.682 134.574)" stroke="#FF1D10"/>
<line y1="-0.5" x2="425.681" y2="-0.5" transform="matrix(-0.636285 0.771454 -0.927145 -0.374701 343.152 136.785)" stroke="#FF1D10"/>
<line y1="-0.5" x2="425.681" y2="-0.5" transform="matrix(-0.636285 0.771454 -0.927145 -0.374701 348.632 138.998)" stroke="#FF1D10"/>
<line y1="-0.5" x2="425.681" y2="-0.5" transform="matrix(-0.636285 0.771454 -0.927145 -0.374701 354.102 141.213)" stroke="#FF1D10"/>
<line y1="-0.5" x2="425.681" y2="-0.5" transform="matrix(-0.636285 0.771454 -0.927146 -0.374701 359.584 143.426)" stroke="#FF1D10"/>
<line y1="-0.5" x2="425.681" y2="-0.5" transform="matrix(-0.636285 0.771454 -0.927145 -0.374701 365.052 145.639)" stroke="#FF1D10"/>
<line y1="-0.5" x2="425.681" y2="-0.5" transform="matrix(-0.636285 0.771454 -0.927145 -0.374701 370.533 147.852)" stroke="#FF1D10"/>
<line y1="-0.5" x2="425.681" y2="-0.5" transform="matrix(-0.636285 0.771454 -0.927145 -0.374701 376.004 150.063)" stroke="#FF1D10"/>
<line y1="-0.5" x2="425.681" y2="-0.5" transform="matrix(-0.636285 0.771454 -0.927145 -0.374701 381.484 152.276)" stroke="#FF1D10"/>
<line y1="-0.5" x2="425.681" y2="-0.5" transform="matrix(-0.636285 0.771454 -0.927145 -0.374701 386.959 154.489)" stroke="#FF1D10"/>
<line y1="-0.5" x2="425.681" y2="-0.5" transform="matrix(-0.636285 0.771454 -0.927145 -0.374701 392.434 156.702)" stroke="#FF1D10"/>
<line y1="-0.5" x2="425.681" y2="-0.5" transform="matrix(-0.636285 0.771454 -0.927145 -0.374701 397.91 158.915)" stroke="#FF1D10"/>
<line y1="-0.5" x2="425.681" y2="-0.5" transform="matrix(-0.636285 0.771454 -0.927145 -0.374701 403.385 161.127)" stroke="#FF1D10"/>
<line y1="-0.5" x2="425.681" y2="-0.5" transform="matrix(-0.636285 0.771454 -0.927145 -0.374701 408.859 163.341)" stroke="#FF1D10"/>
<line y1="-0.5" x2="425.681" y2="-0.5" transform="matrix(-0.636285 0.771454 -0.927145 -0.374701 414.336 165.552)" stroke="#FF1D10"/>
<line y1="-0.5" x2="425.681" y2="-0.5" transform="matrix(-0.636285 0.771454 -0.927145 -0.374701 419.816 167.765)" stroke="#FF1D10"/>
<line y1="-0.5" x2="425.681" y2="-0.5" transform="matrix(-0.636285 0.771454 -0.927145 -0.374701 425.285 169.978)" stroke="#FF1D10"/>
<line y1="-0.5" x2="425.681" y2="-0.5" transform="matrix(-0.636285 0.771454 -0.927145 -0.374701 430.768 172.19)" stroke="#FF1D10"/>
<line y1="-0.5" x2="425.681" y2="-0.5" transform="matrix(-0.636285 0.771454 -0.927145 -0.374701 436.236 174.403)" stroke="#FF1D10"/>
<line y1="-0.5" x2="425.681" y2="-0.5" transform="matrix(-0.636285 0.771454 -0.927145 -0.374701 441.717 176.616)" stroke="#FF1D10"/>
<line y1="-0.5" x2="425.681" y2="-0.5" transform="matrix(-0.636285 0.771454 -0.927145 -0.374701 447.188 178.829)" stroke="#FF1D10"/>
<line y1="-0.5" x2="425.681" y2="-0.5" transform="matrix(-0.636285 0.771454 -0.927145 -0.374701 452.668 181.042)" stroke="#FF1D10"/>
<line y1="-0.5" x2="425.681" y2="-0.5" transform="matrix(-0.636285 0.771454 -0.927145 -0.374701 458.137 183.255)" stroke="#FF1D10"/>
<line y1="-0.5" x2="425.681" y2="-0.5" transform="matrix(-0.636285 0.771454 -0.927145 -0.374701 463.619 185.469)" stroke="#FF1D10"/>
<line y1="-0.5" x2="425.681" y2="-0.5" transform="matrix(-0.636285 0.771454 -0.927145 -0.374701 469.094 187.681)" stroke="#FF1D10"/>
<line y1="-0.5" x2="425.681" y2="-0.5" transform="matrix(-0.636285 0.771454 -0.927145 -0.374701 474.568 189.894)" stroke="#FF1D10"/>
<line y1="-0.5" x2="425.681" y2="-0.5" transform="matrix(-0.636285 0.771454 -0.927145 -0.374701 480.045 192.106)" stroke="#FF1D10"/>
<line y1="-0.5" x2="425.681" y2="-0.5" transform="matrix(-0.636285 0.771454 -0.927145 -0.374701 485.52 194.319)" stroke="#FF1D10"/>
<line y1="-0.5" x2="425.681" y2="-0.5" transform="matrix(-0.636285 0.771454 -0.927145 -0.374701 490.994 196.531)" stroke="#FF1D10"/>
<line y1="-0.5" x2="425.681" y2="-0.5" transform="matrix(-0.636285 0.771454 -0.927145 -0.374701 496.471 198.744)" stroke="#FF1D10"/>
<line y1="-0.5" x2="425.681" y2="-0.5" transform="matrix(-0.636285 0.771454 -0.927145 -0.374701 501.939 200.957)" stroke="#FF1D10"/>
<line y1="-0.5" x2="425.681" y2="-0.5" transform="matrix(-0.636285 0.771454 -0.927145 -0.374701 507.414 203.17)" stroke="#FF1D10"/>
<line y1="-0.5" x2="425.681" y2="-0.5" transform="matrix(-0.636285 0.771454 -0.927145 -0.374701 512.891 205.385)" stroke="#FF1D10"/>
<line y1="-0.5" x2="425.681" y2="-0.5" transform="matrix(-0.636285 0.771454 -0.927145 -0.374701 518.365 207.598)" stroke="#FF1D10"/>
<line y1="-0.5" x2="425.681" y2="-0.5" transform="matrix(-0.636285 0.771454 -0.927145 -0.374701 523.84 209.811)" stroke="#FF1D10"/>
<line y1="-0.5" x2="425.681" y2="-0.5" transform="matrix(-0.636285 0.771454 -0.927145 -0.374701 529.316 212.022)" stroke="#FF1D10"/>
<line y1="-0.5" x2="425.681" y2="-0.5" transform="matrix(-0.636285 0.771454 -0.927145 -0.374701 534.791 214.235)" stroke="#FF1D10"/>
<line y1="-0.5" x2="425.681" y2="-0.5" transform="matrix(-0.636285 0.771454 -0.927145 -0.374701 540.266 216.448)" stroke="#FF1D10"/>
<line y1="-0.5" x2="425.681" y2="-0.5" transform="matrix(-0.636285 0.771454 -0.927145 -0.374701 545.742 218.661)" stroke="#FF1D10"/>
<line y1="-0.5" x2="425.681" y2="-0.5" transform="matrix(-0.636285 0.771454 -0.927145 -0.374701 551.223 220.874)" stroke="#FF1D10"/>
<line y1="-0.5" x2="425.681" y2="-0.5" transform="matrix(-0.636285 0.771454 -0.927145 -0.374701 556.697 223.087)" stroke="#FF1D10"/>
<line y1="-0.5" x2="425.681" y2="-0.5" transform="matrix(-0.636285 0.771454 -0.927145 -0.374701 562.174 225.3)" stroke="#FF1D10"/>
<line y1="-0.5" x2="425.681" y2="-0.5" transform="matrix(-0.636285 0.771454 -0.927145 -0.374701 567.648 227.513)" stroke="#FF1D10"/>
<line y1="-0.5" x2="425.681" y2="-0.5" transform="matrix(-0.636285 0.771454 -0.927145 -0.374701 573.123 229.727)" stroke="#FF1D10"/>
<line y1="-0.5" x2="425.681" y2="-0.5" transform="matrix(-0.636285 0.771454 -0.927145 -0.374701 578.594 231.939)" stroke="#FF1D10"/>
<line y1="-0.5" x2="425.681" y2="-0.5" transform="matrix(-0.636285 0.771454 -0.927145 -0.374701 584.074 234.152)" stroke="#FF1D10"/>
<line y1="-0.5" x2="425.681" y2="-0.5" transform="matrix(-0.636285 0.771454 -0.927145 -0.374701 589.543 236.364)" stroke="#FF1D10"/>
<line y1="-0.5" x2="425.681" y2="-0.5" transform="matrix(-0.636285 0.771454 -0.927145 -0.374701 595.025 238.577)" stroke="#FF1D10"/>
<line y1="-0.5" x2="425.681" y2="-0.5" transform="matrix(-0.636285 0.771454 -0.927145 -0.374701 600.5 240.789)" stroke="#FF1D10"/>
<line y1="-0.5" x2="425.681" y2="-0.5" transform="matrix(-0.636285 0.771454 -0.927145 -0.374701 605.975 243.002)" stroke="#FF1D10"/>
<line y1="-0.5" x2="425.681" y2="-0.5" transform="matrix(-0.636285 0.771454 -0.927145 -0.374701 611.451 245.215)" stroke="#FF1D10"/>
<line y1="-0.5" x2="425.681" y2="-0.5" transform="matrix(-0.636285 0.771454 -0.927145 -0.374701 616.925 247.428)" stroke="#FF1D10"/>
<line y1="-0.5" x2="425.681" y2="-0.5" transform="matrix(-0.636285 0.771454 -0.927145 -0.374701 622.4 249.643)" stroke="#FF1D10"/>
<line y1="-0.5" x2="425.681" y2="-0.5" transform="matrix(-0.636285 0.771454 -0.927145 -0.374701 627.877 251.855)" stroke="#FF1D10"/>
<line y1="-0.5" x2="425.681" y2="-0.5" transform="matrix(-0.636285 0.771454 -0.927145 -0.374701 633.351 254.068)" stroke="#FF1D10"/>
<line y1="-0.5" x2="425.681" y2="-0.5" transform="matrix(-0.636285 0.771454 -0.927145 -0.374701 638.826 256.279)" stroke="#FF1D10"/>
<line y1="-0.5" x2="425.681" y2="-0.5" transform="matrix(-0.636285 0.771454 -0.927145 -0.374701 644.309 258.492)" stroke="#FF1D10"/>
<line y1="-0.5" x2="425.681" y2="-0.5" transform="matrix(-0.636285 0.771454 -0.927145 -0.374701 649.777 260.703)" stroke="#FF1D10"/>
<line y1="-0.5" x2="425.681" y2="-0.5" transform="matrix(-0.636285 0.771454 -0.927145 -0.374701 655.361 262.961)" stroke="#FF1D10"/>
<line y1="-0.5" x2="425.681" y2="-0.5" transform="matrix(-0.636285 0.771454 -0.927145 -0.374701 660.951 265.22)" stroke="#FF1D10"/>
<line y1="-0.5" x2="425.681" y2="-0.5" transform="matrix(-0.636285 0.771454 -0.927145 -0.374701 666.543 267.478)" stroke="#FF1D10"/>
<line y1="-0.5" x2="425.681" y2="-0.5" transform="matrix(-0.636285 0.771454 -0.927145 -0.374701 672.126 269.736)" stroke="#FF1D10"/>
<line y1="-0.5" x2="425.681" y2="-0.5" transform="matrix(-0.636285 0.771454 -0.927145 -0.374701 677.705 271.993)" stroke="#FF1D10"/>
<line y1="-0.5" x2="425.68" y2="-0.5" transform="matrix(-0.636285 0.771454 -0.927145 -0.374701 683.295 274.251)" stroke="#FF1D10"/>
<line y1="-0.5" x2="425.681" y2="-0.5" transform="matrix(-0.636285 0.771454 -0.927145 -0.374701 688.887 276.508)" stroke="#FF1D10"/>
<line y1="-0.5" x2="425.681" y2="-0.5" transform="matrix(-0.636285 0.771454 -0.927145 -0.374701 694.471 278.766)" stroke="#FF1D10"/>
<line y1="-0.5" x2="425.681" y2="-0.5" transform="matrix(-0.636285 0.771454 -0.927145 -0.374701 700.055 281.022)" stroke="#FF1D10"/>
<line y1="-0.5" x2="425.681" y2="-0.5" transform="matrix(-0.636285 0.771454 -0.927145 -0.374701 705.641 283.281)" stroke="#FF1D10"/>
<line y1="-0.5" x2="425.681" y2="-0.5" transform="matrix(-0.636285 0.771454 -0.927145 -0.374701 711.225 285.539)" stroke="#FF1D10"/>
<line y1="-0.5" x2="425.681" y2="-0.5" transform="matrix(-0.636285 0.771454 -0.927145 -0.374701 716.82 287.798)" stroke="#FF1D10"/>
<line y1="-0.5" x2="425.681" y2="-0.5" transform="matrix(-0.636285 0.771454 -0.927145 -0.374701 722.404 290.056)" stroke="#FF1D10"/>
<line y1="-0.5" x2="425.681" y2="-0.5" transform="matrix(-0.636285 0.771454 -0.927146 -0.374701 727.984 292.314)" stroke="#FF1D10"/>
<line y1="-0.5" x2="425.681" y2="-0.5" transform="matrix(-0.636285 0.771454 -0.927145 -0.374701 733.574 294.571)" stroke="#FF1D10"/>
<line y1="-0.5" x2="425.681" y2="-0.5" transform="matrix(-0.636285 0.771454 -0.927146 -0.374701 739.164 296.829)" stroke="#FF1D10"/>
<line y1="-0.5" x2="425.681" y2="-0.5" transform="matrix(-0.636285 0.771454 -0.927145 -0.374701 744.748 299.088)" stroke="#FF1D10"/>
<line y1="-0.5" x2="425.681" y2="-0.5" transform="matrix(-0.636285 0.771454 -0.927145 -0.374701 750.34 301.345)" stroke="#FF1D10"/>
<line y1="-0.5" x2="425.681" y2="-0.5" transform="matrix(-0.636285 0.771454 -0.927145 -0.374701 755.924 303.603)" stroke="#FF1D10"/>
<line y1="-0.5" x2="425.681" y2="-0.5" transform="matrix(-0.636285 0.771454 -0.927146 -0.374701 761.508 305.86)" stroke="#FF1D10"/>
<line y1="-0.5" x2="425.681" y2="-0.5" transform="matrix(-0.636285 0.771454 -0.927145 -0.374701 767.098 308.117)" stroke="#FF1D10"/>
<line y1="-0.5" x2="425.681" y2="-0.5" transform="matrix(-0.636285 0.771454 -0.927146 -0.374701 772.684 310.376)" stroke="#FF1D10"/>
<line y1="-0.5" x2="425.681" y2="-0.5" transform="matrix(-0.636285 0.771454 -0.927145 -0.374701 778.267 312.634)" stroke="#FF1D10"/>
<line y1="-0.5" x2="425.681" y2="-0.5" transform="matrix(-0.636285 0.771454 -0.927145 -0.374701 783.857 314.891)" stroke="#FF1D10"/>
<line y1="-0.5" x2="425.681" y2="-0.5" transform="matrix(-0.636285 0.771454 -0.927145 -0.374701 789.441 317.149)" stroke="#FF1D10"/>
<line y1="-0.5" x2="425.681" y2="-0.5" transform="matrix(-0.636285 0.771454 -0.927145 -0.374701 795.027 319.407)" stroke="#FF1D10"/>
<line y1="-0.5" x2="425.681" y2="-0.5" transform="matrix(-0.636285 0.771454 -0.927145 -0.374701 800.611 321.665)" stroke="#FF1D10"/>
<line y1="-0.5" x2="425.681" y2="-0.5" transform="matrix(-0.636285 0.771454 -0.927145 -0.374701 806.201 323.922)" stroke="#FF1D10"/>
<line y1="-0.5" x2="425.681" y2="-0.5" transform="matrix(-0.636285 0.771454 -0.927145 -0.374701 811.785 326.18)" stroke="#FF1D10"/>
<line y1="-0.5" x2="425.681" y2="-0.5" transform="matrix(-0.636285 0.771454 -0.927145 -0.374701 817.371 328.438)" stroke="#FF1D10"/>
<line y1="-0.5" x2="425.681" y2="-0.5" transform="matrix(-0.636285 0.771454 -0.927145 -0.374701 822.96 330.697)" stroke="#FF1D10"/>
<line y1="-0.5" x2="425.681" y2="-0.5" transform="matrix(-0.636285 0.771454 -0.927145 -0.374701 828.551 332.953)" stroke="#FF1D10"/>
<line y1="-0.5" x2="425.681" y2="-0.5" transform="matrix(-0.636285 0.771454 -0.927145 -0.374701 834.131 335.21)" stroke="#FF1D10"/>
<line y1="-0.5" x2="425.681" y2="-0.5" transform="matrix(-0.636285 0.771454 -0.927145 -0.374702 839.721 337.47)" stroke="#FF1D10"/>
<line y1="-0.5" x2="425.681" y2="-0.5" transform="matrix(-0.636285 0.771454 -0.927146 -0.374701 845.311 339.727)" stroke="#FF1D10"/>
<line y1="-0.5" x2="425.681" y2="-0.5" transform="matrix(-0.636285 0.771454 -0.927145 -0.374701 850.889 341.984)" stroke="#FF1D10"/>
<line y1="-0.5" x2="425.681" y2="-0.5" transform="matrix(-0.636285 0.771454 -0.927145 -0.374701 856.48 344.243)" stroke="#FF1D10"/>
<line y1="-0.5" x2="425.681" y2="-0.5" transform="matrix(-0.636285 0.771454 -0.927145 -0.374701 862.07 346.499)" stroke="#FF1D10"/>
<line y1="-0.5" x2="425.681" y2="-0.5" transform="matrix(-0.636285 0.771454 -0.927145 -0.374701 867.648 348.758)" stroke="#FF1D10"/>
</g>
<path d="M708.269 186.166V323.836H683.911V329.567H447.493V299.478H300.628L303.852 265.448L279.852 202.045V198.164C279.852 195.955 281.642 194.164 283.852 194.164H341.464V145.149C341.464 142.94 343.254 141.149 345.464 141.149H354.359V116.791L389.464 91H409.523L416.329 96.7313H425.284V93.8657H537.046C537.046 92.283 538.329 91 539.911 91H579.672C608.137 91.9282 665.463 122.52 696.023 152.999C704.719 161.672 708.269 173.884 708.269 186.166Z" fill="white" stroke="#AEB0B2"/>
<path d="M647.374 261.508C615.721 261.508 590.061 287.168 590.061 318.821H704.687C704.687 287.168 679.027 261.508 647.374 261.508Z" fill="#AEB0B2"/>
<path d="M237 348.194H342.045C343.702 348.194 345.045 346.851 345.045 345.194V335.57C345.045 334.513 344.489 333.534 343.581 332.993L327.394 323.343C326.789 322.982 326.418 322.33 326.418 321.625V320.821C326.418 319.716 327.313 318.821 328.418 318.821H333.582L345.045 312.731L380.866 299.119L402 265.448L303.493 233.209H291.672V272.254V290.881H237C235.343 290.881 234 292.224 234 293.881V345.194C234 346.851 235.343 348.194 237 348.194Z" fill="#AEB0B2"/>
<rect x="282.217" y="181.485" width="46.8507" height="3.86567" rx="1.93284" fill="white" stroke="#AEB0B2"/>
<rect x="282.217" y="185.783" width="46.8507" height="3.86567" rx="1.93284" fill="white" stroke="#AEB0B2"/>
<rect x="282.217" y="190.082" width="46.8507" height="3.86567" rx="1.93284" fill="white" stroke="#AEB0B2"/>
<path fill-rule="evenodd" clip-rule="evenodd" d="M259.603 111.511C259.32 108.581 261.622 106.045 264.565 106.045C266.82 106.045 268.795 107.559 269.38 109.736L278.98 145.448H308.342C310.016 145.448 311.373 146.805 311.373 148.478C311.373 150.018 310.219 151.312 308.69 151.489L281.449 154.632L284.188 164.821L330.148 166.66C334.067 166.817 337.163 170.039 337.163 173.961C337.163 177.997 333.892 181.269 329.856 181.269H273.947C269.294 181.269 265.522 177.497 265.522 172.844C265.522 172.786 265.522 172.729 265.523 172.672H265.522L259.603 111.511Z" fill="#AEB0B2"/>
<path d="M398.06 254.344C362.45 254.344 333.582 283.211 333.582 318.821H462.537C462.537 283.211 433.67 254.344 398.06 254.344Z" fill="#AEB0B2"/>
<path d="M710.001 330.284H402.061C399.851 330.284 398.061 328.493 398.061 326.284V322.821C398.061 320.612 399.851 318.821 402.061 318.821H710.001C712.21 318.821 714.001 320.612 714.001 322.821V326.284C714.001 328.493 712.21 330.284 710.001 330.284Z" fill="#AEB0B2"/>
<circle cx="398.06" cy="318.82" r="46.3507" stroke="#AEB0B2"/>
<circle cx="398.06" cy="318.82" r="45.8507" fill="#AEB0B2"/>
<path d="M398.06 272.97C372.737 272.97 352.209 293.498 352.209 318.82H443.91C443.91 293.498 423.382 272.97 398.06 272.97Z" fill="white"/>
<circle cx="398.06" cy="318.82" r="34.6716" stroke="#AEB0B2" stroke-width="2"/>
<circle cx="398.06" cy="318.82" r="33.6716" fill="#AEB0B2"/>
<path d="M398.06 352.492C416.657 352.492 431.732 337.417 431.732 318.82H364.389C364.389 337.417 379.464 352.492 398.06 352.492Z" fill="white"/>
<circle cx="398.06" cy="318.821" r="26.5075" fill="#AEB0B2"/>
<circle cx="398.06" cy="318.821" r="21.9254" stroke="white" stroke-width="2"/>
<path fill-rule="evenodd" clip-rule="evenodd" d="M394.779 303.417C395.02 301.97 396.272 300.91 397.738 300.91H398.387C399.853 300.91 401.105 301.97 401.346 303.417L401.645 305.209H394.48L394.779 303.417ZM394.48 332.433H401.645L401.346 334.224C401.105 335.671 399.853 336.731 398.387 336.731H397.738C396.272 336.731 395.02 335.671 394.779 334.224L394.48 332.433ZM409.759 308.275C411.133 307.761 412.677 308.314 413.41 309.584L413.734 310.146C414.468 311.416 414.175 313.03 413.043 313.962L411.641 315.117L408.059 308.912L409.759 308.275ZM384.482 322.524L388.064 328.729L386.363 329.366C384.99 329.88 383.446 329.327 382.713 328.057L382.389 327.495C381.655 326.225 381.948 324.611 383.08 323.679L384.482 322.524ZM413.734 327.495C414.467 326.225 414.175 324.611 413.043 323.679L411.64 322.525L408.058 328.729L409.759 329.366C411.133 329.881 412.677 329.327 413.41 328.057L413.734 327.495ZM384.482 315.117L388.064 308.913L386.363 308.275C384.99 307.761 383.446 308.315 382.713 309.585L382.388 310.146C381.655 311.416 381.948 313.03 383.08 313.963L384.482 315.117ZM398.06 323.835C400.83 323.835 403.075 321.59 403.075 318.82C403.075 316.051 400.83 313.806 398.06 313.806C395.29 313.806 393.045 316.051 393.045 318.82C393.045 321.59 395.29 323.835 398.06 323.835Z" fill="white"/>
<circle cx="647.374" cy="318.82" r="46.8507" stroke="#AEB0B2" stroke-width="2"/>
<circle cx="647.374" cy="318.82" r="45.8507" fill="#AEB0B2"/>
<path d="M647.374 272.97C622.052 272.97 601.523 293.498 601.523 318.82H693.225C693.225 293.498 672.697 272.97 647.374 272.97Z" fill="white"/>
<circle cx="647.375" cy="318.82" r="34.6716" stroke="#AEB0B2" stroke-width="2"/>
<circle cx="647.375" cy="318.82" r="33.6716" fill="#AEB0B2"/>
<path d="M647.375 352.492C665.971 352.492 681.046 337.417 681.046 318.82H613.703C613.703 337.417 628.778 352.492 647.375 352.492Z" fill="white"/>
<circle cx="647.375" cy="318.82" r="26.5075" fill="#AEB0B2"/>
<circle cx="647.375" cy="318.821" r="21.9254" stroke="white" stroke-width="2"/>
<path fill-rule="evenodd" clip-rule="evenodd" d="M644.09 303.417C644.331 301.97 645.582 300.91 647.049 300.91H647.697C649.164 300.91 650.415 301.97 650.656 303.417L650.955 305.209H643.791L644.09 303.417ZM643.791 332.433H650.955L650.656 334.224C650.415 335.671 649.164 336.731 647.697 336.731H647.049C645.582 336.731 644.331 335.671 644.09 334.224L643.791 332.433ZM659.072 308.275C660.445 307.761 661.989 308.314 662.723 309.584L663.047 310.146C663.78 311.416 663.488 313.03 662.355 313.962L660.953 315.117L657.371 308.912L659.072 308.275ZM633.795 322.524L637.377 328.729L635.676 329.366C634.303 329.88 632.759 329.327 632.025 328.057L631.701 327.495C630.968 326.225 631.26 324.611 632.392 323.679L633.795 322.524ZM663.047 327.495C663.78 326.225 663.488 324.611 662.355 323.679L660.953 322.525L657.371 328.729L659.072 329.366C660.445 329.881 661.989 329.327 662.722 328.057L663.047 327.495ZM633.795 315.117L637.377 308.913L635.676 308.275C634.302 307.761 632.758 308.315 632.025 309.585L631.701 310.146C630.968 311.416 631.26 313.03 632.392 313.963L633.795 315.117ZM647.372 323.835C650.142 323.835 652.387 321.59 652.387 318.82C652.387 316.051 650.142 313.806 647.372 313.806C644.603 313.806 642.357 316.051 642.357 318.82C642.357 321.59 644.603 323.835 647.372 323.835Z" fill="white"/>
<path d="M409.881 223.537H479.314C481.523 223.537 483.314 221.746 483.314 219.537V192.741C483.314 191.809 482.988 190.906 482.393 190.188L437.588 136.148C436.828 135.232 435.699 134.701 434.509 134.701H429.284C427.075 134.701 425.284 132.911 425.284 130.701V94.582" stroke="#AEB0B2"/>
<path d="M409.881 265.448V243.239L341.464 228.91V194.164H279.852V202.045L303.852 265.448H409.881Z" fill="white"/>
<path d="M483.312 219.955H539.193V225.686H549.939V219.955H674.596" stroke="#AEB0B2"/>
<path d="M473.283 229.985L506.597 270.463L597.224 305.209" stroke="#AEB0B2"/>
<path d="M537.045 93.8652C537.045 94.5595 537.045 95.136 537.045 95.8067C537.045 97.3479 538.209 98.6317 539.728 98.8926C550.723 100.781 567.538 107.711 576.448 114.641C628.534 127.339 658.672 149.586 670.145 161.94C672.211 164.165 673.164 167.15 673.164 170.187V203C673.164 220.673 687.491 235 705.164 235H708.269" stroke="#AEB0B2"/>
<path d="M354.717 141.149H396.209C398.418 141.149 400.209 142.94 400.209 145.149V209.567" stroke="#AEB0B2"/>
<path d="M341.463 194.164V209.209H400.209V223.895" stroke="#AEB0B2"/>
<path d="M341.464 194.164H283.852C281.642 194.164 279.852 195.955 279.852 198.164V201.307C279.852 201.795 279.941 202.278 280.115 202.734L304.21 265.806H409.523V257.925V223.537H341.464V209.209" stroke="#AEB0B2"/>
<path d="M409.521 229.985H681.76" stroke="#AEB0B2"/>
<rect x="414.537" y="127.537" width="5.73134" height="17.194" stroke="#AEB0B2"/>
<rect x="406.656" y="115.358" width="2.86567" height="75.9403" stroke="#AEB0B2"/>
<path d="M708.268 283C702.729 283 698.238 278.51 698.238 272.97C698.238 267.431 702.729 262.94 708.268 262.94" stroke="#AEB0B2"/>
<rect x="500.502" y="278.147" width="63.0448" height="2.86567" rx="1.43284" transform="rotate(21.1252 500.502 278.147)" stroke="#AEB0B2"/>
<rect x="486.174" y="283.879" width="63.0448" height="2.86567" rx="1.43284" transform="rotate(21.1252 486.174 283.879)" stroke="#AEB0B2"/>
<rect x="471.846" y="289.61" width="63.0448" height="2.86567" rx="1.43284" transform="rotate(21.1252 471.846 289.61)" stroke="#AEB0B2"/>
<circle cx="408.09" cy="111.059" r="4.29851" stroke="#AEB0B2"/>
<circle cx="408.089" cy="111.059" r="1.43284" fill="#AEB0B2"/>
<circle cx="408.09" cy="195.597" r="4.29851" stroke="#AEB0B2"/>
<circle cx="408.089" cy="195.597" r="1.43284" fill="#AEB0B2"/>
<rect x="325.201" y="266.022" width="3.86567" height="11.0299" fill="white" stroke="#AEB0B2"/>
<rect x="379.648" y="266.022" width="3.86567" height="11.0299" fill="white" stroke="#AEB0B2"/>
<rect x="320.902" y="277.485" width="66.9104" height="11.0299" fill="white" stroke="#AEB0B2"/>
<path d="M229.646 15.6464C229.451 15.8417 229.451 16.1583 229.646 16.3536L232.828 19.5355C233.024 19.7308 233.34 19.7308 233.536 19.5355C233.731 19.3403 233.731 19.0237 233.536 18.8284L230.707 16L233.536 13.1716C233.731 12.9763 233.731 12.6597 233.536 12.4645C233.34 12.2692 233.024 12.2692 232.828 12.4645L229.646 15.6464ZM710.354 16.3536C710.549 16.1583 710.549 15.8418 710.354 15.6465L707.172 12.4645C706.976 12.2692 706.66 12.2692 706.464 12.4645C706.269 12.6598 706.269 12.9764 706.464 13.1716L709.293 16L706.464 18.8285C706.269 19.0237 706.269 19.3403 706.464 19.5356C706.66 19.7308 706.976 19.7308 707.172 19.5356L710.354 16.3536ZM230 16.5L710 16.5L710 15.5L230 15.5L230 16.5Z" fill="black"/>
<rect x="434" width="74" height="31" rx="6" fill="#0F1926"/>
<path d="M446.48 17.12C446.56 18.8 447.824 20.08 450.08 20.08C452.176 20.08 453.6 18.64 453.6 17.2C453.6 16.288 453.216 15.648 452.832 15.264C452.608 15.04 452.352 14.864 452.08 14.72C452.32 14.576 452.528 14.416 452.72 14.224C453.04 13.888 453.36 13.36 453.36 12.64C453.36 11.184 452 9.84 450 9.84C448 9.84 446.64 11.2 446.56 12.72H448.48C448.56 12.16 449.104 11.6 450 11.6C450.896 11.6 451.44 12.16 451.44 12.88C451.44 13.6 450.96 14.08 449.92 14.08H449.12V15.68H450C451.04 15.68 451.6 16.24 451.6 16.96C451.6 17.68 450.96 18.32 450 18.32C449.104 18.32 448.48 17.68 448.4 17.12H446.48ZM454.636 17.04C454.636 18.64 456.06 20.08 458.236 20.08C460.412 20.08 461.836 18.64 461.836 17.04C461.836 16.128 461.436 15.488 461.036 15.104C460.796 14.88 460.54 14.704 460.236 14.56C460.444 14.416 460.652 14.256 460.828 14.064C461.132 13.728 461.436 13.248 461.436 12.56C461.436 11.12 460.156 9.84 458.236 9.84C456.316 9.84 455.036 11.12 455.036 12.56C455.036 13.248 455.324 13.728 455.628 14.064C455.804 14.256 456.012 14.416 456.236 14.56C455.932 14.704 455.676 14.88 455.436 15.104C455.036 15.488 454.636 16.128 454.636 17.04ZM456.556 16.96C456.556 16.144 457.196 15.52 458.236 15.52C459.276 15.52 459.916 16.144 459.916 16.96C459.916 17.776 459.276 18.4 458.236 18.4C457.196 18.4 456.556 17.776 456.556 16.96ZM456.876 12.72C456.876 12.08 457.42 11.52 458.236 11.52C459.052 11.52 459.596 12.08 459.596 12.72C459.596 13.36 459.052 13.92 458.236 13.92C457.42 13.92 456.876 13.36 456.876 12.72ZM464.393 20H466.393C466.745 19.472 467.097 18.96 467.449 18.464C468.041 17.616 468.729 16.608 469.193 15.92C469.369 15.68 469.529 15.424 469.673 15.152C469.913 14.688 470.153 14.048 470.153 13.36C470.153 11.376 468.633 9.84 466.473 9.84C464.312 9.84 462.793 11.376 462.793 13.36C462.793 15.344 464.473 17.056 466.553 16.8L464.393 20ZM466.473 15.2C465.497 15.2 464.713 14.384 464.713 13.36C464.713 12.336 465.497 11.52 466.473 11.52C467.417 11.52 468.233 12.336 468.233 13.36C468.233 14.384 467.417 15.2 466.473 15.2ZM479.979 17.28C479.899 17.488 479.771 17.664 479.627 17.808C479.371 18.064 478.971 18.32 478.379 18.32C477.339 18.32 476.539 17.536 476.539 16.32C476.539 15.104 477.339 14.32 478.379 14.32C478.971 14.32 479.371 14.592 479.627 14.848C479.771 14.992 479.899 15.168 479.979 15.36H481.819C481.483 13.904 480.139 12.56 478.379 12.56C476.395 12.56 474.699 14.24 474.699 16.32C474.699 18.4 476.395 20.08 478.379 20.08C480.139 20.08 481.483 18.736 481.819 17.28H479.979ZM483.099 20H484.939V16.24L486.699 20H487.659L489.419 16.24V20H491.259V12.64H489.499L487.179 17.6L484.859 12.64H483.099V20ZM492.701 19.04C492.701 19.6 493.181 20.08 493.741 20.08C494.301 20.08 494.781 19.6 494.781 19.04C494.781 18.48 494.301 18 493.741 18C493.181 18 492.701 18.48 492.701 19.04Z" fill="white"/>
<path d="M234 35L234 270" stroke="black" stroke-opacity="0.6" stroke-dasharray="1 4"/>
<path d="M708 39L708 148" stroke="black" stroke-opacity="0.6" stroke-dasharray="1 4"/>
<path d="M775.354 90.6464C775.158 90.4512 774.842 90.4512 774.646 90.6464L771.464 93.8284C771.269 94.0237 771.269 94.3403 771.464 94.5355C771.66 94.7308 771.976 94.7308 772.172 94.5355L775 91.7071L777.828 94.5355C778.024 94.7308 778.34 94.7308 778.536 94.5355C778.731 94.3403 778.731 94.0237 778.536 93.8284L775.354 90.6464ZM774.646 365.354C774.842 365.549 775.158 365.549 775.354 365.354L778.536 362.172C778.731 361.976 778.731 361.66 778.536 361.464C778.34 361.269 778.024 361.269 777.828 361.464L775 364.293L772.172 361.464C771.976 361.269 771.66 361.269 771.464 361.464C771.269 361.66 771.269 361.976 771.464 362.172L774.646 365.354ZM774.5 91L774.5 365L775.5 365L775.5 91L774.5 91Z" fill="black"/>
<path d="M606 91L755 91" stroke="black" stroke-opacity="0.6" stroke-dasharray="1 4"/>
<path d="M725 365L755 365" stroke="black" stroke-opacity="0.6" stroke-dasharray="1 4"/>
<rect x="737" y="212" width="75" height="31" rx="6" fill="#0F1926"/>
<path d="M749.64 232H756.36V230.16H752.44L754.6 227.92C754.936 227.616 755.24 227.28 755.512 226.928C755.976 226.336 756.44 225.568 756.44 224.8C756.44 223.12 755.16 221.84 753 221.84C750.92 221.84 749.56 223.2 749.56 225.04H751.48C751.48 224.144 752.04 223.6 753 223.6C753.96 223.6 754.44 224.064 754.44 224.88C754.44 225.328 754.152 225.808 753.88 226.176C753.704 226.384 753.528 226.592 753.32 226.8L749.64 230.64V232ZM757.718 232H764.438V230.16H760.518L762.678 227.92C763.014 227.616 763.318 227.28 763.59 226.928C764.054 226.336 764.518 225.568 764.518 224.8C764.518 223.12 763.238 221.84 761.078 221.84C758.998 221.84 757.638 223.2 757.638 225.04H759.558C759.558 224.144 760.118 223.6 761.078 223.6C762.038 223.6 762.518 224.064 762.518 224.88C762.518 225.328 762.23 225.808 761.958 226.176C761.782 226.384 761.606 226.592 761.398 226.8L757.718 230.64V232ZM769.956 223.68C771.076 223.68 772.196 224.8 772.196 226.96C772.196 229.12 771.076 230.24 769.956 230.24C768.836 230.24 767.716 229.12 767.716 226.96C767.716 224.8 768.836 223.68 769.956 223.68ZM769.956 221.84C767.716 221.84 765.796 223.76 765.796 226.96C765.796 230.16 767.716 232.08 769.956 232.08C772.196 232.08 774.116 230.16 774.116 226.96C774.116 223.76 772.196 221.84 769.956 221.84ZM784.104 229.28C784.024 229.488 783.896 229.664 783.752 229.808C783.496 230.064 783.096 230.32 782.504 230.32C781.464 230.32 780.664 229.536 780.664 228.32C780.664 227.104 781.464 226.32 782.504 226.32C783.096 226.32 783.496 226.592 783.752 226.848C783.896 226.992 784.024 227.168 784.104 227.36H785.944C785.608 225.904 784.264 224.56 782.504 224.56C780.52 224.56 778.824 226.24 778.824 228.32C778.824 230.4 780.52 232.08 782.504 232.08C784.264 232.08 785.608 230.736 785.944 229.28H784.104ZM787.224 232H789.064V228.24L790.824 232H791.784L793.544 228.24V232H795.384V224.64H793.624L791.304 229.6L788.984 224.64H787.224V232ZM796.826 231.04C796.826 231.6 797.306 232.08 797.866 232.08C798.426 232.08 798.906 231.6 798.906 231.04C798.906 230.48 798.426 230 797.866 230C797.306 230 796.826 230.48 796.826 231.04Z" fill="white"/>
<path opacity="0.2" d="M474 431L474 397" stroke="#AE261E"/>
<circle cx="474" cy="385" r="6" fill="#AE261E"/>
<circle cx="474" cy="385" r="9" stroke="#AE261E" stroke-opacity="0.15" stroke-width="6"/>
<path d="M409.503 450.34C410.676 450.34 411.629 450.212 412.363 449.955C413.133 449.698 413.756 449.35 414.233 448.91C414.709 448.47 415.094 447.957 415.388 447.37C415.681 446.783 415.938 446.16 416.158 445.5H420.228V484H414.178V454.63H409.503V450.34ZM445.719 474.76C445.719 477.877 444.912 480.278 443.299 481.965C441.686 483.615 439.339 484.44 436.259 484.44C433.179 484.44 430.832 483.615 429.219 481.965C427.606 480.278 426.799 477.877 426.799 474.76V471.735C426.799 469.865 427.092 468.252 427.679 466.895C428.266 465.502 429.219 464.438 430.539 463.705C428.046 462.348 426.799 459.763 426.799 455.95V454.74C426.799 451.623 427.606 449.24 429.219 447.59C430.832 445.903 433.179 445.06 436.259 445.06C439.339 445.06 441.686 445.903 443.299 447.59C444.912 449.24 445.719 451.623 445.719 454.74V455.95C445.719 459.727 444.472 462.312 441.979 463.705C443.299 464.438 444.252 465.502 444.839 466.895C445.426 468.252 445.719 469.865 445.719 471.735V474.76ZM432.849 474.595C432.849 476.318 433.179 477.473 433.839 478.06C434.499 478.647 435.306 478.94 436.259 478.94C437.212 478.94 438.001 478.647 438.624 478.06C439.284 477.473 439.632 476.318 439.669 474.595V471.02C439.669 469.48 439.357 468.38 438.734 467.72C438.147 467.023 437.322 466.675 436.259 466.675C435.196 466.675 434.352 467.023 433.729 467.72C433.142 468.38 432.849 469.48 432.849 471.02V474.595ZM432.849 457.105C432.849 458.645 433.161 459.708 433.784 460.295C434.444 460.882 435.269 461.175 436.259 461.175C437.212 461.175 438.019 460.882 438.679 460.295C439.339 459.708 439.669 458.645 439.669 457.105V454.96C439.669 453.237 439.339 452.082 438.679 451.495C438.019 450.872 437.212 450.56 436.259 450.56C435.306 450.56 434.499 450.872 433.839 451.495C433.179 452.082 432.849 453.237 432.849 454.96V457.105ZM448.991 455.07C448.991 451.807 449.742 449.332 451.246 447.645C452.749 445.922 455.077 445.06 458.231 445.06C461.201 445.06 463.437 445.903 464.941 447.59C466.481 449.24 467.251 451.623 467.251 454.74V455.73H461.531V454.355C461.531 452.962 461.237 451.99 460.651 451.44C460.101 450.853 459.349 450.56 458.396 450.56C457.332 450.56 456.507 450.89 455.921 451.55C455.334 452.21 455.041 453.457 455.041 455.29V462.33C456.104 460.057 457.974 458.92 460.651 458.92C462.887 458.92 464.556 459.672 465.656 461.175C466.792 462.678 467.361 464.86 467.361 467.72V474.76C467.361 477.877 466.572 480.278 464.996 481.965C463.419 483.615 461.146 484.44 458.176 484.44C455.206 484.44 452.932 483.615 451.356 481.965C449.779 480.278 448.991 477.877 448.991 474.76V455.07ZM458.176 464.42C457.222 464.42 456.452 464.713 455.866 465.3C455.316 465.85 455.041 466.822 455.041 468.215V475.145C455.041 476.538 455.316 477.51 455.866 478.06C456.452 478.61 457.222 478.885 458.176 478.885C459.129 478.885 459.881 478.61 460.431 478.06C461.017 477.51 461.311 476.538 461.311 475.145V468.215C461.311 466.822 461.017 465.85 460.431 465.3C459.881 464.713 459.129 464.42 458.176 464.42ZM476.737 475.145C476.737 476.538 477.012 477.528 477.562 478.115C478.149 478.665 478.919 478.94 479.872 478.94C480.826 478.94 481.577 478.665 482.127 478.115C482.714 477.528 483.007 476.538 483.007 475.145V454.355C483.007 452.962 482.714 451.99 482.127 451.44C481.577 450.853 480.826 450.56 479.872 450.56C478.919 450.56 478.149 450.853 477.562 451.44C477.012 451.99 476.737 452.962 476.737 454.355V475.145ZM470.687 454.74C470.687 451.623 471.476 449.24 473.052 447.59C474.629 445.903 476.902 445.06 479.872 445.06C482.842 445.06 485.116 445.903 486.692 447.59C488.269 449.24 489.057 451.623 489.057 454.74V474.76C489.057 477.877 488.269 480.278 486.692 481.965C485.116 483.615 482.842 484.44 479.872 484.44C476.902 484.44 474.629 483.615 473.052 481.965C471.476 480.278 470.687 477.877 470.687 474.76V454.74ZM514.344 472.835L518.469 445.5H526.884V484H521.164V456.39L516.984 484H511.264L506.754 456.775V484H501.474V445.5H509.889L514.344 472.835ZM538.985 446.16C538.985 445.097 538.802 444.382 538.435 444.015C538.105 443.612 537.628 443.41 537.005 443.41C536.382 443.41 535.887 443.593 535.52 443.96C535.19 444.327 535.025 444.95 535.025 445.83V448.415H531.395V446.05C531.395 444.07 531.872 442.567 532.825 441.54C533.778 440.477 535.208 439.945 537.115 439.945C539.022 439.945 540.452 440.477 541.405 441.54C542.358 442.567 542.835 444.07 542.835 446.05C542.835 447.407 542.633 448.617 542.23 449.68C541.827 450.743 541.313 451.715 540.69 452.595C540.103 453.475 539.462 454.3 538.765 455.07C538.068 455.803 537.427 456.518 536.84 457.215C536.29 457.875 535.85 458.535 535.52 459.195C535.19 459.855 535.098 460.533 535.245 461.23H542.505V464.695H531.395V461.725C531.395 460.552 531.578 459.507 531.945 458.59C532.312 457.673 532.77 456.848 533.32 456.115C533.907 455.345 534.53 454.612 535.19 453.915C535.85 453.218 536.455 452.503 537.005 451.77C537.592 451 538.068 450.175 538.435 449.295C538.802 448.378 538.985 447.333 538.985 446.16Z" fill="#AE261E"/>
<path opacity="0.6" d="M425.109 511H426.369V505.89H429.379V511H430.639V504.7H425.109V511ZM431.474 511L431.6 511.042C431.698 511.056 431.782 511.07 431.894 511.07C433.084 511.07 433.826 510.3 433.924 508.9L434.134 505.89H436.234V511H437.494V504.7H433.014L432.664 508.9C432.608 509.6 432.258 509.95 431.614 509.95H431.474V511ZM441.837 509.88C440.927 509.88 440.087 509.04 440.087 507.85C440.087 506.66 440.927 505.82 441.837 505.82C442.747 505.82 443.587 506.66 443.587 507.85C443.587 509.04 442.747 509.88 441.837 509.88ZM441.837 511.07C443.517 511.07 444.847 509.74 444.847 507.85C444.847 505.96 443.517 504.63 441.837 504.63C440.157 504.63 438.827 505.96 438.827 507.85C438.827 509.74 440.157 511.07 441.837 511.07ZM446.177 511H453.807V512.47H454.997V509.81H454.157V504.7H452.897V509.81H450.797V504.7H449.537V509.81H447.437V504.7H446.177V511ZM460.106 511H461.016V506.87C461.016 505.61 460.036 504.63 458.566 504.63C457.012 504.63 456.116 505.47 456.046 506.59H457.306C457.376 506.156 457.726 505.82 458.566 505.82C459.35 505.82 459.756 506.24 459.756 506.87V507.08C456.676 507.08 455.836 507.92 455.836 509.18C455.836 510.3 456.606 511.07 458.006 511.07C458.636 511.07 459.098 510.902 459.392 510.72C459.56 510.622 459.7 510.496 459.826 510.37L460.106 511ZM459.756 508.536C459.756 509.32 459.14 509.95 458.076 509.95C457.446 509.95 457.096 509.6 457.096 509.25C457.096 508.62 457.516 508.2 459.756 508.2V508.536ZM461.784 512.47H462.974V511H467.314V512.47H468.504V509.81H467.664V504.7H463.394L462.974 508.62C462.932 509.012 462.736 509.292 462.554 509.502C462.456 509.614 462.33 509.712 462.204 509.81H461.784V512.47ZM463.744 509.81L463.954 509.502C464.066 509.292 464.192 509.012 464.234 508.62L464.514 505.89H466.404V509.81H463.744ZM469.624 511H472.424C473.698 511 474.594 510.09 474.594 508.9C474.594 507.71 473.698 506.8 472.424 506.8H470.884V504.7H469.624V511ZM470.884 509.81V507.99H472.424C472.914 507.99 473.334 508.41 473.334 508.9C473.334 509.39 472.914 509.81 472.424 509.81H470.884ZM478.446 508.97C478.516 510.314 479.272 511.07 480.826 511.07C482.296 511.07 483.136 510.23 483.136 509.11C483.136 508.662 482.912 508.326 482.702 508.102C482.576 507.976 482.436 507.864 482.282 507.78C482.408 507.696 482.534 507.598 482.632 507.472C482.814 507.262 482.996 506.954 482.996 506.52C482.996 505.47 482.156 504.63 480.826 504.63C479.356 504.63 478.586 505.4 478.516 506.59H479.776C479.846 506.156 480.196 505.82 480.826 505.82C481.54 505.82 481.806 506.17 481.806 506.52C481.806 506.87 481.54 507.22 480.826 507.22H480.266V508.34H480.826C481.61 508.34 481.946 508.676 481.946 509.11C481.946 509.544 481.61 509.88 480.826 509.88C480.112 509.88 479.776 509.53 479.706 508.97H478.446ZM488.462 511H489.372V506.87C489.372 505.61 488.392 504.63 486.922 504.63C485.368 504.63 484.472 505.47 484.402 506.59H485.662C485.732 506.156 486.082 505.82 486.922 505.82C487.706 505.82 488.112 506.24 488.112 506.87V507.08C485.032 507.08 484.192 507.92 484.192 509.18C484.192 510.3 484.962 511.07 486.362 511.07C486.992 511.07 487.454 510.902 487.748 510.72C487.916 510.622 488.056 510.496 488.182 510.37L488.462 511ZM488.112 508.536C488.112 509.32 487.496 509.95 486.432 509.95C485.802 509.95 485.452 509.6 485.452 509.25C485.452 508.62 485.872 508.2 488.112 508.2V508.536ZM490.14 511L490.266 511.042C490.364 511.056 490.448 511.07 490.56 511.07C491.75 511.07 492.492 510.3 492.59 508.9L492.8 505.89H494.9V511H496.16V504.7H491.68L491.33 508.9C491.274 509.6 490.924 509.95 490.28 509.95H490.14V511ZM497.843 511H499.103L502.113 506.59V511H503.373V504.7H502.113L499.103 509.11V504.7H497.843V511ZM505.048 511H508.198C509.318 511 510.088 510.23 510.088 509.18C510.088 508.662 509.85 508.284 509.626 508.046C509.5 507.906 509.346 507.794 509.178 507.71C509.304 507.626 509.43 507.528 509.528 507.416C509.696 507.206 509.878 506.912 509.878 506.45C509.878 505.47 509.108 504.7 507.988 504.7H505.048V511ZM506.308 507.29V505.75H507.848C508.282 505.75 508.618 506.086 508.618 506.52C508.618 506.954 508.282 507.29 507.848 507.29H506.308ZM506.308 509.95V508.34H508.058C508.492 508.34 508.828 508.676 508.828 509.11C508.828 509.6 508.492 509.95 508.058 509.95H506.308ZM511.419 511H512.679V507.99L515.129 511H516.669L513.869 507.64L516.319 504.7H514.849L512.679 507.43V504.7H511.419V511ZM517.366 511H518.626L521.636 506.59V511H522.896V504.7H521.636L518.626 509.11V504.7H517.366V511Z" fill="#1D293C"/>
<path opacity="0.2" d="M214.964 59L463.614 59V105" stroke="#AE261E"/>
<ellipse cx="463.614" cy="117" rx="5.38593" ry="6" fill="#AE261E"/>
<path d="M463.614 126C468.542 126 472 121.658 472 117C472 112.342 468.542 108 463.614 108C458.686 108 455.228 112.342 455.228 117C455.228 121.658 458.686 126 463.614 126Z" stroke="#AE261E" stroke-opacity="0.15" stroke-width="6"/>
<path d="M110.69 66.76C110.69 69.8767 109.883 72.2783 108.27 73.965C106.657 75.615 104.31 76.44 101.23 76.44C98.1498 76.44 95.8032 75.615 94.1898 73.965C92.5765 72.2783 91.7698 69.8767 91.7698 66.76V63.735C91.7698 61.865 92.0632 60.2517 92.6498 58.895C93.2365 57.5017 94.1898 56.4383 95.5098 55.705C93.0165 54.3483 91.7698 51.7633 91.7698 47.95V46.74C91.7698 43.6233 92.5765 41.24 94.1898 39.59C95.8032 37.9033 98.1498 37.06 101.23 37.06C104.31 37.06 106.657 37.9033 108.27 39.59C109.883 41.24 110.69 43.6233 110.69 46.74V47.95C110.69 51.7267 109.443 54.3117 106.95 55.705C108.27 56.4383 109.223 57.5017 109.81 58.895C110.397 60.2517 110.69 61.865 110.69 63.735V66.76ZM97.8198 66.595C97.8198 68.3183 98.1498 69.4733 98.8098 70.06C99.4698 70.6467 100.277 70.94 101.23 70.94C102.183 70.94 102.972 70.6467 103.595 70.06C104.255 69.4733 104.603 68.3183 104.64 66.595V63.02C104.64 61.48 104.328 60.38 103.705 59.72C103.118 59.0233 102.293 58.675 101.23 58.675C100.167 58.675 99.3232 59.0233 98.6998 59.72C98.1132 60.38 97.8198 61.48 97.8198 63.02V66.595ZM97.8198 49.105C97.8198 50.645 98.1315 51.7083 98.7548 52.295C99.4148 52.8817 100.24 53.175 101.23 53.175C102.183 53.175 102.99 52.8817 103.65 52.295C104.31 51.7083 104.64 50.645 104.64 49.105V46.96C104.64 45.2367 104.31 44.0817 103.65 43.495C102.99 42.8717 102.183 42.56 101.23 42.56C100.277 42.56 99.4698 42.8717 98.8098 43.495C98.1498 44.0817 97.8198 45.2367 97.8198 46.96V49.105ZM119.791 63.57V67.145C119.791 68.5383 120.066 69.51 120.616 70.06C121.203 70.61 121.973 70.885 122.926 70.885C123.88 70.885 124.631 70.61 125.181 70.06C125.768 69.51 126.061 68.5383 126.061 67.145V58.675C126.061 57.2817 125.768 56.31 125.181 55.76C124.631 55.1733 123.88 54.88 122.926 54.88C121.973 54.88 121.203 55.1733 120.616 55.76C120.066 56.31 119.791 57.2817 119.791 58.675V59.83H114.071L115.171 37.5H131.121V43H120.616L120.121 52.185C121.258 50.315 123.018 49.38 125.401 49.38C127.638 49.38 129.306 50.1317 130.406 51.635C131.543 53.1383 132.111 55.32 132.111 58.18V66.76C132.111 69.8767 131.341 72.2783 129.801 73.965C128.298 75.615 126.061 76.44 123.091 76.44C120.121 76.44 117.866 75.615 116.326 73.965C114.823 72.2783 114.071 69.8767 114.071 66.76V63.57H119.791ZM141.708 67.145C141.708 68.5383 141.983 69.5283 142.533 70.115C143.12 70.665 143.89 70.94 144.843 70.94C145.796 70.94 146.548 70.665 147.098 70.115C147.685 69.5283 147.978 68.5383 147.978 67.145V46.355C147.978 44.9617 147.685 43.99 147.098 43.44C146.548 42.8533 145.796 42.56 144.843 42.56C143.89 42.56 143.12 42.8533 142.533 43.44C141.983 43.99 141.708 44.9617 141.708 46.355V67.145ZM135.658 46.74C135.658 43.6233 136.446 41.24 138.023 39.59C139.6 37.9033 141.873 37.06 144.843 37.06C147.813 37.06 150.086 37.9033 151.663 39.59C153.24 41.24 154.028 43.6233 154.028 46.74V66.76C154.028 69.8767 153.24 72.2783 151.663 73.965C150.086 75.615 147.813 76.44 144.843 76.44C141.873 76.44 139.6 75.615 138.023 73.965C136.446 72.2783 135.658 69.8767 135.658 66.76V46.74ZM164.795 70.555C165.491 70.555 166.06 70.5183 166.5 70.445C166.976 70.3717 167.361 70.2067 167.655 69.95C167.948 69.6567 168.15 69.2533 168.26 68.74C168.406 68.19 168.498 67.475 168.535 66.595L169.525 37.5H186.63V76H180.47V43H175.19L174.53 66.265C174.42 69.785 173.668 72.2967 172.275 73.8C170.918 75.3033 168.736 76.055 165.73 76.055H164.795V70.555Z" fill="#0F1926"/>
<path opacity="0.6" d="M91.0269 97.8486C91.0269 97.5479 90.9767 97.2744 90.8765 97.0283C90.7808 96.7822 90.6532 96.568 90.4937 96.3857C90.3342 96.2035 90.1473 96.0645 89.9331 95.9688C89.7189 95.8685 89.5002 95.8184 89.2769 95.8184C89.0536 95.8184 88.8348 95.8685 88.6206 95.9688C88.4064 96.0645 88.2196 96.2035 88.0601 96.3857C87.9006 96.568 87.7707 96.7845 87.6704 97.0352C87.5747 97.2812 87.5269 97.5524 87.5269 97.8486C87.5269 98.1494 87.5747 98.4229 87.6704 98.6689C87.7707 98.915 87.9006 99.1292 88.0601 99.3115C88.2196 99.4938 88.4064 99.6351 88.6206 99.7354C88.8348 99.8311 89.0536 99.8789 89.2769 99.8789C89.5002 99.8789 89.7189 99.8311 89.9331 99.7354C90.1473 99.6351 90.3342 99.4938 90.4937 99.3115C90.6532 99.1292 90.7808 98.915 90.8765 98.6689C90.9767 98.4229 91.0269 98.1494 91.0269 97.8486ZM92.2847 97.8486C92.2847 98.3226 92.2072 98.7578 92.0523 99.1543C91.9019 99.5462 91.6877 99.8857 91.4097 100.173C91.1362 100.455 90.8172 100.676 90.4527 100.836C90.0881 100.991 89.6961 101.068 89.2769 101.068C88.8576 101.068 88.4657 100.991 88.1011 100.836C87.7365 100.676 87.4152 100.455 87.1372 100.173C86.8638 99.8857 86.6496 99.5462 86.4946 99.1543C86.3443 98.7624 86.2691 98.3271 86.2691 97.8486C86.2691 97.3747 86.3443 96.9417 86.4946 96.5498C86.6496 96.1579 86.8638 95.8206 87.1372 95.5381C87.4152 95.251 87.7365 95.0277 88.1011 94.8682C88.4657 94.7087 88.8576 94.6289 89.2769 94.6289C89.6961 94.6289 90.0881 94.7087 90.4527 94.8682C90.8172 95.0277 91.1362 95.251 91.4097 95.5381C91.6877 95.8206 91.9019 96.1579 92.0523 96.5498C92.2072 96.9417 92.2847 97.3747 92.2847 97.8486ZM96.5571 94.9092C96.94 94.9092 97.3068 94.9889 97.6577 95.1484C98.0086 95.3079 98.314 95.5267 98.5737 95.8047C98.8335 96.0781 99.0409 96.4017 99.1958 96.7754C99.3508 97.1445 99.4282 97.5501 99.4282 97.9922C99.4282 98.4297 99.3508 98.8353 99.1958 99.209C99.0409 99.5827 98.8244 99.9085 98.5464 100.187C98.273 100.46 97.954 100.676 97.5894 100.836C97.2293 100.991 96.8374 101.068 96.4136 101.068C95.9761 101.068 95.5705 100.989 95.1968 100.829C94.8231 100.665 94.4995 100.417 94.2261 100.084C93.9527 99.7513 93.7362 99.3411 93.5767 98.8535C93.4172 98.3613 93.3374 97.7939 93.3374 97.1514C93.3374 96.2445 93.4286 95.4743 93.6109 94.8408C93.7931 94.2074 94.0916 93.6901 94.5064 93.2891C94.9211 92.8835 95.4657 92.5827 96.1402 92.3867C96.8192 92.1908 97.6577 92.0745 98.6558 92.0381V93.3027C97.8993 93.321 97.2749 93.3848 96.7827 93.4941C96.2951 93.599 95.9032 93.7562 95.6069 93.9658C95.3153 94.1755 95.0988 94.4398 94.9575 94.7588C94.8208 95.0732 94.7228 95.4492 94.6636 95.8867C94.7866 95.709 94.937 95.5472 95.1148 95.4014C95.2743 95.2783 95.4702 95.1667 95.7027 95.0664C95.9351 94.9616 96.2199 94.9092 96.5571 94.9092ZM96.4136 99.8789C96.6369 99.8789 96.8556 99.8311 97.0698 99.7354C97.2886 99.6351 97.4754 99.4984 97.6304 99.3252C97.7899 99.152 97.9175 98.9515 98.0132 98.7236C98.1135 98.4958 98.1636 98.252 98.1636 97.9922C98.1636 97.7324 98.1135 97.4886 98.0132 97.2607C97.9175 97.0283 97.7899 96.8255 97.6304 96.6523C97.4754 96.4792 97.2909 96.3447 97.0767 96.249C96.8625 96.1488 96.6415 96.0986 96.4136 96.0986C96.1903 96.0986 95.9715 96.1488 95.7573 96.249C95.5431 96.3447 95.3563 96.4792 95.1968 96.6523C95.0373 96.8255 94.9074 97.026 94.8071 97.2539C94.7114 97.4818 94.6636 97.7279 94.6636 97.9922C94.6636 98.252 94.7114 98.4958 94.8071 98.7236C94.9074 98.9515 95.0373 99.152 95.1968 99.3252C95.3563 99.4984 95.5431 99.6351 95.7573 99.7354C95.9715 99.8311 96.1903 99.8789 96.4136 99.8789ZM104.254 96.8027C104.573 96.8027 104.865 96.8574 105.129 96.9668C105.394 97.0716 105.622 97.2174 105.813 97.4043C106.004 97.5911 106.153 97.8122 106.257 98.0674C106.367 98.3226 106.421 98.6006 106.421 98.9014C106.421 99.2021 106.367 99.4801 106.257 99.7354C106.153 99.9906 106.004 100.212 105.813 100.398C105.622 100.585 105.394 100.733 105.129 100.843C104.865 100.948 104.573 101 104.254 101H101.452V95.8867H99.9136V94.6973H102.716V96.8027H104.254ZM104.254 99.8105C104.496 99.8105 104.708 99.7194 104.89 99.5371C105.072 99.3548 105.164 99.1429 105.164 98.9014C105.164 98.6598 105.072 98.4479 104.89 98.2656C104.708 98.0833 104.496 97.9922 104.254 97.9922H102.716V99.8105H104.254ZM113.08 99.1816C112.975 99.4414 112.843 99.6852 112.683 99.9131C112.524 100.141 112.332 100.341 112.109 100.515C111.886 100.688 111.626 100.825 111.33 100.925C111.038 101.021 110.71 101.068 110.345 101.068C109.926 101.068 109.534 100.991 109.169 100.836C108.805 100.676 108.486 100.455 108.212 100.173C107.939 99.8857 107.725 99.5462 107.57 99.1543C107.415 98.7624 107.337 98.3271 107.337 97.8486C107.337 97.3747 107.415 96.9417 107.57 96.5498C107.725 96.1579 107.934 95.8206 108.199 95.5381C108.463 95.251 108.775 95.0277 109.135 94.8682C109.495 94.7087 109.876 94.6289 110.277 94.6289C110.678 94.6289 111.058 94.7087 111.418 94.8682C111.778 95.0277 112.091 95.251 112.355 95.5381C112.619 95.8206 112.829 96.1579 112.984 96.5498C113.139 96.9417 113.216 97.3747 113.216 97.8486C113.216 97.9215 113.212 97.9945 113.203 98.0674C113.194 98.1357 113.184 98.195 113.175 98.2451C113.166 98.3089 113.157 98.3636 113.148 98.4092H108.664C108.682 98.6051 108.739 98.792 108.834 98.9697C108.93 99.1475 109.049 99.3047 109.19 99.4414C109.336 99.5736 109.509 99.6807 109.709 99.7627C109.91 99.8402 110.122 99.8789 110.345 99.8789C110.728 99.8789 111.031 99.7969 111.254 99.6328C111.482 99.4688 111.646 99.3184 111.747 99.1816H113.08ZM110.277 95.8184C109.858 95.8184 109.502 95.9619 109.21 96.249C108.923 96.5316 108.741 96.903 108.664 97.3633H112.027C111.954 96.9076 111.767 96.5361 111.466 96.249C111.17 95.9619 110.774 95.8184 110.277 95.8184ZM117.489 101L115.807 97.5V101H114.549V94.6973H115.67L117.906 99.3184L120.148 94.6973H121.269V101H120.011V97.5L118.33 101H117.489ZM128.959 94.9092C129.342 94.9092 129.709 94.9889 130.06 95.1484C130.411 95.3079 130.716 95.5267 130.976 95.8047C131.236 96.0781 131.443 96.4017 131.598 96.7754C131.753 97.1445 131.831 97.5501 131.831 97.9922C131.831 98.4297 131.753 98.8353 131.598 99.209C131.443 99.5827 131.227 99.9085 130.949 100.187C130.675 100.46 130.356 100.676 129.992 100.836C129.632 100.991 129.24 101.068 128.816 101.068C128.378 101.068 127.973 100.989 127.599 100.829C127.225 100.665 126.902 100.417 126.628 100.084C126.355 99.7513 126.139 99.3411 125.979 98.8535C125.82 98.3613 125.74 97.7939 125.74 97.1514C125.74 96.2445 125.831 95.4743 126.013 94.8408C126.195 94.2074 126.494 93.6901 126.909 93.2891C127.323 92.8835 127.868 92.5827 128.542 92.3867C129.222 92.1908 130.06 92.0745 131.058 92.0381V93.3027C130.302 93.321 129.677 93.3848 129.185 93.4941C128.697 93.599 128.306 93.7562 128.009 93.9658C127.718 94.1755 127.501 94.4398 127.36 94.7588C127.223 95.0732 127.125 95.4492 127.066 95.8867C127.189 95.709 127.339 95.5472 127.517 95.4014C127.677 95.2783 127.873 95.1667 128.105 95.0664C128.337 94.9616 128.622 94.9092 128.959 94.9092ZM128.816 99.8789C129.039 99.8789 129.258 99.8311 129.472 99.7354C129.691 99.6351 129.878 99.4984 130.033 99.3252C130.192 99.152 130.32 98.9515 130.416 98.7236C130.516 98.4958 130.566 98.252 130.566 97.9922C130.566 97.7324 130.516 97.4886 130.416 97.2607C130.32 97.0283 130.192 96.8255 130.033 96.6523C129.878 96.4792 129.693 96.3447 129.479 96.249C129.265 96.1488 129.044 96.0986 128.816 96.0986C128.593 96.0986 128.374 96.1488 128.16 96.249C127.945 96.3447 127.759 96.4792 127.599 96.6523C127.44 96.8255 127.31 97.026 127.209 97.2539C127.114 97.4818 127.066 97.7279 127.066 97.9922C127.066 98.252 127.114 98.4958 127.209 98.7236C127.31 98.9515 127.44 99.152 127.599 99.3252C127.759 99.4984 127.945 99.6351 128.16 99.7354C128.374 99.8311 128.593 99.8789 128.816 99.8789ZM132.453 94.6973H133.786L135.536 99.25L137.286 94.6973H138.619L135.953 101.417C135.811 101.772 135.672 102.069 135.536 102.306C135.403 102.547 135.258 102.741 135.098 102.887C134.943 103.037 134.77 103.144 134.579 103.208C134.387 103.276 134.171 103.311 133.929 103.311C133.875 103.311 133.822 103.308 133.772 103.304C133.726 103.299 133.681 103.292 133.635 103.283C133.59 103.274 133.546 103.26 133.505 103.242V102.189C133.861 102.189 134.13 102.114 134.312 101.964C134.494 101.818 134.622 101.636 134.695 101.417L134.907 100.788L132.453 94.6973ZM145.126 94.6973V101H143.869V98.4092H140.854V101H139.596V94.6973H140.854V97.2197H143.869V94.6973H145.126ZM150.582 101L148.127 97.9922V101H146.87V94.6973H148.127V97.4316L150.301 94.6973H151.771L149.324 97.6367L152.12 101H150.582ZM158.142 99.1816C158.037 99.4414 157.905 99.6852 157.746 99.9131C157.586 100.141 157.395 100.341 157.171 100.515C156.948 100.688 156.688 100.825 156.392 100.925C156.1 101.021 155.772 101.068 155.408 101.068C154.988 101.068 154.597 100.991 154.232 100.836C153.867 100.676 153.548 100.455 153.275 100.173C153.001 99.8857 152.787 99.5462 152.632 99.1543C152.477 98.7624 152.4 98.3271 152.4 97.8486C152.4 97.3747 152.477 96.9417 152.632 96.5498C152.787 96.1579 152.997 95.8206 153.261 95.5381C153.526 95.251 153.838 95.0277 154.198 94.8682C154.558 94.7087 154.938 94.6289 155.339 94.6289C155.74 94.6289 156.121 94.7087 156.481 94.8682C156.841 95.0277 157.153 95.251 157.417 95.5381C157.682 95.8206 157.891 96.1579 158.046 96.5498C158.201 96.9417 158.279 97.3747 158.279 97.8486C158.279 97.9215 158.274 97.9945 158.265 98.0674C158.256 98.1357 158.247 98.195 158.238 98.2451C158.229 98.3089 158.22 98.3636 158.21 98.4092H153.726C153.744 98.6051 153.801 98.792 153.897 98.9697C153.993 99.1475 154.111 99.3047 154.252 99.4414C154.398 99.5736 154.571 99.6807 154.772 99.7627C154.973 99.8402 155.184 99.8789 155.408 99.8789C155.791 99.8789 156.094 99.7969 156.317 99.6328C156.545 99.4688 156.709 99.3184 156.809 99.1816H158.142ZM155.339 95.8184C154.92 95.8184 154.565 95.9619 154.273 96.249C153.986 96.5316 153.804 96.903 153.726 97.3633H157.089C157.016 96.9076 156.83 96.5361 156.529 96.249C156.233 95.9619 155.836 95.8184 155.339 95.8184ZM162.62 94.6289C163.039 94.6289 163.431 94.7087 163.795 94.8682C164.16 95.0277 164.479 95.251 164.752 95.5381C165.03 95.8206 165.247 96.1579 165.402 96.5498C165.557 96.9417 165.634 97.3747 165.634 97.8486C165.634 98.3226 165.557 98.7578 165.402 99.1543C165.247 99.5462 165.03 99.8857 164.752 100.173C164.479 100.455 164.16 100.676 163.795 100.836C163.431 100.991 163.039 101.068 162.62 101.068C162.319 101.068 162.061 101.034 161.847 100.966C161.633 100.897 161.453 100.815 161.307 100.72C161.139 100.615 160.993 100.499 160.87 100.371V103.242H159.612V94.6973H160.521L160.801 95.333C160.924 95.2008 161.068 95.0824 161.232 94.9775C161.382 94.8955 161.571 94.818 161.799 94.7451C162.027 94.6676 162.301 94.6289 162.62 94.6289ZM162.551 99.8789C162.793 99.8789 163.023 99.8311 163.242 99.7354C163.46 99.6351 163.654 99.4938 163.823 99.3115C163.991 99.1292 164.124 98.915 164.219 98.6689C164.32 98.4229 164.37 98.1494 164.37 97.8486C164.37 97.5479 164.32 97.2744 164.219 97.0283C164.124 96.7822 163.991 96.568 163.823 96.3857C163.654 96.2035 163.46 96.0645 163.242 95.9688C163.023 95.8685 162.793 95.8184 162.551 95.8184C162.31 95.8184 162.077 95.8685 161.854 95.9688C161.635 96.0645 161.442 96.2035 161.273 96.3857C161.109 96.568 160.977 96.7845 160.876 97.0352C160.781 97.2812 160.733 97.5524 160.733 97.8486C160.733 98.1494 160.781 98.4229 160.876 98.6689C160.977 98.915 161.109 99.1292 161.273 99.3115C161.442 99.4938 161.635 99.6351 161.854 99.7354C162.077 99.8311 162.31 99.8789 162.551 99.8789ZM169.415 94.6289C169.779 94.6289 170.112 94.6882 170.413 94.8066C170.718 94.9206 170.978 95.0778 171.192 95.2783C171.406 95.4788 171.572 95.7158 171.691 95.9893C171.809 96.2581 171.869 96.5521 171.869 96.8711V101H170.959L170.679 100.371C170.556 100.503 170.41 100.619 170.242 100.72C170.091 100.811 169.902 100.893 169.674 100.966C169.446 101.034 169.173 101.068 168.854 101.068C168.152 101.068 167.614 100.895 167.241 100.549C166.872 100.198 166.687 99.7422 166.687 99.1816C166.687 98.8626 166.746 98.5755 166.865 98.3203C166.988 98.0605 167.195 97.8418 167.487 97.6641C167.783 97.4818 168.182 97.3405 168.683 97.2402C169.189 97.1354 169.829 97.083 170.604 97.083V96.8711C170.604 96.5521 170.504 96.2969 170.303 96.1055C170.103 95.9141 169.806 95.8184 169.415 95.8184C168.995 95.8184 168.69 95.8936 168.499 96.0439C168.307 96.1943 168.193 96.3766 168.157 96.5908H166.899C166.935 96.0303 167.17 95.5632 167.603 95.1895C168.036 94.8158 168.64 94.6289 169.415 94.6289ZM168.929 99.9473C169.462 99.9473 169.875 99.8105 170.167 99.5371C170.458 99.2637 170.604 98.931 170.604 98.5391V98.1973C170.043 98.1973 169.59 98.2246 169.244 98.2793C168.902 98.3294 168.633 98.4001 168.437 98.4912C168.241 98.5778 168.109 98.6872 168.041 98.8193C167.977 98.9469 167.945 99.0905 167.945 99.25C167.945 99.4277 168.029 99.5895 168.198 99.7354C168.366 99.8766 168.61 99.9473 168.929 99.9473ZM182.43 99.8105V102.47H181.241V101H176.9V102.47H175.71V99.8105H176.127C176.26 99.7194 176.378 99.6169 176.483 99.5029C176.574 99.3981 176.661 99.2751 176.743 99.1338C176.829 98.988 176.882 98.8171 176.9 98.6211L177.324 94.6973H181.589V99.8105H182.43ZM178.158 98.6211C178.139 98.8171 178.103 98.988 178.048 99.1338C177.994 99.2751 177.937 99.3981 177.877 99.5029C177.814 99.6169 177.745 99.7194 177.672 99.8105H180.332V95.8867H178.438L178.158 98.6211ZM188.733 94.6973V101H187.468V95.8867H185.37L185.158 98.9014C185.112 99.6032 184.912 100.141 184.556 100.515C184.205 100.884 183.729 101.068 183.127 101.068C183.073 101.068 183.023 101.066 182.977 101.062C182.931 101.057 182.884 101.05 182.833 101.041C182.788 101.032 182.747 101.018 182.71 101V99.9473H182.847C183.49 99.9473 183.841 99.5986 183.9 98.9014L184.249 94.6973H188.733ZM195.241 94.6973V101H193.983V98.9014H192.725L191.392 101H189.991L191.46 98.6895C191.219 98.5983 191.009 98.4684 190.832 98.2998C190.672 98.1494 190.526 97.9557 190.394 97.7188C190.266 97.4818 190.203 97.1764 190.203 96.8027C190.203 96.502 190.255 96.224 190.36 95.9688C190.469 95.709 190.62 95.488 190.811 95.3057C191.002 95.1188 191.23 94.9707 191.495 94.8613C191.764 94.752 192.057 94.6973 192.376 94.6973H195.241ZM192.376 95.8867C192.135 95.8867 191.921 95.9779 191.734 96.1602C191.552 96.3424 191.46 96.5566 191.46 96.8027C191.46 97.0443 191.552 97.2562 191.734 97.4385C191.916 97.6208 192.13 97.7119 192.376 97.7119H193.983V95.8867H192.376ZM204.127 97.7119C204.296 97.7939 204.446 97.9056 204.579 98.0469C204.693 98.1699 204.797 98.3249 204.893 98.5117C204.989 98.694 205.037 98.9173 205.037 99.1816C205.037 99.4414 204.989 99.6829 204.893 99.9062C204.802 100.13 204.674 100.321 204.51 100.48C204.351 100.64 204.153 100.768 203.916 100.863C203.683 100.954 203.428 101 203.15 101H199.999V94.6973H202.938C203.216 94.6973 203.471 94.7428 203.704 94.834C203.941 94.9206 204.139 95.0436 204.298 95.2031C204.462 95.3626 204.59 95.5495 204.681 95.7637C204.777 95.9779 204.825 96.2057 204.825 96.4473C204.825 96.6797 204.788 96.8734 204.715 97.0283C204.642 97.1833 204.563 97.3132 204.476 97.418C204.376 97.5319 204.26 97.6299 204.127 97.7119ZM201.256 95.75V97.2881H202.794C203.009 97.2881 203.191 97.2152 203.341 97.0693C203.492 96.9189 203.567 96.7367 203.567 96.5225C203.567 96.3083 203.492 96.126 203.341 95.9756C203.195 95.8252 203.013 95.75 202.794 95.75H201.256ZM203.006 99.9473C203.221 99.9473 203.403 99.8698 203.553 99.7148C203.704 99.5553 203.779 99.3548 203.779 99.1133C203.779 98.8991 203.704 98.7168 203.553 98.5664C203.403 98.416 203.221 98.3408 203.006 98.3408H201.256V99.9473H203.006ZM210.779 97.8486C210.779 97.5479 210.729 97.2744 210.628 97.0283C210.533 96.7822 210.405 96.568 210.246 96.3857C210.086 96.2035 209.899 96.0645 209.685 95.9688C209.471 95.8685 209.252 95.8184 209.029 95.8184C208.806 95.8184 208.587 95.8685 208.373 95.9688C208.158 96.0645 207.972 96.2035 207.812 96.3857C207.653 96.568 207.523 96.7845 207.422 97.0352C207.327 97.2812 207.279 97.5524 207.279 97.8486C207.279 98.1494 207.327 98.4229 207.422 98.6689C207.523 98.915 207.653 99.1292 207.812 99.3115C207.972 99.4938 208.158 99.6351 208.373 99.7354C208.587 99.8311 208.806 99.8789 209.029 99.8789C209.252 99.8789 209.471 99.8311 209.685 99.7354C209.899 99.6351 210.086 99.4938 210.246 99.3115C210.405 99.1292 210.533 98.915 210.628 98.6689C210.729 98.4229 210.779 98.1494 210.779 97.8486ZM212.037 97.8486C212.037 98.3226 211.959 98.7578 211.804 99.1543C211.654 99.5462 211.44 99.8857 211.162 100.173C210.888 100.455 210.569 100.676 210.205 100.836C209.84 100.991 209.448 101.068 209.029 101.068C208.61 101.068 208.218 100.991 207.853 100.836C207.488 100.676 207.167 100.455 206.889 100.173C206.616 99.8857 206.402 99.5462 206.247 99.1543C206.096 98.7624 206.021 98.3271 206.021 97.8486C206.021 97.3747 206.096 96.9417 206.247 96.5498C206.402 96.1579 206.616 95.8206 206.889 95.5381C207.167 95.251 207.488 95.0277 207.853 94.8682C208.218 94.7087 208.61 94.6289 209.029 94.6289C209.448 94.6289 209.84 94.7087 210.205 94.8682C210.569 95.0277 210.888 95.251 211.162 95.5381C211.44 95.8206 211.654 96.1579 211.804 96.5498C211.959 96.9417 212.037 97.3747 212.037 97.8486ZM219.249 99.8105V102.47H218.059V101H213.718V102.47H212.529V99.8105H212.946C213.078 99.7194 213.196 99.6169 213.301 99.5029C213.392 99.3981 213.479 99.2751 213.561 99.1338C213.648 98.988 213.7 98.8171 213.718 98.6211L214.142 94.6973H218.408V99.8105H219.249ZM214.976 98.6211C214.958 98.8171 214.921 98.988 214.867 99.1338C214.812 99.2751 214.755 99.3981 214.696 99.5029C214.632 99.6169 214.564 99.7194 214.491 99.8105H217.15V95.8867H215.256L214.976 98.6211ZM227.301 94.6973V101H226.037V94.6973H227.301ZM223.029 96.8027C223.348 96.8027 223.639 96.8574 223.904 96.9668C224.168 97.0716 224.396 97.2174 224.587 97.4043C224.779 97.5911 224.927 97.8122 225.032 98.0674C225.141 98.3226 225.196 98.6006 225.196 98.9014C225.196 99.2021 225.141 99.4801 225.032 99.7354C224.927 99.9906 224.779 100.212 224.587 100.398C224.396 100.585 224.168 100.733 223.904 100.843C223.639 100.948 223.348 101 223.029 101H220.37V94.6973H221.627V96.8027H223.029ZM223.029 99.8105C223.27 99.8105 223.482 99.7194 223.665 99.5371C223.847 99.3548 223.938 99.1429 223.938 98.9014C223.938 98.6598 223.847 98.4479 223.665 98.2656C223.482 98.0833 223.27 97.9922 223.029 97.9922H221.627V99.8105H223.029Z" fill="#1D293C"/>
<path opacity="0.2" d="M101.5 259.5V230L398 230" stroke="#AE261E"/>
<circle cx="410" cy="230" r="6" fill="#AE261E"/>
<circle cx="410" cy="230" r="9" stroke="#AE261E" stroke-opacity="0.15" stroke-width="6"/>
<path d="M40.7349 278.5H58.8849V283.78L49.9749 317H43.9249L52.7799 284H40.7349V278.5ZM62.9266 311.17H68.7566V317H62.9266V311.17ZM85.1216 287.96C85.1216 286.31 84.8466 285.173 84.2966 284.55C83.7833 283.89 83.0133 283.56 81.9866 283.56C79.8966 283.56 78.8516 284.825 78.8516 287.355V291.48H73.1316V287.74C73.1316 284.623 73.9016 282.24 75.4416 280.59C76.9816 278.903 79.2183 278.06 82.1516 278.06C85.085 278.06 87.3216 278.903 88.8616 280.59C90.4016 282.24 91.1716 284.623 91.1716 287.74C91.1716 289.977 90.75 292.103 89.9066 294.12C89.1 296.137 88.0916 297.86 86.8816 299.29C85.7083 300.72 84.535 302.058 83.3616 303.305C82.1883 304.552 81.18 305.817 80.3366 307.1C79.53 308.347 79.1266 309.538 79.1266 310.675C79.1266 311.042 79.145 311.317 79.1816 311.5H90.6216V317H73.1316V312.27C73.1316 310.18 73.535 308.273 74.3416 306.55C75.185 304.79 76.1933 303.268 77.3666 301.985C78.54 300.665 79.7133 299.382 80.8866 298.135C82.06 296.852 83.05 295.348 83.8566 293.625C84.7 291.902 85.1216 290.013 85.1216 287.96ZM117.283 317L111.398 301.655L109.528 305.175V317H103.478V278.5H109.528V295.275L117.448 278.5H123.498L115.083 295.66L123.498 317H117.283ZM135.382 278.5C138.498 278.5 140.772 279.233 142.202 280.7C143.632 282.13 144.347 284.348 144.347 287.355V288.73C144.347 292.69 143.045 295.275 140.442 296.485C143.448 297.658 144.952 300.408 144.952 304.735V307.87C144.952 310.84 144.163 313.113 142.587 314.69C141.047 316.23 138.773 317 135.767 317H126.252V278.5H135.382ZM134.997 299.675H132.302V311.5H135.767C136.83 311.5 137.618 311.225 138.132 310.675C138.645 310.088 138.902 309.098 138.902 307.705V304.35C138.902 302.59 138.59 301.38 137.967 300.72C137.38 300.023 136.39 299.675 134.997 299.675ZM135.217 284H132.302V294.175H134.667C135.877 294.175 136.775 293.863 137.362 293.24C137.985 292.617 138.297 291.572 138.297 290.105V287.96C138.297 285.32 137.27 284 135.217 284ZM146.836 284V278.5H165.536V284H159.211V317H153.161V284H146.836Z" fill="#0F1926"/>
<path opacity="0.6" d="M54.8184 335.629C55.1829 335.629 55.5156 335.688 55.8164 335.807C56.1217 335.921 56.3815 336.078 56.5957 336.278C56.8099 336.479 56.9762 336.716 57.0947 336.989C57.2132 337.258 57.2725 337.552 57.2725 337.871V342H56.3633L56.083 341.371C55.96 341.503 55.8141 341.619 55.6455 341.72C55.4951 341.811 55.306 341.893 55.0781 341.966C54.8503 342.034 54.5768 342.068 54.2578 342.068C53.556 342.068 53.0182 341.895 52.6445 341.549C52.2754 341.198 52.0908 340.742 52.0908 340.182C52.0908 339.863 52.1501 339.576 52.2686 339.32C52.3916 339.061 52.599 338.842 52.8906 338.664C53.1868 338.482 53.5856 338.34 54.0869 338.24C54.5928 338.135 55.2331 338.083 56.0078 338.083V337.871C56.0078 337.552 55.9076 337.297 55.707 337.105C55.5065 336.914 55.2103 336.818 54.8184 336.818C54.3991 336.818 54.0938 336.894 53.9023 337.044C53.7109 337.194 53.597 337.377 53.5605 337.591H52.3027C52.3392 337.03 52.5739 336.563 53.0068 336.189C53.4398 335.816 54.0436 335.629 54.8184 335.629ZM54.333 340.947C54.8662 340.947 55.2786 340.811 55.5703 340.537C55.862 340.264 56.0078 339.931 56.0078 339.539V339.197C55.4473 339.197 54.9938 339.225 54.6475 339.279C54.3057 339.329 54.0368 339.4 53.8408 339.491C53.6449 339.578 53.5127 339.687 53.4443 339.819C53.3805 339.947 53.3486 340.09 53.3486 340.25C53.3486 340.428 53.4329 340.59 53.6016 340.735C53.7702 340.877 54.014 340.947 54.333 340.947ZM62.6592 342L60.2051 338.992V342H58.9473V335.697H60.2051V338.432L62.3789 335.697H63.8486L61.4014 338.637L64.1973 342H62.6592ZM68.6748 342L66.2207 338.992V342H64.9629V335.697H66.2207V338.432L68.3945 335.697H69.8643L67.417 338.637L70.2129 342H68.6748ZM70.2061 335.697H71.5391L73.2891 340.25L75.0391 335.697H76.3721L73.7061 342.417C73.5648 342.772 73.4258 343.069 73.2891 343.306C73.1569 343.547 73.0111 343.741 72.8516 343.887C72.6966 344.037 72.5234 344.144 72.332 344.208C72.1406 344.276 71.9242 344.311 71.6826 344.311C71.6279 344.311 71.5755 344.308 71.5254 344.304C71.4798 344.299 71.4342 344.292 71.3887 344.283C71.3431 344.274 71.2998 344.26 71.2588 344.242V343.189C71.6143 343.189 71.8831 343.114 72.0654 342.964C72.2477 342.818 72.3753 342.636 72.4482 342.417L72.6602 341.788L70.2061 335.697ZM80.2891 342L78.6074 338.5V342H77.3496V335.697H78.4707L80.7061 340.318L82.9482 335.697H84.0693V342H82.8115V338.5L81.1299 342H80.2891ZM85.04 335.697H86.373L88.123 340.25L89.873 335.697H91.2061L88.54 342.417C88.3988 342.772 88.2598 343.069 88.123 343.306C87.9909 343.547 87.8451 343.741 87.6855 343.887C87.5306 344.037 87.3574 344.144 87.166 344.208C86.9746 344.276 86.7581 344.311 86.5166 344.311C86.4619 344.311 86.4095 344.308 86.3594 344.304C86.3138 344.299 86.2682 344.292 86.2227 344.283C86.1771 344.274 86.1338 344.26 86.0928 344.242V343.189C86.4482 343.189 86.7171 343.114 86.8994 342.964C87.0817 342.818 87.2093 342.636 87.2822 342.417L87.4941 341.788L85.04 335.697ZM97.3652 335.697V342H96.1006V336.887H94.002L93.79 339.901C93.7445 340.603 93.5439 341.141 93.1885 341.515C92.8376 341.884 92.3613 342.068 91.7598 342.068C91.7051 342.068 91.6549 342.066 91.6094 342.062C91.5638 342.057 91.516 342.05 91.4658 342.041C91.4202 342.032 91.3792 342.018 91.3428 342V340.947H91.4795C92.1221 340.947 92.473 340.599 92.5322 339.901L92.8809 335.697H97.3652ZM103.873 335.697V342H102.615V339.901H101.357L100.024 342H98.623L100.093 339.689C99.8512 339.598 99.6416 339.468 99.4639 339.3C99.3044 339.149 99.1585 338.956 99.0264 338.719C98.8988 338.482 98.835 338.176 98.835 337.803C98.835 337.502 98.8874 337.224 98.9922 336.969C99.1016 336.709 99.252 336.488 99.4434 336.306C99.6348 336.119 99.8626 335.971 100.127 335.861C100.396 335.752 100.69 335.697 101.009 335.697H103.873ZM101.009 336.887C100.767 336.887 100.553 336.978 100.366 337.16C100.184 337.342 100.093 337.557 100.093 337.803C100.093 338.044 100.184 338.256 100.366 338.438C100.549 338.621 100.763 338.712 101.009 338.712H102.615V336.887H101.009ZM104.926 335.697H110.101V336.887H108.146V342H106.881V336.887H104.926V335.697ZM115.433 338.849C115.433 338.548 115.382 338.274 115.282 338.028C115.187 337.782 115.059 337.568 114.899 337.386C114.74 337.203 114.553 337.064 114.339 336.969C114.125 336.868 113.906 336.818 113.683 336.818C113.459 336.818 113.241 336.868 113.026 336.969C112.812 337.064 112.625 337.203 112.466 337.386C112.306 337.568 112.176 337.785 112.076 338.035C111.98 338.281 111.933 338.552 111.933 338.849C111.933 339.149 111.98 339.423 112.076 339.669C112.176 339.915 112.306 340.129 112.466 340.312C112.625 340.494 112.812 340.635 113.026 340.735C113.241 340.831 113.459 340.879 113.683 340.879C113.906 340.879 114.125 340.831 114.339 340.735C114.553 340.635 114.74 340.494 114.899 340.312C115.059 340.129 115.187 339.915 115.282 339.669C115.382 339.423 115.433 339.149 115.433 338.849ZM116.69 338.849C116.69 339.323 116.613 339.758 116.458 340.154C116.308 340.546 116.093 340.886 115.815 341.173C115.542 341.455 115.223 341.676 114.858 341.836C114.494 341.991 114.102 342.068 113.683 342.068C113.263 342.068 112.871 341.991 112.507 341.836C112.142 341.676 111.821 341.455 111.543 341.173C111.27 340.886 111.055 340.546 110.9 340.154C110.75 339.762 110.675 339.327 110.675 338.849C110.675 338.375 110.75 337.942 110.9 337.55C111.055 337.158 111.27 336.821 111.543 336.538C111.821 336.251 112.142 336.028 112.507 335.868C112.871 335.709 113.263 335.629 113.683 335.629C114.102 335.629 114.494 335.709 114.858 335.868C115.223 336.028 115.542 336.251 115.815 336.538C116.093 336.821 116.308 337.158 116.458 337.55C116.613 337.942 116.69 338.375 116.69 338.849ZM121.031 335.629C121.451 335.629 121.842 335.709 122.207 335.868C122.572 336.028 122.891 336.251 123.164 336.538C123.442 336.821 123.659 337.158 123.813 337.55C123.968 337.942 124.046 338.375 124.046 338.849C124.046 339.323 123.968 339.758 123.813 340.154C123.659 340.546 123.442 340.886 123.164 341.173C122.891 341.455 122.572 341.676 122.207 341.836C121.842 341.991 121.451 342.068 121.031 342.068C120.73 342.068 120.473 342.034 120.259 341.966C120.045 341.897 119.865 341.815 119.719 341.72C119.55 341.615 119.404 341.499 119.281 341.371V344.242H118.023V335.697H118.933L119.213 336.333C119.336 336.201 119.479 336.082 119.644 335.978C119.794 335.896 119.983 335.818 120.211 335.745C120.439 335.668 120.712 335.629 121.031 335.629ZM120.963 340.879C121.204 340.879 121.435 340.831 121.653 340.735C121.872 340.635 122.066 340.494 122.234 340.312C122.403 340.129 122.535 339.915 122.631 339.669C122.731 339.423 122.781 339.149 122.781 338.849C122.781 338.548 122.731 338.274 122.631 338.028C122.535 337.782 122.403 337.568 122.234 337.386C122.066 337.203 121.872 337.064 121.653 336.969C121.435 336.868 121.204 336.818 120.963 336.818C120.721 336.818 120.489 336.868 120.266 336.969C120.047 337.064 119.853 337.203 119.685 337.386C119.521 337.568 119.388 337.785 119.288 338.035C119.192 338.281 119.145 338.552 119.145 338.849C119.145 339.149 119.192 339.423 119.288 339.669C119.388 339.915 119.521 340.129 119.685 340.312C119.853 340.494 120.047 340.635 120.266 340.735C120.489 340.831 120.721 340.879 120.963 340.879ZM134.122 340.25H133.145V342H131.812V340.25H127.895V339.129L131.606 333.182H133.145V338.992H134.122V340.25ZM131.812 338.992V335.137L129.433 338.992H131.812ZM137.978 342.068C137.522 342.068 137.109 342 136.74 341.863C136.371 341.722 136.054 341.535 135.79 341.303C135.53 341.066 135.327 340.792 135.182 340.482C135.036 340.168 134.963 339.833 134.963 339.478C134.963 339.058 135.036 338.707 135.182 338.425C135.327 338.138 135.489 337.905 135.667 337.728C135.872 337.522 136.104 337.361 136.364 337.242C136.168 337.119 135.991 336.973 135.831 336.805C135.699 336.654 135.58 336.472 135.476 336.258C135.371 336.044 135.318 335.788 135.318 335.492C135.318 335.173 135.382 334.872 135.51 334.59C135.642 334.303 135.826 334.05 136.063 333.831C136.3 333.612 136.583 333.439 136.911 333.312C137.239 333.179 137.595 333.113 137.978 333.113C138.36 333.113 138.714 333.179 139.037 333.312C139.365 333.439 139.648 333.612 139.885 333.831C140.126 334.05 140.311 334.303 140.438 334.59C140.571 334.872 140.637 335.173 140.637 335.492C140.637 335.793 140.58 336.05 140.466 336.265C140.356 336.474 140.236 336.654 140.104 336.805C139.944 336.973 139.771 337.119 139.584 337.242C139.844 337.365 140.078 337.527 140.288 337.728C140.466 337.905 140.625 338.138 140.767 338.425C140.912 338.707 140.985 339.058 140.985 339.478C140.985 339.833 140.912 340.168 140.767 340.482C140.625 340.792 140.423 341.066 140.158 341.303C139.898 341.535 139.584 341.722 139.215 341.863C138.846 342 138.433 342.068 137.978 342.068ZM137.978 337.939C137.444 337.939 137.03 338.081 136.733 338.363C136.442 338.641 136.296 338.99 136.296 339.409C136.296 339.828 136.442 340.179 136.733 340.462C137.03 340.74 137.444 340.879 137.978 340.879C138.511 340.879 138.923 340.74 139.215 340.462C139.511 340.179 139.659 339.828 139.659 339.409C139.659 338.99 139.511 338.641 139.215 338.363C138.923 338.081 138.511 337.939 137.978 337.939ZM137.978 336.75C138.369 336.75 138.688 336.632 138.935 336.395C139.181 336.158 139.304 335.88 139.304 335.561C139.304 335.205 139.181 334.907 138.935 334.665C138.688 334.424 138.369 334.303 137.978 334.303C137.586 334.303 137.264 334.424 137.014 334.665C136.768 334.907 136.645 335.205 136.645 335.561C136.645 335.88 136.768 336.158 137.014 336.395C137.264 336.632 137.586 336.75 137.978 336.75ZM144.622 333.182H146.023L148.478 339.97L150.925 333.182H152.326L149.106 342H147.849L144.622 333.182Z" fill="#1D293C"/>
<path opacity="0.2" d="M827 59L576 59V79" stroke="#AE261E"/>
<circle cx="576" cy="91" r="6" fill="#AE261E"/>
<circle cx="576" cy="91" r="9" stroke="#AE261E" stroke-opacity="0.15" stroke-width="6"/>
<path d="M856.524 46.96C856.524 45.2367 856.231 44.0817 855.644 43.495C855.094 42.8717 854.342 42.56 853.389 42.56C852.436 42.56 851.666 42.8533 851.079 43.44C850.529 43.99 850.254 44.9617 850.254 46.355V48.83H844.534V46.74C844.534 43.6233 845.286 41.24 846.789 39.59C848.329 37.9033 850.584 37.06 853.554 37.06C856.524 37.06 858.761 37.9033 860.264 39.59C861.804 41.24 862.574 43.6233 862.574 46.74V47.73C862.574 51.8367 861.162 54.4767 858.339 55.65C859.879 56.31 860.961 57.3367 861.584 58.73C862.244 60.0867 862.574 61.755 862.574 63.735V66.76C862.574 69.8767 861.804 72.2783 860.264 73.965C858.761 75.615 856.524 76.44 853.554 76.44C850.584 76.44 848.329 75.615 846.789 73.965C845.286 72.2783 844.534 69.8767 844.534 66.76V63.57H850.254V67.145C850.254 68.5383 850.529 69.5283 851.079 70.115C851.666 70.665 852.436 70.94 853.389 70.94C854.342 70.94 855.094 70.6467 855.644 70.06C856.231 69.4733 856.524 68.3183 856.524 66.595V63.57C856.524 61.7733 856.212 60.5083 855.589 59.775C854.966 59.0417 853.957 58.675 852.564 58.675H850.529V53.175H852.894C854.031 53.175 854.911 52.8817 855.534 52.295C856.194 51.7083 856.524 50.645 856.524 49.105V46.96ZM872.501 70.17V76H866.671V70.17H872.501ZM880.616 42.34C881.789 42.34 882.742 42.2117 883.476 41.955C884.246 41.6983 884.869 41.35 885.346 40.91C885.822 40.47 886.207 39.9567 886.501 39.37C886.794 38.7833 887.051 38.16 887.271 37.5H891.341V76H885.291V46.63H880.616V42.34ZM902.422 42.34C903.596 42.34 904.549 42.2117 905.282 41.955C906.052 41.6983 906.676 41.35 907.152 40.91C907.629 40.47 908.014 39.9567 908.307 39.37C908.601 38.7833 908.857 38.16 909.077 37.5H913.147V76H907.097V46.63H902.422V42.34ZM941.844 64.835L945.969 37.5H954.384V76H948.664V48.39L944.484 76H938.764L934.254 48.775V76H928.974V37.5H937.389L941.844 64.835ZM966.155 48.83C966.155 47.6567 965.953 46.85 965.55 46.41C965.147 45.97 964.523 45.75 963.68 45.75H962.36V42.285H963.845C964.578 42.285 965.147 42.0833 965.55 41.68C965.953 41.2767 966.155 40.5983 966.155 39.645V38.27C966.155 37.17 965.972 36.4367 965.605 36.07C965.275 35.6667 964.798 35.465 964.175 35.465C963.552 35.465 963.057 35.6667 962.69 36.07C962.36 36.4367 962.195 37.0417 962.195 37.885V39.425H958.565V38.16C958.565 36.18 959.042 34.6583 959.995 33.595C960.948 32.5317 962.378 32 964.285 32C966.192 32 967.622 32.5317 968.575 33.595C969.528 34.6583 970.005 36.18 970.005 38.16V38.765C970.005 41.3683 969.107 43.0367 967.31 43.77C968.263 44.1733 968.942 44.815 969.345 45.695C969.785 46.575 970.005 47.6383 970.005 48.885V50.81C970.005 52.79 969.528 54.3117 968.575 55.375C967.622 56.4383 966.192 56.97 964.285 56.97C962.378 56.97 960.948 56.4383 959.995 55.375C959.042 54.3117 958.565 52.79 958.565 50.81V48.83H962.195V51.085C962.195 51.9283 962.36 52.5517 962.69 52.955C963.057 53.3217 963.552 53.505 964.175 53.505C964.798 53.505 965.275 53.3217 965.605 52.955C965.972 52.5517 966.155 51.8 966.155 50.7V48.83Z" fill="#0F1926"/>
<path opacity="0.6" d="M839.249 97.8486C839.249 97.5479 839.199 97.2744 839.099 97.0283C839.003 96.7822 838.875 96.568 838.716 96.3857C838.556 96.2035 838.369 96.0645 838.155 95.9688C837.941 95.8685 837.722 95.8184 837.499 95.8184C837.276 95.8184 837.057 95.8685 836.843 95.9688C836.629 96.0645 836.442 96.2035 836.282 96.3857C836.123 96.568 835.993 96.7845 835.893 97.0352C835.797 97.2812 835.749 97.5524 835.749 97.8486C835.749 98.1494 835.797 98.4229 835.893 98.6689C835.993 98.915 836.123 99.1292 836.282 99.3115C836.442 99.4938 836.629 99.6351 836.843 99.7354C837.057 99.8311 837.276 99.8789 837.499 99.8789C837.722 99.8789 837.941 99.8311 838.155 99.7354C838.369 99.6351 838.556 99.4938 838.716 99.3115C838.875 99.1292 839.003 98.915 839.099 98.6689C839.199 98.4229 839.249 98.1494 839.249 97.8486ZM840.507 97.8486C840.507 98.3226 840.429 98.7578 840.274 99.1543C840.124 99.5462 839.91 99.8857 839.632 100.173C839.358 100.455 839.039 100.676 838.675 100.836C838.31 100.991 837.918 101.068 837.499 101.068C837.08 101.068 836.688 100.991 836.323 100.836C835.959 100.676 835.637 100.455 835.359 100.173C835.086 99.8857 834.872 99.5462 834.717 99.1543C834.566 98.7624 834.491 98.3271 834.491 97.8486C834.491 97.3747 834.566 96.9417 834.717 96.5498C834.872 96.1579 835.086 95.8206 835.359 95.5381C835.637 95.251 835.959 95.0277 836.323 94.8682C836.688 94.7087 837.08 94.6289 837.499 94.6289C837.918 94.6289 838.31 94.7087 838.675 94.8682C839.039 95.0277 839.358 95.251 839.632 95.5381C839.91 95.8206 840.124 96.1579 840.274 96.5498C840.429 96.9417 840.507 97.3747 840.507 97.8486ZM844.779 94.9092C845.162 94.9092 845.529 94.9889 845.88 95.1484C846.231 95.3079 846.536 95.5267 846.796 95.8047C847.056 96.0781 847.263 96.4017 847.418 96.7754C847.573 97.1445 847.65 97.5501 847.65 97.9922C847.65 98.4297 847.573 98.8353 847.418 99.209C847.263 99.5827 847.047 99.9085 846.769 100.187C846.495 100.46 846.176 100.676 845.812 100.836C845.451 100.991 845.06 101.068 844.636 101.068C844.198 101.068 843.793 100.989 843.419 100.829C843.045 100.665 842.722 100.417 842.448 100.084C842.175 99.7513 841.958 99.3411 841.799 98.8535C841.639 98.3613 841.56 97.7939 841.56 97.1514C841.56 96.2445 841.651 95.4743 841.833 94.8408C842.015 94.2074 842.314 93.6901 842.729 93.2891C843.143 92.8835 843.688 92.5827 844.362 92.3867C845.041 92.1908 845.88 92.0745 846.878 92.0381V93.3027C846.121 93.321 845.497 93.3848 845.005 93.4941C844.517 93.599 844.125 93.7562 843.829 93.9658C843.537 94.1755 843.321 94.4398 843.18 94.7588C843.043 95.0732 842.945 95.4492 842.886 95.8867C843.009 95.709 843.159 95.5472 843.337 95.4014C843.496 95.2783 843.692 95.1667 843.925 95.0664C844.157 94.9616 844.442 94.9092 844.779 94.9092ZM844.636 99.8789C844.859 99.8789 845.078 99.8311 845.292 99.7354C845.511 99.6351 845.698 99.4984 845.853 99.3252C846.012 99.152 846.14 98.9515 846.235 98.7236C846.336 98.4958 846.386 98.252 846.386 97.9922C846.386 97.7324 846.336 97.4886 846.235 97.2607C846.14 97.0283 846.012 96.8255 845.853 96.6523C845.698 96.4792 845.513 96.3447 845.299 96.249C845.085 96.1488 844.864 96.0986 844.636 96.0986C844.412 96.0986 844.194 96.1488 843.979 96.249C843.765 96.3447 843.578 96.4792 843.419 96.6523C843.259 96.8255 843.13 97.026 843.029 97.2539C842.934 97.4818 842.886 97.7279 842.886 97.9922C842.886 98.252 842.934 98.4958 843.029 98.7236C843.13 98.9515 843.259 99.152 843.419 99.3252C843.578 99.4984 843.765 99.6351 843.979 99.7354C844.194 99.8311 844.412 99.8789 844.636 99.8789ZM852.477 96.8027C852.796 96.8027 853.087 96.8574 853.352 96.9668C853.616 97.0716 853.844 97.2174 854.035 97.4043C854.227 97.5911 854.375 97.8122 854.479 98.0674C854.589 98.3226 854.644 98.6006 854.644 98.9014C854.644 99.2021 854.589 99.4801 854.479 99.7354C854.375 99.9906 854.227 100.212 854.035 100.398C853.844 100.585 853.616 100.733 853.352 100.843C853.087 100.948 852.796 101 852.477 101H849.674V95.8867H848.136V94.6973H850.938V96.8027H852.477ZM852.477 99.8105C852.718 99.8105 852.93 99.7194 853.112 99.5371C853.295 99.3548 853.386 99.1429 853.386 98.9014C853.386 98.6598 853.295 98.4479 853.112 98.2656C852.93 98.0833 852.718 97.9922 852.477 97.9922H850.938V99.8105H852.477ZM861.302 99.1816C861.197 99.4414 861.065 99.6852 860.905 99.9131C860.746 100.141 860.554 100.341 860.331 100.515C860.108 100.688 859.848 100.825 859.552 100.925C859.26 101.021 858.932 101.068 858.567 101.068C858.148 101.068 857.756 100.991 857.392 100.836C857.027 100.676 856.708 100.455 856.435 100.173C856.161 99.8857 855.947 99.5462 855.792 99.1543C855.637 98.7624 855.56 98.3271 855.56 97.8486C855.56 97.3747 855.637 96.9417 855.792 96.5498C855.947 96.1579 856.157 95.8206 856.421 95.5381C856.685 95.251 856.997 95.0277 857.357 94.8682C857.717 94.7087 858.098 94.6289 858.499 94.6289C858.9 94.6289 859.281 94.7087 859.641 94.8682C860.001 95.0277 860.313 95.251 860.577 95.5381C860.841 95.8206 861.051 96.1579 861.206 96.5498C861.361 96.9417 861.438 97.3747 861.438 97.8486C861.438 97.9215 861.434 97.9945 861.425 98.0674C861.416 98.1357 861.407 98.195 861.397 98.2451C861.388 98.3089 861.379 98.3636 861.37 98.4092H856.886C856.904 98.6051 856.961 98.792 857.057 98.9697C857.152 99.1475 857.271 99.3047 857.412 99.4414C857.558 99.5736 857.731 99.6807 857.932 99.7627C858.132 99.8402 858.344 99.8789 858.567 99.8789C858.95 99.8789 859.253 99.7969 859.477 99.6328C859.704 99.4688 859.868 99.3184 859.969 99.1816H861.302ZM858.499 95.8184C858.08 95.8184 857.724 95.9619 857.433 96.249C857.146 96.5316 856.963 96.903 856.886 97.3633H860.249C860.176 96.9076 859.989 96.5361 859.688 96.249C859.392 95.9619 858.996 95.8184 858.499 95.8184ZM865.711 101L864.029 97.5V101H862.771V94.6973H863.893L866.128 99.3184L868.37 94.6973H869.491V101H868.233V97.5L866.552 101H865.711ZM877.182 94.9092C877.564 94.9092 877.931 94.9889 878.282 95.1484C878.633 95.3079 878.938 95.5267 879.198 95.8047C879.458 96.0781 879.665 96.4017 879.82 96.7754C879.975 97.1445 880.053 97.5501 880.053 97.9922C880.053 98.4297 879.975 98.8353 879.82 99.209C879.665 99.5827 879.449 99.9085 879.171 100.187C878.897 100.46 878.578 100.676 878.214 100.836C877.854 100.991 877.462 101.068 877.038 101.068C876.601 101.068 876.195 100.989 875.821 100.829C875.448 100.665 875.124 100.417 874.851 100.084C874.577 99.7513 874.361 99.3411 874.201 98.8535C874.042 98.3613 873.962 97.7939 873.962 97.1514C873.962 96.2445 874.053 95.4743 874.235 94.8408C874.418 94.2074 874.716 93.6901 875.131 93.2891C875.546 92.8835 876.09 92.5827 876.765 92.3867C877.444 92.1908 878.282 92.0745 879.28 92.0381V93.3027C878.524 93.321 877.899 93.3848 877.407 93.4941C876.92 93.599 876.528 93.7562 876.231 93.9658C875.94 94.1755 875.723 94.4398 875.582 94.7588C875.445 95.0732 875.347 95.4492 875.288 95.8867C875.411 95.709 875.562 95.5472 875.739 95.4014C875.899 95.2783 876.095 95.1667 876.327 95.0664C876.56 94.9616 876.844 94.9092 877.182 94.9092ZM877.038 99.8789C877.261 99.8789 877.48 99.8311 877.694 99.7354C877.913 99.6351 878.1 99.4984 878.255 99.3252C878.414 99.152 878.542 98.9515 878.638 98.7236C878.738 98.4958 878.788 98.252 878.788 97.9922C878.788 97.7324 878.738 97.4886 878.638 97.2607C878.542 97.0283 878.414 96.8255 878.255 96.6523C878.1 96.4792 877.915 96.3447 877.701 96.249C877.487 96.1488 877.266 96.0986 877.038 96.0986C876.815 96.0986 876.596 96.1488 876.382 96.249C876.168 96.3447 875.981 96.4792 875.821 96.6523C875.662 96.8255 875.532 97.026 875.432 97.2539C875.336 97.4818 875.288 97.7279 875.288 97.9922C875.288 98.252 875.336 98.4958 875.432 98.7236C875.532 98.9515 875.662 99.152 875.821 99.3252C875.981 99.4984 876.168 99.6351 876.382 99.7354C876.596 99.8311 876.815 99.8789 877.038 99.8789ZM880.675 94.6973H882.008L883.758 99.25L885.508 94.6973H886.841L884.175 101.417C884.034 101.772 883.895 102.069 883.758 102.306C883.626 102.547 883.48 102.741 883.32 102.887C883.165 103.037 882.992 103.144 882.801 103.208C882.609 103.276 882.393 103.311 882.151 103.311C882.097 103.311 882.044 103.308 881.994 103.304C881.949 103.299 881.903 103.292 881.857 103.283C881.812 103.274 881.769 103.26 881.728 103.242V102.189C882.083 102.189 882.352 102.114 882.534 101.964C882.716 101.818 882.844 101.636 882.917 101.417L883.129 100.788L880.675 94.6973ZM893.349 94.6973V101H892.091V98.4092H889.076V101H887.818V94.6973H889.076V97.2197H892.091V94.6973H893.349ZM898.804 101L896.35 97.9922V101H895.092V94.6973H896.35V97.4316L898.523 94.6973H899.993L897.546 97.6367L900.342 101H898.804ZM906.364 99.1816C906.259 99.4414 906.127 99.6852 905.968 99.9131C905.808 100.141 905.617 100.341 905.394 100.515C905.17 100.688 904.91 100.825 904.614 100.925C904.323 101.021 903.994 101.068 903.63 101.068C903.211 101.068 902.819 100.991 902.454 100.836C902.09 100.676 901.771 100.455 901.497 100.173C901.224 99.8857 901.009 99.5462 900.854 99.1543C900.7 98.7624 900.622 98.3271 900.622 97.8486C900.622 97.3747 900.7 96.9417 900.854 96.5498C901.009 96.1579 901.219 95.8206 901.483 95.5381C901.748 95.251 902.06 95.0277 902.42 94.8682C902.78 94.7087 903.16 94.6289 903.562 94.6289C903.963 94.6289 904.343 94.7087 904.703 94.8682C905.063 95.0277 905.375 95.251 905.64 95.5381C905.904 95.8206 906.114 96.1579 906.269 96.5498C906.424 96.9417 906.501 97.3747 906.501 97.8486C906.501 97.9215 906.496 97.9945 906.487 98.0674C906.478 98.1357 906.469 98.195 906.46 98.2451C906.451 98.3089 906.442 98.3636 906.433 98.4092H901.948C901.966 98.6051 902.023 98.792 902.119 98.9697C902.215 99.1475 902.333 99.3047 902.475 99.4414C902.62 99.5736 902.794 99.6807 902.994 99.7627C903.195 99.8402 903.407 99.8789 903.63 99.8789C904.013 99.8789 904.316 99.7969 904.539 99.6328C904.767 99.4688 904.931 99.3184 905.031 99.1816H906.364ZM903.562 95.8184C903.142 95.8184 902.787 95.9619 902.495 96.249C902.208 96.5316 902.026 96.903 901.948 97.3633H905.312C905.239 96.9076 905.052 96.5361 904.751 96.249C904.455 95.9619 904.058 95.8184 903.562 95.8184ZM910.842 94.6289C911.261 94.6289 911.653 94.7087 912.018 94.8682C912.382 95.0277 912.701 95.251 912.975 95.5381C913.253 95.8206 913.469 96.1579 913.624 96.5498C913.779 96.9417 913.856 97.3747 913.856 97.8486C913.856 98.3226 913.779 98.7578 913.624 99.1543C913.469 99.5462 913.253 99.8857 912.975 100.173C912.701 100.455 912.382 100.676 912.018 100.836C911.653 100.991 911.261 101.068 910.842 101.068C910.541 101.068 910.284 101.034 910.069 100.966C909.855 100.897 909.675 100.815 909.529 100.72C909.361 100.615 909.215 100.499 909.092 100.371V103.242H907.834V94.6973H908.743L909.023 95.333C909.146 95.2008 909.29 95.0824 909.454 94.9775C909.604 94.8955 909.794 94.818 910.021 94.7451C910.249 94.6676 910.523 94.6289 910.842 94.6289ZM910.773 99.8789C911.015 99.8789 911.245 99.8311 911.464 99.7354C911.683 99.6351 911.876 99.4938 912.045 99.3115C912.214 99.1292 912.346 98.915 912.441 98.6689C912.542 98.4229 912.592 98.1494 912.592 97.8486C912.592 97.5479 912.542 97.2744 912.441 97.0283C912.346 96.7822 912.214 96.568 912.045 96.3857C911.876 96.2035 911.683 96.0645 911.464 95.9688C911.245 95.8685 911.015 95.8184 910.773 95.8184C910.532 95.8184 910.299 95.8685 910.076 95.9688C909.857 96.0645 909.664 96.2035 909.495 96.3857C909.331 96.568 909.199 96.7845 909.099 97.0352C909.003 97.2812 908.955 97.5524 908.955 97.8486C908.955 98.1494 909.003 98.4229 909.099 98.6689C909.199 98.915 909.331 99.1292 909.495 99.3115C909.664 99.4938 909.857 99.6351 910.076 99.7354C910.299 99.8311 910.532 99.8789 910.773 99.8789ZM917.637 94.6289C918.001 94.6289 918.334 94.6882 918.635 94.8066C918.94 94.9206 919.2 95.0778 919.414 95.2783C919.628 95.4788 919.795 95.7158 919.913 95.9893C920.032 96.2581 920.091 96.5521 920.091 96.8711V101H919.182L918.901 100.371C918.778 100.503 918.632 100.619 918.464 100.72C918.313 100.811 918.124 100.893 917.896 100.966C917.669 101.034 917.395 101.068 917.076 101.068C916.374 101.068 915.837 100.895 915.463 100.549C915.094 100.198 914.909 99.7422 914.909 99.1816C914.909 98.8626 914.968 98.5755 915.087 98.3203C915.21 98.0605 915.417 97.8418 915.709 97.6641C916.005 97.4818 916.404 97.3405 916.905 97.2402C917.411 97.1354 918.051 97.083 918.826 97.083V96.8711C918.826 96.5521 918.726 96.2969 918.525 96.1055C918.325 95.9141 918.029 95.8184 917.637 95.8184C917.217 95.8184 916.912 95.8936 916.721 96.0439C916.529 96.1943 916.415 96.3766 916.379 96.5908H915.121C915.158 96.0303 915.392 95.5632 915.825 95.1895C916.258 94.8158 916.862 94.6289 917.637 94.6289ZM917.151 99.9473C917.685 99.9473 918.097 99.8105 918.389 99.5371C918.68 99.2637 918.826 98.931 918.826 98.5391V98.1973C918.266 98.1973 917.812 98.2246 917.466 98.2793C917.124 98.3294 916.855 98.4001 916.659 98.4912C916.463 98.5778 916.331 98.6872 916.263 98.8193C916.199 98.9469 916.167 99.0905 916.167 99.25C916.167 99.4277 916.251 99.5895 916.42 99.7354C916.589 99.8766 916.832 99.9473 917.151 99.9473ZM930.652 99.8105V102.47H929.463V101H925.122V102.47H923.933V99.8105H924.35C924.482 99.7194 924.6 99.6169 924.705 99.5029C924.796 99.3981 924.883 99.2751 924.965 99.1338C925.051 98.988 925.104 98.8171 925.122 98.6211L925.546 94.6973H929.812V99.8105H930.652ZM926.38 98.6211C926.362 98.8171 926.325 98.988 926.271 99.1338C926.216 99.2751 926.159 99.3981 926.1 99.5029C926.036 99.6169 925.967 99.7194 925.895 99.8105H928.554V95.8867H926.66L926.38 98.6211ZM936.955 94.6973V101H935.69V95.8867H933.592L933.38 98.9014C933.334 99.6032 933.134 100.141 932.778 100.515C932.427 100.884 931.951 101.068 931.35 101.068C931.295 101.068 931.245 101.066 931.199 101.062C931.154 101.057 931.106 101.05 931.056 101.041C931.01 101.032 930.969 101.018 930.933 101V99.9473H931.069C931.712 99.9473 932.063 99.5986 932.122 98.9014L932.471 94.6973H936.955ZM943.463 94.6973V101H942.205V98.9014H940.947L939.614 101H938.213L939.683 98.6895C939.441 98.5983 939.231 98.4684 939.054 98.2998C938.894 98.1494 938.748 97.9557 938.616 97.7188C938.489 97.4818 938.425 97.1764 938.425 96.8027C938.425 96.502 938.477 96.224 938.582 95.9688C938.691 95.709 938.842 95.488 939.033 95.3057C939.225 95.1188 939.452 94.9707 939.717 94.8613C939.986 94.752 940.28 94.6973 940.599 94.6973H943.463ZM940.599 95.8867C940.357 95.8867 940.143 95.9779 939.956 96.1602C939.774 96.3424 939.683 96.5566 939.683 96.8027C939.683 97.0443 939.774 97.2562 939.956 97.4385C940.138 97.6208 940.353 97.7119 940.599 97.7119H942.205V95.8867H940.599ZM953.683 98.6895C953.61 99.0267 953.493 99.3411 953.334 99.6328C953.174 99.9199 952.972 100.171 952.726 100.385C952.484 100.599 952.206 100.768 951.892 100.891C951.582 101.009 951.244 101.068 950.88 101.068C950.461 101.068 950.069 100.991 949.704 100.836C949.34 100.676 949.018 100.455 948.74 100.173C948.467 99.8857 948.253 99.5462 948.098 99.1543C947.947 98.7624 947.872 98.3271 947.872 97.8486C947.872 97.3747 947.947 96.9417 948.098 96.5498C948.253 96.1579 948.467 95.8206 948.74 95.5381C949.018 95.251 949.34 95.0277 949.704 94.8682C950.069 94.7087 950.461 94.6289 950.88 94.6289C951.244 94.6289 951.582 94.6904 951.892 94.8135C952.206 94.932 952.484 95.1006 952.726 95.3193C952.972 95.5335 953.172 95.7865 953.327 96.0781C953.487 96.3652 953.605 96.6751 953.683 97.0078H952.35C952.245 96.6523 952.072 96.3652 951.83 96.1465C951.589 95.9277 951.272 95.8184 950.88 95.8184C950.657 95.8184 950.438 95.8685 950.224 95.9688C950.009 96.0645 949.823 96.2035 949.663 96.3857C949.504 96.568 949.374 96.7845 949.273 97.0352C949.178 97.2812 949.13 97.5524 949.13 97.8486C949.13 98.1494 949.178 98.4229 949.273 98.6689C949.374 98.915 949.504 99.1292 949.663 99.3115C949.823 99.4938 950.009 99.6351 950.224 99.7354C950.438 99.8311 950.657 99.8789 950.88 99.8789C951.272 99.8789 951.589 99.7695 951.83 99.5508C952.076 99.332 952.249 99.0449 952.35 98.6895H953.683ZM960.478 94.6973V101H959.22V98.4092H956.205V101H954.947V94.6973H956.205V97.2197H959.22V94.6973H960.478ZM967.614 99.1816C967.509 99.4414 967.377 99.6852 967.218 99.9131C967.058 100.141 966.867 100.341 966.644 100.515C966.42 100.688 966.16 100.825 965.864 100.925C965.573 101.021 965.244 101.068 964.88 101.068C964.461 101.068 964.069 100.991 963.704 100.836C963.34 100.676 963.021 100.455 962.747 100.173C962.474 99.8857 962.259 99.5462 962.104 99.1543C961.95 98.7624 961.872 98.3271 961.872 97.8486C961.872 97.3747 961.95 96.9417 962.104 96.5498C962.259 96.1579 962.469 95.8206 962.733 95.5381C962.998 95.251 963.31 95.0277 963.67 94.8682C964.03 94.7087 964.41 94.6289 964.812 94.6289C965.213 94.6289 965.593 94.7087 965.953 94.8682C966.313 95.0277 966.625 95.251 966.89 95.5381C967.154 95.8206 967.364 96.1579 967.519 96.5498C967.674 96.9417 967.751 97.3747 967.751 97.8486C967.751 97.9215 967.746 97.9945 967.737 98.0674C967.728 98.1357 967.719 98.195 967.71 98.2451C967.701 98.3089 967.692 98.3636 967.683 98.4092H963.198C963.216 98.6051 963.273 98.792 963.369 98.9697C963.465 99.1475 963.583 99.3047 963.725 99.4414C963.87 99.5736 964.044 99.6807 964.244 99.7627C964.445 99.8402 964.657 99.8789 964.88 99.8789C965.263 99.8789 965.566 99.7969 965.789 99.6328C966.017 99.4688 966.181 99.3184 966.281 99.1816H967.614ZM964.812 95.8184C964.392 95.8184 964.037 95.9619 963.745 96.249C963.458 96.5316 963.276 96.903 963.198 97.3633H966.562C966.489 96.9076 966.302 96.5361 966.001 96.249C965.705 95.9619 965.308 95.8184 964.812 95.8184ZM973.356 95.8867H970.342V101H969.084V94.6973H973.356V95.8867ZM976.781 94.6289C977.146 94.6289 977.479 94.6882 977.779 94.8066C978.085 94.9206 978.344 95.0778 978.559 95.2783C978.773 95.4788 978.939 95.7158 979.058 95.9893C979.176 96.2581 979.235 96.5521 979.235 96.8711V101H978.326L978.046 100.371C977.923 100.503 977.777 100.619 977.608 100.72C977.458 100.811 977.269 100.893 977.041 100.966C976.813 101.034 976.54 101.068 976.221 101.068C975.519 101.068 974.981 100.895 974.607 100.549C974.238 100.198 974.054 99.7422 974.054 99.1816C974.054 98.8626 974.113 98.5755 974.231 98.3203C974.354 98.0605 974.562 97.8418 974.854 97.6641C975.15 97.4818 975.549 97.3405 976.05 97.2402C976.556 97.1354 977.196 97.083 977.971 97.083V96.8711C977.971 96.5521 977.87 96.2969 977.67 96.1055C977.469 95.9141 977.173 95.8184 976.781 95.8184C976.362 95.8184 976.057 95.8936 975.865 96.0439C975.674 96.1943 975.56 96.3766 975.523 96.5908H974.266C974.302 96.0303 974.537 95.5632 974.97 95.1895C975.403 94.8158 976.007 94.6289 976.781 94.6289ZM976.296 99.9473C976.829 99.9473 977.242 99.8105 977.533 99.5371C977.825 99.2637 977.971 98.931 977.971 98.5391V98.1973C977.41 98.1973 976.957 98.2246 976.61 98.2793C976.269 98.3294 976 98.4001 975.804 98.4912C975.608 98.5778 975.476 98.6872 975.407 98.8193C975.343 98.9469 975.312 99.0905 975.312 99.25C975.312 99.4277 975.396 99.5895 975.564 99.7354C975.733 99.8766 975.977 99.9473 976.296 99.9473Z" fill="#1D293C"/>
<defs>
<linearGradient id="paint0_linear_273_45" x1="474" y1="352" x2="474" y2="384" gradientUnits="userSpaceOnUse">
<stop stop-opacity="0"/>
<stop offset="1" stop-opacity="0.3"/>
</linearGradient>
</defs>
</svg>
