<svg width="544" height="515" viewBox="0 0 544 515" fill="none" xmlns="http://www.w3.org/2000/svg">
<path d="M264.467 111C264.467 99.9543 273.421 91 284.467 91H494.981C506.027 91 514.981 99.9543 514.981 111V305.93H389.724H264.467V111Z" fill="white" stroke="#AEB0B2"/>
<path d="M250.232 305.93H529.214V335.821H250.232V305.93Z" fill="white" stroke="#AEB0B2"/>
<path d="M265.5 325.5C264.395 325.5 263.5 326.395 263.5 327.5C263.5 328.605 264.395 329.5 265.5 329.5H513.5C514.605 329.5 515.5 328.605 515.5 327.5C515.5 326.395 514.605 325.5 513.5 325.5H265.5Z" fill="white" stroke="#AEB0B2"/>
<path d="M264.467 291.696H367.662V305.93H264.467V291.696Z" fill="white" stroke="#AEB0B2"/>
<path d="M367.662 159.322H411.787V305.93H367.662V159.322Z" fill="white" stroke="#AEB0B2"/>
<path fill-rule="evenodd" clip-rule="evenodd" d="M375.24 174.372C374.707 174.118 374.07 174.344 373.817 174.876C373.563 175.409 373.789 176.046 374.322 176.299L404.213 190.533C404.745 190.786 405.382 190.56 405.635 190.028C405.889 189.496 405.663 188.859 405.131 188.605L375.24 174.372ZM373.817 189.11C374.07 188.578 374.707 188.352 375.24 188.605L405.131 202.839C405.663 203.093 405.889 203.73 405.635 204.262C405.382 204.794 404.745 205.02 404.213 204.767L374.322 190.533C373.789 190.28 373.563 189.643 373.817 189.11ZM375.24 202.839C374.707 202.585 374.07 202.812 373.817 203.344C373.563 203.876 373.789 204.513 374.322 204.767L404.213 219C404.745 219.254 405.382 219.028 405.635 218.496C405.889 217.963 405.663 217.326 405.131 217.073L375.24 202.839ZM373.817 217.578C374.07 217.045 374.707 216.819 375.24 217.073L405.131 231.307C405.663 231.56 405.889 232.197 405.635 232.729C405.382 233.262 404.745 233.488 404.213 233.234L374.322 219C373.789 218.747 373.563 218.11 373.817 217.578ZM375.24 231.307C374.707 231.053 374.07 231.279 373.817 231.812C373.563 232.344 373.789 232.981 374.322 233.234L404.213 247.468C404.745 247.722 405.382 247.496 405.635 246.963C405.889 246.431 405.663 245.794 405.131 245.54L375.24 231.307ZM373.817 246.045C374.07 245.513 374.707 245.287 375.24 245.54L405.131 259.774C405.663 260.028 405.889 260.665 405.635 261.197C405.382 261.729 404.745 261.955 404.213 261.702L374.322 247.468C373.789 247.215 373.563 246.578 373.817 246.045ZM375.24 259.774C374.707 259.521 374.07 259.747 373.817 260.279C373.563 260.811 373.789 261.448 374.322 261.702L404.213 275.936C404.745 276.189 405.382 275.963 405.635 275.431C405.889 274.898 405.663 274.261 405.131 274.008L375.24 259.774ZM375.24 274.008C374.707 273.754 374.07 273.98 373.817 274.513C373.563 275.045 373.789 275.682 374.322 275.936L404.213 290.169C404.745 290.423 405.382 290.197 405.635 289.664C405.889 289.132 405.663 288.495 405.131 288.242L375.24 274.008Z" fill="white"/>
<path d="M373.817 174.876L374.268 175.091L374.268 175.091L373.817 174.876ZM375.24 174.372L375.025 174.823L375.24 174.372ZM374.322 176.299L374.537 175.848H374.537L374.322 176.299ZM404.213 190.533L404.428 190.082L404.428 190.082L404.213 190.533ZM405.635 190.028L405.184 189.813L405.184 189.813L405.635 190.028ZM405.131 188.605L405.346 188.154L405.346 188.154L405.131 188.605ZM375.24 188.605L375.455 188.154H375.455L375.24 188.605ZM373.817 189.11L374.268 189.325H374.268L373.817 189.11ZM405.131 202.839L405.346 202.388L405.131 202.839ZM405.635 204.262L405.184 204.047L405.184 204.047L405.635 204.262ZM404.213 204.767L403.998 205.218V205.218L404.213 204.767ZM374.322 190.533L374.537 190.082H374.537L374.322 190.533ZM373.817 203.344L373.365 203.129L373.365 203.129L373.817 203.344ZM375.24 202.839L375.455 202.388H375.455L375.24 202.839ZM374.322 204.767L374.537 204.315H374.537L374.322 204.767ZM404.213 219L403.998 219.452L404.213 219ZM405.635 218.496L405.184 218.281L405.184 218.281L405.635 218.496ZM405.131 217.073L405.346 216.621H405.346L405.131 217.073ZM375.24 217.073L375.455 216.621H375.455L375.24 217.073ZM373.817 217.578L374.268 217.793H374.268L373.817 217.578ZM405.131 231.307L405.346 230.855L405.131 231.307ZM405.635 232.729L405.184 232.514L405.184 232.514L405.635 232.729ZM404.213 233.234L403.998 233.686H403.998L404.213 233.234ZM374.322 219L374.537 218.549H374.537L374.322 219ZM373.817 231.812L374.268 232.026H374.268L373.817 231.812ZM375.24 231.307L375.455 230.855H375.455L375.24 231.307ZM374.322 233.234L374.537 232.783H374.537L374.322 233.234ZM404.213 247.468L403.998 247.92H403.998L404.213 247.468ZM405.635 246.963L405.184 246.748H405.184L405.635 246.963ZM405.131 245.54L404.916 245.992H404.916L405.131 245.54ZM375.24 245.54L375.025 245.992H375.025L375.24 245.54ZM373.817 246.045L374.268 246.26H374.268L373.817 246.045ZM405.131 259.774L404.916 260.226H404.916L405.131 259.774ZM405.635 261.197L405.184 260.982H405.184L405.635 261.197ZM404.213 261.702L404.428 261.25H404.428L404.213 261.702ZM374.322 247.468L374.107 247.919H374.107L374.322 247.468ZM373.817 260.279L374.268 260.494H374.268L373.817 260.279ZM375.24 259.774L375.025 260.226H375.025L375.24 259.774ZM374.322 261.702L374.107 262.153H374.107L374.322 261.702ZM404.213 275.936L404.428 275.484H404.428L404.213 275.936ZM405.635 275.431L405.184 275.216H405.184L405.635 275.431ZM405.131 274.008L404.916 274.459H404.916L405.131 274.008ZM373.817 274.513L374.268 274.728H374.268L373.817 274.513ZM375.24 274.008L375.025 274.459H375.025L375.24 274.008ZM374.322 275.936L374.107 276.387H374.107L374.322 275.936ZM404.213 290.169L404.428 289.718H404.428L404.213 290.169ZM405.635 289.664L405.184 289.449H405.184L405.635 289.664ZM405.131 288.242L404.916 288.693H404.916L405.131 288.242ZM374.268 175.091C374.403 174.808 374.742 174.688 375.025 174.823L375.455 173.92C374.673 173.548 373.738 173.88 373.365 174.661L374.268 175.091ZM374.537 175.848C374.254 175.713 374.134 175.374 374.268 175.091L373.365 174.661C372.993 175.443 373.325 176.378 374.107 176.751L374.537 175.848ZM404.428 190.082L374.537 175.848L374.107 176.751L403.998 190.984L404.428 190.082ZM405.184 189.813C405.049 190.096 404.711 190.216 404.428 190.082L403.998 190.984C404.779 191.357 405.715 191.025 406.087 190.243L405.184 189.813ZM404.916 189.057C405.199 189.191 405.319 189.53 405.184 189.813L406.087 190.243C406.459 189.461 406.127 188.526 405.346 188.154L404.916 189.057ZM375.025 174.823L404.916 189.057L405.346 188.154L375.455 173.92L375.025 174.823ZM375.455 188.154C374.673 187.782 373.738 188.114 373.365 188.895L374.268 189.325C374.403 189.042 374.742 188.922 375.025 189.057L375.455 188.154ZM405.346 202.388L375.455 188.154L375.025 189.057L404.916 203.291L405.346 202.388ZM406.087 204.477C406.459 203.695 406.127 202.76 405.346 202.388L404.916 203.291C405.199 203.425 405.319 203.764 405.184 204.047L406.087 204.477ZM403.998 205.218C404.779 205.59 405.715 205.259 406.087 204.477L405.184 204.047C405.049 204.33 404.711 204.45 404.428 204.315L403.998 205.218ZM374.107 190.984L403.998 205.218L404.428 204.315L374.537 190.082L374.107 190.984ZM373.365 188.895C372.993 189.677 373.325 190.612 374.107 190.984L374.537 190.082C374.254 189.947 374.134 189.608 374.268 189.325L373.365 188.895ZM374.268 203.559C374.403 203.276 374.742 203.156 375.025 203.29L375.455 202.388C374.673 202.015 373.738 202.347 373.365 203.129L374.268 203.559ZM374.537 204.315C374.254 204.18 374.134 203.842 374.268 203.559L373.365 203.129C372.993 203.91 373.325 204.846 374.107 205.218L374.537 204.315ZM404.428 218.549L374.537 204.315L374.107 205.218L403.998 219.452L404.428 218.549ZM405.184 218.281C405.049 218.564 404.711 218.684 404.428 218.549L403.998 219.452C404.779 219.824 405.715 219.492 406.087 218.711L405.184 218.281ZM404.916 217.524C405.199 217.659 405.319 217.998 405.184 218.281L406.087 218.711C406.459 217.929 406.127 216.994 405.346 216.621L404.916 217.524ZM375.025 203.29L404.916 217.524L405.346 216.621L375.455 202.388L375.025 203.29ZM375.455 216.621C374.673 216.249 373.738 216.581 373.365 217.363L374.268 217.793C374.403 217.51 374.742 217.389 375.025 217.524L375.455 216.621ZM405.346 230.855L375.455 216.621L375.025 217.524L404.916 231.758L405.346 230.855ZM406.087 232.944C406.459 232.163 406.127 231.227 405.346 230.855L404.916 231.758C405.199 231.893 405.319 232.231 405.184 232.514L406.087 232.944ZM403.998 233.686C404.779 234.058 405.715 233.726 406.087 232.944L405.184 232.514C405.049 232.797 404.711 232.918 404.428 232.783L403.998 233.686ZM374.107 219.452L403.998 233.686L404.428 232.783L374.537 218.549L374.107 219.452ZM373.365 217.363C372.993 218.144 373.325 219.08 374.107 219.452L374.537 218.549C374.254 218.414 374.134 218.076 374.268 217.793L373.365 217.363ZM374.268 232.026C374.403 231.744 374.742 231.623 375.025 231.758L375.455 230.855C374.673 230.483 373.738 230.815 373.365 231.597L374.268 232.026ZM374.537 232.783C374.254 232.648 374.134 232.309 374.268 232.026L373.365 231.597C372.993 232.378 373.325 233.314 374.107 233.686L374.537 232.783ZM404.428 247.017L374.537 232.783L374.107 233.686L403.998 247.92L404.428 247.017ZM405.184 246.748C405.049 247.031 404.711 247.151 404.428 247.017L403.998 247.92C404.779 248.292 405.715 247.96 406.087 247.178L405.184 246.748ZM404.916 245.992C405.199 246.127 405.319 246.465 405.184 246.748L406.087 247.178C406.459 246.397 406.127 245.461 405.346 245.089L404.916 245.992ZM375.025 231.758L404.916 245.992L405.346 245.089L375.455 230.855L375.025 231.758ZM375.455 245.089C374.673 244.717 373.738 245.049 373.365 245.83L374.268 246.26C374.403 245.977 374.742 245.857 375.025 245.992L375.455 245.089ZM405.346 259.323L375.455 245.089L375.025 245.992L404.916 260.226L405.346 259.323ZM406.087 261.412C406.459 260.63 406.127 259.695 405.346 259.323L404.916 260.226C405.199 260.36 405.319 260.699 405.184 260.982L406.087 261.412ZM403.998 262.153C404.779 262.525 405.715 262.194 406.087 261.412L405.184 260.982C405.049 261.265 404.711 261.385 404.428 261.25L403.998 262.153ZM374.107 247.919L403.998 262.153L404.428 261.25L374.537 247.017L374.107 247.919ZM373.365 245.83C372.993 246.612 373.325 247.547 374.107 247.919L374.537 247.017C374.254 246.882 374.134 246.543 374.268 246.26L373.365 245.83ZM374.268 260.494C374.403 260.211 374.742 260.091 375.025 260.226L375.455 259.323C374.673 258.95 373.738 259.282 373.365 260.064L374.268 260.494ZM374.537 261.25C374.254 261.116 374.134 260.777 374.268 260.494L373.365 260.064C372.993 260.846 373.325 261.781 374.107 262.153L374.537 261.25ZM404.428 275.484L374.537 261.25L374.107 262.153L403.998 276.387L404.428 275.484ZM405.184 275.216C405.049 275.499 404.711 275.619 404.428 275.484L403.998 276.387C404.779 276.759 405.715 276.427 406.087 275.646L405.184 275.216ZM404.916 274.459C405.199 274.594 405.319 274.933 405.184 275.216L406.087 275.646C406.459 274.864 406.127 273.929 405.346 273.556L404.916 274.459ZM375.025 260.226L404.916 274.459L405.346 273.556L375.455 259.323L375.025 260.226ZM374.268 274.728C374.403 274.445 374.742 274.325 375.025 274.459L375.455 273.556C374.673 273.184 373.738 273.516 373.365 274.298L374.268 274.728ZM374.537 275.484C374.254 275.349 374.134 275.011 374.268 274.728L373.365 274.298C372.993 275.079 373.325 276.015 374.107 276.387L374.537 275.484ZM404.428 289.718L374.537 275.484L374.107 276.387L403.998 290.621L404.428 289.718ZM405.184 289.449C405.049 289.732 404.711 289.853 404.428 289.718L403.998 290.621C404.779 290.993 405.715 290.661 406.087 289.879L405.184 289.449ZM404.916 288.693C405.199 288.828 405.319 289.166 405.184 289.449L406.087 289.879C406.459 289.098 406.127 288.162 405.346 287.79L404.916 288.693ZM375.025 274.459L404.916 288.693L405.346 287.79L375.455 273.556L375.025 274.459Z" fill="#AEB0B2"/>
<path d="M411.787 291.696H514.982V305.93H411.787V291.696Z" fill="white" stroke="#AEB0B2"/>
<path d="M283.682 202.023H349.157V291.696H283.682V202.023Z" fill="white" stroke="#AEB0B2"/>
<rect x="305.744" y="253.977" width="21.3506" height="12.8104" rx="6.40519" fill="white" stroke="#AEB0B2"/>
<rect x="293.145" y="189.425" width="46.548" height="3.84675" rx="1.92338" fill="white" stroke="#AEB0B2"/>
<rect x="293.145" y="193.695" width="46.548" height="3.84675" rx="1.92338" fill="white" stroke="#AEB0B2"/>
<rect x="293.145" y="197.965" width="46.548" height="3.84675" rx="1.92338" fill="white" stroke="#AEB0B2"/>
<rect x="283.68" y="184.231" width="65.4753" height="5.69351" rx="2.84675" fill="#AEB0B2"/>
<rect x="312.146" y="169.286" width="8.54026" height="14.9455" fill="#AEB0B2"/>
<path d="M288.299 129.31C289.715 114.842 301.878 103.811 316.415 103.811C330.951 103.811 343.115 114.842 344.53 129.31L347.625 160.95C348.062 165.416 344.553 169.286 340.065 169.286H292.764C288.277 169.286 284.767 165.416 285.204 160.95L288.299 129.31Z" fill="#AEB0B2"/>
<path d="M431.004 202.023H496.479V291.696H431.004V202.023Z" fill="white" stroke="#AEB0B2"/>
<rect x="453.066" y="253.977" width="21.3506" height="12.8104" rx="6.40519" fill="white" stroke="#AEB0B2"/>
<rect x="440.465" y="189.425" width="46.548" height="3.84675" rx="1.92338" fill="white" stroke="#AEB0B2"/>
<rect x="440.465" y="193.695" width="46.548" height="3.84675" rx="1.92338" fill="white" stroke="#AEB0B2"/>
<rect x="440.465" y="197.965" width="46.548" height="3.84675" rx="1.92338" fill="white" stroke="#AEB0B2"/>
<rect x="431" y="184.231" width="65.4753" height="5.69351" rx="2.84675" fill="#AEB0B2"/>
<rect x="459.467" y="169.286" width="8.54026" height="14.9455" fill="#AEB0B2"/>
<path d="M435.624 129.31C437.039 114.842 449.202 103.811 463.739 103.811C478.275 103.811 490.439 114.842 491.854 129.31L494.949 160.95C495.386 165.416 491.877 169.286 487.389 169.286H440.089C435.601 169.286 432.091 165.416 432.528 160.95L435.624 129.31Z" fill="#AEB0B2"/>
<path fill-rule="evenodd" clip-rule="evenodd" d="M260.912 112.351C259.732 112.351 258.776 113.307 258.776 114.486V191.348C258.776 192.527 259.732 193.483 260.912 193.483H264.47V196.33H260.912C258.16 196.33 255.93 194.099 255.93 191.348V114.486C255.93 111.734 258.16 109.504 260.912 109.504H264.47V112.351H260.912Z" fill="white" stroke="#AEB0B2"/>
<path fill-rule="evenodd" clip-rule="evenodd" d="M518.542 112.351C519.721 112.351 520.677 113.307 520.677 114.486V191.348C520.677 192.527 519.721 193.483 518.542 193.483H514.983V196.33H518.542C521.293 196.33 523.523 194.099 523.523 191.348V114.486C523.523 111.734 521.293 109.504 518.542 109.504H514.983V112.351H518.542Z" fill="white" stroke="#AEB0B2"/>
<mask id="mask0_273_46" style="mask-type:alpha" maskUnits="userSpaceOnUse" x="236" y="335" width="308" height="30">
<path d="M243.117 335.82H536.332L543.449 365H236L243.117 335.82Z" fill="url(#paint0_linear_273_46)"/>
</mask>
<g mask="url(#mask0_273_46)">
<line y1="-0.5" x2="425.681" y2="-0.5" transform="matrix(-0.636285 0.771454 -0.927145 -0.374701 306.83 105.296)" stroke="#FF1D10"/>
<line y1="-0.5" x2="425.681" y2="-0.5" transform="matrix(-0.636285 0.771454 -0.927145 -0.374701 312.307 107.509)" stroke="#FF1D10"/>
<line y1="-0.5" x2="425.681" y2="-0.5" transform="matrix(-0.636285 0.771454 -0.927145 -0.374701 317.781 109.722)" stroke="#FF1D10"/>
<line y1="-0.5" x2="425.681" y2="-0.5" transform="matrix(-0.636285 0.771454 -0.927145 -0.374701 323.256 111.935)" stroke="#FF1D10"/>
<line y1="-0.5" x2="425.681" y2="-0.5" transform="matrix(-0.636285 0.771454 -0.927145 -0.374701 328.736 114.147)" stroke="#FF1D10"/>
<line y1="-0.5" x2="425.681" y2="-0.5" transform="matrix(-0.636285 0.771454 -0.927146 -0.374701 334.207 116.36)" stroke="#FF1D10"/>
<line y1="-0.5" x2="425.681" y2="-0.5" transform="matrix(-0.636285 0.771454 -0.927145 -0.374701 339.682 118.573)" stroke="#FF1D10"/>
<line y1="-0.5" x2="425.681" y2="-0.5" transform="matrix(-0.636285 0.771454 -0.927145 -0.374701 345.152 120.784)" stroke="#FF1D10"/>
<line y1="-0.5" x2="425.681" y2="-0.5" transform="matrix(-0.636285 0.771454 -0.927145 -0.374701 350.632 122.997)" stroke="#FF1D10"/>
<line y1="-0.5" x2="425.681" y2="-0.5" transform="matrix(-0.636285 0.771454 -0.927145 -0.374701 356.102 125.212)" stroke="#FF1D10"/>
<line y1="-0.5" x2="425.681" y2="-0.5" transform="matrix(-0.636285 0.771454 -0.927146 -0.374701 361.584 127.425)" stroke="#FF1D10"/>
<line y1="-0.5" x2="425.681" y2="-0.5" transform="matrix(-0.636285 0.771454 -0.927145 -0.374701 367.052 129.638)" stroke="#FF1D10"/>
<line y1="-0.5" x2="425.681" y2="-0.5" transform="matrix(-0.636285 0.771454 -0.927145 -0.374701 372.533 131.851)" stroke="#FF1D10"/>
<line y1="-0.5" x2="425.681" y2="-0.5" transform="matrix(-0.636285 0.771454 -0.927145 -0.374701 378.004 134.062)" stroke="#FF1D10"/>
<line y1="-0.5" x2="425.681" y2="-0.5" transform="matrix(-0.636285 0.771454 -0.927145 -0.374701 383.484 136.275)" stroke="#FF1D10"/>
<line y1="-0.5" x2="425.681" y2="-0.5" transform="matrix(-0.636285 0.771454 -0.927145 -0.374701 388.959 138.488)" stroke="#FF1D10"/>
<line y1="-0.5" x2="425.681" y2="-0.5" transform="matrix(-0.636285 0.771454 -0.927145 -0.374701 394.434 140.701)" stroke="#FF1D10"/>
<line y1="-0.5" x2="425.681" y2="-0.5" transform="matrix(-0.636285 0.771454 -0.927145 -0.374701 399.91 142.914)" stroke="#FF1D10"/>
<line y1="-0.5" x2="425.681" y2="-0.5" transform="matrix(-0.636285 0.771454 -0.927145 -0.374701 405.385 145.126)" stroke="#FF1D10"/>
<line y1="-0.5" x2="425.681" y2="-0.5" transform="matrix(-0.636285 0.771454 -0.927145 -0.374701 410.859 147.34)" stroke="#FF1D10"/>
<line y1="-0.5" x2="425.681" y2="-0.5" transform="matrix(-0.636285 0.771454 -0.927145 -0.374701 416.336 149.551)" stroke="#FF1D10"/>
<line y1="-0.5" x2="425.681" y2="-0.5" transform="matrix(-0.636285 0.771454 -0.927145 -0.374701 421.816 151.764)" stroke="#FF1D10"/>
<line y1="-0.5" x2="425.681" y2="-0.5" transform="matrix(-0.636285 0.771454 -0.927145 -0.374701 427.285 153.977)" stroke="#FF1D10"/>
<line y1="-0.5" x2="425.681" y2="-0.5" transform="matrix(-0.636285 0.771454 -0.927145 -0.374701 432.768 156.189)" stroke="#FF1D10"/>
<line y1="-0.5" x2="425.681" y2="-0.5" transform="matrix(-0.636285 0.771454 -0.927145 -0.374701 438.236 158.402)" stroke="#FF1D10"/>
<line y1="-0.5" x2="425.681" y2="-0.5" transform="matrix(-0.636285 0.771454 -0.927145 -0.374701 443.717 160.615)" stroke="#FF1D10"/>
<line y1="-0.5" x2="425.681" y2="-0.5" transform="matrix(-0.636285 0.771454 -0.927145 -0.374701 449.188 162.828)" stroke="#FF1D10"/>
<line y1="-0.5" x2="425.681" y2="-0.5" transform="matrix(-0.636285 0.771454 -0.927145 -0.374701 454.668 165.041)" stroke="#FF1D10"/>
<line y1="-0.5" x2="425.681" y2="-0.5" transform="matrix(-0.636285 0.771454 -0.927145 -0.374701 460.137 167.254)" stroke="#FF1D10"/>
<line y1="-0.5" x2="425.681" y2="-0.5" transform="matrix(-0.636285 0.771454 -0.927145 -0.374701 465.619 169.468)" stroke="#FF1D10"/>
<line y1="-0.5" x2="425.681" y2="-0.5" transform="matrix(-0.636285 0.771454 -0.927145 -0.374701 471.094 171.68)" stroke="#FF1D10"/>
<line y1="-0.5" x2="425.681" y2="-0.5" transform="matrix(-0.636285 0.771454 -0.927145 -0.374701 476.568 173.893)" stroke="#FF1D10"/>
<line y1="-0.5" x2="425.681" y2="-0.5" transform="matrix(-0.636285 0.771454 -0.927145 -0.374701 482.045 176.105)" stroke="#FF1D10"/>
<line y1="-0.5" x2="425.681" y2="-0.5" transform="matrix(-0.636285 0.771454 -0.927145 -0.374701 487.52 178.318)" stroke="#FF1D10"/>
<line y1="-0.5" x2="425.681" y2="-0.5" transform="matrix(-0.636285 0.771454 -0.927145 -0.374701 492.994 180.53)" stroke="#FF1D10"/>
<line y1="-0.5" x2="425.681" y2="-0.5" transform="matrix(-0.636285 0.771454 -0.927145 -0.374701 498.471 182.743)" stroke="#FF1D10"/>
<line y1="-0.5" x2="425.681" y2="-0.5" transform="matrix(-0.636285 0.771454 -0.927145 -0.374701 503.939 184.956)" stroke="#FF1D10"/>
<line y1="-0.5" x2="425.681" y2="-0.5" transform="matrix(-0.636285 0.771454 -0.927145 -0.374701 509.414 187.169)" stroke="#FF1D10"/>
<line y1="-0.5" x2="425.681" y2="-0.5" transform="matrix(-0.636285 0.771454 -0.927145 -0.374701 514.891 189.384)" stroke="#FF1D10"/>
<line y1="-0.5" x2="425.681" y2="-0.5" transform="matrix(-0.636285 0.771454 -0.927145 -0.374701 520.365 191.597)" stroke="#FF1D10"/>
<line y1="-0.5" x2="425.681" y2="-0.5" transform="matrix(-0.636285 0.771454 -0.927145 -0.374701 525.84 193.81)" stroke="#FF1D10"/>
<line y1="-0.5" x2="425.681" y2="-0.5" transform="matrix(-0.636285 0.771454 -0.927145 -0.374701 531.316 196.021)" stroke="#FF1D10"/>
<line y1="-0.5" x2="425.681" y2="-0.5" transform="matrix(-0.636285 0.771454 -0.927145 -0.374701 536.791 198.234)" stroke="#FF1D10"/>
<line y1="-0.5" x2="425.681" y2="-0.5" transform="matrix(-0.636285 0.771454 -0.927145 -0.374701 542.266 200.447)" stroke="#FF1D10"/>
<line y1="-0.5" x2="425.681" y2="-0.5" transform="matrix(-0.636285 0.771454 -0.927145 -0.374701 547.742 202.66)" stroke="#FF1D10"/>
<line y1="-0.5" x2="425.681" y2="-0.5" transform="matrix(-0.636285 0.771454 -0.927145 -0.374701 553.223 204.873)" stroke="#FF1D10"/>
<line y1="-0.5" x2="425.681" y2="-0.5" transform="matrix(-0.636285 0.771454 -0.927145 -0.374701 558.697 207.086)" stroke="#FF1D10"/>
<line y1="-0.5" x2="425.681" y2="-0.5" transform="matrix(-0.636285 0.771454 -0.927145 -0.374701 564.174 209.299)" stroke="#FF1D10"/>
<line y1="-0.5" x2="425.681" y2="-0.5" transform="matrix(-0.636285 0.771454 -0.927145 -0.374701 569.648 211.512)" stroke="#FF1D10"/>
<line y1="-0.5" x2="425.681" y2="-0.5" transform="matrix(-0.636285 0.771454 -0.927145 -0.374701 575.123 213.726)" stroke="#FF1D10"/>
<line y1="-0.5" x2="425.681" y2="-0.5" transform="matrix(-0.636285 0.771454 -0.927145 -0.374701 580.594 215.938)" stroke="#FF1D10"/>
<line y1="-0.5" x2="425.681" y2="-0.5" transform="matrix(-0.636285 0.771454 -0.927145 -0.374701 586.074 218.151)" stroke="#FF1D10"/>
<line y1="-0.5" x2="425.681" y2="-0.5" transform="matrix(-0.636285 0.771454 -0.927145 -0.374701 591.543 220.363)" stroke="#FF1D10"/>
<line y1="-0.5" x2="425.681" y2="-0.5" transform="matrix(-0.636285 0.771454 -0.927145 -0.374701 597.025 222.576)" stroke="#FF1D10"/>
<line y1="-0.5" x2="425.681" y2="-0.5" transform="matrix(-0.636285 0.771454 -0.927145 -0.374701 602.5 224.788)" stroke="#FF1D10"/>
<line y1="-0.5" x2="425.681" y2="-0.5" transform="matrix(-0.636285 0.771454 -0.927145 -0.374701 607.975 227.001)" stroke="#FF1D10"/>
<line y1="-0.5" x2="425.681" y2="-0.5" transform="matrix(-0.636285 0.771454 -0.927145 -0.374701 613.451 229.214)" stroke="#FF1D10"/>
<line y1="-0.5" x2="425.681" y2="-0.5" transform="matrix(-0.636285 0.771454 -0.927145 -0.374701 618.925 231.427)" stroke="#FF1D10"/>
<line y1="-0.5" x2="425.681" y2="-0.5" transform="matrix(-0.636285 0.771454 -0.927145 -0.374701 624.4 233.642)" stroke="#FF1D10"/>
<line y1="-0.5" x2="425.681" y2="-0.5" transform="matrix(-0.636285 0.771454 -0.927145 -0.374701 629.877 235.854)" stroke="#FF1D10"/>
<line y1="-0.5" x2="425.681" y2="-0.5" transform="matrix(-0.636285 0.771454 -0.927145 -0.374701 635.351 238.067)" stroke="#FF1D10"/>
<line y1="-0.5" x2="425.681" y2="-0.5" transform="matrix(-0.636285 0.771454 -0.927145 -0.374701 640.826 240.278)" stroke="#FF1D10"/>
<line y1="-0.5" x2="425.681" y2="-0.5" transform="matrix(-0.636285 0.771454 -0.927145 -0.374701 646.309 242.491)" stroke="#FF1D10"/>
<line y1="-0.5" x2="425.681" y2="-0.5" transform="matrix(-0.636285 0.771454 -0.927145 -0.374701 651.777 244.702)" stroke="#FF1D10"/>
<line y1="-0.5" x2="425.681" y2="-0.5" transform="matrix(-0.636285 0.771454 -0.927145 -0.374701 657.361 246.96)" stroke="#FF1D10"/>
<line y1="-0.5" x2="425.681" y2="-0.5" transform="matrix(-0.636285 0.771454 -0.927145 -0.374701 662.951 249.219)" stroke="#FF1D10"/>
<line y1="-0.5" x2="425.681" y2="-0.5" transform="matrix(-0.636285 0.771454 -0.927145 -0.374701 668.543 251.477)" stroke="#FF1D10"/>
<line y1="-0.5" x2="425.681" y2="-0.5" transform="matrix(-0.636285 0.771454 -0.927145 -0.374701 674.126 253.735)" stroke="#FF1D10"/>
<line y1="-0.5" x2="425.681" y2="-0.5" transform="matrix(-0.636285 0.771454 -0.927145 -0.374701 679.705 255.992)" stroke="#FF1D10"/>
<line y1="-0.5" x2="425.68" y2="-0.5" transform="matrix(-0.636285 0.771454 -0.927145 -0.374701 685.295 258.25)" stroke="#FF1D10"/>
<line y1="-0.5" x2="425.681" y2="-0.5" transform="matrix(-0.636285 0.771454 -0.927145 -0.374701 690.887 260.507)" stroke="#FF1D10"/>
<line y1="-0.5" x2="425.681" y2="-0.5" transform="matrix(-0.636285 0.771454 -0.927145 -0.374701 696.471 262.765)" stroke="#FF1D10"/>
<line y1="-0.5" x2="425.681" y2="-0.5" transform="matrix(-0.636285 0.771454 -0.927145 -0.374701 702.055 265.021)" stroke="#FF1D10"/>
<line y1="-0.5" x2="425.681" y2="-0.5" transform="matrix(-0.636285 0.771454 -0.927145 -0.374701 707.641 267.28)" stroke="#FF1D10"/>
<line y1="-0.5" x2="425.681" y2="-0.5" transform="matrix(-0.636285 0.771454 -0.927145 -0.374701 713.225 269.538)" stroke="#FF1D10"/>
<line y1="-0.5" x2="425.681" y2="-0.5" transform="matrix(-0.636285 0.771454 -0.927145 -0.374701 718.82 271.797)" stroke="#FF1D10"/>
<line y1="-0.5" x2="425.681" y2="-0.5" transform="matrix(-0.636285 0.771454 -0.927145 -0.374701 724.404 274.055)" stroke="#FF1D10"/>
<line y1="-0.5" x2="425.681" y2="-0.5" transform="matrix(-0.636285 0.771454 -0.927146 -0.374701 729.984 276.313)" stroke="#FF1D10"/>
<line y1="-0.5" x2="425.681" y2="-0.5" transform="matrix(-0.636285 0.771454 -0.927145 -0.374701 735.574 278.57)" stroke="#FF1D10"/>
<line y1="-0.5" x2="425.681" y2="-0.5" transform="matrix(-0.636285 0.771454 -0.927146 -0.374701 741.164 280.828)" stroke="#FF1D10"/>
<line y1="-0.5" x2="425.681" y2="-0.5" transform="matrix(-0.636285 0.771454 -0.927145 -0.374701 746.748 283.087)" stroke="#FF1D10"/>
<line y1="-0.5" x2="425.681" y2="-0.5" transform="matrix(-0.636285 0.771454 -0.927145 -0.374701 752.34 285.344)" stroke="#FF1D10"/>
<line y1="-0.5" x2="425.681" y2="-0.5" transform="matrix(-0.636285 0.771454 -0.927145 -0.374701 757.924 287.602)" stroke="#FF1D10"/>
<line y1="-0.5" x2="425.681" y2="-0.5" transform="matrix(-0.636285 0.771454 -0.927146 -0.374701 763.508 289.859)" stroke="#FF1D10"/>
<line y1="-0.5" x2="425.681" y2="-0.5" transform="matrix(-0.636285 0.771454 -0.927145 -0.374701 769.098 292.116)" stroke="#FF1D10"/>
<line y1="-0.5" x2="425.681" y2="-0.5" transform="matrix(-0.636285 0.771454 -0.927146 -0.374701 774.684 294.375)" stroke="#FF1D10"/>
<line y1="-0.5" x2="425.681" y2="-0.5" transform="matrix(-0.636285 0.771454 -0.927145 -0.374701 780.267 296.633)" stroke="#FF1D10"/>
<line y1="-0.5" x2="425.681" y2="-0.5" transform="matrix(-0.636285 0.771454 -0.927145 -0.374701 785.857 298.89)" stroke="#FF1D10"/>
<line y1="-0.5" x2="425.681" y2="-0.5" transform="matrix(-0.636285 0.771454 -0.927145 -0.374701 791.441 301.148)" stroke="#FF1D10"/>
<line y1="-0.5" x2="425.681" y2="-0.5" transform="matrix(-0.636285 0.771454 -0.927145 -0.374701 797.027 303.406)" stroke="#FF1D10"/>
<line y1="-0.5" x2="425.681" y2="-0.5" transform="matrix(-0.636285 0.771454 -0.927145 -0.374701 802.611 305.664)" stroke="#FF1D10"/>
<line y1="-0.5" x2="425.681" y2="-0.5" transform="matrix(-0.636285 0.771454 -0.927145 -0.374701 808.201 307.921)" stroke="#FF1D10"/>
<line y1="-0.5" x2="425.681" y2="-0.5" transform="matrix(-0.636285 0.771454 -0.927145 -0.374701 813.785 310.179)" stroke="#FF1D10"/>
</g>
<path d="M242.559 338.109C242.886 336.766 244.09 335.82 245.473 335.82H533.976C535.359 335.82 536.563 336.766 536.891 338.109L542.544 361.289C543.005 363.178 541.574 365 539.63 365H239.82C237.875 365 236.444 363.178 236.905 361.289L242.559 338.109Z" stroke="#AE261E" stroke-linecap="round" stroke-linejoin="round"/>
<path d="M236.646 14.6464C236.451 14.8417 236.451 15.1583 236.646 15.3536L239.828 18.5355C240.024 18.7308 240.34 18.7308 240.536 18.5355C240.731 18.3403 240.731 18.0237 240.536 17.8284L237.707 15L240.536 12.1716C240.731 11.9763 240.731 11.6597 240.536 11.4645C240.34 11.2692 240.024 11.2692 239.828 11.4645L236.646 14.6464ZM543.354 15.3536C543.549 15.1583 543.549 14.8417 543.354 14.6465L540.172 11.4645C539.976 11.2692 539.66 11.2692 539.464 11.4645C539.269 11.6598 539.269 11.9763 539.464 12.1716L542.293 15L539.464 17.8285C539.269 18.0237 539.269 18.3403 539.464 18.5356C539.66 18.7308 539.976 18.7308 540.172 18.5356L543.354 15.3536ZM237 15.5L543 15.5L543 14.5L237 14.5L237 15.5Z" fill="black"/>
<rect x="353" width="75" height="31" rx="6" fill="#0F1926"/>
<path d="M365.64 20H372.36V18.16H368.44L370.6 15.92C370.936 15.616 371.24 15.28 371.512 14.928C371.976 14.336 372.44 13.568 372.44 12.8C372.44 11.12 371.16 9.84 369 9.84C366.92 9.84 365.56 11.2 365.56 13.04H367.48C367.48 12.144 368.04 11.6 369 11.6C369.96 11.6 370.44 12.064 370.44 12.88C370.44 13.328 370.152 13.808 369.88 14.176C369.704 14.384 369.528 14.592 369.32 14.8L365.64 18.64V20ZM373.558 17.12C373.638 18.8 374.902 20.08 377.158 20.08C379.254 20.08 380.678 18.64 380.678 17.2C380.678 16.288 380.294 15.648 379.91 15.264C379.686 15.04 379.43 14.864 379.158 14.72C379.398 14.576 379.606 14.416 379.798 14.224C380.118 13.888 380.438 13.36 380.438 12.64C380.438 11.184 379.078 9.84 377.078 9.84C375.078 9.84 373.718 11.2 373.638 12.72H375.558C375.638 12.16 376.182 11.6 377.078 11.6C377.974 11.6 378.518 12.16 378.518 12.88C378.518 13.6 378.038 14.08 376.998 14.08H376.198V15.68H377.078C378.118 15.68 378.678 16.24 378.678 16.96C378.678 17.68 378.038 18.32 377.078 18.32C376.182 18.32 375.558 17.68 375.478 17.12H373.558ZM386.034 11.68C387.154 11.68 388.274 12.8 388.274 14.96C388.274 17.12 387.154 18.24 386.034 18.24C384.914 18.24 383.794 17.12 383.794 14.96C383.794 12.8 384.914 11.68 386.034 11.68ZM386.034 9.84C383.794 9.84 381.874 11.76 381.874 14.96C381.874 18.16 383.794 20.08 386.034 20.08C388.274 20.08 390.194 18.16 390.194 14.96C390.194 11.76 388.274 9.84 386.034 9.84ZM400.182 17.28C400.102 17.488 399.974 17.664 399.83 17.808C399.574 18.064 399.174 18.32 398.582 18.32C397.542 18.32 396.742 17.536 396.742 16.32C396.742 15.104 397.542 14.32 398.582 14.32C399.174 14.32 399.574 14.592 399.83 14.848C399.974 14.992 400.102 15.168 400.182 15.36H402.022C401.686 13.904 400.342 12.56 398.582 12.56C396.598 12.56 394.902 14.24 394.902 16.32C394.902 18.4 396.598 20.08 398.582 20.08C400.342 20.08 401.686 18.736 402.022 17.28H400.182ZM403.302 20H405.142V16.24L406.902 20H407.862L409.622 16.24V20H411.462V12.64H409.702L407.382 17.6L405.062 12.64H403.302V20ZM412.904 19.04C412.904 19.6 413.384 20.08 413.944 20.08C414.504 20.08 414.984 19.6 414.984 19.04C414.984 18.48 414.504 18 413.944 18C413.384 18 412.904 18.48 412.904 19.04Z" fill="white"/>
<path d="M236.5 39V297" stroke="black" stroke-opacity="0.6" stroke-dasharray="1 4"/>
<path d="M543 39V297" stroke="black" stroke-opacity="0.6" stroke-dasharray="1 4"/>
<path opacity="0.2" d="M390 431L390 377" stroke="#AE261E"/>
<circle cx="390" cy="365" r="6" fill="#AE261E"/>
<circle cx="390" cy="365" r="9" stroke="#AE261E" stroke-opacity="0.15" stroke-width="6"/>
<path d="M341.758 454.96C341.758 453.31 341.483 452.173 340.933 451.55C340.42 450.89 339.65 450.56 338.623 450.56C336.533 450.56 335.488 451.825 335.488 454.355V458.48H329.768V454.74C329.768 451.623 330.538 449.24 332.078 447.59C333.618 445.903 335.855 445.06 338.788 445.06C341.722 445.06 343.958 445.903 345.498 447.59C347.038 449.24 347.808 451.623 347.808 454.74C347.808 456.977 347.387 459.103 346.543 461.12C345.737 463.137 344.728 464.86 343.518 466.29C342.345 467.72 341.172 469.058 339.998 470.305C338.825 471.552 337.817 472.817 336.973 474.1C336.167 475.347 335.763 476.538 335.763 477.675C335.763 478.042 335.782 478.317 335.818 478.5H347.258V484H329.768V479.27C329.768 477.18 330.172 475.273 330.978 473.55C331.822 471.79 332.83 470.268 334.003 468.985C335.177 467.665 336.35 466.382 337.523 465.135C338.697 463.852 339.687 462.348 340.493 460.625C341.337 458.902 341.758 457.013 341.758 454.96ZM363.565 454.96C363.565 453.31 363.29 452.173 362.74 451.55C362.227 450.89 361.457 450.56 360.43 450.56C358.34 450.56 357.295 451.825 357.295 454.355V458.48H351.575V454.74C351.575 451.623 352.345 449.24 353.885 447.59C355.425 445.903 357.662 445.06 360.595 445.06C363.528 445.06 365.765 445.903 367.305 447.59C368.845 449.24 369.615 451.623 369.615 454.74C369.615 456.977 369.193 459.103 368.35 461.12C367.543 463.137 366.535 464.86 365.325 466.29C364.152 467.72 362.978 469.058 361.805 470.305C360.632 471.552 359.623 472.817 358.78 474.1C357.973 475.347 357.57 476.538 357.57 477.675C357.57 478.042 357.588 478.317 357.625 478.5H369.065V484H351.575V479.27C351.575 477.18 351.978 475.273 352.785 473.55C353.628 471.79 354.637 470.268 355.81 468.985C356.983 467.665 358.157 466.382 359.33 465.135C360.503 463.852 361.493 462.348 362.3 460.625C363.143 458.902 363.565 457.013 363.565 454.96ZM378.937 454.355V475.145C378.937 477.675 379.982 478.94 382.072 478.94C384.162 478.94 385.207 477.675 385.207 475.145V454.355C385.207 451.825 384.162 450.56 382.072 450.56C379.982 450.56 378.937 451.825 378.937 454.355ZM372.887 474.76V454.74C372.887 451.66 373.675 449.277 375.252 447.59C376.828 445.903 379.102 445.06 382.072 445.06C385.042 445.06 387.315 445.903 388.892 447.59C390.468 449.277 391.257 451.66 391.257 454.74V474.76C391.257 477.84 390.468 480.223 388.892 481.91C387.315 483.597 385.042 484.44 382.072 484.44C379.102 484.44 376.828 483.597 375.252 481.91C373.675 480.223 372.887 477.84 372.887 474.76ZM415.553 469.645H421.273V474.76C421.273 477.877 420.503 480.278 418.963 481.965C417.423 483.615 415.187 484.44 412.253 484.44C409.32 484.44 407.083 483.615 405.543 481.965C404.003 480.278 403.233 477.877 403.233 474.76V454.74C403.233 451.623 404.003 449.24 405.543 447.59C407.083 445.903 409.32 445.06 412.253 445.06C415.187 445.06 417.423 445.903 418.963 447.59C420.503 449.24 421.273 451.623 421.273 454.74V458.48H415.553V454.355C415.553 451.825 414.508 450.56 412.418 450.56C410.328 450.56 409.283 451.825 409.283 454.355V475.145C409.283 477.638 410.328 478.885 412.418 478.885C414.508 478.885 415.553 477.638 415.553 475.145V469.645ZM433.304 445.5L437.759 472.835L441.884 445.5H450.299V484H444.579V456.39L440.399 484H434.679L430.169 456.775V484H424.889V445.5H433.304Z" fill="#AE261E"/>
<path opacity="0.6" d="M330.923 511H338.903V504.7H337.643V509.81H335.543V504.7H334.283V509.81H332.183V504.7H330.923V511ZM340.589 511H341.849L344.859 506.59V511H346.119V504.7H344.859L341.849 509.11V504.7H340.589V511ZM347.794 513.24H349.054V510.37C349.18 510.496 349.32 510.622 349.488 510.72C349.782 510.902 350.202 511.07 350.804 511.07C352.484 511.07 353.814 509.74 353.814 507.85C353.814 505.96 352.484 504.63 350.804 504.63C350.174 504.63 349.712 504.812 349.418 504.98C349.25 505.078 349.11 505.204 348.984 505.33L348.704 504.7H347.794V513.24ZM350.734 509.88C349.768 509.88 348.914 509.04 348.914 507.85C348.914 506.66 349.768 505.82 350.734 505.82C351.7 505.82 352.554 506.66 352.554 507.85C352.554 509.04 351.7 509.88 350.734 509.88ZM355.15 511H356.41L359.42 506.59V511H360.68V504.7H359.42L356.41 509.11V504.7H355.15V511ZM362.355 511H363.615V508.41H366.625V511H367.885V504.7H366.625V507.22H363.615V504.7H362.355V511ZM373.55 511H374.46V506.87C374.46 505.61 373.48 504.63 372.01 504.63C370.456 504.63 369.56 505.47 369.49 506.59H370.75C370.82 506.156 371.17 505.82 372.01 505.82C372.794 505.82 373.2 506.24 373.2 506.87V507.08C370.12 507.08 369.28 507.92 369.28 509.18C369.28 510.3 370.05 511.07 371.45 511.07C372.08 511.07 372.542 510.902 372.836 510.72C373.004 510.622 373.144 510.496 373.27 510.37L373.55 511ZM373.2 508.536C373.2 509.32 372.584 509.95 371.52 509.95C370.89 509.95 370.54 509.6 370.54 509.25C370.54 508.62 370.96 508.2 373.2 508.2V508.536ZM378.304 511L378.43 511.042C378.528 511.056 378.612 511.07 378.724 511.07C379.914 511.07 380.656 510.3 380.754 508.9L380.964 505.89H383.064V511H384.324V504.7H379.844L379.494 508.9C379.438 509.6 379.088 509.95 378.444 509.95H378.304V511ZM390.067 509.18C389.857 509.46 389.437 509.88 388.667 509.88C387.757 509.88 387.057 509.194 386.987 508.41H391.467L391.495 508.242C391.509 508.144 391.537 508.004 391.537 507.85C391.537 505.96 390.221 504.63 388.597 504.63C386.973 504.63 385.657 505.96 385.657 507.85C385.657 509.74 386.987 511.07 388.667 511.07C390.137 511.07 390.991 510.23 391.397 509.18H390.067ZM386.987 507.36C387.141 506.45 387.757 505.82 388.597 505.82C389.591 505.82 390.193 506.45 390.347 507.36H386.987ZM392.45 508.97C392.52 510.314 393.276 511.07 394.83 511.07C396.3 511.07 397.14 510.23 397.14 509.11C397.14 508.662 396.916 508.326 396.706 508.102C396.58 507.976 396.44 507.864 396.286 507.78C396.412 507.696 396.538 507.598 396.636 507.472C396.818 507.262 397 506.954 397 506.52C397 505.47 396.16 504.63 394.83 504.63C393.36 504.63 392.59 505.4 392.52 506.59H393.78C393.85 506.156 394.2 505.82 394.83 505.82C395.544 505.82 395.81 506.17 395.81 506.52C395.81 506.87 395.544 507.22 394.83 507.22H394.27V508.34H394.83C395.614 508.34 395.95 508.676 395.95 509.11C395.95 509.544 395.614 509.88 394.83 509.88C394.116 509.88 393.78 509.53 393.71 508.97H392.45ZM398.476 511H401.626C402.746 511 403.516 510.23 403.516 509.18C403.516 508.662 403.278 508.284 403.054 508.046C402.928 507.906 402.774 507.794 402.606 507.71C402.732 507.626 402.858 507.528 402.956 507.416C403.124 507.206 403.306 506.912 403.306 506.45C403.306 505.47 402.536 504.7 401.416 504.7H398.476V511ZM399.736 507.29V505.75H401.276C401.71 505.75 402.046 506.086 402.046 506.52C402.046 506.954 401.71 507.29 401.276 507.29H399.736ZM399.736 509.95V508.34H401.486C401.92 508.34 402.256 508.676 402.256 509.11C402.256 509.6 401.92 509.95 401.486 509.95H399.736ZM404.847 511H406.107L409.117 506.59V511H410.377V504.7H409.117L406.107 509.11V504.7H404.847V511ZM411.632 511H413.032L414.362 508.9H415.622V511H416.882V504.7H414.012C412.738 504.7 411.842 505.61 411.842 506.8C411.842 507.542 412.15 508.004 412.472 508.298C412.654 508.466 412.864 508.592 413.102 508.69L411.632 511ZM414.012 507.71C413.522 507.71 413.102 507.29 413.102 506.8C413.102 506.31 413.522 505.89 414.012 505.89H415.622V507.71H414.012ZM421.636 511H422.896V508.41H425.906V511H427.166V504.7H425.906V507.22H422.896V504.7H421.636V511ZM431.501 509.88C430.591 509.88 429.751 509.04 429.751 507.85C429.751 506.66 430.591 505.82 431.501 505.82C432.411 505.82 433.251 506.66 433.251 507.85C433.251 509.04 432.411 509.88 431.501 509.88ZM431.501 511.07C433.181 511.07 434.511 509.74 434.511 507.85C434.511 505.96 433.181 504.63 431.501 504.63C429.821 504.63 428.491 505.96 428.491 507.85C428.491 509.74 429.821 511.07 431.501 511.07ZM434.724 511H436.264L438.504 507.99V511H439.764V507.99L442.004 511H443.544L440.954 507.64L443.264 504.7H441.794L439.764 507.43V504.7H438.504V507.43L436.474 504.7H435.004L437.314 507.64L434.724 511ZM448.239 511H449.149V506.87C449.149 505.61 448.169 504.63 446.699 504.63C445.145 504.63 444.249 505.47 444.179 506.59H445.439C445.509 506.156 445.859 505.82 446.699 505.82C447.483 505.82 447.889 506.24 447.889 506.87V507.08C444.809 507.08 443.969 507.92 443.969 509.18C443.969 510.3 444.739 511.07 446.139 511.07C446.769 511.07 447.231 510.902 447.525 510.72C447.693 510.622 447.833 510.496 447.959 510.37L448.239 511ZM447.889 508.536C447.889 509.32 447.273 509.95 446.209 509.95C445.579 509.95 445.229 509.6 445.229 509.25C445.229 508.62 445.649 508.2 447.889 508.2V508.536Z" fill="#1D293C"/>
<path d="M58.7193 287.63V283.34C60.8093 283.34 62.2943 282.937 63.1743 282.13C64.0543 281.323 64.7876 280.113 65.3743 278.5H69.4443V317H63.3943V287.63H58.7193ZM76.4009 307.76V288.07C76.4009 281.397 79.4809 278.06 85.6409 278.06C88.5743 278.06 90.8109 278.903 92.3509 280.59C93.8909 282.24 94.6609 284.623 94.6609 287.74V288.73H88.9409V287.355C88.9409 284.825 87.8959 283.56 85.8059 283.56C84.6693 283.56 83.8259 283.908 83.2759 284.605C82.7259 285.302 82.4509 286.53 82.4509 288.29V295.33C83.5143 293.057 85.3843 291.92 88.0609 291.92C92.5343 291.92 94.7709 294.853 94.7709 300.72V307.76C94.7709 310.84 93.9826 313.223 92.4059 314.91C90.8293 316.597 88.5559 317.44 85.5859 317.44C82.6159 317.44 80.3426 316.597 78.7659 314.91C77.1893 313.223 76.4009 310.84 76.4009 307.76ZM88.7209 301.215C88.7209 298.685 87.6759 297.42 85.5859 297.42C83.4959 297.42 82.4509 298.685 82.4509 301.215V308.145C82.4509 310.638 83.4959 311.885 85.5859 311.885C87.6759 311.885 88.7209 310.638 88.7209 308.145V301.215ZM104.148 287.355V308.145C104.148 310.675 105.193 311.94 107.283 311.94C109.373 311.94 110.418 310.675 110.418 308.145V287.355C110.418 284.825 109.373 283.56 107.283 283.56C105.193 283.56 104.148 284.825 104.148 287.355ZM98.0976 307.76V287.74C98.0976 284.66 98.8859 282.277 100.463 280.59C102.039 278.903 104.313 278.06 107.283 278.06C110.253 278.06 112.526 278.903 114.103 280.59C115.679 282.277 116.468 284.66 116.468 287.74V307.76C116.468 310.84 115.679 313.223 114.103 314.91C112.526 316.597 110.253 317.44 107.283 317.44C104.313 317.44 102.039 316.597 100.463 314.91C98.8859 313.223 98.0976 310.84 98.0976 307.76ZM127.234 317.055V311.555C128.701 311.555 129.673 311.335 130.149 310.895C130.663 310.418 130.938 309.318 130.974 307.595L131.964 278.5H149.069V317H142.909V284H137.629L136.969 307.265C136.859 310.785 136.126 313.297 134.769 314.8C133.413 316.303 131.213 317.055 128.169 317.055H127.234Z" fill="#0F1926"/>
<path opacity="0.6" d="M21.1309 338.849C21.1309 338.548 21.0807 338.274 20.9805 338.028C20.8848 337.782 20.7572 337.568 20.5977 337.386C20.4382 337.203 20.2513 337.064 20.0371 336.969C19.8229 336.868 19.6042 336.818 19.3809 336.818C19.1576 336.818 18.9388 336.868 18.7246 336.969C18.5104 337.064 18.3236 337.203 18.1641 337.386C18.0046 337.568 17.8747 337.785 17.7744 338.035C17.6787 338.281 17.6309 338.552 17.6309 338.849C17.6309 339.149 17.6787 339.423 17.7744 339.669C17.8747 339.915 18.0046 340.129 18.1641 340.312C18.3236 340.494 18.5104 340.635 18.7246 340.735C18.9388 340.831 19.1576 340.879 19.3809 340.879C19.6042 340.879 19.8229 340.831 20.0371 340.735C20.2513 340.635 20.4382 340.494 20.5977 340.312C20.7572 340.129 20.8848 339.915 20.9805 339.669C21.0807 339.423 21.1309 339.149 21.1309 338.849ZM22.3887 338.849C22.3887 339.323 22.3112 339.758 22.1562 340.154C22.0059 340.546 21.7917 340.886 21.5137 341.173C21.2402 341.455 20.9212 341.676 20.5566 341.836C20.1921 341.991 19.8001 342.068 19.3809 342.068C18.9616 342.068 18.5697 341.991 18.2051 341.836C17.8405 341.676 17.5192 341.455 17.2412 341.173C16.9678 340.886 16.7536 340.546 16.5986 340.154C16.4482 339.762 16.373 339.327 16.373 338.849C16.373 338.375 16.4482 337.942 16.5986 337.55C16.7536 337.158 16.9678 336.821 17.2412 336.538C17.5192 336.251 17.8405 336.028 18.2051 335.868C18.5697 335.709 18.9616 335.629 19.3809 335.629C19.8001 335.629 20.1921 335.709 20.5566 335.868C20.9212 336.028 21.2402 336.251 21.5137 336.538C21.7917 336.821 22.0059 337.158 22.1562 337.55C22.3112 337.942 22.3887 338.375 22.3887 338.849ZM26.6611 335.909C27.0439 335.909 27.4108 335.989 27.7617 336.148C28.1126 336.308 28.418 336.527 28.6777 336.805C28.9375 337.078 29.1449 337.402 29.2998 337.775C29.4548 338.145 29.5322 338.55 29.5322 338.992C29.5322 339.43 29.4548 339.835 29.2998 340.209C29.1449 340.583 28.9284 340.909 28.6504 341.187C28.377 341.46 28.0579 341.676 27.6934 341.836C27.3333 341.991 26.9414 342.068 26.5176 342.068C26.0801 342.068 25.6745 341.989 25.3008 341.829C24.9271 341.665 24.6035 341.417 24.3301 341.084C24.0566 340.751 23.8402 340.341 23.6807 339.854C23.5212 339.361 23.4414 338.794 23.4414 338.151C23.4414 337.244 23.5326 336.474 23.7148 335.841C23.8971 335.207 24.1956 334.69 24.6104 334.289C25.0251 333.883 25.5697 333.583 26.2441 333.387C26.9232 333.191 27.7617 333.075 28.7598 333.038V334.303C28.0033 334.321 27.3789 334.385 26.8867 334.494C26.3991 334.599 26.0072 334.756 25.7109 334.966C25.4193 335.175 25.2028 335.44 25.0615 335.759C24.9248 336.073 24.8268 336.449 24.7676 336.887C24.8906 336.709 25.041 336.547 25.2188 336.401C25.3783 336.278 25.5742 336.167 25.8066 336.066C26.0391 335.962 26.3239 335.909 26.6611 335.909ZM26.5176 340.879C26.7409 340.879 26.9596 340.831 27.1738 340.735C27.3926 340.635 27.5794 340.498 27.7344 340.325C27.8939 340.152 28.0215 339.951 28.1172 339.724C28.2174 339.496 28.2676 339.252 28.2676 338.992C28.2676 338.732 28.2174 338.489 28.1172 338.261C28.0215 338.028 27.8939 337.826 27.7344 337.652C27.5794 337.479 27.3949 337.345 27.1807 337.249C26.9665 337.149 26.7454 337.099 26.5176 337.099C26.2943 337.099 26.0755 337.149 25.8613 337.249C25.6471 337.345 25.4603 337.479 25.3008 337.652C25.1413 337.826 25.0114 338.026 24.9111 338.254C24.8154 338.482 24.7676 338.728 24.7676 338.992C24.7676 339.252 24.8154 339.496 24.9111 339.724C25.0114 339.951 25.1413 340.152 25.3008 340.325C25.4603 340.498 25.6471 340.635 25.8613 340.735C26.0755 340.831 26.2943 340.879 26.5176 340.879ZM34.3584 337.803C34.6774 337.803 34.9691 337.857 35.2334 337.967C35.4977 338.072 35.7256 338.217 35.917 338.404C36.1084 338.591 36.2565 338.812 36.3613 339.067C36.4707 339.323 36.5254 339.601 36.5254 339.901C36.5254 340.202 36.4707 340.48 36.3613 340.735C36.2565 340.991 36.1084 341.212 35.917 341.398C35.7256 341.585 35.4977 341.733 35.2334 341.843C34.9691 341.948 34.6774 342 34.3584 342H31.5557V336.887H30.0176V335.697H32.8203V337.803H34.3584ZM34.3584 340.811C34.5999 340.811 34.8118 340.719 34.9941 340.537C35.1764 340.355 35.2676 340.143 35.2676 339.901C35.2676 339.66 35.1764 339.448 34.9941 339.266C34.8118 339.083 34.5999 338.992 34.3584 338.992H32.8203V340.811H34.3584ZM39.9639 333.947C39.9639 334.161 39.8887 334.344 39.7383 334.494C39.5879 334.645 39.4056 334.72 39.1914 334.72C38.9772 334.72 38.7949 334.647 38.6445 334.501C38.4941 334.351 38.4189 334.166 38.4189 333.947C38.4189 333.733 38.4941 333.553 38.6445 333.407C38.7949 333.257 38.9772 333.182 39.1914 333.182C39.4056 333.182 39.5879 333.257 39.7383 333.407C39.8887 333.553 39.9639 333.733 39.9639 333.947ZM42.3428 333.947C42.3428 334.161 42.2676 334.344 42.1172 334.494C41.9668 334.645 41.7845 334.72 41.5703 334.72C41.3561 334.72 41.1738 334.647 41.0234 334.501C40.873 334.351 40.7979 334.166 40.7979 333.947C40.7979 333.733 40.873 333.553 41.0234 333.407C41.1738 333.257 41.3561 333.182 41.5703 333.182C41.7845 333.182 41.9668 333.257 42.1172 333.407C42.2676 333.553 42.3428 333.733 42.3428 333.947ZM43.1836 340.182C43.0788 340.441 42.9466 340.685 42.7871 340.913C42.6276 341.141 42.4362 341.341 42.2129 341.515C41.9896 341.688 41.7298 341.825 41.4336 341.925C41.1419 342.021 40.8138 342.068 40.4492 342.068C40.0299 342.068 39.638 341.991 39.2734 341.836C38.9089 341.676 38.5898 341.455 38.3164 341.173C38.043 340.886 37.8288 340.546 37.6738 340.154C37.5189 339.762 37.4414 339.327 37.4414 338.849C37.4414 338.375 37.5189 337.942 37.6738 337.55C37.8288 337.158 38.0384 336.821 38.3027 336.538C38.5671 336.251 38.8792 336.028 39.2393 335.868C39.5993 335.709 39.9798 335.629 40.3809 335.629C40.7819 335.629 41.1624 335.709 41.5225 335.868C41.8825 336.028 42.1947 336.251 42.459 336.538C42.7233 336.821 42.9329 337.158 43.0879 337.55C43.2428 337.942 43.3203 338.375 43.3203 338.849C43.3203 338.922 43.3158 338.994 43.3066 339.067C43.2975 339.136 43.2884 339.195 43.2793 339.245C43.2702 339.309 43.2611 339.364 43.252 339.409H38.7676C38.7858 339.605 38.8428 339.792 38.9385 339.97C39.0342 340.147 39.1527 340.305 39.2939 340.441C39.4398 340.574 39.613 340.681 39.8135 340.763C40.014 340.84 40.2259 340.879 40.4492 340.879C40.832 340.879 41.1351 340.797 41.3584 340.633C41.5863 340.469 41.7503 340.318 41.8506 340.182H43.1836ZM40.3809 336.818C39.9616 336.818 39.6061 336.962 39.3145 337.249C39.0273 337.532 38.8451 337.903 38.7676 338.363H42.1309C42.0579 337.908 41.8711 337.536 41.5703 337.249C41.2741 336.962 40.8776 336.818 40.3809 336.818ZM47.5928 342L45.9111 338.5V342H44.6533V335.697H45.7744L48.0098 340.318L50.252 335.697H51.373V342H50.1152V338.5L48.4336 342H47.5928ZM59.0635 335.909C59.4463 335.909 59.8132 335.989 60.1641 336.148C60.515 336.308 60.8203 336.527 61.0801 336.805C61.3398 337.078 61.5472 337.402 61.7021 337.775C61.8571 338.145 61.9346 338.55 61.9346 338.992C61.9346 339.43 61.8571 339.835 61.7021 340.209C61.5472 340.583 61.3307 340.909 61.0527 341.187C60.7793 341.46 60.4603 341.676 60.0957 341.836C59.7357 341.991 59.3438 342.068 58.9199 342.068C58.4824 342.068 58.0768 341.989 57.7031 341.829C57.3294 341.665 57.0059 341.417 56.7324 341.084C56.459 340.751 56.2425 340.341 56.083 339.854C55.9235 339.361 55.8438 338.794 55.8438 338.151C55.8438 337.244 55.9349 336.474 56.1172 335.841C56.2995 335.207 56.598 334.69 57.0127 334.289C57.4274 333.883 57.972 333.583 58.6465 333.387C59.3255 333.191 60.1641 333.075 61.1621 333.038V334.303C60.4056 334.321 59.7812 334.385 59.2891 334.494C58.8014 334.599 58.4095 334.756 58.1133 334.966C57.8216 335.175 57.6051 335.44 57.4639 335.759C57.3271 336.073 57.2292 336.449 57.1699 336.887C57.293 336.709 57.4434 336.547 57.6211 336.401C57.7806 336.278 57.9766 336.167 58.209 336.066C58.4414 335.962 58.7262 335.909 59.0635 335.909ZM58.9199 340.879C59.1432 340.879 59.362 340.831 59.5762 340.735C59.7949 340.635 59.9818 340.498 60.1367 340.325C60.2962 340.152 60.4238 339.951 60.5195 339.724C60.6198 339.496 60.6699 339.252 60.6699 338.992C60.6699 338.732 60.6198 338.489 60.5195 338.261C60.4238 338.028 60.2962 337.826 60.1367 337.652C59.9818 337.479 59.7972 337.345 59.583 337.249C59.3688 337.149 59.1478 337.099 58.9199 337.099C58.6966 337.099 58.4779 337.149 58.2637 337.249C58.0495 337.345 57.8626 337.479 57.7031 337.652C57.5436 337.826 57.4137 338.026 57.3135 338.254C57.2178 338.482 57.1699 338.728 57.1699 338.992C57.1699 339.252 57.2178 339.496 57.3135 339.724C57.4137 339.951 57.5436 340.152 57.7031 340.325C57.8626 340.498 58.0495 340.635 58.2637 340.735C58.4779 340.831 58.6966 340.879 58.9199 340.879ZM65.708 335.629C66.0726 335.629 66.4053 335.688 66.7061 335.807C67.0114 335.921 67.2712 336.078 67.4854 336.278C67.6995 336.479 67.8659 336.716 67.9844 336.989C68.1029 337.258 68.1621 337.552 68.1621 337.871V342H67.2529L66.9727 341.371C66.8496 341.503 66.7038 341.619 66.5352 341.72C66.3848 341.811 66.1956 341.893 65.9678 341.966C65.7399 342.034 65.4665 342.068 65.1475 342.068C64.4456 342.068 63.9079 341.895 63.5342 341.549C63.165 341.198 62.9805 340.742 62.9805 340.182C62.9805 339.863 63.0397 339.576 63.1582 339.32C63.2812 339.061 63.4886 338.842 63.7803 338.664C64.0765 338.482 64.4753 338.34 64.9766 338.24C65.4824 338.135 66.1227 338.083 66.8975 338.083V337.871C66.8975 337.552 66.7972 337.297 66.5967 337.105C66.3962 336.914 66.0999 336.818 65.708 336.818C65.2887 336.818 64.9834 336.894 64.792 337.044C64.6006 337.194 64.4867 337.377 64.4502 337.591H63.1924C63.2288 337.03 63.4635 336.563 63.8965 336.189C64.3294 335.816 64.9333 335.629 65.708 335.629ZM65.2227 340.947C65.7559 340.947 66.1683 340.811 66.46 340.537C66.7516 340.264 66.8975 339.931 66.8975 339.539V339.197C66.3369 339.197 65.8835 339.225 65.5371 339.279C65.1953 339.329 64.9264 339.4 64.7305 339.491C64.5345 339.578 64.4023 339.687 64.334 339.819C64.2702 339.947 64.2383 340.09 64.2383 340.25C64.2383 340.428 64.3226 340.59 64.4912 340.735C64.6598 340.877 64.9036 340.947 65.2227 340.947ZM73.5488 342L71.0947 338.992V342H69.8369V335.697H71.0947V338.432L73.2686 335.697H74.7383L72.291 338.637L75.0869 342H73.5488ZM78.2314 335.629C78.596 335.629 78.9287 335.688 79.2295 335.807C79.5348 335.921 79.7946 336.078 80.0088 336.278C80.223 336.479 80.3893 336.716 80.5078 336.989C80.6263 337.258 80.6855 337.552 80.6855 337.871V342H79.7764L79.4961 341.371C79.373 341.503 79.2272 341.619 79.0586 341.72C78.9082 341.811 78.7191 341.893 78.4912 341.966C78.2633 342.034 77.9899 342.068 77.6709 342.068C76.9691 342.068 76.4313 341.895 76.0576 341.549C75.6885 341.198 75.5039 340.742 75.5039 340.182C75.5039 339.863 75.5632 339.576 75.6816 339.32C75.8047 339.061 76.012 338.842 76.3037 338.664C76.5999 338.482 76.9987 338.34 77.5 338.24C78.0059 338.135 78.6462 338.083 79.4209 338.083V337.871C79.4209 337.552 79.3206 337.297 79.1201 337.105C78.9196 336.914 78.6234 336.818 78.2314 336.818C77.8122 336.818 77.5068 336.894 77.3154 337.044C77.124 337.194 77.0101 337.377 76.9736 337.591H75.7158C75.7523 337.03 75.987 336.563 76.4199 336.189C76.8529 335.816 77.4567 335.629 78.2314 335.629ZM77.7461 340.947C78.2793 340.947 78.6917 340.811 78.9834 340.537C79.2751 340.264 79.4209 339.931 79.4209 339.539V339.197C78.8604 339.197 78.4069 339.225 78.0605 339.279C77.7188 339.329 77.4499 339.4 77.2539 339.491C77.0579 339.578 76.9258 339.687 76.8574 339.819C76.7936 339.947 76.7617 340.09 76.7617 340.25C76.7617 340.428 76.846 340.59 77.0146 340.735C77.1833 340.877 77.4271 340.947 77.7461 340.947ZM91.2471 340.811V343.47H90.0576V342H85.7168V343.47H84.5273V340.811H84.9443C85.0765 340.719 85.195 340.617 85.2998 340.503C85.391 340.398 85.4775 340.275 85.5596 340.134C85.6462 339.988 85.6986 339.817 85.7168 339.621L86.1406 335.697H90.4062V340.811H91.2471ZM86.9746 339.621C86.9564 339.817 86.9199 339.988 86.8652 340.134C86.8105 340.275 86.7536 340.398 86.6943 340.503C86.6305 340.617 86.5622 340.719 86.4893 340.811H89.1484V336.887H87.2549L86.9746 339.621ZM97.5498 335.697V342H96.2852V336.887H94.1865L93.9746 339.901C93.929 340.603 93.7285 341.141 93.373 341.515C93.0221 341.884 92.5459 342.068 91.9443 342.068C91.8896 342.068 91.8395 342.066 91.7939 342.062C91.7484 342.057 91.7005 342.05 91.6504 342.041C91.6048 342.032 91.5638 342.018 91.5273 342V340.947H91.6641C92.3066 340.947 92.6576 340.599 92.7168 339.901L93.0654 335.697H97.5498ZM104.058 335.697V342H102.8V339.901H101.542L100.209 342H98.8076L100.277 339.689C100.036 339.598 99.8262 339.468 99.6484 339.3C99.4889 339.149 99.3431 338.956 99.2109 338.719C99.0833 338.482 99.0195 338.176 99.0195 337.803C99.0195 337.502 99.0719 337.224 99.1768 336.969C99.2861 336.709 99.4365 336.488 99.6279 336.306C99.8193 336.119 100.047 335.971 100.312 335.861C100.58 335.752 100.874 335.697 101.193 335.697H104.058ZM101.193 336.887C100.952 336.887 100.738 336.978 100.551 337.16C100.368 337.342 100.277 337.557 100.277 337.803C100.277 338.044 100.368 338.256 100.551 338.438C100.733 338.621 100.947 338.712 101.193 338.712H102.8V336.887H101.193ZM114.346 335.697V342H113.088V336.887H110.073V342H108.815V335.697H114.346ZM119.028 335.629C119.448 335.629 119.84 335.709 120.204 335.868C120.569 336.028 120.888 336.251 121.161 336.538C121.439 336.821 121.656 337.158 121.811 337.55C121.965 337.942 122.043 338.375 122.043 338.849C122.043 339.323 121.965 339.758 121.811 340.154C121.656 340.546 121.439 340.886 121.161 341.173C120.888 341.455 120.569 341.676 120.204 341.836C119.84 341.991 119.448 342.068 119.028 342.068C118.728 342.068 118.47 342.034 118.256 341.966C118.042 341.897 117.862 341.815 117.716 341.72C117.547 341.615 117.401 341.499 117.278 341.371V344.242H116.021V335.697H116.93L117.21 336.333C117.333 336.201 117.477 336.082 117.641 335.978C117.791 335.896 117.98 335.818 118.208 335.745C118.436 335.668 118.709 335.629 119.028 335.629ZM118.96 340.879C119.201 340.879 119.432 340.831 119.65 340.735C119.869 340.635 120.063 340.494 120.231 340.312C120.4 340.129 120.532 339.915 120.628 339.669C120.728 339.423 120.778 339.149 120.778 338.849C120.778 338.548 120.728 338.274 120.628 338.028C120.532 337.782 120.4 337.568 120.231 337.386C120.063 337.203 119.869 337.064 119.65 336.969C119.432 336.868 119.201 336.818 118.96 336.818C118.718 336.818 118.486 336.868 118.263 336.969C118.044 337.064 117.85 337.203 117.682 337.386C117.518 337.568 117.385 337.785 117.285 338.035C117.189 338.281 117.142 338.552 117.142 338.849C117.142 339.149 117.189 339.423 117.285 339.669C117.385 339.915 117.518 340.129 117.682 340.312C117.85 340.494 118.044 340.635 118.263 340.735C118.486 340.831 118.718 340.879 118.96 340.879ZM127.785 338.849C127.785 338.548 127.735 338.274 127.635 338.028C127.539 337.782 127.411 337.568 127.252 337.386C127.092 337.203 126.906 337.064 126.691 336.969C126.477 336.868 126.258 336.818 126.035 336.818C125.812 336.818 125.593 336.868 125.379 336.969C125.165 337.064 124.978 337.203 124.818 337.386C124.659 337.568 124.529 337.785 124.429 338.035C124.333 338.281 124.285 338.552 124.285 338.849C124.285 339.149 124.333 339.423 124.429 339.669C124.529 339.915 124.659 340.129 124.818 340.312C124.978 340.494 125.165 340.635 125.379 340.735C125.593 340.831 125.812 340.879 126.035 340.879C126.258 340.879 126.477 340.831 126.691 340.735C126.906 340.635 127.092 340.494 127.252 340.312C127.411 340.129 127.539 339.915 127.635 339.669C127.735 339.423 127.785 339.149 127.785 338.849ZM129.043 338.849C129.043 339.323 128.965 339.758 128.811 340.154C128.66 340.546 128.446 340.886 128.168 341.173C127.895 341.455 127.576 341.676 127.211 341.836C126.846 341.991 126.454 342.068 126.035 342.068C125.616 342.068 125.224 341.991 124.859 341.836C124.495 341.676 124.174 341.455 123.896 341.173C123.622 340.886 123.408 340.546 123.253 340.154C123.103 339.762 123.027 339.327 123.027 338.849C123.027 338.375 123.103 337.942 123.253 337.55C123.408 337.158 123.622 336.821 123.896 336.538C124.174 336.251 124.495 336.028 124.859 335.868C125.224 335.709 125.616 335.629 126.035 335.629C126.454 335.629 126.846 335.709 127.211 335.868C127.576 336.028 127.895 336.251 128.168 336.538C128.446 336.821 128.66 337.158 128.811 337.55C128.965 337.942 129.043 338.375 129.043 338.849ZM133.315 342L131.634 338.5V342H130.376V335.697H131.497L133.732 340.318L135.975 335.697H137.096V342H135.838V338.5L134.156 342H133.315ZM145.702 335.697V342H144.438V335.697H145.702ZM141.43 337.803C141.749 337.803 142.04 337.857 142.305 337.967C142.569 338.072 142.797 338.217 142.988 338.404C143.18 338.591 143.328 338.812 143.433 339.067C143.542 339.323 143.597 339.601 143.597 339.901C143.597 340.202 143.542 340.48 143.433 340.735C143.328 340.991 143.18 341.212 142.988 341.398C142.797 341.585 142.569 341.733 142.305 341.843C142.04 341.948 141.749 342 141.43 342H138.771V335.697H140.028V337.803H141.43ZM141.43 340.811C141.671 340.811 141.883 340.719 142.065 340.537C142.248 340.355 142.339 340.143 142.339 339.901C142.339 339.66 142.248 339.448 142.065 339.266C141.883 339.083 141.671 338.992 141.43 338.992H140.028V340.811H141.43ZM151.513 338.712C151.681 338.794 151.832 338.906 151.964 339.047C152.078 339.17 152.183 339.325 152.278 339.512C152.374 339.694 152.422 339.917 152.422 340.182C152.422 340.441 152.374 340.683 152.278 340.906C152.187 341.13 152.06 341.321 151.896 341.48C151.736 341.64 151.538 341.768 151.301 341.863C151.068 341.954 150.813 342 150.535 342H147.384V335.697H150.323C150.601 335.697 150.856 335.743 151.089 335.834C151.326 335.921 151.524 336.044 151.684 336.203C151.848 336.363 151.975 336.549 152.066 336.764C152.162 336.978 152.21 337.206 152.21 337.447C152.21 337.68 152.174 337.873 152.101 338.028C152.028 338.183 151.948 338.313 151.861 338.418C151.761 338.532 151.645 338.63 151.513 338.712ZM148.642 336.75V338.288H150.18C150.394 338.288 150.576 338.215 150.727 338.069C150.877 337.919 150.952 337.737 150.952 337.522C150.952 337.308 150.877 337.126 150.727 336.976C150.581 336.825 150.398 336.75 150.18 336.75H148.642ZM150.392 340.947C150.606 340.947 150.788 340.87 150.938 340.715C151.089 340.555 151.164 340.355 151.164 340.113C151.164 339.899 151.089 339.717 150.938 339.566C150.788 339.416 150.606 339.341 150.392 339.341H148.642V340.947H150.392ZM158.164 338.849C158.164 338.548 158.114 338.274 158.014 338.028C157.918 337.782 157.79 337.568 157.631 337.386C157.471 337.203 157.285 337.064 157.07 336.969C156.856 336.868 156.637 336.818 156.414 336.818C156.191 336.818 155.972 336.868 155.758 336.969C155.544 337.064 155.357 337.203 155.197 337.386C155.038 337.568 154.908 337.785 154.808 338.035C154.712 338.281 154.664 338.552 154.664 338.849C154.664 339.149 154.712 339.423 154.808 339.669C154.908 339.915 155.038 340.129 155.197 340.312C155.357 340.494 155.544 340.635 155.758 340.735C155.972 340.831 156.191 340.879 156.414 340.879C156.637 340.879 156.856 340.831 157.07 340.735C157.285 340.635 157.471 340.494 157.631 340.312C157.79 340.129 157.918 339.915 158.014 339.669C158.114 339.423 158.164 339.149 158.164 338.849ZM159.422 338.849C159.422 339.323 159.344 339.758 159.189 340.154C159.039 340.546 158.825 340.886 158.547 341.173C158.273 341.455 157.954 341.676 157.59 341.836C157.225 341.991 156.833 342.068 156.414 342.068C155.995 342.068 155.603 341.991 155.238 341.836C154.874 341.676 154.552 341.455 154.274 341.173C154.001 340.886 153.787 340.546 153.632 340.154C153.481 339.762 153.406 339.327 153.406 338.849C153.406 338.375 153.481 337.942 153.632 337.55C153.787 337.158 154.001 336.821 154.274 336.538C154.552 336.251 154.874 336.028 155.238 335.868C155.603 335.709 155.995 335.629 156.414 335.629C156.833 335.629 157.225 335.709 157.59 335.868C157.954 336.028 158.273 336.251 158.547 336.538C158.825 336.821 159.039 337.158 159.189 337.55C159.344 337.942 159.422 338.375 159.422 338.849ZM165.861 335.697V342H164.604V339.758C164.444 339.84 164.275 339.91 164.098 339.97C163.938 340.024 163.751 340.075 163.537 340.12C163.323 340.161 163.095 340.182 162.854 340.182C162.516 340.182 162.211 340.129 161.938 340.024C161.664 339.915 161.429 339.758 161.233 339.553C161.037 339.348 160.885 339.106 160.775 338.828C160.666 338.546 160.611 338.227 160.611 337.871V335.697H161.876V337.871C161.876 338.227 161.988 338.514 162.211 338.732C162.434 338.951 162.742 339.061 163.134 339.061C163.348 339.061 163.544 339.04 163.722 338.999C163.899 338.953 164.054 338.903 164.187 338.849C164.346 338.794 164.485 338.723 164.604 338.637V335.697H165.861ZM173.08 335.697V342H171.822V339.409H168.808V342H167.55V335.697H168.808V338.22H171.822V335.697H173.08ZM179.164 338.849C179.164 338.548 179.114 338.274 179.014 338.028C178.918 337.782 178.79 337.568 178.631 337.386C178.471 337.203 178.285 337.064 178.07 336.969C177.856 336.868 177.637 336.818 177.414 336.818C177.191 336.818 176.972 336.868 176.758 336.969C176.544 337.064 176.357 337.203 176.197 337.386C176.038 337.568 175.908 337.785 175.808 338.035C175.712 338.281 175.664 338.552 175.664 338.849C175.664 339.149 175.712 339.423 175.808 339.669C175.908 339.915 176.038 340.129 176.197 340.312C176.357 340.494 176.544 340.635 176.758 340.735C176.972 340.831 177.191 340.879 177.414 340.879C177.637 340.879 177.856 340.831 178.07 340.735C178.285 340.635 178.471 340.494 178.631 340.312C178.79 340.129 178.918 339.915 179.014 339.669C179.114 339.423 179.164 339.149 179.164 338.849ZM180.422 338.849C180.422 339.323 180.344 339.758 180.189 340.154C180.039 340.546 179.825 340.886 179.547 341.173C179.273 341.455 178.954 341.676 178.59 341.836C178.225 341.991 177.833 342.068 177.414 342.068C176.995 342.068 176.603 341.991 176.238 341.836C175.874 341.676 175.552 341.455 175.274 341.173C175.001 340.886 174.787 340.546 174.632 340.154C174.481 339.762 174.406 339.327 174.406 338.849C174.406 338.375 174.481 337.942 174.632 337.55C174.787 337.158 175.001 336.821 175.274 336.538C175.552 336.251 175.874 336.028 176.238 335.868C176.603 335.709 176.995 335.629 177.414 335.629C177.833 335.629 178.225 335.709 178.59 335.868C178.954 336.028 179.273 336.251 179.547 336.538C179.825 336.821 180.039 337.158 180.189 337.55C180.344 337.942 180.422 338.375 180.422 338.849ZM187.285 335.697V342H186.027V337.591L183.013 342H181.755V335.697H183.013V340.113L186.027 335.697H187.285ZM184.482 334.788C183.986 334.788 183.576 334.635 183.252 334.33C182.933 334.02 182.737 333.637 182.664 333.182H183.642C183.678 333.396 183.774 333.578 183.929 333.729C184.084 333.874 184.268 333.947 184.482 333.947C184.697 333.947 184.881 333.874 185.036 333.729C185.191 333.578 185.287 333.396 185.323 333.182H186.301C186.228 333.637 186.03 334.02 185.706 334.33C185.387 334.635 184.979 334.788 184.482 334.788ZM92.4775 355.712C92.6462 355.794 92.7965 355.906 92.9287 356.047C93.0426 356.17 93.1475 356.325 93.2432 356.512C93.3389 356.694 93.3867 356.917 93.3867 357.182C93.3867 357.441 93.3389 357.683 93.2432 357.906C93.152 358.13 93.0244 358.321 92.8604 358.48C92.7008 358.64 92.5026 358.768 92.2656 358.863C92.0332 358.954 91.778 359 91.5 359H88.3486V352.697H91.2881C91.5661 352.697 91.8213 352.743 92.0537 352.834C92.2907 352.921 92.4889 353.044 92.6484 353.203C92.8125 353.363 92.9401 353.549 93.0312 353.764C93.127 353.978 93.1748 354.206 93.1748 354.447C93.1748 354.68 93.1383 354.873 93.0654 355.028C92.9925 355.183 92.9128 355.313 92.8262 355.418C92.7259 355.532 92.6097 355.63 92.4775 355.712ZM89.6064 353.75V355.288H91.1445C91.3587 355.288 91.541 355.215 91.6914 355.069C91.8418 354.919 91.917 354.737 91.917 354.522C91.917 354.308 91.8418 354.126 91.6914 353.976C91.5456 353.825 91.3633 353.75 91.1445 353.75H89.6064ZM91.3564 357.947C91.5706 357.947 91.7529 357.87 91.9033 357.715C92.0537 357.555 92.1289 357.355 92.1289 357.113C92.1289 356.899 92.0537 356.717 91.9033 356.566C91.7529 356.416 91.5706 356.341 91.3564 356.341H89.6064V357.947H91.3564ZM99.1289 355.849C99.1289 355.548 99.0788 355.274 98.9785 355.028C98.8828 354.782 98.7552 354.568 98.5957 354.386C98.4362 354.203 98.2493 354.064 98.0352 353.969C97.821 353.868 97.6022 353.818 97.3789 353.818C97.1556 353.818 96.9368 353.868 96.7227 353.969C96.5085 354.064 96.3216 354.203 96.1621 354.386C96.0026 354.568 95.8727 354.785 95.7725 355.035C95.6768 355.281 95.6289 355.552 95.6289 355.849C95.6289 356.149 95.6768 356.423 95.7725 356.669C95.8727 356.915 96.0026 357.129 96.1621 357.312C96.3216 357.494 96.5085 357.635 96.7227 357.735C96.9368 357.831 97.1556 357.879 97.3789 357.879C97.6022 357.879 97.821 357.831 98.0352 357.735C98.2493 357.635 98.4362 357.494 98.5957 357.312C98.7552 357.129 98.8828 356.915 98.9785 356.669C99.0788 356.423 99.1289 356.149 99.1289 355.849ZM100.387 355.849C100.387 356.323 100.309 356.758 100.154 357.154C100.004 357.546 99.7897 357.886 99.5117 358.173C99.2383 358.455 98.9193 358.676 98.5547 358.836C98.1901 358.991 97.7982 359.068 97.3789 359.068C96.9596 359.068 96.5677 358.991 96.2031 358.836C95.8385 358.676 95.5173 358.455 95.2393 358.173C94.9658 357.886 94.7516 357.546 94.5967 357.154C94.4463 356.762 94.3711 356.327 94.3711 355.849C94.3711 355.375 94.4463 354.942 94.5967 354.55C94.7516 354.158 94.9658 353.821 95.2393 353.538C95.5173 353.251 95.8385 353.028 96.2031 352.868C96.5677 352.709 96.9596 352.629 97.3789 352.629C97.7982 352.629 98.1901 352.709 98.5547 352.868C98.9193 353.028 99.2383 353.251 99.5117 353.538C99.7897 353.821 100.004 354.158 100.154 354.55C100.309 354.942 100.387 355.375 100.387 355.849ZM107.599 357.811V360.47H106.409V359H102.068V360.47H100.879V357.811H101.296C101.428 357.719 101.547 357.617 101.651 357.503C101.743 357.398 101.829 357.275 101.911 357.134C101.998 356.988 102.05 356.817 102.068 356.621L102.492 352.697H106.758V357.811H107.599ZM103.326 356.621C103.308 356.817 103.271 356.988 103.217 357.134C103.162 357.275 103.105 357.398 103.046 357.503C102.982 357.617 102.914 357.719 102.841 357.811H105.5V353.887H103.606L103.326 356.621ZM115.651 352.697V359H114.387V352.697H115.651ZM111.379 354.803C111.698 354.803 111.99 354.857 112.254 354.967C112.518 355.072 112.746 355.217 112.938 355.404C113.129 355.591 113.277 355.812 113.382 356.067C113.491 356.323 113.546 356.601 113.546 356.901C113.546 357.202 113.491 357.48 113.382 357.735C113.277 357.991 113.129 358.212 112.938 358.398C112.746 358.585 112.518 358.733 112.254 358.843C111.99 358.948 111.698 359 111.379 359H108.72V352.697H109.978V354.803H111.379ZM111.379 357.811C111.62 357.811 111.832 357.719 112.015 357.537C112.197 357.355 112.288 357.143 112.288 356.901C112.288 356.66 112.197 356.448 112.015 356.266C111.832 356.083 111.62 355.992 111.379 355.992H109.978V357.811H111.379Z" fill="#1D293C"/>
<path opacity="0.2" d="M101 259.5V240H252" stroke="#AE261E"/>
<circle cx="264" cy="240" r="6" fill="#AE261E"/>
<circle cx="264" cy="240" r="9" stroke="#AE261E" stroke-opacity="0.15" stroke-width="6"/>
<defs>
<linearGradient id="paint0_linear_273_46" x1="389.725" y1="335.82" x2="389.725" y2="365" gradientUnits="userSpaceOnUse">
<stop stop-opacity="0"/>
<stop offset="1" stop-opacity="0.3"/>
</linearGradient>
</defs>
</svg>
