<svg width="1009" height="515" viewBox="0 0 1009 515" fill="none" xmlns="http://www.w3.org/2000/svg">
<path d="M713.5 368C713.5 368.284 713.277 368.699 712.487 369.218C711.722 369.72 710.552 370.233 708.969 370.749C705.81 371.778 701.127 372.778 695.062 373.734C682.939 375.645 665.383 377.367 643.672 378.815C600.255 381.709 540.267 383.5 474 383.5C407.733 383.5 347.745 381.709 304.328 378.815C282.617 377.367 265.061 375.645 252.938 373.734C246.873 372.778 242.19 371.778 239.031 370.749C237.448 370.233 236.278 369.72 235.513 369.218C234.723 368.699 234.5 368.284 234.5 368C234.5 367.716 234.723 367.301 235.513 366.782C236.278 366.28 237.448 365.767 239.031 365.251C242.19 364.222 246.873 363.222 252.938 362.266C265.061 360.355 282.617 358.633 304.328 357.185C347.745 354.291 407.733 352.5 474 352.5C540.267 352.5 600.255 354.291 643.672 357.185C665.383 358.633 682.939 360.355 695.062 362.266C701.127 363.222 705.81 364.222 708.969 365.251C710.552 365.767 711.722 366.28 712.487 366.782C713.277 367.301 713.5 367.716 713.5 368Z" stroke="#AE261E"/>
<mask id="mask0_257_201" style="mask-type:alpha" maskUnits="userSpaceOnUse" x="234" y="352" width="480" height="32">
<ellipse cx="474" cy="368" rx="240" ry="16" fill="url(#paint0_linear_257_201)"/>
</mask>
<g mask="url(#mask0_257_201)">
<line y1="-0.5" x2="425.681" y2="-0.5" transform="matrix(-0.636285 0.771454 -0.927145 -0.374701 304.83 121.297)" stroke="#FF1D10"/>
<line y1="-0.5" x2="425.681" y2="-0.5" transform="matrix(-0.636285 0.771454 -0.927145 -0.374701 310.307 123.51)" stroke="#FF1D10"/>
<line y1="-0.5" x2="425.681" y2="-0.5" transform="matrix(-0.636285 0.771454 -0.927145 -0.374701 315.781 125.723)" stroke="#FF1D10"/>
<line y1="-0.5" x2="425.681" y2="-0.5" transform="matrix(-0.636285 0.771454 -0.927145 -0.374701 321.256 127.936)" stroke="#FF1D10"/>
<line y1="-0.5" x2="425.681" y2="-0.5" transform="matrix(-0.636285 0.771454 -0.927145 -0.374701 326.736 130.148)" stroke="#FF1D10"/>
<line y1="-0.5" x2="425.681" y2="-0.5" transform="matrix(-0.636285 0.771454 -0.927146 -0.374701 332.207 132.361)" stroke="#FF1D10"/>
<line y1="-0.5" x2="425.681" y2="-0.5" transform="matrix(-0.636285 0.771454 -0.927145 -0.374701 337.682 134.574)" stroke="#FF1D10"/>
<line y1="-0.5" x2="425.681" y2="-0.5" transform="matrix(-0.636285 0.771454 -0.927145 -0.374701 343.152 136.785)" stroke="#FF1D10"/>
<line y1="-0.5" x2="425.681" y2="-0.5" transform="matrix(-0.636285 0.771454 -0.927145 -0.374701 348.633 138.998)" stroke="#FF1D10"/>
<line y1="-0.5" x2="425.681" y2="-0.5" transform="matrix(-0.636285 0.771454 -0.927145 -0.374701 354.102 141.212)" stroke="#FF1D10"/>
<line y1="-0.5" x2="425.681" y2="-0.5" transform="matrix(-0.636285 0.771454 -0.927146 -0.374701 359.584 143.425)" stroke="#FF1D10"/>
<line y1="-0.5" x2="425.681" y2="-0.5" transform="matrix(-0.636285 0.771454 -0.927145 -0.374701 365.053 145.638)" stroke="#FF1D10"/>
<line y1="-0.5" x2="425.681" y2="-0.5" transform="matrix(-0.636285 0.771454 -0.927145 -0.374701 370.533 147.851)" stroke="#FF1D10"/>
<line y1="-0.5" x2="425.681" y2="-0.5" transform="matrix(-0.636285 0.771454 -0.927145 -0.374701 376.004 150.064)" stroke="#FF1D10"/>
<line y1="-0.5" x2="425.681" y2="-0.5" transform="matrix(-0.636285 0.771454 -0.927145 -0.374701 381.484 152.277)" stroke="#FF1D10"/>
<line y1="-0.5" x2="425.681" y2="-0.5" transform="matrix(-0.636285 0.771454 -0.927145 -0.374701 386.959 154.489)" stroke="#FF1D10"/>
<line y1="-0.5" x2="425.681" y2="-0.5" transform="matrix(-0.636285 0.771454 -0.927145 -0.374701 392.434 156.702)" stroke="#FF1D10"/>
<line y1="-0.5" x2="425.681" y2="-0.5" transform="matrix(-0.636285 0.771454 -0.927145 -0.374701 397.91 158.915)" stroke="#FF1D10"/>
<line y1="-0.5" x2="425.681" y2="-0.5" transform="matrix(-0.636285 0.771454 -0.927145 -0.374701 403.385 161.126)" stroke="#FF1D10"/>
<line y1="-0.5" x2="425.681" y2="-0.5" transform="matrix(-0.636285 0.771454 -0.927145 -0.374701 408.859 163.341)" stroke="#FF1D10"/>
<line y1="-0.5" x2="425.681" y2="-0.5" transform="matrix(-0.636285 0.771454 -0.927145 -0.374701 414.336 165.552)" stroke="#FF1D10"/>
<line y1="-0.5" x2="425.681" y2="-0.5" transform="matrix(-0.636285 0.771454 -0.927145 -0.374701 419.816 167.765)" stroke="#FF1D10"/>
<line y1="-0.5" x2="425.681" y2="-0.5" transform="matrix(-0.636285 0.771454 -0.927145 -0.374701 425.285 169.978)" stroke="#FF1D10"/>
<line y1="-0.5" x2="425.681" y2="-0.5" transform="matrix(-0.636285 0.771454 -0.927145 -0.374701 430.768 172.19)" stroke="#FF1D10"/>
<line y1="-0.5" x2="425.681" y2="-0.5" transform="matrix(-0.636285 0.771454 -0.927145 -0.374701 436.236 174.403)" stroke="#FF1D10"/>
<line y1="-0.5" x2="425.681" y2="-0.5" transform="matrix(-0.636285 0.771454 -0.927145 -0.374701 441.717 176.616)" stroke="#FF1D10"/>
<line y1="-0.5" x2="425.681" y2="-0.5" transform="matrix(-0.636285 0.771454 -0.927145 -0.374701 447.188 178.829)" stroke="#FF1D10"/>
<line y1="-0.5" x2="425.681" y2="-0.5" transform="matrix(-0.636285 0.771454 -0.927145 -0.374701 452.668 181.042)" stroke="#FF1D10"/>
<line y1="-0.5" x2="425.681" y2="-0.5" transform="matrix(-0.636285 0.771454 -0.927145 -0.374701 458.137 183.255)" stroke="#FF1D10"/>
<line y1="-0.5" x2="425.681" y2="-0.5" transform="matrix(-0.636285 0.771454 -0.927145 -0.374701 463.619 185.469)" stroke="#FF1D10"/>
<line y1="-0.5" x2="425.681" y2="-0.5" transform="matrix(-0.636285 0.771454 -0.927145 -0.374701 469.094 187.68)" stroke="#FF1D10"/>
<line y1="-0.5" x2="425.681" y2="-0.5" transform="matrix(-0.636285 0.771454 -0.927145 -0.374701 474.568 189.893)" stroke="#FF1D10"/>
<line y1="-0.5" x2="425.681" y2="-0.5" transform="matrix(-0.636285 0.771454 -0.927145 -0.374701 480.045 192.106)" stroke="#FF1D10"/>
<line y1="-0.5" x2="425.681" y2="-0.5" transform="matrix(-0.636285 0.771454 -0.927145 -0.374701 485.52 194.319)" stroke="#FF1D10"/>
<line y1="-0.5" x2="425.681" y2="-0.5" transform="matrix(-0.636285 0.771454 -0.927145 -0.374701 490.994 196.531)" stroke="#FF1D10"/>
<line y1="-0.5" x2="425.681" y2="-0.5" transform="matrix(-0.636285 0.771454 -0.927145 -0.374701 496.471 198.744)" stroke="#FF1D10"/>
<line y1="-0.5" x2="425.681" y2="-0.5" transform="matrix(-0.636285 0.771454 -0.927145 -0.374701 501.939 200.957)" stroke="#FF1D10"/>
<line y1="-0.5" x2="425.681" y2="-0.5" transform="matrix(-0.636285 0.771454 -0.927145 -0.374701 507.414 203.17)" stroke="#FF1D10"/>
<line y1="-0.5" x2="425.681" y2="-0.5" transform="matrix(-0.636285 0.771454 -0.927145 -0.374701 512.891 205.384)" stroke="#FF1D10"/>
<line y1="-0.5" x2="425.681" y2="-0.5" transform="matrix(-0.636285 0.771454 -0.927145 -0.374701 518.365 207.597)" stroke="#FF1D10"/>
<line y1="-0.5" x2="425.681" y2="-0.5" transform="matrix(-0.636285 0.771454 -0.927145 -0.374701 523.84 209.81)" stroke="#FF1D10"/>
<line y1="-0.5" x2="425.681" y2="-0.5" transform="matrix(-0.636285 0.771454 -0.927145 -0.374701 529.316 212.023)" stroke="#FF1D10"/>
<line y1="-0.5" x2="425.681" y2="-0.5" transform="matrix(-0.636285 0.771454 -0.927145 -0.374701 534.791 214.235)" stroke="#FF1D10"/>
<line y1="-0.5" x2="425.681" y2="-0.5" transform="matrix(-0.636285 0.771454 -0.927145 -0.374701 540.266 216.448)" stroke="#FF1D10"/>
<line y1="-0.5" x2="425.681" y2="-0.5" transform="matrix(-0.636285 0.771454 -0.927145 -0.374701 545.742 218.661)" stroke="#FF1D10"/>
<line y1="-0.5" x2="425.681" y2="-0.5" transform="matrix(-0.636285 0.771454 -0.927145 -0.374701 551.223 220.874)" stroke="#FF1D10"/>
<line y1="-0.5" x2="425.681" y2="-0.5" transform="matrix(-0.636285 0.771454 -0.927145 -0.374701 556.697 223.087)" stroke="#FF1D10"/>
<line y1="-0.5" x2="425.681" y2="-0.5" transform="matrix(-0.636285 0.771454 -0.927145 -0.374701 562.174 225.3)" stroke="#FF1D10"/>
<line y1="-0.5" x2="425.681" y2="-0.5" transform="matrix(-0.636285 0.771454 -0.927145 -0.374701 567.648 227.512)" stroke="#FF1D10"/>
<line y1="-0.5" x2="425.681" y2="-0.5" transform="matrix(-0.636285 0.771454 -0.927145 -0.374701 573.123 229.727)" stroke="#FF1D10"/>
<line y1="-0.5" x2="425.681" y2="-0.5" transform="matrix(-0.636285 0.771454 -0.927145 -0.374701 578.594 231.939)" stroke="#FF1D10"/>
<line y1="-0.5" x2="425.681" y2="-0.5" transform="matrix(-0.636285 0.771454 -0.927145 -0.374701 584.074 234.152)" stroke="#FF1D10"/>
<line y1="-0.5" x2="425.681" y2="-0.5" transform="matrix(-0.636285 0.771454 -0.927145 -0.374701 589.543 236.364)" stroke="#FF1D10"/>
<line y1="-0.5" x2="425.681" y2="-0.5" transform="matrix(-0.636285 0.771454 -0.927145 -0.374701 595.025 238.576)" stroke="#FF1D10"/>
<line y1="-0.5" x2="425.681" y2="-0.5" transform="matrix(-0.636285 0.771454 -0.927145 -0.374701 600.5 240.789)" stroke="#FF1D10"/>
<line y1="-0.5" x2="425.681" y2="-0.5" transform="matrix(-0.636285 0.771454 -0.927145 -0.374701 605.975 243.002)" stroke="#FF1D10"/>
<line y1="-0.5" x2="425.681" y2="-0.5" transform="matrix(-0.636285 0.771454 -0.927145 -0.374701 611.451 245.215)" stroke="#FF1D10"/>
<line y1="-0.5" x2="425.681" y2="-0.5" transform="matrix(-0.636285 0.771454 -0.927145 -0.374701 616.926 247.428)" stroke="#FF1D10"/>
<line y1="-0.5" x2="425.681" y2="-0.5" transform="matrix(-0.636285 0.771454 -0.927145 -0.374701 622.4 249.642)" stroke="#FF1D10"/>
<line y1="-0.5" x2="425.681" y2="-0.5" transform="matrix(-0.636285 0.771454 -0.927145 -0.374701 627.877 251.855)" stroke="#FF1D10"/>
<line y1="-0.5" x2="425.681" y2="-0.5" transform="matrix(-0.636285 0.771454 -0.927145 -0.374701 633.352 254.068)" stroke="#FF1D10"/>
<line y1="-0.5" x2="425.681" y2="-0.5" transform="matrix(-0.636285 0.771454 -0.927145 -0.374701 638.826 256.279)" stroke="#FF1D10"/>
<line y1="-0.5" x2="425.681" y2="-0.5" transform="matrix(-0.636285 0.771454 -0.927145 -0.374701 644.309 258.492)" stroke="#FF1D10"/>
<line y1="-0.5" x2="425.681" y2="-0.5" transform="matrix(-0.636285 0.771454 -0.927145 -0.374701 649.777 260.703)" stroke="#FF1D10"/>
<line y1="-0.5" x2="425.681" y2="-0.5" transform="matrix(-0.636285 0.771454 -0.927145 -0.374701 655.361 262.961)" stroke="#FF1D10"/>
<line y1="-0.5" x2="425.681" y2="-0.5" transform="matrix(-0.636285 0.771454 -0.927145 -0.374701 660.951 265.219)" stroke="#FF1D10"/>
<line y1="-0.5" x2="425.681" y2="-0.5" transform="matrix(-0.636285 0.771454 -0.927145 -0.374701 666.543 267.477)" stroke="#FF1D10"/>
<line y1="-0.5" x2="425.681" y2="-0.5" transform="matrix(-0.636285 0.771454 -0.927145 -0.374701 672.127 269.736)" stroke="#FF1D10"/>
<line y1="-0.5" x2="425.681" y2="-0.5" transform="matrix(-0.636285 0.771454 -0.927145 -0.374701 677.705 271.993)" stroke="#FF1D10"/>
<line y1="-0.5" x2="425.68" y2="-0.5" transform="matrix(-0.636285 0.771454 -0.927145 -0.374701 683.295 274.25)" stroke="#FF1D10"/>
<line y1="-0.5" x2="425.681" y2="-0.5" transform="matrix(-0.636285 0.771454 -0.927145 -0.374701 688.887 276.508)" stroke="#FF1D10"/>
<line y1="-0.5" x2="425.681" y2="-0.5" transform="matrix(-0.636285 0.771454 -0.927145 -0.374701 694.471 278.765)" stroke="#FF1D10"/>
<line y1="-0.5" x2="425.681" y2="-0.5" transform="matrix(-0.636285 0.771454 -0.927145 -0.374701 700.055 281.023)" stroke="#FF1D10"/>
<line y1="-0.5" x2="425.681" y2="-0.5" transform="matrix(-0.636285 0.771454 -0.927145 -0.374701 705.641 283.281)" stroke="#FF1D10"/>
<line y1="-0.5" x2="425.681" y2="-0.5" transform="matrix(-0.636285 0.771454 -0.927145 -0.374701 711.225 285.539)" stroke="#FF1D10"/>
<line y1="-0.5" x2="425.681" y2="-0.5" transform="matrix(-0.636285 0.771454 -0.927145 -0.374701 716.82 287.798)" stroke="#FF1D10"/>
<line y1="-0.5" x2="425.681" y2="-0.5" transform="matrix(-0.636285 0.771454 -0.927145 -0.374701 722.404 290.055)" stroke="#FF1D10"/>
<line y1="-0.5" x2="425.681" y2="-0.5" transform="matrix(-0.636285 0.771454 -0.927146 -0.374701 727.984 292.314)" stroke="#FF1D10"/>
<line y1="-0.5" x2="425.681" y2="-0.5" transform="matrix(-0.636285 0.771454 -0.927145 -0.374701 733.574 294.571)" stroke="#FF1D10"/>
<line y1="-0.5" x2="425.681" y2="-0.5" transform="matrix(-0.636285 0.771454 -0.927146 -0.374701 739.164 296.829)" stroke="#FF1D10"/>
<line y1="-0.5" x2="425.681" y2="-0.5" transform="matrix(-0.636285 0.771454 -0.927145 -0.374701 744.748 299.088)" stroke="#FF1D10"/>
<line y1="-0.5" x2="425.681" y2="-0.5" transform="matrix(-0.636285 0.771454 -0.927145 -0.374701 750.34 301.345)" stroke="#FF1D10"/>
<line y1="-0.5" x2="425.681" y2="-0.5" transform="matrix(-0.636285 0.771454 -0.927145 -0.374701 755.924 303.602)" stroke="#FF1D10"/>
<line y1="-0.5" x2="425.681" y2="-0.5" transform="matrix(-0.636285 0.771454 -0.927146 -0.374701 761.508 305.86)" stroke="#FF1D10"/>
<line y1="-0.5" x2="425.681" y2="-0.5" transform="matrix(-0.636285 0.771454 -0.927145 -0.374701 767.098 308.117)" stroke="#FF1D10"/>
<line y1="-0.5" x2="425.681" y2="-0.5" transform="matrix(-0.636285 0.771454 -0.927146 -0.374701 772.684 310.376)" stroke="#FF1D10"/>
<line y1="-0.5" x2="425.681" y2="-0.5" transform="matrix(-0.636285 0.771454 -0.927145 -0.374701 778.268 312.633)" stroke="#FF1D10"/>
<line y1="-0.5" x2="425.681" y2="-0.5" transform="matrix(-0.636285 0.771454 -0.927145 -0.374701 783.857 314.891)" stroke="#FF1D10"/>
<line y1="-0.5" x2="425.681" y2="-0.5" transform="matrix(-0.636285 0.771454 -0.927145 -0.374701 789.441 317.15)" stroke="#FF1D10"/>
<line y1="-0.5" x2="425.681" y2="-0.5" transform="matrix(-0.636285 0.771454 -0.927145 -0.374701 795.027 319.407)" stroke="#FF1D10"/>
<line y1="-0.5" x2="425.681" y2="-0.5" transform="matrix(-0.636285 0.771454 -0.927145 -0.374701 800.611 321.664)" stroke="#FF1D10"/>
<line y1="-0.5" x2="425.681" y2="-0.5" transform="matrix(-0.636285 0.771454 -0.927145 -0.374701 806.201 323.922)" stroke="#FF1D10"/>
<line y1="-0.5" x2="425.681" y2="-0.5" transform="matrix(-0.636285 0.771454 -0.927145 -0.374701 811.785 326.179)" stroke="#FF1D10"/>
<line y1="-0.5" x2="425.681" y2="-0.5" transform="matrix(-0.636285 0.771454 -0.927145 -0.374701 817.371 328.438)" stroke="#FF1D10"/>
<line y1="-0.5" x2="425.681" y2="-0.5" transform="matrix(-0.636285 0.771454 -0.927145 -0.374701 822.961 330.697)" stroke="#FF1D10"/>
<line y1="-0.5" x2="425.681" y2="-0.5" transform="matrix(-0.636285 0.771454 -0.927145 -0.374701 828.551 332.953)" stroke="#FF1D10"/>
<line y1="-0.5" x2="425.681" y2="-0.5" transform="matrix(-0.636285 0.771454 -0.927145 -0.374701 834.131 335.21)" stroke="#FF1D10"/>
<line y1="-0.5" x2="425.681" y2="-0.5" transform="matrix(-0.636285 0.771454 -0.927145 -0.374702 839.721 337.469)" stroke="#FF1D10"/>
<line y1="-0.5" x2="425.681" y2="-0.5" transform="matrix(-0.636285 0.771454 -0.927146 -0.374701 845.311 339.726)" stroke="#FF1D10"/>
<line y1="-0.5" x2="425.681" y2="-0.5" transform="matrix(-0.636285 0.771454 -0.927145 -0.374701 850.889 341.984)" stroke="#FF1D10"/>
<line y1="-0.5" x2="425.681" y2="-0.5" transform="matrix(-0.636285 0.771454 -0.927145 -0.374701 856.48 344.243)" stroke="#FF1D10"/>
<line y1="-0.5" x2="425.681" y2="-0.5" transform="matrix(-0.636285 0.771454 -0.927145 -0.374701 862.07 346.499)" stroke="#FF1D10"/>
<line y1="-0.5" x2="425.681" y2="-0.5" transform="matrix(-0.636285 0.771454 -0.927145 -0.374701 867.648 348.757)" stroke="#FF1D10"/>
</g>
<path d="M708.269 186.166V323.836H683.911V329.567H447.493V299.478H300.628L303.852 265.448L279.852 202.045V198.164C279.852 195.955 281.642 194.164 283.852 194.164H341.464V145.149C341.464 142.94 343.254 141.149 345.464 141.149H354.359V116.791L389.464 91H409.523L416.329 96.7313H425.284V93.8657H537.046C537.046 92.283 538.329 91 539.911 91H579.672C608.137 91.9282 665.463 122.52 696.023 152.999C704.719 161.672 708.269 173.884 708.269 186.166Z" fill="white" stroke="#AEB0B2"/>
<path d="M647.374 261.507C615.721 261.507 590.061 287.167 590.061 318.821H704.687C704.687 287.167 679.027 261.507 647.374 261.507Z" fill="#AEB0B2"/>
<path d="M237 348.194H342.045C343.702 348.194 345.045 346.851 345.045 345.194V335.57C345.045 334.513 344.489 333.534 343.581 332.993L327.394 323.343C326.789 322.982 326.418 322.33 326.418 321.625V320.821C326.418 319.716 327.313 318.821 328.418 318.821H333.582L345.045 312.731L380.866 299.119L402 265.448L303.493 233.209H291.672V272.254V290.881H237C235.343 290.881 234 292.224 234 293.881V345.194C234 346.851 235.343 348.194 237 348.194Z" fill="#AEB0B2"/>
<rect x="282.217" y="181.485" width="46.8507" height="3.86567" rx="1.93284" fill="white" stroke="#AEB0B2"/>
<rect x="282.217" y="185.784" width="46.8507" height="3.86567" rx="1.93284" fill="white" stroke="#AEB0B2"/>
<rect x="282.217" y="190.082" width="46.8507" height="3.86567" rx="1.93284" fill="white" stroke="#AEB0B2"/>
<path fill-rule="evenodd" clip-rule="evenodd" d="M259.604 111.511C259.32 108.581 261.623 106.045 264.566 106.045C266.821 106.045 268.795 107.559 269.38 109.736L278.98 145.448H308.343C310.017 145.448 311.373 146.805 311.373 148.478C311.373 150.018 310.219 151.312 308.69 151.489L281.449 154.632L284.188 164.821L330.148 166.66C334.067 166.817 337.164 170.039 337.164 173.961C337.164 177.997 333.892 181.269 329.856 181.269H273.947C269.294 181.269 265.522 177.497 265.522 172.844C265.522 172.786 265.523 172.729 265.524 172.672H265.523L259.604 111.511Z" fill="#AEB0B2"/>
<path d="M398.06 254.343C362.45 254.343 333.582 283.211 333.582 318.821H462.537C462.537 283.211 433.67 254.343 398.06 254.343Z" fill="#AEB0B2"/>
<path d="M710.001 330.283H402.061C399.851 330.283 398.061 328.493 398.061 326.283V322.821C398.061 320.612 399.851 318.821 402.061 318.821H710.001C712.21 318.821 714.001 320.612 714.001 322.821V326.283C714.001 328.493 712.21 330.283 710.001 330.283Z" fill="#AEB0B2"/>
<circle cx="398.06" cy="318.821" r="46.3507" stroke="#AEB0B2"/>
<circle cx="398.06" cy="318.821" r="45.8507" fill="#AEB0B2"/>
<path d="M398.06 272.97C372.737 272.97 352.209 293.498 352.209 318.821H443.91C443.91 293.498 423.382 272.97 398.06 272.97Z" fill="white"/>
<circle cx="398.06" cy="318.821" r="34.6716" stroke="#AEB0B2" stroke-width="2"/>
<circle cx="398.06" cy="318.821" r="33.6716" fill="#AEB0B2"/>
<path d="M398.06 352.493C416.657 352.493 431.732 337.417 431.732 318.821H364.389C364.389 337.417 379.464 352.493 398.06 352.493Z" fill="white"/>
<circle cx="398.06" cy="318.821" r="26.5075" fill="#AEB0B2"/>
<circle cx="398.06" cy="318.821" r="21.9254" stroke="white" stroke-width="2"/>
<path fill-rule="evenodd" clip-rule="evenodd" d="M394.779 303.417C395.02 301.971 396.272 300.911 397.738 300.911H398.387C399.853 300.911 401.105 301.971 401.346 303.417L401.645 305.209H394.48L394.779 303.417ZM394.48 332.433H401.645L401.346 334.225C401.105 335.671 399.853 336.732 398.387 336.732H397.738C396.272 336.732 395.02 335.671 394.779 334.225L394.48 332.433ZM409.759 308.276C411.133 307.761 412.677 308.315 413.41 309.585L413.734 310.147C414.468 311.417 414.175 313.031 413.043 313.963L411.641 315.117L408.059 308.913L409.759 308.276ZM384.482 322.525L388.064 328.729L386.363 329.366C384.99 329.881 383.446 329.327 382.713 328.057L382.389 327.495C381.655 326.225 381.948 324.611 383.08 323.679L384.482 322.525ZM413.734 327.496C414.467 326.226 414.175 324.612 413.043 323.68L411.64 322.525L408.058 328.729L409.759 329.367C411.133 329.881 412.677 329.327 413.41 328.057L413.734 327.496ZM384.482 315.118L388.064 308.913L386.363 308.276C384.99 307.761 383.446 308.315 382.713 309.585L382.388 310.147C381.655 311.417 381.948 313.031 383.08 313.963L384.482 315.118ZM398.06 323.836C400.83 323.836 403.075 321.591 403.075 318.821C403.075 316.051 400.83 313.806 398.06 313.806C395.29 313.806 393.045 316.051 393.045 318.821C393.045 321.591 395.29 323.836 398.06 323.836Z" fill="white"/>
<circle cx="647.374" cy="318.821" r="46.8507" stroke="#AEB0B2" stroke-width="2"/>
<circle cx="647.374" cy="318.821" r="45.8507" fill="#AEB0B2"/>
<path d="M647.374 272.97C622.052 272.97 601.523 293.498 601.523 318.821H693.225C693.225 293.498 672.697 272.97 647.374 272.97Z" fill="white"/>
<circle cx="647.375" cy="318.821" r="34.6716" stroke="#AEB0B2" stroke-width="2"/>
<circle cx="647.375" cy="318.821" r="33.6716" fill="#AEB0B2"/>
<path d="M647.375 352.492C665.971 352.492 681.046 337.417 681.046 318.821H613.703C613.703 337.417 628.778 352.492 647.375 352.492Z" fill="white"/>
<circle cx="647.375" cy="318.821" r="26.5075" fill="#AEB0B2"/>
<circle cx="647.375" cy="318.821" r="21.9254" stroke="white" stroke-width="2"/>
<path fill-rule="evenodd" clip-rule="evenodd" d="M644.09 303.417C644.331 301.971 645.582 300.911 647.049 300.911H647.697C649.164 300.911 650.415 301.971 650.656 303.417L650.955 305.209H643.791L644.09 303.417ZM643.791 332.433H650.955L650.656 334.225C650.415 335.671 649.164 336.732 647.697 336.732H647.049C645.582 336.732 644.331 335.671 644.09 334.225L643.791 332.433ZM659.072 308.276C660.445 307.761 661.989 308.315 662.723 309.585L663.047 310.147C663.78 311.417 663.488 313.031 662.355 313.963L660.953 315.117L657.371 308.913L659.072 308.276ZM633.795 322.525L637.377 328.729L635.676 329.366C634.303 329.881 632.759 329.327 632.025 328.057L631.701 327.495C630.968 326.225 631.26 324.611 632.392 323.679L633.795 322.525ZM663.047 327.496C663.78 326.226 663.488 324.612 662.355 323.68L660.953 322.525L657.371 328.729L659.072 329.367C660.445 329.881 661.989 329.327 662.722 328.057L663.047 327.496ZM633.795 315.118L637.377 308.913L635.676 308.276C634.302 307.761 632.758 308.315 632.025 309.585L631.701 310.147C630.968 311.417 631.26 313.031 632.392 313.963L633.795 315.118ZM647.372 323.836C650.142 323.836 652.387 321.591 652.387 318.821C652.387 316.051 650.142 313.806 647.372 313.806C644.603 313.806 642.357 316.051 642.357 318.821C642.357 321.591 644.603 323.836 647.372 323.836Z" fill="white"/>
<path d="M409.881 223.537H479.314C481.523 223.537 483.314 221.746 483.314 219.537V192.741C483.314 191.809 482.988 190.906 482.393 190.188L437.588 136.148C436.828 135.232 435.699 134.701 434.509 134.701H429.284C427.075 134.701 425.284 132.911 425.284 130.701V94.582" stroke="#AEB0B2"/>
<path d="M409.881 265.448V243.239L341.464 228.91V194.164H279.852V202.045L303.852 265.448H409.881Z" fill="white"/>
<path d="M483.312 219.955H539.193V225.686H549.939V219.955H674.596" stroke="#AEB0B2"/>
<path d="M473.283 229.985L506.597 270.463L597.224 305.209" stroke="#AEB0B2"/>
<path d="M537.045 93.8657C537.045 94.56 537.045 95.1365 537.045 95.8072C537.045 97.3484 538.209 98.6322 539.728 98.8931C550.723 100.782 567.538 107.712 576.448 114.642C628.534 127.34 658.672 149.586 670.145 161.94C672.211 164.166 673.164 167.15 673.164 170.188V203C673.164 220.673 687.491 235 705.164 235H708.269" stroke="#AEB0B2"/>
<path d="M354.717 141.149H396.209C398.418 141.149 400.209 142.94 400.209 145.149V209.567" stroke="#AEB0B2"/>
<path d="M341.463 194.164V209.209H400.209V223.895" stroke="#AEB0B2"/>
<path d="M341.464 194.164H283.852C281.642 194.164 279.852 195.955 279.852 198.164V201.307C279.852 201.795 279.941 202.278 280.115 202.734L304.21 265.806H409.523V257.925V223.537H341.464V209.209" stroke="#AEB0B2"/>
<path d="M409.521 229.985H681.76" stroke="#AEB0B2"/>
<rect x="414.537" y="127.537" width="5.73134" height="17.194" stroke="#AEB0B2"/>
<rect x="406.656" y="115.358" width="2.86567" height="75.9403" stroke="#AEB0B2"/>
<path d="M708.268 283C702.729 283 698.238 278.51 698.238 272.97C698.238 267.431 702.729 262.94 708.268 262.94" stroke="#AEB0B2"/>
<rect x="500.502" y="278.147" width="63.0448" height="2.86567" rx="1.43284" transform="rotate(21.1252 500.502 278.147)" stroke="#AEB0B2"/>
<rect x="486.174" y="283.879" width="63.0448" height="2.86567" rx="1.43284" transform="rotate(21.1252 486.174 283.879)" stroke="#AEB0B2"/>
<rect x="471.846" y="289.61" width="63.0448" height="2.86567" rx="1.43284" transform="rotate(21.1252 471.846 289.61)" stroke="#AEB0B2"/>
<circle cx="408.09" cy="111.06" r="4.29851" stroke="#AEB0B2"/>
<circle cx="408.089" cy="111.06" r="1.43284" fill="#AEB0B2"/>
<circle cx="408.09" cy="195.597" r="4.29851" stroke="#AEB0B2"/>
<circle cx="408.089" cy="195.597" r="1.43284" fill="#AEB0B2"/>
<rect x="325.201" y="266.022" width="3.86567" height="11.0299" fill="white" stroke="#AEB0B2"/>
<rect x="379.648" y="266.022" width="3.86567" height="11.0299" fill="white" stroke="#AEB0B2"/>
<rect x="320.902" y="277.485" width="66.9104" height="11.0299" fill="white" stroke="#AEB0B2"/>
<path d="M229.646 15.6464C229.451 15.8417 229.451 16.1583 229.646 16.3536L232.828 19.5355C233.024 19.7308 233.34 19.7308 233.536 19.5355C233.731 19.3403 233.731 19.0237 233.536 18.8284L230.707 16L233.536 13.1716C233.731 12.9763 233.731 12.6597 233.536 12.4645C233.34 12.2692 233.024 12.2692 232.828 12.4645L229.646 15.6464ZM710.354 16.3536C710.549 16.1583 710.549 15.8418 710.354 15.6465L707.172 12.4645C706.976 12.2692 706.66 12.2692 706.464 12.4645C706.269 12.6598 706.269 12.9764 706.464 13.1716L709.293 16L706.464 18.8285C706.269 19.0237 706.269 19.3403 706.464 19.5356C706.66 19.7308 706.976 19.7308 707.172 19.5356L710.354 16.3536ZM230 16.5L710 16.5L710 15.5L230 15.5L230 16.5Z" fill="black"/>
<rect x="434" width="74" height="31" rx="6" fill="#0F1926"/>
<path d="M446.48 17.12C446.56 18.8 447.824 20.08 450.08 20.08C452.176 20.08 453.6 18.64 453.6 17.2C453.6 16.288 453.216 15.648 452.832 15.264C452.608 15.04 452.352 14.864 452.08 14.72C452.32 14.576 452.528 14.416 452.72 14.224C453.04 13.888 453.36 13.36 453.36 12.64C453.36 11.184 452 9.84 450 9.84C448 9.84 446.64 11.2 446.56 12.72H448.48C448.56 12.16 449.104 11.6 450 11.6C450.896 11.6 451.44 12.16 451.44 12.88C451.44 13.6 450.96 14.08 449.92 14.08H449.12V15.68H450C451.04 15.68 451.6 16.24 451.6 16.96C451.6 17.68 450.96 18.32 450 18.32C449.104 18.32 448.48 17.68 448.4 17.12H446.48ZM454.636 17.04C454.636 18.64 456.06 20.08 458.236 20.08C460.412 20.08 461.836 18.64 461.836 17.04C461.836 16.128 461.436 15.488 461.036 15.104C460.796 14.88 460.54 14.704 460.236 14.56C460.444 14.416 460.652 14.256 460.828 14.064C461.132 13.728 461.436 13.248 461.436 12.56C461.436 11.12 460.156 9.84 458.236 9.84C456.316 9.84 455.036 11.12 455.036 12.56C455.036 13.248 455.324 13.728 455.628 14.064C455.804 14.256 456.012 14.416 456.236 14.56C455.932 14.704 455.676 14.88 455.436 15.104C455.036 15.488 454.636 16.128 454.636 17.04ZM456.556 16.96C456.556 16.144 457.196 15.52 458.236 15.52C459.276 15.52 459.916 16.144 459.916 16.96C459.916 17.776 459.276 18.4 458.236 18.4C457.196 18.4 456.556 17.776 456.556 16.96ZM456.876 12.72C456.876 12.08 457.42 11.52 458.236 11.52C459.052 11.52 459.596 12.08 459.596 12.72C459.596 13.36 459.052 13.92 458.236 13.92C457.42 13.92 456.876 13.36 456.876 12.72ZM464.393 20H466.393C466.745 19.472 467.097 18.96 467.449 18.464C468.041 17.616 468.729 16.608 469.193 15.92C469.369 15.68 469.529 15.424 469.673 15.152C469.913 14.688 470.153 14.048 470.153 13.36C470.153 11.376 468.633 9.84 466.473 9.84C464.312 9.84 462.793 11.376 462.793 13.36C462.793 15.344 464.473 17.056 466.553 16.8L464.393 20ZM466.473 15.2C465.497 15.2 464.713 14.384 464.713 13.36C464.713 12.336 465.497 11.52 466.473 11.52C467.417 11.52 468.233 12.336 468.233 13.36C468.233 14.384 467.417 15.2 466.473 15.2ZM479.979 17.28C479.899 17.488 479.771 17.664 479.627 17.808C479.371 18.064 478.971 18.32 478.379 18.32C477.339 18.32 476.539 17.536 476.539 16.32C476.539 15.104 477.339 14.32 478.379 14.32C478.971 14.32 479.371 14.592 479.627 14.848C479.771 14.992 479.899 15.168 479.979 15.36H481.819C481.483 13.904 480.139 12.56 478.379 12.56C476.395 12.56 474.699 14.24 474.699 16.32C474.699 18.4 476.395 20.08 478.379 20.08C480.139 20.08 481.483 18.736 481.819 17.28H479.979ZM483.099 20H484.939V16.24L486.699 20H487.659L489.419 16.24V20H491.259V12.64H489.499L487.179 17.6L484.859 12.64H483.099V20ZM492.701 19.04C492.701 19.6 493.181 20.08 493.741 20.08C494.301 20.08 494.781 19.6 494.781 19.04C494.781 18.48 494.301 18 493.741 18C493.181 18 492.701 18.48 492.701 19.04Z" fill="white"/>
<path d="M708 39L708 148" stroke="black" stroke-opacity="0.6" stroke-dasharray="1 4"/>
<path d="M775.354 90.6464C775.158 90.4512 774.842 90.4512 774.646 90.6464L771.464 93.8284C771.269 94.0237 771.269 94.3403 771.464 94.5355C771.66 94.7308 771.976 94.7308 772.172 94.5355L775 91.7071L777.828 94.5355C778.024 94.7308 778.34 94.7308 778.536 94.5355C778.731 94.3403 778.731 94.0237 778.536 93.8284L775.354 90.6464ZM774.646 365.354C774.842 365.549 775.158 365.549 775.354 365.354L778.536 362.172C778.731 361.976 778.731 361.66 778.536 361.464C778.34 361.269 778.024 361.269 777.828 361.464L775 364.293L772.172 361.464C771.976 361.269 771.66 361.269 771.464 361.464C771.269 361.66 771.269 361.976 771.464 362.172L774.646 365.354ZM774.5 91L774.5 365L775.5 365L775.5 91L774.5 91Z" fill="black"/>
<path d="M606 91L755 91" stroke="black" stroke-opacity="0.6" stroke-dasharray="1 4"/>
<path d="M725 365L755 365" stroke="black" stroke-opacity="0.6" stroke-dasharray="1 4"/>
<rect x="737" y="212" width="75" height="31" rx="6" fill="#0F1926"/>
<path d="M749.64 232H756.36V230.16H752.44L754.6 227.92C754.936 227.616 755.24 227.28 755.512 226.928C755.976 226.336 756.44 225.568 756.44 224.8C756.44 223.12 755.16 221.84 753 221.84C750.92 221.84 749.56 223.2 749.56 225.04H751.48C751.48 224.144 752.04 223.6 753 223.6C753.96 223.6 754.44 224.064 754.44 224.88C754.44 225.328 754.152 225.808 753.88 226.176C753.704 226.384 753.528 226.592 753.32 226.8L749.64 230.64V232ZM757.718 232H764.438V230.16H760.518L762.678 227.92C763.014 227.616 763.318 227.28 763.59 226.928C764.054 226.336 764.518 225.568 764.518 224.8C764.518 223.12 763.238 221.84 761.078 221.84C758.998 221.84 757.638 223.2 757.638 225.04H759.558C759.558 224.144 760.118 223.6 761.078 223.6C762.038 223.6 762.518 224.064 762.518 224.88C762.518 225.328 762.23 225.808 761.958 226.176C761.782 226.384 761.606 226.592 761.398 226.8L757.718 230.64V232ZM769.956 223.68C771.076 223.68 772.196 224.8 772.196 226.96C772.196 229.12 771.076 230.24 769.956 230.24C768.836 230.24 767.716 229.12 767.716 226.96C767.716 224.8 768.836 223.68 769.956 223.68ZM769.956 221.84C767.716 221.84 765.796 223.76 765.796 226.96C765.796 230.16 767.716 232.08 769.956 232.08C772.196 232.08 774.116 230.16 774.116 226.96C774.116 223.76 772.196 221.84 769.956 221.84ZM784.104 229.28C784.024 229.488 783.896 229.664 783.752 229.808C783.496 230.064 783.096 230.32 782.504 230.32C781.464 230.32 780.664 229.536 780.664 228.32C780.664 227.104 781.464 226.32 782.504 226.32C783.096 226.32 783.496 226.592 783.752 226.848C783.896 226.992 784.024 227.168 784.104 227.36H785.944C785.608 225.904 784.264 224.56 782.504 224.56C780.52 224.56 778.824 226.24 778.824 228.32C778.824 230.4 780.52 232.08 782.504 232.08C784.264 232.08 785.608 230.736 785.944 229.28H784.104ZM787.224 232H789.064V228.24L790.824 232H791.784L793.544 228.24V232H795.384V224.64H793.624L791.304 229.6L788.984 224.64H787.224V232ZM796.826 231.04C796.826 231.6 797.306 232.08 797.866 232.08C798.426 232.08 798.906 231.6 798.906 231.04C798.906 230.48 798.426 230 797.866 230C797.306 230 796.826 230.48 796.826 231.04Z" fill="white"/>
<path opacity="0.2" d="M474 431L474 397" stroke="#AE261E"/>
<circle cx="474" cy="385" r="6" fill="#AE261E"/>
<circle cx="474" cy="385" r="9" stroke="#AE261E" stroke-opacity="0.15" stroke-width="6"/>
<path d="M409.503 450.34C410.676 450.34 411.629 450.212 412.363 449.955C413.133 449.698 413.756 449.35 414.233 448.91C414.709 448.47 415.094 447.957 415.388 447.37C415.681 446.783 415.938 446.16 416.158 445.5H420.228V484H414.178V454.63H409.503V450.34ZM445.719 474.76C445.719 477.877 444.912 480.278 443.299 481.965C441.686 483.615 439.339 484.44 436.259 484.44C433.179 484.44 430.832 483.615 429.219 481.965C427.606 480.278 426.799 477.877 426.799 474.76V471.735C426.799 469.865 427.092 468.252 427.679 466.895C428.266 465.502 429.219 464.438 430.539 463.705C428.046 462.348 426.799 459.763 426.799 455.95V454.74C426.799 451.623 427.606 449.24 429.219 447.59C430.832 445.903 433.179 445.06 436.259 445.06C439.339 445.06 441.686 445.903 443.299 447.59C444.912 449.24 445.719 451.623 445.719 454.74V455.95C445.719 459.727 444.472 462.312 441.979 463.705C443.299 464.438 444.252 465.502 444.839 466.895C445.426 468.252 445.719 469.865 445.719 471.735V474.76ZM432.849 474.595C432.849 476.318 433.179 477.473 433.839 478.06C434.499 478.647 435.306 478.94 436.259 478.94C437.212 478.94 438.001 478.647 438.624 478.06C439.284 477.473 439.632 476.318 439.669 474.595V471.02C439.669 469.48 439.357 468.38 438.734 467.72C438.147 467.023 437.322 466.675 436.259 466.675C435.196 466.675 434.352 467.023 433.729 467.72C433.142 468.38 432.849 469.48 432.849 471.02V474.595ZM432.849 457.105C432.849 458.645 433.161 459.708 433.784 460.295C434.444 460.882 435.269 461.175 436.259 461.175C437.212 461.175 438.019 460.882 438.679 460.295C439.339 459.708 439.669 458.645 439.669 457.105V454.96C439.669 453.237 439.339 452.082 438.679 451.495C438.019 450.872 437.212 450.56 436.259 450.56C435.306 450.56 434.499 450.872 433.839 451.495C433.179 452.082 432.849 453.237 432.849 454.96V457.105ZM448.991 455.07C448.991 451.807 449.742 449.332 451.246 447.645C452.749 445.922 455.077 445.06 458.231 445.06C461.201 445.06 463.437 445.903 464.941 447.59C466.481 449.24 467.251 451.623 467.251 454.74V455.73H461.531V454.355C461.531 452.962 461.237 451.99 460.651 451.44C460.101 450.853 459.349 450.56 458.396 450.56C457.332 450.56 456.507 450.89 455.921 451.55C455.334 452.21 455.041 453.457 455.041 455.29V462.33C456.104 460.057 457.974 458.92 460.651 458.92C462.887 458.92 464.556 459.672 465.656 461.175C466.792 462.678 467.361 464.86 467.361 467.72V474.76C467.361 477.877 466.572 480.278 464.996 481.965C463.419 483.615 461.146 484.44 458.176 484.44C455.206 484.44 452.932 483.615 451.356 481.965C449.779 480.278 448.991 477.877 448.991 474.76V455.07ZM458.176 464.42C457.222 464.42 456.452 464.713 455.866 465.3C455.316 465.85 455.041 466.822 455.041 468.215V475.145C455.041 476.538 455.316 477.51 455.866 478.06C456.452 478.61 457.222 478.885 458.176 478.885C459.129 478.885 459.881 478.61 460.431 478.06C461.017 477.51 461.311 476.538 461.311 475.145V468.215C461.311 466.822 461.017 465.85 460.431 465.3C459.881 464.713 459.129 464.42 458.176 464.42ZM476.737 475.145C476.737 476.538 477.012 477.528 477.562 478.115C478.149 478.665 478.919 478.94 479.872 478.94C480.826 478.94 481.577 478.665 482.127 478.115C482.714 477.528 483.007 476.538 483.007 475.145V454.355C483.007 452.962 482.714 451.99 482.127 451.44C481.577 450.853 480.826 450.56 479.872 450.56C478.919 450.56 478.149 450.853 477.562 451.44C477.012 451.99 476.737 452.962 476.737 454.355V475.145ZM470.687 454.74C470.687 451.623 471.476 449.24 473.052 447.59C474.629 445.903 476.902 445.06 479.872 445.06C482.842 445.06 485.116 445.903 486.692 447.59C488.269 449.24 489.057 451.623 489.057 454.74V474.76C489.057 477.877 488.269 480.278 486.692 481.965C485.116 483.615 482.842 484.44 479.872 484.44C476.902 484.44 474.629 483.615 473.052 481.965C471.476 480.278 470.687 477.877 470.687 474.76V454.74ZM514.344 472.835L518.469 445.5H526.884V484H521.164V456.39L516.984 484H511.264L506.754 456.775V484H501.474V445.5H509.889L514.344 472.835ZM538.985 446.16C538.985 445.097 538.802 444.382 538.435 444.015C538.105 443.612 537.628 443.41 537.005 443.41C536.382 443.41 535.887 443.593 535.52 443.96C535.19 444.327 535.025 444.95 535.025 445.83V448.415H531.395V446.05C531.395 444.07 531.872 442.567 532.825 441.54C533.778 440.477 535.208 439.945 537.115 439.945C539.022 439.945 540.452 440.477 541.405 441.54C542.358 442.567 542.835 444.07 542.835 446.05C542.835 447.407 542.633 448.617 542.23 449.68C541.827 450.743 541.313 451.715 540.69 452.595C540.103 453.475 539.462 454.3 538.765 455.07C538.068 455.803 537.427 456.518 536.84 457.215C536.29 457.875 535.85 458.535 535.52 459.195C535.19 459.855 535.098 460.533 535.245 461.23H542.505V464.695H531.395V461.725C531.395 460.552 531.578 459.507 531.945 458.59C532.312 457.673 532.77 456.848 533.32 456.115C533.907 455.345 534.53 454.612 535.19 453.915C535.85 453.218 536.455 452.503 537.005 451.77C537.592 451 538.068 450.175 538.435 449.295C538.802 448.378 538.985 447.333 538.985 446.16Z" fill="#AE261E"/>
<path opacity="0.6" d="M425.109 511H426.369V505.89H429.379V511H430.639V504.7H425.109V511ZM431.474 511L431.6 511.042C431.698 511.056 431.782 511.07 431.894 511.07C433.084 511.07 433.826 510.3 433.924 508.9L434.134 505.89H436.234V511H437.494V504.7H433.014L432.664 508.9C432.608 509.6 432.258 509.95 431.614 509.95H431.474V511ZM441.837 509.88C440.927 509.88 440.087 509.04 440.087 507.85C440.087 506.66 440.927 505.82 441.837 505.82C442.747 505.82 443.587 506.66 443.587 507.85C443.587 509.04 442.747 509.88 441.837 509.88ZM441.837 511.07C443.517 511.07 444.847 509.74 444.847 507.85C444.847 505.96 443.517 504.63 441.837 504.63C440.157 504.63 438.827 505.96 438.827 507.85C438.827 509.74 440.157 511.07 441.837 511.07ZM446.177 511H453.807V512.47H454.997V509.81H454.157V504.7H452.897V509.81H450.797V504.7H449.537V509.81H447.437V504.7H446.177V511ZM460.106 511H461.016V506.87C461.016 505.61 460.036 504.63 458.566 504.63C457.012 504.63 456.116 505.47 456.046 506.59H457.306C457.376 506.156 457.726 505.82 458.566 505.82C459.35 505.82 459.756 506.24 459.756 506.87V507.08C456.676 507.08 455.836 507.92 455.836 509.18C455.836 510.3 456.606 511.07 458.006 511.07C458.636 511.07 459.098 510.902 459.392 510.72C459.56 510.622 459.7 510.496 459.826 510.37L460.106 511ZM459.756 508.536C459.756 509.32 459.14 509.95 458.076 509.95C457.446 509.95 457.096 509.6 457.096 509.25C457.096 508.62 457.516 508.2 459.756 508.2V508.536ZM461.784 512.47H462.974V511H467.314V512.47H468.504V509.81H467.664V504.7H463.394L462.974 508.62C462.932 509.012 462.736 509.292 462.554 509.502C462.456 509.614 462.33 509.712 462.204 509.81H461.784V512.47ZM463.744 509.81L463.954 509.502C464.066 509.292 464.192 509.012 464.234 508.62L464.514 505.89H466.404V509.81H463.744ZM469.624 511H472.424C473.698 511 474.594 510.09 474.594 508.9C474.594 507.71 473.698 506.8 472.424 506.8H470.884V504.7H469.624V511ZM470.884 509.81V507.99H472.424C472.914 507.99 473.334 508.41 473.334 508.9C473.334 509.39 472.914 509.81 472.424 509.81H470.884ZM478.446 508.97C478.516 510.314 479.272 511.07 480.826 511.07C482.296 511.07 483.136 510.23 483.136 509.11C483.136 508.662 482.912 508.326 482.702 508.102C482.576 507.976 482.436 507.864 482.282 507.78C482.408 507.696 482.534 507.598 482.632 507.472C482.814 507.262 482.996 506.954 482.996 506.52C482.996 505.47 482.156 504.63 480.826 504.63C479.356 504.63 478.586 505.4 478.516 506.59H479.776C479.846 506.156 480.196 505.82 480.826 505.82C481.54 505.82 481.806 506.17 481.806 506.52C481.806 506.87 481.54 507.22 480.826 507.22H480.266V508.34H480.826C481.61 508.34 481.946 508.676 481.946 509.11C481.946 509.544 481.61 509.88 480.826 509.88C480.112 509.88 479.776 509.53 479.706 508.97H478.446ZM488.462 511H489.372V506.87C489.372 505.61 488.392 504.63 486.922 504.63C485.368 504.63 484.472 505.47 484.402 506.59H485.662C485.732 506.156 486.082 505.82 486.922 505.82C487.706 505.82 488.112 506.24 488.112 506.87V507.08C485.032 507.08 484.192 507.92 484.192 509.18C484.192 510.3 484.962 511.07 486.362 511.07C486.992 511.07 487.454 510.902 487.748 510.72C487.916 510.622 488.056 510.496 488.182 510.37L488.462 511ZM488.112 508.536C488.112 509.32 487.496 509.95 486.432 509.95C485.802 509.95 485.452 509.6 485.452 509.25C485.452 508.62 485.872 508.2 488.112 508.2V508.536ZM490.14 511L490.266 511.042C490.364 511.056 490.448 511.07 490.56 511.07C491.75 511.07 492.492 510.3 492.59 508.9L492.8 505.89H494.9V511H496.16V504.7H491.68L491.33 508.9C491.274 509.6 490.924 509.95 490.28 509.95H490.14V511ZM497.843 511H499.103L502.113 506.59V511H503.373V504.7H502.113L499.103 509.11V504.7H497.843V511ZM505.048 511H508.198C509.318 511 510.088 510.23 510.088 509.18C510.088 508.662 509.85 508.284 509.626 508.046C509.5 507.906 509.346 507.794 509.178 507.71C509.304 507.626 509.43 507.528 509.528 507.416C509.696 507.206 509.878 506.912 509.878 506.45C509.878 505.47 509.108 504.7 507.988 504.7H505.048V511ZM506.308 507.29V505.75H507.848C508.282 505.75 508.618 506.086 508.618 506.52C508.618 506.954 508.282 507.29 507.848 507.29H506.308ZM506.308 509.95V508.34H508.058C508.492 508.34 508.828 508.676 508.828 509.11C508.828 509.6 508.492 509.95 508.058 509.95H506.308ZM511.419 511H512.679V507.99L515.129 511H516.669L513.869 507.64L516.319 504.7H514.849L512.679 507.43V504.7H511.419V511ZM517.366 511H518.626L521.636 506.59V511H522.896V504.7H521.636L518.626 509.11V504.7H517.366V511Z" fill="#1D293C"/>
<path opacity="0.2" d="M186 59L463 59V105" stroke="#AE261E"/>
<circle cx="463" cy="117" r="6" fill="#AE261E"/>
<circle cx="463" cy="117" r="9" stroke="#AE261E" stroke-opacity="0.15" stroke-width="6"/>
<path d="M73.1293 66.76C73.1293 69.8767 72.3226 72.2783 70.7093 73.965C69.096 75.615 66.7493 76.44 63.6693 76.44C60.5893 76.44 58.2426 75.615 56.6293 73.965C55.016 72.2783 54.2093 69.8767 54.2093 66.76V63.735C54.2093 61.865 54.5026 60.2517 55.0893 58.895C55.676 57.5017 56.6293 56.4383 57.9493 55.705C55.456 54.3483 54.2093 51.7633 54.2093 47.95V46.74C54.2093 43.6233 55.016 41.24 56.6293 39.59C58.2426 37.9033 60.5893 37.06 63.6693 37.06C66.7493 37.06 69.096 37.9033 70.7093 39.59C72.3226 41.24 73.1293 43.6233 73.1293 46.74V47.95C73.1293 51.7267 71.8826 54.3117 69.3893 55.705C70.7093 56.4383 71.6626 57.5017 72.2493 58.895C72.836 60.2517 73.1293 61.865 73.1293 63.735V66.76ZM60.2593 66.595C60.2593 68.3183 60.5893 69.4733 61.2493 70.06C61.9093 70.6467 62.716 70.94 63.6693 70.94C64.6226 70.94 65.411 70.6467 66.0343 70.06C66.6943 69.4733 67.0426 68.3183 67.0793 66.595V63.02C67.0793 61.48 66.7676 60.38 66.1443 59.72C65.5576 59.0233 64.7326 58.675 63.6693 58.675C62.606 58.675 61.7626 59.0233 61.1393 59.72C60.5526 60.38 60.2593 61.48 60.2593 63.02V66.595ZM60.2593 49.105C60.2593 50.645 60.571 51.7083 61.1943 52.295C61.8543 52.8817 62.6793 53.175 63.6693 53.175C64.6226 53.175 65.4293 52.8817 66.0893 52.295C66.7493 51.7083 67.0793 50.645 67.0793 49.105V46.96C67.0793 45.2367 66.7493 44.0817 66.0893 43.495C65.4293 42.8717 64.6226 42.56 63.6693 42.56C62.716 42.56 61.9093 42.8717 61.2493 43.495C60.5893 44.0817 60.2593 45.2367 60.2593 46.96V49.105ZM82.2309 63.57V67.145C82.2309 68.5383 82.5059 69.51 83.0559 70.06C83.6426 70.61 84.4126 70.885 85.3659 70.885C86.3193 70.885 87.0709 70.61 87.6209 70.06C88.2076 69.51 88.5009 68.5383 88.5009 67.145V58.675C88.5009 57.2817 88.2076 56.31 87.6209 55.76C87.0709 55.1733 86.3193 54.88 85.3659 54.88C84.4126 54.88 83.6426 55.1733 83.0559 55.76C82.5059 56.31 82.2309 57.2817 82.2309 58.675V59.83H76.5109L77.6109 37.5H93.5609V43H83.0559L82.5609 52.185C83.6976 50.315 85.4576 49.38 87.8409 49.38C90.0776 49.38 91.7459 50.1317 92.8459 51.635C93.9826 53.1383 94.5509 55.32 94.5509 58.18V66.76C94.5509 69.8767 93.7809 72.2783 92.2409 73.965C90.7376 75.615 88.5009 76.44 85.5309 76.44C82.5609 76.44 80.3059 75.615 78.7659 73.965C77.2626 72.2783 76.5109 69.8767 76.5109 66.76V63.57H82.2309ZM104.148 67.145C104.148 68.5383 104.423 69.5283 104.973 70.115C105.559 70.665 106.329 70.94 107.283 70.94C108.236 70.94 108.988 70.665 109.538 70.115C110.124 69.5283 110.418 68.5383 110.418 67.145V46.355C110.418 44.9617 110.124 43.99 109.538 43.44C108.988 42.8533 108.236 42.56 107.283 42.56C106.329 42.56 105.559 42.8533 104.973 43.44C104.423 43.99 104.148 44.9617 104.148 46.355V67.145ZM98.0976 46.74C98.0976 43.6233 98.8859 41.24 100.463 39.59C102.039 37.9033 104.313 37.06 107.283 37.06C110.253 37.06 112.526 37.9033 114.103 39.59C115.679 41.24 116.468 43.6233 116.468 46.74V66.76C116.468 69.8767 115.679 72.2783 114.103 73.965C112.526 75.615 110.253 76.44 107.283 76.44C104.313 76.44 102.039 75.615 100.463 73.965C98.8859 72.2783 98.0976 69.8767 98.0976 66.76V46.74ZM127.234 70.555C127.931 70.555 128.499 70.5183 128.939 70.445C129.416 70.3717 129.801 70.2067 130.094 69.95C130.388 69.6567 130.589 69.2533 130.699 68.74C130.846 68.19 130.938 67.475 130.974 66.595L131.964 37.5H149.069V76H142.909V43H137.629L136.969 66.265C136.859 69.785 136.108 72.2967 134.714 73.8C133.358 75.3033 131.176 76.055 128.169 76.055H127.234V70.555Z" fill="#0F1926"/>
<path opacity="0.6" d="M34.5566 101.88C33.6466 101.88 32.8066 101.04 32.8066 99.85C32.8066 98.66 33.6466 97.82 34.5566 97.82C35.4666 97.82 36.3066 98.66 36.3066 99.85C36.3066 101.04 35.4666 101.88 34.5566 101.88ZM34.5566 103.07C36.2366 103.07 37.5666 101.74 37.5666 99.85C37.5666 97.96 36.2366 96.63 34.5566 96.63C32.8766 96.63 31.5466 97.96 31.5466 99.85C31.5466 101.74 32.8766 103.07 34.5566 103.07ZM43.9366 94.04C39.9606 94.194 38.6166 95.51 38.6166 99.15C38.6166 101.74 39.9606 103.07 41.6966 103.07C43.3766 103.07 44.7066 101.726 44.7066 99.99C44.7066 98.254 43.3766 96.91 41.8366 96.91C41.1646 96.91 40.7166 97.162 40.3946 97.4C40.2126 97.554 40.0726 97.708 39.9466 97.89C40.1706 96.14 40.9126 95.37 43.9366 95.3V94.04ZM41.6966 101.88C40.7866 101.88 39.9466 101.04 39.9466 99.99C39.9466 98.94 40.7866 98.1 41.6966 98.1C42.6066 98.1 43.4466 98.94 43.4466 99.99C43.4466 101.04 42.6066 101.88 41.6966 101.88ZM46.5966 103H49.3966C50.6706 103 51.5666 102.09 51.5666 100.9C51.5666 99.71 50.6706 98.8 49.3966 98.8H47.8566V96.7H45.0566V97.89H46.5966V103ZM47.8566 101.81V99.99H49.3966C49.8866 99.99 50.3066 100.41 50.3066 100.9C50.3066 101.39 49.8866 101.81 49.3966 101.81H47.8566ZM56.8199 101.18C56.6099 101.46 56.1899 101.88 55.4199 101.88C54.5099 101.88 53.8099 101.194 53.7399 100.41H58.2199L58.2479 100.242C58.2619 100.144 58.2899 100.004 58.2899 99.85C58.2899 97.96 56.9739 96.63 55.3499 96.63C53.7259 96.63 52.4099 97.96 52.4099 99.85C52.4099 101.74 53.7399 103.07 55.4199 103.07C56.8899 103.07 57.7439 102.23 58.1499 101.18H56.8199ZM53.7399 99.36C53.8939 98.45 54.5099 97.82 55.3499 97.82C56.3439 97.82 56.9459 98.45 57.0999 99.36H53.7399ZM59.6232 103H60.8832V99.5L62.5632 103H63.4032L65.0832 99.5V103H66.3432V96.7H65.2232L62.9832 101.32L60.7432 96.7H59.6232V103ZM76.1339 94.04C72.1579 94.194 70.8139 95.51 70.8139 99.15C70.8139 101.74 72.1579 103.07 73.8939 103.07C75.5739 103.07 76.9039 101.726 76.9039 99.99C76.9039 98.254 75.5739 96.91 74.0339 96.91C73.3619 96.91 72.9139 97.162 72.5919 97.4C72.4099 97.554 72.2699 97.708 72.1439 97.89C72.3679 96.14 73.1099 95.37 76.1339 95.3V94.04ZM73.8939 101.88C72.9839 101.88 72.1439 101.04 72.1439 99.99C72.1439 98.94 72.9839 98.1 73.8939 98.1C74.8039 98.1 75.6439 98.94 75.6439 99.99C75.6439 101.04 74.8039 101.88 73.8939 101.88ZM78.4439 105.24L78.5699 105.282C78.6679 105.296 78.7519 105.31 78.8639 105.31C79.8439 105.31 80.3339 104.82 80.8939 103.42L83.5539 96.7H82.2239L80.4739 101.25L78.7239 96.7H77.3939L79.8439 102.79L79.6339 103.42C79.4799 103.854 79.1579 104.19 78.4439 104.19V105.24ZM84.5334 103H85.7934V100.41H88.8034V103H90.0634V96.7H88.8034V99.22H85.7934V96.7H84.5334V103ZM91.7384 103H92.9984V99.99L95.4484 103H96.9884L94.1884 99.64L96.6384 96.7H95.1684L92.9984 99.43V96.7H91.7384V103ZM101.609 101.18C101.399 101.46 100.979 101.88 100.209 101.88C99.299 101.88 98.599 101.194 98.529 100.41H103.009L103.037 100.242C103.051 100.144 103.079 100.004 103.079 99.85C103.079 97.96 101.763 96.63 100.139 96.63C98.515 96.63 97.199 97.96 97.199 99.85C97.199 101.74 98.529 103.07 100.209 103.07C101.679 103.07 102.533 102.23 102.939 101.18H101.609ZM98.529 99.36C98.683 98.45 99.299 97.82 100.139 97.82C101.133 97.82 101.735 98.45 101.889 99.36H98.529ZM104.412 105.24H105.672V102.37C105.798 102.496 105.938 102.622 106.106 102.72C106.4 102.902 106.82 103.07 107.422 103.07C109.102 103.07 110.432 101.74 110.432 99.85C110.432 97.96 109.102 96.63 107.422 96.63C106.792 96.63 106.33 96.812 106.036 96.98C105.868 97.078 105.728 97.204 105.602 97.33L105.322 96.7H104.412V105.24ZM107.352 101.88C106.386 101.88 105.532 101.04 105.532 99.85C105.532 98.66 106.386 97.82 107.352 97.82C108.318 97.82 109.172 98.66 109.172 99.85C109.172 101.04 108.318 101.88 107.352 101.88ZM115.758 103H116.668V98.87C116.668 97.61 115.688 96.63 114.218 96.63C112.664 96.63 111.768 97.47 111.698 98.59H112.958C113.028 98.156 113.378 97.82 114.218 97.82C115.002 97.82 115.408 98.24 115.408 98.87V99.08C112.328 99.08 111.488 99.92 111.488 101.18C111.488 102.3 112.258 103.07 113.658 103.07C114.288 103.07 114.75 102.902 115.044 102.72C115.212 102.622 115.352 102.496 115.478 102.37L115.758 103ZM115.408 100.536C115.408 101.32 114.792 101.95 113.728 101.95C113.098 101.95 112.748 101.6 112.748 101.25C112.748 100.62 113.168 100.2 115.408 100.2V100.536ZM120.512 104.47H121.702V103H126.042V104.47H127.232V101.81H126.392V96.7H122.122L121.702 100.62C121.66 101.012 121.464 101.292 121.282 101.502C121.184 101.614 121.058 101.712 120.932 101.81H120.512V104.47ZM122.472 101.81L122.682 101.502C122.794 101.292 122.92 101.012 122.962 100.62L123.242 97.89H125.132V101.81H122.472ZM127.512 103L127.638 103.042C127.736 103.056 127.82 103.07 127.932 103.07C129.122 103.07 129.864 102.3 129.962 100.9L130.172 97.89H132.272V103H133.532V96.7H129.052L128.702 100.9C128.646 101.6 128.296 101.95 127.652 101.95H127.512V103ZM134.795 103H136.195L137.525 100.9H138.785V103H140.045V96.7H137.175C135.901 96.7 135.005 97.61 135.005 98.8C135.005 99.542 135.313 100.004 135.635 100.298C135.817 100.466 136.027 100.592 136.265 100.69L134.795 103ZM137.175 99.71C136.685 99.71 136.265 99.29 136.265 98.8C136.265 98.31 136.685 97.89 137.175 97.89H138.785V99.71H137.175ZM144.799 103H147.949C149.069 103 149.839 102.23 149.839 101.18C149.839 100.662 149.601 100.284 149.377 100.046C149.251 99.906 149.097 99.794 148.929 99.71C149.055 99.626 149.181 99.528 149.279 99.416C149.447 99.206 149.629 98.912 149.629 98.45C149.629 97.47 148.859 96.7 147.739 96.7H144.799V103ZM146.059 99.29V97.75H147.599C148.033 97.75 148.369 98.086 148.369 98.52C148.369 98.954 148.033 99.29 147.599 99.29H146.059ZM146.059 101.95V100.34H147.809C148.243 100.34 148.579 100.676 148.579 101.11C148.579 101.6 148.243 101.95 147.809 101.95H146.059ZM153.83 101.88C152.92 101.88 152.08 101.04 152.08 99.85C152.08 98.66 152.92 97.82 153.83 97.82C154.74 97.82 155.58 98.66 155.58 99.85C155.58 101.04 154.74 101.88 153.83 101.88ZM153.83 103.07C155.51 103.07 156.84 101.74 156.84 99.85C156.84 97.96 155.51 96.63 153.83 96.63C152.15 96.63 150.82 97.96 150.82 99.85C150.82 101.74 152.15 103.07 153.83 103.07ZM157.33 104.47H158.52V103H162.86V104.47H164.05V101.81H163.21V96.7H158.94L158.52 100.62C158.478 101.012 158.282 101.292 158.1 101.502C158.002 101.614 157.876 101.712 157.75 101.81H157.33V104.47ZM159.29 101.81L159.5 101.502C159.612 101.292 159.738 101.012 159.78 100.62L160.06 97.89H161.95V101.81H159.29ZM170.84 103H172.1V96.7H170.84V103ZM165.17 103H167.83C169.104 103 170 102.09 170 100.9C170 99.71 169.104 98.8 167.83 98.8H166.43V96.7H165.17V103ZM166.43 101.81V99.99H167.83C168.32 99.99 168.74 100.41 168.74 100.9C168.74 101.39 168.32 101.81 167.83 101.81H166.43Z" fill="#1D293C"/>
<path opacity="0.2" d="M101.5 259.5V230L398 230" stroke="#AE261E"/>
<circle cx="410" cy="230" r="6" fill="#AE261E"/>
<circle cx="410" cy="230" r="9" stroke="#AE261E" stroke-opacity="0.15" stroke-width="6"/>
<path d="M58.8849 278.5V283.78L49.9749 317H43.9249L52.7799 284H40.7349V278.5H58.8849ZM68.7566 311.17V317H62.9266V311.17H68.7566ZM85.1216 287.96C85.1216 286.237 84.8283 285.082 84.2416 284.495C83.6916 283.872 82.94 283.56 81.9866 283.56C81.0333 283.56 80.2633 283.853 79.6766 284.44C79.1266 284.99 78.8516 285.962 78.8516 287.355V291.48H73.1316V287.74C73.1316 284.623 73.8833 282.24 75.3866 280.59C76.9266 278.903 79.1816 278.06 82.1516 278.06C85.1216 278.06 87.3583 278.903 88.8616 280.59C90.4016 282.24 91.1716 284.623 91.1716 287.74C91.1716 289.757 90.8783 291.59 90.2916 293.24C89.705 294.853 88.9533 296.338 88.0366 297.695C87.1566 299.015 86.185 300.243 85.1216 301.38C84.095 302.517 83.1233 303.598 82.2066 304.625C81.3266 305.652 80.5933 306.66 80.0066 307.65C79.42 308.603 79.1266 309.612 79.1266 310.675C79.1266 311.042 79.145 311.317 79.1816 311.5H90.6216V317H73.1316V312.27C73.1316 310.4 73.425 308.75 74.0116 307.32C74.5983 305.89 75.3316 304.588 76.2116 303.415C77.1283 302.205 78.1 301.087 79.1266 300.06C80.1533 298.997 81.1066 297.878 81.9866 296.705C82.9033 295.532 83.655 294.248 84.2416 292.855C84.8283 291.462 85.1216 289.83 85.1216 287.96ZM111.398 301.655L109.528 305.175V317H103.478V278.5H109.528V295.275L117.448 278.5H123.498L115.083 295.66L123.498 317H117.283L111.398 301.655ZM135.382 278.5C138.535 278.5 140.808 279.233 142.202 280.7C143.632 282.167 144.347 284.385 144.347 287.355V288.73C144.347 290.71 144.035 292.342 143.412 293.625C142.788 294.908 141.798 295.862 140.442 296.485C142.092 297.108 143.247 298.135 143.907 299.565C144.603 300.958 144.952 302.682 144.952 304.735V307.87C144.952 310.84 144.182 313.113 142.642 314.69C141.102 316.23 138.81 317 135.767 317H126.252V278.5H135.382ZM132.302 299.675V311.5H135.767C136.793 311.5 137.563 311.225 138.077 310.675C138.627 310.125 138.902 309.135 138.902 307.705V304.35C138.902 302.553 138.59 301.325 137.967 300.665C137.38 300.005 136.39 299.675 134.997 299.675H132.302ZM132.302 284V294.175H134.667C135.803 294.175 136.683 293.882 137.307 293.295C137.967 292.708 138.297 291.645 138.297 290.105V287.96C138.297 286.567 138.04 285.558 137.527 284.935C137.05 284.312 136.28 284 135.217 284H132.302ZM146.836 278.5H165.536V284H159.211V317H153.161V284H146.836V278.5Z" fill="#0F1926"/>
<path opacity="0.6" d="M56.4628 344H57.3728V339.87C57.3728 338.61 56.3928 337.63 54.9228 337.63C53.3688 337.63 52.4728 338.47 52.4028 339.59H53.6628C53.7328 339.156 54.0828 338.82 54.9228 338.82C55.7068 338.82 56.1128 339.24 56.1128 339.87V340.08C53.0328 340.08 52.1928 340.92 52.1928 342.18C52.1928 343.3 52.9628 344.07 54.3628 344.07C54.9928 344.07 55.4548 343.902 55.7488 343.72C55.9168 343.622 56.0568 343.496 56.1828 343.37L56.4628 344ZM56.1128 341.536C56.1128 342.32 55.4968 342.95 54.4328 342.95C53.8028 342.95 53.4528 342.6 53.4528 342.25C53.4528 341.62 53.8728 341.2 56.1128 341.2V341.536ZM58.9806 344H60.2406V340.99L62.6906 344H64.2306L61.4306 340.64L63.8806 337.7H62.4106L60.2406 340.43V337.7H58.9806V344ZM64.9279 344H66.1879V340.99L68.6379 344H70.1779L67.3779 340.64L69.8279 337.7H68.3579L66.1879 340.43V337.7H64.9279V344ZM71.2252 346.24L71.3512 346.282C71.4492 346.296 71.5332 346.31 71.6452 346.31C72.6252 346.31 73.1152 345.82 73.6752 344.42L76.3352 337.7H75.0052L73.2552 342.25L71.5052 337.7H70.1752L72.6252 343.79L72.4152 344.42C72.2612 344.854 71.9392 345.19 71.2252 345.19V346.24ZM77.3146 344H78.5746V340.5L80.2546 344H81.0946L82.7746 340.5V344H84.0346V337.7H82.9146L80.6746 342.32L78.4346 337.7H77.3146V344ZM86.0591 346.24L86.1851 346.282C86.2831 346.296 86.3671 346.31 86.4791 346.31C87.4591 346.31 87.9491 345.82 88.5091 344.42L91.1691 337.7H89.8391L88.0891 342.25L86.3391 337.7H85.0091L87.4591 343.79L87.2491 344.42C87.0951 344.854 86.7731 345.19 86.0591 345.19V346.24ZM91.3086 344L91.4346 344.042C91.5326 344.056 91.6166 344.07 91.7286 344.07C92.9186 344.07 93.6606 343.3 93.7586 341.9L93.9686 338.89H96.0686V344H97.3286V337.7H92.8486L92.4986 341.9C92.4426 342.6 92.0926 342.95 91.4486 342.95H91.3086V344ZM98.5919 344H99.9919L101.322 341.9H102.582V344H103.842V337.7H100.972C99.6979 337.7 98.8019 338.61 98.8019 339.8C98.8019 340.542 99.1099 341.004 99.4319 341.298C99.6139 341.466 99.8239 341.592 100.062 341.69L98.5919 344ZM100.972 340.71C100.482 340.71 100.062 340.29 100.062 339.8C100.062 339.31 100.482 338.89 100.972 338.89H102.582V340.71H100.972ZM106.85 344H108.11V338.89H110.07V337.7H104.89V338.89H106.85V344ZM113.648 342.88C112.738 342.88 111.898 342.04 111.898 340.85C111.898 339.66 112.738 338.82 113.648 338.82C114.558 338.82 115.398 339.66 115.398 340.85C115.398 342.04 114.558 342.88 113.648 342.88ZM113.648 344.07C115.328 344.07 116.658 342.74 116.658 340.85C116.658 338.96 115.328 337.63 113.648 337.63C111.968 337.63 110.638 338.96 110.638 340.85C110.638 342.74 111.968 344.07 113.648 344.07ZM117.988 346.24H119.248V343.37C119.374 343.496 119.514 343.622 119.682 343.72C119.976 343.902 120.396 344.07 120.998 344.07C122.678 344.07 124.008 342.74 124.008 340.85C124.008 338.96 122.678 337.63 120.998 337.63C120.368 337.63 119.906 337.812 119.612 337.98C119.444 338.078 119.304 338.204 119.178 338.33L118.898 337.7H117.988V346.24ZM120.928 342.88C119.962 342.88 119.108 342.04 119.108 340.85C119.108 339.66 119.962 338.82 120.928 338.82C121.894 338.82 122.748 339.66 122.748 340.85C122.748 342.04 121.894 342.88 120.928 342.88ZM127.86 342.25H131.78V344H133.11V342.25H134.09V340.99H133.11V335.18H131.57L127.86 341.13V342.25ZM129.4 340.99L131.78 337.14V340.99H129.4ZM134.863 341.48C134.863 342.88 136.053 344.07 137.873 344.07C139.693 344.07 140.883 342.88 140.883 341.48C140.883 340.64 140.533 340.08 140.183 339.73C139.973 339.52 139.749 339.366 139.483 339.24C139.665 339.114 139.847 338.974 140.001 338.806C140.267 338.512 140.533 338.092 140.533 337.49C140.533 336.23 139.413 335.11 137.873 335.11C136.333 335.11 135.213 336.23 135.213 337.49C135.213 338.092 135.465 338.512 135.731 338.806C135.885 338.974 136.067 339.114 136.263 339.24C135.997 339.366 135.773 339.52 135.563 339.73C135.213 340.08 134.863 340.64 134.863 341.48ZM136.193 341.41C136.193 340.57 136.809 339.94 137.873 339.94C138.937 339.94 139.553 340.57 139.553 341.41C139.553 342.25 138.937 342.88 137.873 342.88C136.809 342.88 136.193 342.25 136.193 341.41ZM136.543 337.56C136.543 336.846 137.089 336.3 137.873 336.3C138.657 336.3 139.203 336.846 139.203 337.56C139.203 338.19 138.657 338.75 137.873 338.75C137.089 338.75 136.543 338.19 136.543 337.56ZM147.743 344H149.003L152.223 335.18H150.823L148.373 341.97L145.923 335.18H144.523L147.743 344Z" fill="#1D293C"/>
<path opacity="0.2" d="M827 59L576 59V79" stroke="#AE261E"/>
<circle cx="576" cy="91" r="6" fill="#AE261E"/>
<circle cx="576" cy="91" r="9" stroke="#AE261E" stroke-opacity="0.15" stroke-width="6"/>
<path d="M856.524 46.96C856.524 45.2367 856.231 44.0817 855.644 43.495C855.094 42.8717 854.342 42.56 853.389 42.56C852.436 42.56 851.666 42.8533 851.079 43.44C850.529 43.99 850.254 44.9617 850.254 46.355V48.83H844.534V46.74C844.534 43.6233 845.286 41.24 846.789 39.59C848.329 37.9033 850.584 37.06 853.554 37.06C856.524 37.06 858.761 37.9033 860.264 39.59C861.804 41.24 862.574 43.6233 862.574 46.74V47.73C862.574 51.8367 861.162 54.4767 858.339 55.65C859.879 56.31 860.961 57.3367 861.584 58.73C862.244 60.0867 862.574 61.755 862.574 63.735V66.76C862.574 69.8767 861.804 72.2783 860.264 73.965C858.761 75.615 856.524 76.44 853.554 76.44C850.584 76.44 848.329 75.615 846.789 73.965C845.286 72.2783 844.534 69.8767 844.534 66.76V63.57H850.254V67.145C850.254 68.5383 850.529 69.5283 851.079 70.115C851.666 70.665 852.436 70.94 853.389 70.94C854.342 70.94 855.094 70.6467 855.644 70.06C856.231 69.4733 856.524 68.3183 856.524 66.595V63.57C856.524 61.7733 856.212 60.5083 855.589 59.775C854.966 59.0417 853.957 58.675 852.564 58.675H850.529V53.175H852.894C854.031 53.175 854.911 52.8817 855.534 52.295C856.194 51.7083 856.524 50.645 856.524 49.105V46.96ZM872.501 70.17V76H866.671V70.17H872.501ZM880.616 42.34C881.789 42.34 882.742 42.2117 883.476 41.955C884.246 41.6983 884.869 41.35 885.346 40.91C885.822 40.47 886.207 39.9567 886.501 39.37C886.794 38.7833 887.051 38.16 887.271 37.5H891.341V76H885.291V46.63H880.616V42.34ZM902.422 42.34C903.596 42.34 904.549 42.2117 905.282 41.955C906.052 41.6983 906.676 41.35 907.152 40.91C907.629 40.47 908.014 39.9567 908.307 39.37C908.601 38.7833 908.857 38.16 909.077 37.5H913.147V76H907.097V46.63H902.422V42.34ZM941.844 64.835L945.969 37.5H954.384V76H948.664V48.39L944.484 76H938.764L934.254 48.775V76H928.974V37.5H937.389L941.844 64.835ZM966.155 48.83C966.155 47.6567 965.953 46.85 965.55 46.41C965.147 45.97 964.523 45.75 963.68 45.75H962.36V42.285H963.845C964.578 42.285 965.147 42.0833 965.55 41.68C965.953 41.2767 966.155 40.5983 966.155 39.645V38.27C966.155 37.17 965.972 36.4367 965.605 36.07C965.275 35.6667 964.798 35.465 964.175 35.465C963.552 35.465 963.057 35.6667 962.69 36.07C962.36 36.4367 962.195 37.0417 962.195 37.885V39.425H958.565V38.16C958.565 36.18 959.042 34.6583 959.995 33.595C960.948 32.5317 962.378 32 964.285 32C966.192 32 967.622 32.5317 968.575 33.595C969.528 34.6583 970.005 36.18 970.005 38.16V38.765C970.005 41.3683 969.107 43.0367 967.31 43.77C968.263 44.1733 968.942 44.815 969.345 45.695C969.785 46.575 970.005 47.6383 970.005 48.885V50.81C970.005 52.79 969.528 54.3117 968.575 55.375C967.622 56.4383 966.192 56.97 964.285 56.97C962.378 56.97 960.948 56.4383 959.995 55.375C959.042 54.3117 958.565 52.79 958.565 50.81V48.83H962.195V51.085C962.195 51.9283 962.36 52.5517 962.69 52.955C963.057 53.3217 963.552 53.505 964.175 53.505C964.798 53.505 965.275 53.3217 965.605 52.955C965.972 52.5517 966.155 51.8 966.155 50.7V48.83Z" fill="#0F1926"/>
<path opacity="0.6" d="M837.841 101.88C836.931 101.88 836.091 101.04 836.091 99.85C836.091 98.66 836.931 97.82 837.841 97.82C838.751 97.82 839.591 98.66 839.591 99.85C839.591 101.04 838.751 101.88 837.841 101.88ZM837.841 103.07C839.521 103.07 840.851 101.74 840.851 99.85C840.851 97.96 839.521 96.63 837.841 96.63C836.161 96.63 834.831 97.96 834.831 99.85C834.831 101.74 836.161 103.07 837.841 103.07ZM847.221 94.04C843.245 94.194 841.901 95.51 841.901 99.15C841.901 101.74 843.245 103.07 844.981 103.07C846.661 103.07 847.991 101.726 847.991 99.99C847.991 98.254 846.661 96.91 845.121 96.91C844.449 96.91 844.001 97.162 843.679 97.4C843.497 97.554 843.357 97.708 843.231 97.89C843.455 96.14 844.197 95.37 847.221 95.3V94.04ZM844.981 101.88C844.071 101.88 843.231 101.04 843.231 99.99C843.231 98.94 844.071 98.1 844.981 98.1C845.891 98.1 846.731 98.94 846.731 99.99C846.731 101.04 845.891 101.88 844.981 101.88ZM849.881 103H852.681C853.955 103 854.851 102.09 854.851 100.9C854.851 99.71 853.955 98.8 852.681 98.8H851.141V96.7H848.341V97.89H849.881V103ZM851.141 101.81V99.99H852.681C853.171 99.99 853.591 100.41 853.591 100.9C853.591 101.39 853.171 101.81 852.681 101.81H851.141ZM860.104 101.18C859.894 101.46 859.474 101.88 858.704 101.88C857.794 101.88 857.094 101.194 857.024 100.41H861.504L861.532 100.242C861.546 100.144 861.574 100.004 861.574 99.85C861.574 97.96 860.258 96.63 858.634 96.63C857.01 96.63 855.694 97.96 855.694 99.85C855.694 101.74 857.024 103.07 858.704 103.07C860.174 103.07 861.028 102.23 861.434 101.18H860.104ZM857.024 99.36C857.178 98.45 857.794 97.82 858.634 97.82C859.628 97.82 860.23 98.45 860.384 99.36H857.024ZM862.907 103H864.167V99.5L865.847 103H866.687L868.367 99.5V103H869.627V96.7H868.507L866.267 101.32L864.027 96.7H862.907V103ZM879.418 94.04C875.442 94.194 874.098 95.51 874.098 99.15C874.098 101.74 875.442 103.07 877.178 103.07C878.858 103.07 880.188 101.726 880.188 99.99C880.188 98.254 878.858 96.91 877.318 96.91C876.646 96.91 876.198 97.162 875.876 97.4C875.694 97.554 875.554 97.708 875.428 97.89C875.652 96.14 876.394 95.37 879.418 95.3V94.04ZM877.178 101.88C876.268 101.88 875.428 101.04 875.428 99.99C875.428 98.94 876.268 98.1 877.178 98.1C878.088 98.1 878.928 98.94 878.928 99.99C878.928 101.04 878.088 101.88 877.178 101.88ZM881.728 105.24L881.854 105.282C881.952 105.296 882.036 105.31 882.148 105.31C883.128 105.31 883.618 104.82 884.178 103.42L886.838 96.7H885.508L883.758 101.25L882.008 96.7H880.678L883.128 102.79L882.918 103.42C882.764 103.854 882.442 104.19 881.728 104.19V105.24ZM887.818 103H889.078V100.41H892.088V103H893.348V96.7H892.088V99.22H889.078V96.7H887.818V103ZM895.023 103H896.283V99.99L898.733 103H900.273L897.473 99.64L899.923 96.7H898.453L896.283 99.43V96.7H895.023V103ZM904.893 101.18C904.683 101.46 904.263 101.88 903.493 101.88C902.583 101.88 901.883 101.194 901.813 100.41H906.293L906.321 100.242C906.335 100.144 906.363 100.004 906.363 99.85C906.363 97.96 905.047 96.63 903.423 96.63C901.799 96.63 900.483 97.96 900.483 99.85C900.483 101.74 901.813 103.07 903.493 103.07C904.963 103.07 905.817 102.23 906.223 101.18H904.893ZM901.813 99.36C901.967 98.45 902.583 97.82 903.423 97.82C904.417 97.82 905.019 98.45 905.173 99.36H901.813ZM907.696 105.24H908.956V102.37C909.082 102.496 909.222 102.622 909.39 102.72C909.684 102.902 910.104 103.07 910.706 103.07C912.386 103.07 913.716 101.74 913.716 99.85C913.716 97.96 912.386 96.63 910.706 96.63C910.076 96.63 909.614 96.812 909.32 96.98C909.152 97.078 909.012 97.204 908.886 97.33L908.606 96.7H907.696V105.24ZM910.636 101.88C909.67 101.88 908.816 101.04 908.816 99.85C908.816 98.66 909.67 97.82 910.636 97.82C911.602 97.82 912.456 98.66 912.456 99.85C912.456 101.04 911.602 101.88 910.636 101.88ZM919.042 103H919.952V98.87C919.952 97.61 918.972 96.63 917.502 96.63C915.948 96.63 915.052 97.47 914.982 98.59H916.242C916.312 98.156 916.662 97.82 917.502 97.82C918.286 97.82 918.692 98.24 918.692 98.87V99.08C915.612 99.08 914.772 99.92 914.772 101.18C914.772 102.3 915.542 103.07 916.942 103.07C917.572 103.07 918.034 102.902 918.328 102.72C918.496 102.622 918.636 102.496 918.762 102.37L919.042 103ZM918.692 100.536C918.692 101.32 918.076 101.95 917.012 101.95C916.382 101.95 916.032 101.6 916.032 101.25C916.032 100.62 916.452 100.2 918.692 100.2V100.536ZM923.796 104.47H924.986V103H929.326V104.47H930.516V101.81H929.676V96.7H925.406L924.986 100.62C924.944 101.012 924.748 101.292 924.566 101.502C924.468 101.614 924.342 101.712 924.216 101.81H923.796V104.47ZM925.756 101.81L925.966 101.502C926.078 101.292 926.204 101.012 926.246 100.62L926.526 97.89H928.416V101.81H925.756ZM930.796 103L930.922 103.042C931.02 103.056 931.104 103.07 931.216 103.07C932.406 103.07 933.148 102.3 933.246 100.9L933.456 97.89H935.556V103H936.816V96.7H932.336L931.986 100.9C931.93 101.6 931.58 101.95 930.936 101.95H930.796V103ZM938.079 103H939.479L940.809 100.9H942.069V103H943.329V96.7H940.459C939.185 96.7 938.289 97.61 938.289 98.8C938.289 99.542 938.597 100.004 938.919 100.298C939.101 100.466 939.311 100.592 939.549 100.69L938.079 103ZM940.459 99.71C939.969 99.71 939.549 99.29 939.549 98.8C939.549 98.31 939.969 97.89 940.459 97.89H942.069V99.71H940.459ZM952.213 100.69C952.003 101.404 951.527 101.88 950.743 101.88C949.833 101.88 948.993 101.04 948.993 99.85C948.993 98.66 949.833 97.82 950.743 97.82C951.527 97.82 952.003 98.296 952.213 99.01H953.543C953.249 97.666 952.227 96.63 950.743 96.63C949.063 96.63 947.733 97.96 947.733 99.85C947.733 101.74 949.063 103.07 950.743 103.07C952.227 103.07 953.249 102.034 953.543 100.69H952.213ZM954.81 103H956.07V100.41H959.08V103H960.34V96.7H959.08V99.22H956.07V96.7H954.81V103ZM966.075 101.18C965.865 101.46 965.445 101.88 964.675 101.88C963.765 101.88 963.065 101.194 962.995 100.41H967.475L967.503 100.242C967.517 100.144 967.545 100.004 967.545 99.85C967.545 97.96 966.229 96.63 964.605 96.63C962.981 96.63 961.665 97.96 961.665 99.85C961.665 101.74 962.995 103.07 964.675 103.07C966.145 103.07 966.999 102.23 967.405 101.18H966.075ZM962.995 99.36C963.149 98.45 963.765 97.82 964.605 97.82C965.599 97.82 966.201 98.45 966.355 99.36H962.995ZM968.878 103H970.138V97.89H973.148V96.7H968.878V103ZM977.981 103H978.891V98.87C978.891 97.61 977.911 96.63 976.441 96.63C974.887 96.63 973.991 97.47 973.921 98.59H975.181C975.251 98.156 975.601 97.82 976.441 97.82C977.225 97.82 977.631 98.24 977.631 98.87V99.08C974.551 99.08 973.711 99.92 973.711 101.18C973.711 102.3 974.481 103.07 975.881 103.07C976.511 103.07 976.973 102.902 977.267 102.72C977.435 102.622 977.575 102.496 977.701 102.37L977.981 103ZM977.631 100.536C977.631 101.32 977.015 101.95 975.951 101.95C975.321 101.95 974.971 101.6 974.971 101.25C974.971 100.62 975.391 100.2 977.631 100.2V100.536Z" fill="#1D293C"/>
<path d="M863.719 283.34C864.893 283.34 865.846 283.212 866.579 282.955C867.349 282.698 867.973 282.35 868.449 281.91C868.926 281.47 869.311 280.957 869.604 280.37C869.898 279.783 870.154 279.16 870.374 278.5H874.444V317H868.394V287.63H863.719V283.34ZM881.401 288.07C881.401 284.807 882.153 282.332 883.656 280.645C885.159 278.922 887.488 278.06 890.641 278.06C893.611 278.06 895.848 278.903 897.351 280.59C898.891 282.24 899.661 284.623 899.661 287.74V288.73H893.941V287.355C893.941 285.962 893.648 284.99 893.061 284.44C892.511 283.853 891.759 283.56 890.806 283.56C889.743 283.56 888.918 283.89 888.331 284.55C887.744 285.21 887.451 286.457 887.451 288.29V295.33C888.514 293.057 890.384 291.92 893.061 291.92C895.298 291.92 896.966 292.672 898.066 294.175C899.203 295.678 899.771 297.86 899.771 300.72V307.76C899.771 310.877 898.983 313.278 897.406 314.965C895.829 316.615 893.556 317.44 890.586 317.44C887.616 317.44 885.343 316.615 883.766 314.965C882.189 313.278 881.401 310.877 881.401 307.76V288.07ZM890.586 297.42C889.633 297.42 888.863 297.713 888.276 298.3C887.726 298.85 887.451 299.822 887.451 301.215V308.145C887.451 309.538 887.726 310.51 888.276 311.06C888.863 311.61 889.633 311.885 890.586 311.885C891.539 311.885 892.291 311.61 892.841 311.06C893.428 310.51 893.721 309.538 893.721 308.145V301.215C893.721 299.822 893.428 298.85 892.841 298.3C892.291 297.713 891.539 297.42 890.586 297.42ZM909.148 308.145C909.148 309.538 909.423 310.528 909.973 311.115C910.559 311.665 911.329 311.94 912.283 311.94C913.236 311.94 913.988 311.665 914.538 311.115C915.124 310.528 915.418 309.538 915.418 308.145V287.355C915.418 285.962 915.124 284.99 914.538 284.44C913.988 283.853 913.236 283.56 912.283 283.56C911.329 283.56 910.559 283.853 909.973 284.44C909.423 284.99 909.148 285.962 909.148 287.355V308.145ZM903.098 287.74C903.098 284.623 903.886 282.24 905.463 280.59C907.039 278.903 909.313 278.06 912.283 278.06C915.253 278.06 917.526 278.903 919.103 280.59C920.679 282.24 921.468 284.623 921.468 287.74V307.76C921.468 310.877 920.679 313.278 919.103 314.965C917.526 316.615 915.253 317.44 912.283 317.44C909.313 317.44 907.039 316.615 905.463 314.965C903.886 313.278 903.098 310.877 903.098 307.76V287.74ZM932.234 311.555C932.931 311.555 933.499 311.518 933.939 311.445C934.416 311.372 934.801 311.207 935.094 310.95C935.388 310.657 935.589 310.253 935.699 309.74C935.846 309.19 935.938 308.475 935.974 307.595L936.964 278.5H954.069V317H947.909V284H942.629L941.969 307.265C941.859 310.785 941.108 313.297 939.714 314.8C938.358 316.303 936.176 317.055 933.169 317.055H932.234V311.555Z" fill="#0F1926"/>
<defs>
<linearGradient id="paint0_linear_257_201" x1="474" y1="352" x2="474" y2="384" gradientUnits="userSpaceOnUse">
<stop stop-opacity="0"/>
<stop offset="1" stop-opacity="0.3"/>
</linearGradient>
</defs>
</svg>
