<svg width="17" height="17" viewBox="0 0 17 17" fill="none" xmlns="http://www.w3.org/2000/svg">
<path fill-rule="evenodd" clip-rule="evenodd" d="M8.5 17C13.1944 17 17 13.1944 17 8.5C17 3.80558 13.1944 0 8.5 0C3.80558 0 0 3.80558 0 8.5C0 13.1944 3.80558 17 8.5 17ZM8.5 14C9.46135 14 10.3651 13.7534 11.1514 13.3199L9.17733 10.9072C8.96192 10.9676 8.73474 11 8.5 11C8.26524 11 8.03804 10.9676 7.82262 10.9071L5.84857 13.3199C6.63488 13.7533 7.53864 14 8.5 14ZM14 8.5C14 9.85433 13.5105 11.0943 12.6987 12.0527L10.7252 9.64064C10.8686 9.36151 10.961 9.0519 10.9901 8.72409L13.9477 7.73823C13.9822 7.98721 14 8.24152 14 8.5ZM13.3155 5.84075C12.5326 4.42592 11.1442 3.3927 9.5 3.09069V6.20802C9.82874 6.35165 10.1206 6.56394 10.3575 6.82676L13.3155 5.84075ZM6.00991 8.72407C6.03902 9.05187 6.13141 9.36147 6.27476 9.64059L4.30123 12.0527C3.4895 11.0943 3 9.85432 3 8.5C3 8.24152 3.01783 7.9872 3.05233 7.73821L6.00991 8.72407ZM6.64249 6.82675C6.87939 6.56394 7.17126 6.35165 7.5 6.20802V3.09069C5.8558 3.3927 4.46743 4.42591 3.68446 5.84074L6.64249 6.82675Z" fill="#0F1926"/>
</svg>
