<svg width="60" height="60" viewBox="0 0 60 60" fill="none" xmlns="http://www.w3.org/2000/svg">
<g opacity="0.8">
<path d="M30 5C16.195 5 5 16.1888 5 30C5 43.8 16.195 55 30 55C43.805 55 55 43.8 55 30C55 16.1888 43.805 5 30 5ZM30 47.5C20.335 47.5 12.5 39.66 12.5 30C12.5 20.33 20.335 12.5 30 12.5C39.665 12.5 47.5 20.33 47.5 30C47.5 39.66 39.665 47.5 30 47.5Z" fill="#0F1926"/>
<path fill-rule="evenodd" clip-rule="evenodd" d="M27.1353 34.095C27.4175 34.2924 27.7211 34.4614 28.0419 34.5979L26.25 46.2451H33.75L31.9581 34.5979C32.2789 34.4614 32.5824 34.2924 32.8646 34.095L41.7924 41.7874L45.7674 35.4299L34.9398 30.7742C34.9794 30.5204 35 30.2602 35 29.9951C35 29.7299 34.9794 29.4696 34.9397 29.2156L45.7674 24.5599L41.7924 18.2024L32.8643 25.895C32.5822 25.6977 32.2788 25.5288 31.9581 25.3923L33.75 13.7451H26.25L28.0419 25.3923C27.7212 25.5288 27.4177 25.6977 27.1356 25.895L18.2074 18.2024L14.2324 24.5599L25.0603 29.2156C25.0206 29.4696 25 29.7299 25 29.9951C25 30.2602 25.0206 30.5204 25.0602 30.7742L14.2324 35.4299L18.2074 41.7874L27.1353 34.095ZM30 32.5C31.3813 32.5 32.5 31.3813 32.5 30C32.5 28.6187 31.3813 27.5 30 27.5C28.6187 27.5 27.5 28.6187 27.5 30C27.5 31.3813 28.6187 32.5 30 32.5Z" fill="#465161"/>
</g>
</svg>
