<svg width="60" height="60" viewBox="0 0 60 60" fill="none" xmlns="http://www.w3.org/2000/svg">
<path d="M25.5586 4C26.6567 2.78133 28.2302 2 30 2C31.7698 2 33.3433 2.78133 34.4414 4H39.9961C41.4101 4 42.3815 5.43019 41.8555 6.74219L40 12H20L18.1445 6.74219C17.6185 5.43019 18.5899 4 20.0039 4H25.5586Z" fill="#3C444F"/>
<path d="M27.086 29.2096H31.6315C32.9951 29.2096 33.9326 29.4464 34.444 29.9199C34.9743 30.3744 35.2395 31.1983 35.2395 32.3915C35.2395 33.6036 34.9459 34.4654 34.3588 34.9767C33.7906 35.4692 32.9004 35.7154 31.6883 35.7154H27.086V29.2096Z" fill="#3C444F"/>
<path fill-rule="evenodd" clip-rule="evenodd" d="M6 42C6 28 20 16 20 16H40C40 16 54 28 54 42C54 50 48 54 44 54H16C12 54 6 50 6 42ZM36.177 42.9882V40.3177H27.086V38.3858H32.3133C34.6239 38.3858 36.338 37.8934 37.4554 36.9086C38.5918 35.9237 39.16 34.3896 39.16 32.3063C39.16 30.0524 38.6107 28.4236 37.5122 27.4198C36.4327 26.3971 34.6807 25.8857 32.2565 25.8857H23.2223V35.7154H20.8359V38.3858H23.2223V40.3177H20.8359V42.9882H23.2223V45.4882H27.086V42.9882H36.177Z" fill="#3C444F"/>
<rect x="20" y="12" width="20" height="4" fill="#68717E"/>
</svg>
