<svg width="48" height="48" viewBox="0 0 48 48" fill="none" xmlns="http://www.w3.org/2000/svg">
<circle cx="35" cy="34" r="11" stroke="#AE261E" stroke-width="3"/>
<path d="M31.56 38.9998H38.52V36.7598H35L36.92 34.7598C37.224 34.4878 37.48 34.1998 37.72 33.8958C38.12 33.3678 38.52 32.6478 38.52 31.8798C38.52 30.1198 37.24 28.8398 35 28.8398C32.84 28.8398 31.48 30.1998 31.48 32.0398L33.72 32.1998C33.72 31.3838 34.184 30.9198 35 30.9198C35.72 30.9198 36.12 31.3198 36.12 31.9598C36.12 32.3278 35.912 32.7278 35.672 33.0318C35.544 33.2078 35.4 33.3838 35.24 33.5598L31.56 37.3998V38.9998Z" fill="#AE261E"/>
<path d="M35 45H14C11.2386 45 9 42.7614 9 40V40C9 37.2386 11.2386 35 14 35H24" stroke="#AE261E" stroke-width="3"/>
<path d="M13 35L9.77627 15.6576C9.36991 13.2195 11.2501 11 13.7218 11H32.2782C34.7499 11 36.6301 13.2195 36.2237 15.6576L35 23" stroke="#AE261E" stroke-width="3" stroke-linecap="round"/>
<rect x="16" y="3" width="14" height="8" rx="4" stroke="#AE261E" stroke-width="3"/>
</svg>
