<svg width="60" height="60" viewBox="0 0 60 60" fill="none" xmlns="http://www.w3.org/2000/svg">
<path d="M56.9186 25.6975C56.8483 25.5248 56.7441 25.3679 56.612 25.2363C56.4799 25.1046 56.3228 25.0008 56.1498 24.9311C55.9781 24.8556 55.7912 24.8208 55.6038 24.8292C55.4209 24.832 55.2404 24.8708 55.0724 24.9435C54.9045 25.0161 54.7526 25.121 54.6252 25.2524C54.4979 25.3838 54.3977 25.5389 54.3304 25.709C54.263 25.8791 54.2299 26.0608 54.2327 26.2437V38.7511C54.2284 38.9379 54.2619 39.1237 54.3312 39.2972C54.4013 39.4697 54.5049 39.6266 54.6358 39.7589C54.7655 39.8902 54.9199 39.9944 55.0902 40.0654C55.2605 40.1365 55.4432 40.1729 55.6277 40.1727C55.8123 40.1725 55.9949 40.1356 56.165 40.0641C56.3351 39.9927 56.4893 39.8881 56.6187 39.7565C56.7494 39.6267 56.8516 39.471 56.9187 39.2995C56.9904 39.1273 57.0255 38.9422 57.0219 38.7557V26.2506C57.0247 26.0612 56.9895 25.8731 56.9186 25.6975Z" fill="#3C444F"/>
<path d="M5.36076 26.485C5.23218 26.3562 5.07947 26.254 4.91137 26.1842C4.74327 26.1144 4.56307 26.0785 4.38106 26.0784L4.35646 26.0795H4.35406C4.17104 26.0822 3.99035 26.1209 3.8223 26.1934C3.65426 26.266 3.50216 26.3709 3.37471 26.5023C3.24726 26.6337 3.14695 26.7889 3.07953 26.959C3.01211 27.1292 2.9789 27.311 2.98179 27.494V38.751C2.97763 38.9372 3.01153 39.1222 3.08141 39.2948C3.14998 39.4682 3.25283 39.626 3.38381 39.7588C3.51401 39.8892 3.66849 39.9927 3.83851 40.0636C4.00893 40.1355 4.19202 40.1726 4.37699 40.1726C4.56196 40.1726 4.74505 40.1355 4.91547 40.0636C5.08579 39.9916 5.24058 39.8874 5.37132 39.7566C5.50031 39.6245 5.60222 39.4684 5.67132 39.2972C5.74037 39.126 5.77424 38.9427 5.77092 38.7581V27.501C5.77525 27.3127 5.74111 27.1254 5.67059 26.9507C5.60007 26.776 5.49463 26.6176 5.36076 26.485Z" fill="#3C444F"/>
<path d="M44.3772 14.8553H24.9815C22.6242 14.863 20.3648 15.7984 18.692 17.4593L13.7994 22.3553H10.6272C10.2573 22.3553 9.90266 22.5022 9.64116 22.7637C9.37966 23.0252 9.23275 23.3799 9.23275 23.7497V42.5009C9.23198 42.6839 9.26763 42.8651 9.33765 43.0341C9.40767 43.2031 9.51064 43.3565 9.64056 43.4853C9.90269 43.7465 10.2572 43.8939 10.6273 43.8955H13.7233L18.0557 49.0963C18.6556 49.8165 19.4068 50.3959 20.2558 50.7932C21.1048 51.1906 22.0308 51.3962 22.9682 51.3955H37.5218C39.8787 51.388 42.1379 50.4525 43.8101 48.7915L48.9007 43.7008C49.4963 43.1085 49.9684 42.4039 50.2899 41.6278C50.6113 40.8518 50.7756 40.0197 50.7733 39.1797V21.2502C50.7706 19.5548 50.0957 17.9297 48.8968 16.731C47.6978 15.5323 46.0726 14.8578 44.3772 14.8553ZM47.9842 39.1799C47.9811 40.1364 47.6004 41.0529 46.9248 41.7299L41.8389 46.8182C41.273 47.3866 40.6002 47.8373 39.8592 48.1442C39.1182 48.4512 38.3237 48.6083 37.5217 48.6065H22.9682C22.4398 48.607 21.9177 48.4912 21.4391 48.2672C20.9605 48.0432 20.5371 47.7166 20.199 47.3105L15.4482 41.6057C15.3175 41.4487 15.1537 41.3226 14.9685 41.2363C14.7834 41.15 14.5814 41.1057 14.3772 41.1065H12.0217V25.1444H14.3772C14.5603 25.1452 14.7417 25.1095 14.9109 25.0395C15.0801 24.9695 15.2337 24.8665 15.3627 24.7366L20.6654 19.4338C21.231 18.8652 21.9036 18.4143 22.6444 18.1071C23.3852 17.8 24.1795 17.6427 24.9815 17.6444H44.3772C44.8522 17.6392 45.3234 17.7289 45.7633 17.9083C46.2032 18.0877 46.6029 18.3531 46.9388 18.6889C47.2748 19.0248 47.5403 19.4243 47.7198 19.8641C47.8993 20.304 47.9892 20.7752 47.9842 21.2502V39.1799Z" fill="#3C444F"/>
<path d="M25.8709 10.994C26.002 11.1239 26.1578 11.2263 26.3291 11.2952C26.4944 11.3838 26.6833 11.4186 26.8693 11.3948H40.6272C40.8135 11.4017 40.9991 11.3677 41.1709 11.2952C41.3443 11.2266 41.5022 11.1237 41.635 10.9928C41.765 10.8624 41.8686 10.7079 41.9398 10.5381C42.0109 10.3679 42.0476 10.1852 42.0476 10.0008C42.0476 9.8163 42.0109 9.63367 41.9398 9.46348C41.8342 9.20916 41.6556 8.99183 41.4266 8.83894C41.1976 8.68606 40.9284 8.60447 40.653 8.60449H26.8494C26.6711 8.6045 26.4945 8.63872 26.3291 8.70529C25.9835 8.84629 25.7079 9.11852 25.5627 9.46232C25.4913 9.63332 25.4547 9.8168 25.4549 10.0021C25.4551 10.1874 25.4921 10.3708 25.5639 10.5416C25.6349 10.7114 25.7393 10.8652 25.8709 10.994Z" fill="#3C444F"/>
<path fill-rule="evenodd" clip-rule="evenodd" d="M46.9246 41.7303C47.6001 41.0532 47.9809 40.1367 47.984 39.1803V21.2506C47.989 20.7756 47.8991 20.3043 47.7196 19.8645C47.5401 19.4247 47.2746 19.0251 46.9386 18.6893C46.6026 18.3534 46.203 18.088 45.7631 17.9087C45.3232 17.7293 44.852 17.6396 44.3769 17.6447H24.9812C24.1793 17.6431 23.385 17.8004 22.6441 18.1075C21.9033 18.4147 21.2307 18.8656 20.6652 19.4342L15.3625 24.7369C15.2335 24.8669 15.0799 24.9698 14.9107 25.0399C14.7415 25.1099 14.5601 25.1455 14.3769 25.1447H12.0215V41.1069H14.3769C14.5812 41.1061 14.7832 41.1504 14.9683 41.2367C15.1535 41.323 15.3173 41.4491 15.448 41.6061L20.1988 47.3109C20.5369 47.7169 20.9603 48.0436 21.4389 48.2676C21.9175 48.4916 22.4395 48.6074 22.968 48.6069H37.5215C38.3235 48.6086 39.118 48.4515 39.859 48.1446C40.5999 47.8376 41.2728 47.387 41.8386 46.8186L46.9246 41.7303ZM32.5766 30.7485L37.6367 31.7903C37.7625 31.8165 37.8797 31.8736 37.9777 31.9566C38.0757 32.0396 38.1515 32.1458 38.198 32.2654C38.2446 32.3851 38.2605 32.5146 38.2444 32.642C38.2282 32.7694 38.1805 32.8907 38.1055 32.995L31.2922 42.3302C31.1957 42.4609 31.0605 42.5578 30.9058 42.6072C30.751 42.6567 30.5846 42.656 30.4303 42.6054C30.2759 42.5547 30.1415 42.4567 30.0461 42.3253C29.9506 42.1938 29.8991 42.0356 29.8988 41.8731L29.9105 35.5028L24.8504 34.4622C24.7235 34.4365 24.6051 34.3792 24.5062 34.2956C24.4072 34.212 24.331 34.1049 24.2844 33.9841C24.2377 33.8642 24.2221 33.7345 24.2391 33.6071C24.2561 33.4796 24.3052 33.3585 24.3816 33.2552L31.2312 23.8755C31.2732 23.8274 31.3204 23.7842 31.3719 23.7466C31.4841 23.6664 31.6163 23.6189 31.7539 23.6095L31.8336 23.606C31.9406 23.6093 32.0458 23.6347 32.1427 23.6804C32.2395 23.7262 32.3259 23.7914 32.3965 23.8719C32.467 23.9525 32.5202 24.0467 32.5528 24.1487C32.5854 24.2508 32.5967 24.3584 32.5859 24.4649L32.5766 30.7485Z" fill="#68717E"/>
</svg>
