<svg width="17" height="17" viewBox="0 0 17 17" fill="none" xmlns="http://www.w3.org/2000/svg">
<path d="M7.4425 16.7777C7.33298 16.9182 7.16687 17 6.9912 17C6.67243 17 6.41402 16.7357 6.41402 16.4097V9.87103H2.17095C2.04021 9.87103 1.91334 9.82563 1.81112 9.74227C1.56188 9.53902 1.52094 9.16763 1.71967 8.91273L8.49497 0.222293C8.60448 0.0818217 8.77059 0 8.94626 0C9.26502 0 9.52344 0.264287 9.52344 0.5903V7.12843H13.7665C13.8973 7.12843 14.0241 7.17382 14.1264 7.25718C14.3756 7.46041 14.4166 7.83181 14.2178 8.08672L7.4425 16.7777Z" fill="#0F1926"/>
</svg>
