<svg width="18" height="18" viewBox="0 0 18 18" fill="none" xmlns="http://www.w3.org/2000/svg">
<path fill-rule="evenodd" clip-rule="evenodd" d="M9.00005 0.450195C7.6134 0.450195 6.48004 1.55891 6.48004 2.91541C6.48004 3.29287 6.56943 3.65119 6.72613 3.97193H3.17532C3.00756 3.97193 2.86226 4.08512 2.82446 4.24501L0.00912909 16.2189C-0.0153511 16.3235 0.00999534 16.4333 0.0780359 16.5174C0.146076 16.6016 0.25019 16.6502 0.359991 16.6502H17.6401C17.7499 16.6502 17.8533 16.6013 17.9214 16.5174C17.9894 16.4336 18.0155 16.3235 17.991 16.2189L15.1756 4.24501C15.1378 4.08512 14.9925 3.97193 14.8248 3.97193H11.274C11.4307 3.65119 11.5201 3.29287 11.5201 2.91541C11.5201 1.55891 10.3867 0.450195 9.00005 0.450195ZM9.00005 1.15454C9.99662 1.15454 10.8001 1.94052 10.8001 2.91541C10.8001 3.31695 10.6588 3.67764 10.4281 3.97193H7.572C7.34127 3.67764 7.20004 3.31695 7.20004 2.91541C7.20004 1.94052 8.00349 1.15454 9.00005 1.15454ZM2.98084 12.8894C2.87849 12.8894 2.7893 12.9576 2.76459 13.0548L2.32384 14.7874C2.28885 14.9249 2.39522 15.058 2.5401 15.058H15.4641C15.6076 15.058 15.7138 14.9272 15.6811 14.7904L15.2673 13.0578C15.2437 12.9592 15.1538 12.8894 15.0503 12.8894H2.98084Z" fill="#0F1926"/>
</svg>
